G75*
%MOIN*%
%OFA0B0*%
%FSLAX25Y25*%
%IPPOS*%
%LPD*%
%AMOC8*
5,1,8,0,0,1.08239X$1,22.5*
%
%ADD10C,0.00000*%
%ADD11R,0.06500X0.06500*%
%ADD12C,0.06500*%
%ADD13C,0.05315*%
%ADD14R,0.05315X0.05315*%
%ADD15C,0.05150*%
%ADD16C,0.08000*%
%ADD17C,0.08661*%
%ADD18C,0.05500*%
%ADD19C,0.03575*%
%ADD20C,0.05937*%
%ADD21C,0.01000*%
%ADD22C,0.00984*%
%ADD23C,0.01600*%
%ADD24C,0.02775*%
%ADD25C,0.01575*%
%ADD26C,0.01969*%
%ADD27C,0.03937*%
D10*
X0064492Y0011220D02*
X0001500Y0074213D01*
X0001500Y0361614D01*
X0044807Y0404921D01*
X0155043Y0404921D01*
X0198350Y0361614D01*
X0198350Y0074213D01*
X0135358Y0011220D01*
X0064492Y0011220D01*
X0044807Y0054528D02*
X0044809Y0054653D01*
X0044815Y0054778D01*
X0044825Y0054902D01*
X0044839Y0055026D01*
X0044856Y0055150D01*
X0044878Y0055273D01*
X0044904Y0055395D01*
X0044933Y0055517D01*
X0044966Y0055637D01*
X0045004Y0055756D01*
X0045044Y0055875D01*
X0045089Y0055991D01*
X0045137Y0056106D01*
X0045189Y0056220D01*
X0045245Y0056332D01*
X0045304Y0056442D01*
X0045366Y0056550D01*
X0045432Y0056657D01*
X0045501Y0056761D01*
X0045574Y0056862D01*
X0045649Y0056962D01*
X0045728Y0057059D01*
X0045810Y0057153D01*
X0045895Y0057245D01*
X0045982Y0057334D01*
X0046073Y0057420D01*
X0046166Y0057503D01*
X0046262Y0057584D01*
X0046360Y0057661D01*
X0046460Y0057735D01*
X0046563Y0057806D01*
X0046668Y0057873D01*
X0046776Y0057938D01*
X0046885Y0057998D01*
X0046996Y0058056D01*
X0047109Y0058109D01*
X0047223Y0058159D01*
X0047339Y0058206D01*
X0047456Y0058248D01*
X0047575Y0058287D01*
X0047695Y0058323D01*
X0047816Y0058354D01*
X0047938Y0058382D01*
X0048060Y0058405D01*
X0048184Y0058425D01*
X0048308Y0058441D01*
X0048432Y0058453D01*
X0048557Y0058461D01*
X0048682Y0058465D01*
X0048806Y0058465D01*
X0048931Y0058461D01*
X0049056Y0058453D01*
X0049180Y0058441D01*
X0049304Y0058425D01*
X0049428Y0058405D01*
X0049550Y0058382D01*
X0049672Y0058354D01*
X0049793Y0058323D01*
X0049913Y0058287D01*
X0050032Y0058248D01*
X0050149Y0058206D01*
X0050265Y0058159D01*
X0050379Y0058109D01*
X0050492Y0058056D01*
X0050603Y0057998D01*
X0050713Y0057938D01*
X0050820Y0057873D01*
X0050925Y0057806D01*
X0051028Y0057735D01*
X0051128Y0057661D01*
X0051226Y0057584D01*
X0051322Y0057503D01*
X0051415Y0057420D01*
X0051506Y0057334D01*
X0051593Y0057245D01*
X0051678Y0057153D01*
X0051760Y0057059D01*
X0051839Y0056962D01*
X0051914Y0056862D01*
X0051987Y0056761D01*
X0052056Y0056657D01*
X0052122Y0056550D01*
X0052184Y0056442D01*
X0052243Y0056332D01*
X0052299Y0056220D01*
X0052351Y0056106D01*
X0052399Y0055991D01*
X0052444Y0055875D01*
X0052484Y0055756D01*
X0052522Y0055637D01*
X0052555Y0055517D01*
X0052584Y0055395D01*
X0052610Y0055273D01*
X0052632Y0055150D01*
X0052649Y0055026D01*
X0052663Y0054902D01*
X0052673Y0054778D01*
X0052679Y0054653D01*
X0052681Y0054528D01*
X0052679Y0054403D01*
X0052673Y0054278D01*
X0052663Y0054154D01*
X0052649Y0054030D01*
X0052632Y0053906D01*
X0052610Y0053783D01*
X0052584Y0053661D01*
X0052555Y0053539D01*
X0052522Y0053419D01*
X0052484Y0053300D01*
X0052444Y0053181D01*
X0052399Y0053065D01*
X0052351Y0052950D01*
X0052299Y0052836D01*
X0052243Y0052724D01*
X0052184Y0052614D01*
X0052122Y0052506D01*
X0052056Y0052399D01*
X0051987Y0052295D01*
X0051914Y0052194D01*
X0051839Y0052094D01*
X0051760Y0051997D01*
X0051678Y0051903D01*
X0051593Y0051811D01*
X0051506Y0051722D01*
X0051415Y0051636D01*
X0051322Y0051553D01*
X0051226Y0051472D01*
X0051128Y0051395D01*
X0051028Y0051321D01*
X0050925Y0051250D01*
X0050820Y0051183D01*
X0050712Y0051118D01*
X0050603Y0051058D01*
X0050492Y0051000D01*
X0050379Y0050947D01*
X0050265Y0050897D01*
X0050149Y0050850D01*
X0050032Y0050808D01*
X0049913Y0050769D01*
X0049793Y0050733D01*
X0049672Y0050702D01*
X0049550Y0050674D01*
X0049428Y0050651D01*
X0049304Y0050631D01*
X0049180Y0050615D01*
X0049056Y0050603D01*
X0048931Y0050595D01*
X0048806Y0050591D01*
X0048682Y0050591D01*
X0048557Y0050595D01*
X0048432Y0050603D01*
X0048308Y0050615D01*
X0048184Y0050631D01*
X0048060Y0050651D01*
X0047938Y0050674D01*
X0047816Y0050702D01*
X0047695Y0050733D01*
X0047575Y0050769D01*
X0047456Y0050808D01*
X0047339Y0050850D01*
X0047223Y0050897D01*
X0047109Y0050947D01*
X0046996Y0051000D01*
X0046885Y0051058D01*
X0046775Y0051118D01*
X0046668Y0051183D01*
X0046563Y0051250D01*
X0046460Y0051321D01*
X0046360Y0051395D01*
X0046262Y0051472D01*
X0046166Y0051553D01*
X0046073Y0051636D01*
X0045982Y0051722D01*
X0045895Y0051811D01*
X0045810Y0051903D01*
X0045728Y0051997D01*
X0045649Y0052094D01*
X0045574Y0052194D01*
X0045501Y0052295D01*
X0045432Y0052399D01*
X0045366Y0052506D01*
X0045304Y0052614D01*
X0045245Y0052724D01*
X0045189Y0052836D01*
X0045137Y0052950D01*
X0045089Y0053065D01*
X0045044Y0053181D01*
X0045004Y0053300D01*
X0044966Y0053419D01*
X0044933Y0053539D01*
X0044904Y0053661D01*
X0044878Y0053783D01*
X0044856Y0053906D01*
X0044839Y0054030D01*
X0044825Y0054154D01*
X0044815Y0054278D01*
X0044809Y0054403D01*
X0044807Y0054528D01*
X0012327Y0174606D02*
X0012329Y0174731D01*
X0012335Y0174856D01*
X0012345Y0174980D01*
X0012359Y0175104D01*
X0012376Y0175228D01*
X0012398Y0175351D01*
X0012424Y0175473D01*
X0012453Y0175595D01*
X0012486Y0175715D01*
X0012524Y0175834D01*
X0012564Y0175953D01*
X0012609Y0176069D01*
X0012657Y0176184D01*
X0012709Y0176298D01*
X0012765Y0176410D01*
X0012824Y0176520D01*
X0012886Y0176628D01*
X0012952Y0176735D01*
X0013021Y0176839D01*
X0013094Y0176940D01*
X0013169Y0177040D01*
X0013248Y0177137D01*
X0013330Y0177231D01*
X0013415Y0177323D01*
X0013502Y0177412D01*
X0013593Y0177498D01*
X0013686Y0177581D01*
X0013782Y0177662D01*
X0013880Y0177739D01*
X0013980Y0177813D01*
X0014083Y0177884D01*
X0014188Y0177951D01*
X0014296Y0178016D01*
X0014405Y0178076D01*
X0014516Y0178134D01*
X0014629Y0178187D01*
X0014743Y0178237D01*
X0014859Y0178284D01*
X0014976Y0178326D01*
X0015095Y0178365D01*
X0015215Y0178401D01*
X0015336Y0178432D01*
X0015458Y0178460D01*
X0015580Y0178483D01*
X0015704Y0178503D01*
X0015828Y0178519D01*
X0015952Y0178531D01*
X0016077Y0178539D01*
X0016202Y0178543D01*
X0016326Y0178543D01*
X0016451Y0178539D01*
X0016576Y0178531D01*
X0016700Y0178519D01*
X0016824Y0178503D01*
X0016948Y0178483D01*
X0017070Y0178460D01*
X0017192Y0178432D01*
X0017313Y0178401D01*
X0017433Y0178365D01*
X0017552Y0178326D01*
X0017669Y0178284D01*
X0017785Y0178237D01*
X0017899Y0178187D01*
X0018012Y0178134D01*
X0018123Y0178076D01*
X0018233Y0178016D01*
X0018340Y0177951D01*
X0018445Y0177884D01*
X0018548Y0177813D01*
X0018648Y0177739D01*
X0018746Y0177662D01*
X0018842Y0177581D01*
X0018935Y0177498D01*
X0019026Y0177412D01*
X0019113Y0177323D01*
X0019198Y0177231D01*
X0019280Y0177137D01*
X0019359Y0177040D01*
X0019434Y0176940D01*
X0019507Y0176839D01*
X0019576Y0176735D01*
X0019642Y0176628D01*
X0019704Y0176520D01*
X0019763Y0176410D01*
X0019819Y0176298D01*
X0019871Y0176184D01*
X0019919Y0176069D01*
X0019964Y0175953D01*
X0020004Y0175834D01*
X0020042Y0175715D01*
X0020075Y0175595D01*
X0020104Y0175473D01*
X0020130Y0175351D01*
X0020152Y0175228D01*
X0020169Y0175104D01*
X0020183Y0174980D01*
X0020193Y0174856D01*
X0020199Y0174731D01*
X0020201Y0174606D01*
X0020199Y0174481D01*
X0020193Y0174356D01*
X0020183Y0174232D01*
X0020169Y0174108D01*
X0020152Y0173984D01*
X0020130Y0173861D01*
X0020104Y0173739D01*
X0020075Y0173617D01*
X0020042Y0173497D01*
X0020004Y0173378D01*
X0019964Y0173259D01*
X0019919Y0173143D01*
X0019871Y0173028D01*
X0019819Y0172914D01*
X0019763Y0172802D01*
X0019704Y0172692D01*
X0019642Y0172584D01*
X0019576Y0172477D01*
X0019507Y0172373D01*
X0019434Y0172272D01*
X0019359Y0172172D01*
X0019280Y0172075D01*
X0019198Y0171981D01*
X0019113Y0171889D01*
X0019026Y0171800D01*
X0018935Y0171714D01*
X0018842Y0171631D01*
X0018746Y0171550D01*
X0018648Y0171473D01*
X0018548Y0171399D01*
X0018445Y0171328D01*
X0018340Y0171261D01*
X0018232Y0171196D01*
X0018123Y0171136D01*
X0018012Y0171078D01*
X0017899Y0171025D01*
X0017785Y0170975D01*
X0017669Y0170928D01*
X0017552Y0170886D01*
X0017433Y0170847D01*
X0017313Y0170811D01*
X0017192Y0170780D01*
X0017070Y0170752D01*
X0016948Y0170729D01*
X0016824Y0170709D01*
X0016700Y0170693D01*
X0016576Y0170681D01*
X0016451Y0170673D01*
X0016326Y0170669D01*
X0016202Y0170669D01*
X0016077Y0170673D01*
X0015952Y0170681D01*
X0015828Y0170693D01*
X0015704Y0170709D01*
X0015580Y0170729D01*
X0015458Y0170752D01*
X0015336Y0170780D01*
X0015215Y0170811D01*
X0015095Y0170847D01*
X0014976Y0170886D01*
X0014859Y0170928D01*
X0014743Y0170975D01*
X0014629Y0171025D01*
X0014516Y0171078D01*
X0014405Y0171136D01*
X0014295Y0171196D01*
X0014188Y0171261D01*
X0014083Y0171328D01*
X0013980Y0171399D01*
X0013880Y0171473D01*
X0013782Y0171550D01*
X0013686Y0171631D01*
X0013593Y0171714D01*
X0013502Y0171800D01*
X0013415Y0171889D01*
X0013330Y0171981D01*
X0013248Y0172075D01*
X0013169Y0172172D01*
X0013094Y0172272D01*
X0013021Y0172373D01*
X0012952Y0172477D01*
X0012886Y0172584D01*
X0012824Y0172692D01*
X0012765Y0172802D01*
X0012709Y0172914D01*
X0012657Y0173028D01*
X0012609Y0173143D01*
X0012564Y0173259D01*
X0012524Y0173378D01*
X0012486Y0173497D01*
X0012453Y0173617D01*
X0012424Y0173739D01*
X0012398Y0173861D01*
X0012376Y0173984D01*
X0012359Y0174108D01*
X0012345Y0174232D01*
X0012335Y0174356D01*
X0012329Y0174481D01*
X0012327Y0174606D01*
X0012327Y0280906D02*
X0012329Y0281031D01*
X0012335Y0281156D01*
X0012345Y0281280D01*
X0012359Y0281404D01*
X0012376Y0281528D01*
X0012398Y0281651D01*
X0012424Y0281773D01*
X0012453Y0281895D01*
X0012486Y0282015D01*
X0012524Y0282134D01*
X0012564Y0282253D01*
X0012609Y0282369D01*
X0012657Y0282484D01*
X0012709Y0282598D01*
X0012765Y0282710D01*
X0012824Y0282820D01*
X0012886Y0282928D01*
X0012952Y0283035D01*
X0013021Y0283139D01*
X0013094Y0283240D01*
X0013169Y0283340D01*
X0013248Y0283437D01*
X0013330Y0283531D01*
X0013415Y0283623D01*
X0013502Y0283712D01*
X0013593Y0283798D01*
X0013686Y0283881D01*
X0013782Y0283962D01*
X0013880Y0284039D01*
X0013980Y0284113D01*
X0014083Y0284184D01*
X0014188Y0284251D01*
X0014296Y0284316D01*
X0014405Y0284376D01*
X0014516Y0284434D01*
X0014629Y0284487D01*
X0014743Y0284537D01*
X0014859Y0284584D01*
X0014976Y0284626D01*
X0015095Y0284665D01*
X0015215Y0284701D01*
X0015336Y0284732D01*
X0015458Y0284760D01*
X0015580Y0284783D01*
X0015704Y0284803D01*
X0015828Y0284819D01*
X0015952Y0284831D01*
X0016077Y0284839D01*
X0016202Y0284843D01*
X0016326Y0284843D01*
X0016451Y0284839D01*
X0016576Y0284831D01*
X0016700Y0284819D01*
X0016824Y0284803D01*
X0016948Y0284783D01*
X0017070Y0284760D01*
X0017192Y0284732D01*
X0017313Y0284701D01*
X0017433Y0284665D01*
X0017552Y0284626D01*
X0017669Y0284584D01*
X0017785Y0284537D01*
X0017899Y0284487D01*
X0018012Y0284434D01*
X0018123Y0284376D01*
X0018233Y0284316D01*
X0018340Y0284251D01*
X0018445Y0284184D01*
X0018548Y0284113D01*
X0018648Y0284039D01*
X0018746Y0283962D01*
X0018842Y0283881D01*
X0018935Y0283798D01*
X0019026Y0283712D01*
X0019113Y0283623D01*
X0019198Y0283531D01*
X0019280Y0283437D01*
X0019359Y0283340D01*
X0019434Y0283240D01*
X0019507Y0283139D01*
X0019576Y0283035D01*
X0019642Y0282928D01*
X0019704Y0282820D01*
X0019763Y0282710D01*
X0019819Y0282598D01*
X0019871Y0282484D01*
X0019919Y0282369D01*
X0019964Y0282253D01*
X0020004Y0282134D01*
X0020042Y0282015D01*
X0020075Y0281895D01*
X0020104Y0281773D01*
X0020130Y0281651D01*
X0020152Y0281528D01*
X0020169Y0281404D01*
X0020183Y0281280D01*
X0020193Y0281156D01*
X0020199Y0281031D01*
X0020201Y0280906D01*
X0020199Y0280781D01*
X0020193Y0280656D01*
X0020183Y0280532D01*
X0020169Y0280408D01*
X0020152Y0280284D01*
X0020130Y0280161D01*
X0020104Y0280039D01*
X0020075Y0279917D01*
X0020042Y0279797D01*
X0020004Y0279678D01*
X0019964Y0279559D01*
X0019919Y0279443D01*
X0019871Y0279328D01*
X0019819Y0279214D01*
X0019763Y0279102D01*
X0019704Y0278992D01*
X0019642Y0278884D01*
X0019576Y0278777D01*
X0019507Y0278673D01*
X0019434Y0278572D01*
X0019359Y0278472D01*
X0019280Y0278375D01*
X0019198Y0278281D01*
X0019113Y0278189D01*
X0019026Y0278100D01*
X0018935Y0278014D01*
X0018842Y0277931D01*
X0018746Y0277850D01*
X0018648Y0277773D01*
X0018548Y0277699D01*
X0018445Y0277628D01*
X0018340Y0277561D01*
X0018232Y0277496D01*
X0018123Y0277436D01*
X0018012Y0277378D01*
X0017899Y0277325D01*
X0017785Y0277275D01*
X0017669Y0277228D01*
X0017552Y0277186D01*
X0017433Y0277147D01*
X0017313Y0277111D01*
X0017192Y0277080D01*
X0017070Y0277052D01*
X0016948Y0277029D01*
X0016824Y0277009D01*
X0016700Y0276993D01*
X0016576Y0276981D01*
X0016451Y0276973D01*
X0016326Y0276969D01*
X0016202Y0276969D01*
X0016077Y0276973D01*
X0015952Y0276981D01*
X0015828Y0276993D01*
X0015704Y0277009D01*
X0015580Y0277029D01*
X0015458Y0277052D01*
X0015336Y0277080D01*
X0015215Y0277111D01*
X0015095Y0277147D01*
X0014976Y0277186D01*
X0014859Y0277228D01*
X0014743Y0277275D01*
X0014629Y0277325D01*
X0014516Y0277378D01*
X0014405Y0277436D01*
X0014295Y0277496D01*
X0014188Y0277561D01*
X0014083Y0277628D01*
X0013980Y0277699D01*
X0013880Y0277773D01*
X0013782Y0277850D01*
X0013686Y0277931D01*
X0013593Y0278014D01*
X0013502Y0278100D01*
X0013415Y0278189D01*
X0013330Y0278281D01*
X0013248Y0278375D01*
X0013169Y0278472D01*
X0013094Y0278572D01*
X0013021Y0278673D01*
X0012952Y0278777D01*
X0012886Y0278884D01*
X0012824Y0278992D01*
X0012765Y0279102D01*
X0012709Y0279214D01*
X0012657Y0279328D01*
X0012609Y0279443D01*
X0012564Y0279559D01*
X0012524Y0279678D01*
X0012486Y0279797D01*
X0012453Y0279917D01*
X0012424Y0280039D01*
X0012398Y0280161D01*
X0012376Y0280284D01*
X0012359Y0280408D01*
X0012345Y0280532D01*
X0012335Y0280656D01*
X0012329Y0280781D01*
X0012327Y0280906D01*
X0147169Y0054528D02*
X0147171Y0054653D01*
X0147177Y0054778D01*
X0147187Y0054902D01*
X0147201Y0055026D01*
X0147218Y0055150D01*
X0147240Y0055273D01*
X0147266Y0055395D01*
X0147295Y0055517D01*
X0147328Y0055637D01*
X0147366Y0055756D01*
X0147406Y0055875D01*
X0147451Y0055991D01*
X0147499Y0056106D01*
X0147551Y0056220D01*
X0147607Y0056332D01*
X0147666Y0056442D01*
X0147728Y0056550D01*
X0147794Y0056657D01*
X0147863Y0056761D01*
X0147936Y0056862D01*
X0148011Y0056962D01*
X0148090Y0057059D01*
X0148172Y0057153D01*
X0148257Y0057245D01*
X0148344Y0057334D01*
X0148435Y0057420D01*
X0148528Y0057503D01*
X0148624Y0057584D01*
X0148722Y0057661D01*
X0148822Y0057735D01*
X0148925Y0057806D01*
X0149030Y0057873D01*
X0149138Y0057938D01*
X0149247Y0057998D01*
X0149358Y0058056D01*
X0149471Y0058109D01*
X0149585Y0058159D01*
X0149701Y0058206D01*
X0149818Y0058248D01*
X0149937Y0058287D01*
X0150057Y0058323D01*
X0150178Y0058354D01*
X0150300Y0058382D01*
X0150422Y0058405D01*
X0150546Y0058425D01*
X0150670Y0058441D01*
X0150794Y0058453D01*
X0150919Y0058461D01*
X0151044Y0058465D01*
X0151168Y0058465D01*
X0151293Y0058461D01*
X0151418Y0058453D01*
X0151542Y0058441D01*
X0151666Y0058425D01*
X0151790Y0058405D01*
X0151912Y0058382D01*
X0152034Y0058354D01*
X0152155Y0058323D01*
X0152275Y0058287D01*
X0152394Y0058248D01*
X0152511Y0058206D01*
X0152627Y0058159D01*
X0152741Y0058109D01*
X0152854Y0058056D01*
X0152965Y0057998D01*
X0153075Y0057938D01*
X0153182Y0057873D01*
X0153287Y0057806D01*
X0153390Y0057735D01*
X0153490Y0057661D01*
X0153588Y0057584D01*
X0153684Y0057503D01*
X0153777Y0057420D01*
X0153868Y0057334D01*
X0153955Y0057245D01*
X0154040Y0057153D01*
X0154122Y0057059D01*
X0154201Y0056962D01*
X0154276Y0056862D01*
X0154349Y0056761D01*
X0154418Y0056657D01*
X0154484Y0056550D01*
X0154546Y0056442D01*
X0154605Y0056332D01*
X0154661Y0056220D01*
X0154713Y0056106D01*
X0154761Y0055991D01*
X0154806Y0055875D01*
X0154846Y0055756D01*
X0154884Y0055637D01*
X0154917Y0055517D01*
X0154946Y0055395D01*
X0154972Y0055273D01*
X0154994Y0055150D01*
X0155011Y0055026D01*
X0155025Y0054902D01*
X0155035Y0054778D01*
X0155041Y0054653D01*
X0155043Y0054528D01*
X0155041Y0054403D01*
X0155035Y0054278D01*
X0155025Y0054154D01*
X0155011Y0054030D01*
X0154994Y0053906D01*
X0154972Y0053783D01*
X0154946Y0053661D01*
X0154917Y0053539D01*
X0154884Y0053419D01*
X0154846Y0053300D01*
X0154806Y0053181D01*
X0154761Y0053065D01*
X0154713Y0052950D01*
X0154661Y0052836D01*
X0154605Y0052724D01*
X0154546Y0052614D01*
X0154484Y0052506D01*
X0154418Y0052399D01*
X0154349Y0052295D01*
X0154276Y0052194D01*
X0154201Y0052094D01*
X0154122Y0051997D01*
X0154040Y0051903D01*
X0153955Y0051811D01*
X0153868Y0051722D01*
X0153777Y0051636D01*
X0153684Y0051553D01*
X0153588Y0051472D01*
X0153490Y0051395D01*
X0153390Y0051321D01*
X0153287Y0051250D01*
X0153182Y0051183D01*
X0153074Y0051118D01*
X0152965Y0051058D01*
X0152854Y0051000D01*
X0152741Y0050947D01*
X0152627Y0050897D01*
X0152511Y0050850D01*
X0152394Y0050808D01*
X0152275Y0050769D01*
X0152155Y0050733D01*
X0152034Y0050702D01*
X0151912Y0050674D01*
X0151790Y0050651D01*
X0151666Y0050631D01*
X0151542Y0050615D01*
X0151418Y0050603D01*
X0151293Y0050595D01*
X0151168Y0050591D01*
X0151044Y0050591D01*
X0150919Y0050595D01*
X0150794Y0050603D01*
X0150670Y0050615D01*
X0150546Y0050631D01*
X0150422Y0050651D01*
X0150300Y0050674D01*
X0150178Y0050702D01*
X0150057Y0050733D01*
X0149937Y0050769D01*
X0149818Y0050808D01*
X0149701Y0050850D01*
X0149585Y0050897D01*
X0149471Y0050947D01*
X0149358Y0051000D01*
X0149247Y0051058D01*
X0149137Y0051118D01*
X0149030Y0051183D01*
X0148925Y0051250D01*
X0148822Y0051321D01*
X0148722Y0051395D01*
X0148624Y0051472D01*
X0148528Y0051553D01*
X0148435Y0051636D01*
X0148344Y0051722D01*
X0148257Y0051811D01*
X0148172Y0051903D01*
X0148090Y0051997D01*
X0148011Y0052094D01*
X0147936Y0052194D01*
X0147863Y0052295D01*
X0147794Y0052399D01*
X0147728Y0052506D01*
X0147666Y0052614D01*
X0147607Y0052724D01*
X0147551Y0052836D01*
X0147499Y0052950D01*
X0147451Y0053065D01*
X0147406Y0053181D01*
X0147366Y0053300D01*
X0147328Y0053419D01*
X0147295Y0053539D01*
X0147266Y0053661D01*
X0147240Y0053783D01*
X0147218Y0053906D01*
X0147201Y0054030D01*
X0147187Y0054154D01*
X0147177Y0054278D01*
X0147171Y0054403D01*
X0147169Y0054528D01*
X0179650Y0174606D02*
X0179652Y0174731D01*
X0179658Y0174856D01*
X0179668Y0174980D01*
X0179682Y0175104D01*
X0179699Y0175228D01*
X0179721Y0175351D01*
X0179747Y0175473D01*
X0179776Y0175595D01*
X0179809Y0175715D01*
X0179847Y0175834D01*
X0179887Y0175953D01*
X0179932Y0176069D01*
X0179980Y0176184D01*
X0180032Y0176298D01*
X0180088Y0176410D01*
X0180147Y0176520D01*
X0180209Y0176628D01*
X0180275Y0176735D01*
X0180344Y0176839D01*
X0180417Y0176940D01*
X0180492Y0177040D01*
X0180571Y0177137D01*
X0180653Y0177231D01*
X0180738Y0177323D01*
X0180825Y0177412D01*
X0180916Y0177498D01*
X0181009Y0177581D01*
X0181105Y0177662D01*
X0181203Y0177739D01*
X0181303Y0177813D01*
X0181406Y0177884D01*
X0181511Y0177951D01*
X0181619Y0178016D01*
X0181728Y0178076D01*
X0181839Y0178134D01*
X0181952Y0178187D01*
X0182066Y0178237D01*
X0182182Y0178284D01*
X0182299Y0178326D01*
X0182418Y0178365D01*
X0182538Y0178401D01*
X0182659Y0178432D01*
X0182781Y0178460D01*
X0182903Y0178483D01*
X0183027Y0178503D01*
X0183151Y0178519D01*
X0183275Y0178531D01*
X0183400Y0178539D01*
X0183525Y0178543D01*
X0183649Y0178543D01*
X0183774Y0178539D01*
X0183899Y0178531D01*
X0184023Y0178519D01*
X0184147Y0178503D01*
X0184271Y0178483D01*
X0184393Y0178460D01*
X0184515Y0178432D01*
X0184636Y0178401D01*
X0184756Y0178365D01*
X0184875Y0178326D01*
X0184992Y0178284D01*
X0185108Y0178237D01*
X0185222Y0178187D01*
X0185335Y0178134D01*
X0185446Y0178076D01*
X0185556Y0178016D01*
X0185663Y0177951D01*
X0185768Y0177884D01*
X0185871Y0177813D01*
X0185971Y0177739D01*
X0186069Y0177662D01*
X0186165Y0177581D01*
X0186258Y0177498D01*
X0186349Y0177412D01*
X0186436Y0177323D01*
X0186521Y0177231D01*
X0186603Y0177137D01*
X0186682Y0177040D01*
X0186757Y0176940D01*
X0186830Y0176839D01*
X0186899Y0176735D01*
X0186965Y0176628D01*
X0187027Y0176520D01*
X0187086Y0176410D01*
X0187142Y0176298D01*
X0187194Y0176184D01*
X0187242Y0176069D01*
X0187287Y0175953D01*
X0187327Y0175834D01*
X0187365Y0175715D01*
X0187398Y0175595D01*
X0187427Y0175473D01*
X0187453Y0175351D01*
X0187475Y0175228D01*
X0187492Y0175104D01*
X0187506Y0174980D01*
X0187516Y0174856D01*
X0187522Y0174731D01*
X0187524Y0174606D01*
X0187522Y0174481D01*
X0187516Y0174356D01*
X0187506Y0174232D01*
X0187492Y0174108D01*
X0187475Y0173984D01*
X0187453Y0173861D01*
X0187427Y0173739D01*
X0187398Y0173617D01*
X0187365Y0173497D01*
X0187327Y0173378D01*
X0187287Y0173259D01*
X0187242Y0173143D01*
X0187194Y0173028D01*
X0187142Y0172914D01*
X0187086Y0172802D01*
X0187027Y0172692D01*
X0186965Y0172584D01*
X0186899Y0172477D01*
X0186830Y0172373D01*
X0186757Y0172272D01*
X0186682Y0172172D01*
X0186603Y0172075D01*
X0186521Y0171981D01*
X0186436Y0171889D01*
X0186349Y0171800D01*
X0186258Y0171714D01*
X0186165Y0171631D01*
X0186069Y0171550D01*
X0185971Y0171473D01*
X0185871Y0171399D01*
X0185768Y0171328D01*
X0185663Y0171261D01*
X0185555Y0171196D01*
X0185446Y0171136D01*
X0185335Y0171078D01*
X0185222Y0171025D01*
X0185108Y0170975D01*
X0184992Y0170928D01*
X0184875Y0170886D01*
X0184756Y0170847D01*
X0184636Y0170811D01*
X0184515Y0170780D01*
X0184393Y0170752D01*
X0184271Y0170729D01*
X0184147Y0170709D01*
X0184023Y0170693D01*
X0183899Y0170681D01*
X0183774Y0170673D01*
X0183649Y0170669D01*
X0183525Y0170669D01*
X0183400Y0170673D01*
X0183275Y0170681D01*
X0183151Y0170693D01*
X0183027Y0170709D01*
X0182903Y0170729D01*
X0182781Y0170752D01*
X0182659Y0170780D01*
X0182538Y0170811D01*
X0182418Y0170847D01*
X0182299Y0170886D01*
X0182182Y0170928D01*
X0182066Y0170975D01*
X0181952Y0171025D01*
X0181839Y0171078D01*
X0181728Y0171136D01*
X0181618Y0171196D01*
X0181511Y0171261D01*
X0181406Y0171328D01*
X0181303Y0171399D01*
X0181203Y0171473D01*
X0181105Y0171550D01*
X0181009Y0171631D01*
X0180916Y0171714D01*
X0180825Y0171800D01*
X0180738Y0171889D01*
X0180653Y0171981D01*
X0180571Y0172075D01*
X0180492Y0172172D01*
X0180417Y0172272D01*
X0180344Y0172373D01*
X0180275Y0172477D01*
X0180209Y0172584D01*
X0180147Y0172692D01*
X0180088Y0172802D01*
X0180032Y0172914D01*
X0179980Y0173028D01*
X0179932Y0173143D01*
X0179887Y0173259D01*
X0179847Y0173378D01*
X0179809Y0173497D01*
X0179776Y0173617D01*
X0179747Y0173739D01*
X0179721Y0173861D01*
X0179699Y0173984D01*
X0179682Y0174108D01*
X0179668Y0174232D01*
X0179658Y0174356D01*
X0179652Y0174481D01*
X0179650Y0174606D01*
X0179650Y0280906D02*
X0179652Y0281031D01*
X0179658Y0281156D01*
X0179668Y0281280D01*
X0179682Y0281404D01*
X0179699Y0281528D01*
X0179721Y0281651D01*
X0179747Y0281773D01*
X0179776Y0281895D01*
X0179809Y0282015D01*
X0179847Y0282134D01*
X0179887Y0282253D01*
X0179932Y0282369D01*
X0179980Y0282484D01*
X0180032Y0282598D01*
X0180088Y0282710D01*
X0180147Y0282820D01*
X0180209Y0282928D01*
X0180275Y0283035D01*
X0180344Y0283139D01*
X0180417Y0283240D01*
X0180492Y0283340D01*
X0180571Y0283437D01*
X0180653Y0283531D01*
X0180738Y0283623D01*
X0180825Y0283712D01*
X0180916Y0283798D01*
X0181009Y0283881D01*
X0181105Y0283962D01*
X0181203Y0284039D01*
X0181303Y0284113D01*
X0181406Y0284184D01*
X0181511Y0284251D01*
X0181619Y0284316D01*
X0181728Y0284376D01*
X0181839Y0284434D01*
X0181952Y0284487D01*
X0182066Y0284537D01*
X0182182Y0284584D01*
X0182299Y0284626D01*
X0182418Y0284665D01*
X0182538Y0284701D01*
X0182659Y0284732D01*
X0182781Y0284760D01*
X0182903Y0284783D01*
X0183027Y0284803D01*
X0183151Y0284819D01*
X0183275Y0284831D01*
X0183400Y0284839D01*
X0183525Y0284843D01*
X0183649Y0284843D01*
X0183774Y0284839D01*
X0183899Y0284831D01*
X0184023Y0284819D01*
X0184147Y0284803D01*
X0184271Y0284783D01*
X0184393Y0284760D01*
X0184515Y0284732D01*
X0184636Y0284701D01*
X0184756Y0284665D01*
X0184875Y0284626D01*
X0184992Y0284584D01*
X0185108Y0284537D01*
X0185222Y0284487D01*
X0185335Y0284434D01*
X0185446Y0284376D01*
X0185556Y0284316D01*
X0185663Y0284251D01*
X0185768Y0284184D01*
X0185871Y0284113D01*
X0185971Y0284039D01*
X0186069Y0283962D01*
X0186165Y0283881D01*
X0186258Y0283798D01*
X0186349Y0283712D01*
X0186436Y0283623D01*
X0186521Y0283531D01*
X0186603Y0283437D01*
X0186682Y0283340D01*
X0186757Y0283240D01*
X0186830Y0283139D01*
X0186899Y0283035D01*
X0186965Y0282928D01*
X0187027Y0282820D01*
X0187086Y0282710D01*
X0187142Y0282598D01*
X0187194Y0282484D01*
X0187242Y0282369D01*
X0187287Y0282253D01*
X0187327Y0282134D01*
X0187365Y0282015D01*
X0187398Y0281895D01*
X0187427Y0281773D01*
X0187453Y0281651D01*
X0187475Y0281528D01*
X0187492Y0281404D01*
X0187506Y0281280D01*
X0187516Y0281156D01*
X0187522Y0281031D01*
X0187524Y0280906D01*
X0187522Y0280781D01*
X0187516Y0280656D01*
X0187506Y0280532D01*
X0187492Y0280408D01*
X0187475Y0280284D01*
X0187453Y0280161D01*
X0187427Y0280039D01*
X0187398Y0279917D01*
X0187365Y0279797D01*
X0187327Y0279678D01*
X0187287Y0279559D01*
X0187242Y0279443D01*
X0187194Y0279328D01*
X0187142Y0279214D01*
X0187086Y0279102D01*
X0187027Y0278992D01*
X0186965Y0278884D01*
X0186899Y0278777D01*
X0186830Y0278673D01*
X0186757Y0278572D01*
X0186682Y0278472D01*
X0186603Y0278375D01*
X0186521Y0278281D01*
X0186436Y0278189D01*
X0186349Y0278100D01*
X0186258Y0278014D01*
X0186165Y0277931D01*
X0186069Y0277850D01*
X0185971Y0277773D01*
X0185871Y0277699D01*
X0185768Y0277628D01*
X0185663Y0277561D01*
X0185555Y0277496D01*
X0185446Y0277436D01*
X0185335Y0277378D01*
X0185222Y0277325D01*
X0185108Y0277275D01*
X0184992Y0277228D01*
X0184875Y0277186D01*
X0184756Y0277147D01*
X0184636Y0277111D01*
X0184515Y0277080D01*
X0184393Y0277052D01*
X0184271Y0277029D01*
X0184147Y0277009D01*
X0184023Y0276993D01*
X0183899Y0276981D01*
X0183774Y0276973D01*
X0183649Y0276969D01*
X0183525Y0276969D01*
X0183400Y0276973D01*
X0183275Y0276981D01*
X0183151Y0276993D01*
X0183027Y0277009D01*
X0182903Y0277029D01*
X0182781Y0277052D01*
X0182659Y0277080D01*
X0182538Y0277111D01*
X0182418Y0277147D01*
X0182299Y0277186D01*
X0182182Y0277228D01*
X0182066Y0277275D01*
X0181952Y0277325D01*
X0181839Y0277378D01*
X0181728Y0277436D01*
X0181618Y0277496D01*
X0181511Y0277561D01*
X0181406Y0277628D01*
X0181303Y0277699D01*
X0181203Y0277773D01*
X0181105Y0277850D01*
X0181009Y0277931D01*
X0180916Y0278014D01*
X0180825Y0278100D01*
X0180738Y0278189D01*
X0180653Y0278281D01*
X0180571Y0278375D01*
X0180492Y0278472D01*
X0180417Y0278572D01*
X0180344Y0278673D01*
X0180275Y0278777D01*
X0180209Y0278884D01*
X0180147Y0278992D01*
X0180088Y0279102D01*
X0180032Y0279214D01*
X0179980Y0279328D01*
X0179932Y0279443D01*
X0179887Y0279559D01*
X0179847Y0279678D01*
X0179809Y0279797D01*
X0179776Y0279917D01*
X0179747Y0280039D01*
X0179721Y0280161D01*
X0179699Y0280284D01*
X0179682Y0280408D01*
X0179668Y0280532D01*
X0179658Y0280656D01*
X0179652Y0280781D01*
X0179650Y0280906D01*
D11*
X0152169Y0164764D03*
X0129925Y0025709D03*
X0099925Y0025000D03*
X0069925Y0165728D03*
X0047681Y0164764D03*
X0031028Y0301339D03*
D12*
X0031028Y0311339D03*
X0031028Y0321339D03*
X0031028Y0331339D03*
X0057681Y0164764D03*
X0069925Y0155728D03*
X0069925Y0145728D03*
X0069925Y0135728D03*
X0069925Y0125728D03*
X0069925Y0115728D03*
X0069925Y0105728D03*
X0069925Y0095728D03*
X0069925Y0085728D03*
X0069925Y0075728D03*
X0069925Y0065728D03*
X0069925Y0055728D03*
X0069925Y0045728D03*
X0069925Y0035728D03*
X0069925Y0025728D03*
X0091925Y0025000D03*
X0107925Y0025000D03*
X0129925Y0035709D03*
X0129925Y0045709D03*
X0129925Y0055709D03*
X0129925Y0065709D03*
X0129925Y0075709D03*
X0129925Y0085709D03*
X0129925Y0095709D03*
X0129925Y0105709D03*
X0129925Y0115709D03*
X0129925Y0125709D03*
X0129925Y0135709D03*
X0129925Y0145709D03*
X0129925Y0155709D03*
X0129925Y0165709D03*
X0142169Y0164764D03*
D13*
X0164728Y0136220D03*
X0184728Y0136220D03*
X0035122Y0136220D03*
X0015122Y0136220D03*
D14*
X0025122Y0146063D03*
X0174728Y0146063D03*
D15*
X0175791Y0351890D03*
X0175791Y0367402D03*
X0165791Y0367402D03*
X0165791Y0351890D03*
X0128547Y0371575D03*
X0128547Y0387087D03*
X0118547Y0387087D03*
X0118547Y0371575D03*
X0081303Y0371575D03*
X0081303Y0387087D03*
X0071303Y0387087D03*
X0071303Y0371575D03*
X0034059Y0367402D03*
X0034059Y0351890D03*
X0024059Y0351890D03*
X0024059Y0367402D03*
D16*
X0081028Y0083134D02*
X0081028Y0075134D01*
X0095925Y0065354D02*
X0103925Y0065354D01*
D17*
X0104256Y0088976D02*
X0095594Y0088976D01*
D18*
X0083525Y0027750D02*
X0083525Y0022250D01*
X0116325Y0022250D02*
X0116325Y0027750D01*
D19*
X0089098Y0168701D03*
D20*
X0033980Y0102756D03*
X0033980Y0077165D03*
X0016264Y0077165D03*
X0016264Y0102756D03*
X0165870Y0102756D03*
X0165870Y0077165D03*
X0183587Y0077165D03*
X0183587Y0102756D03*
D21*
X0043840Y0052159D02*
X0027490Y0052159D01*
X0028489Y0051161D02*
X0044422Y0051161D01*
X0044135Y0051448D02*
X0045664Y0049918D01*
X0047663Y0049091D01*
X0049826Y0049091D01*
X0051824Y0049918D01*
X0053353Y0051448D01*
X0054181Y0053446D01*
X0054181Y0055609D01*
X0053353Y0057607D01*
X0051824Y0059137D01*
X0049826Y0059965D01*
X0047663Y0059965D01*
X0045664Y0059137D01*
X0044135Y0057607D01*
X0043307Y0055609D01*
X0043307Y0053446D01*
X0044135Y0051448D01*
X0045420Y0050162D02*
X0029487Y0050162D01*
X0030486Y0049164D02*
X0047486Y0049164D01*
X0050003Y0049164D02*
X0057683Y0049164D01*
X0057683Y0050162D02*
X0052068Y0050162D01*
X0053067Y0051161D02*
X0057683Y0051161D01*
X0057683Y0052159D02*
X0053648Y0052159D01*
X0054062Y0053158D02*
X0057683Y0053158D01*
X0057683Y0054156D02*
X0054181Y0054156D01*
X0054181Y0055155D02*
X0057683Y0055155D01*
X0057683Y0056153D02*
X0053956Y0056153D01*
X0053542Y0057152D02*
X0058680Y0057152D01*
X0058789Y0057261D02*
X0057683Y0056156D01*
X0057683Y0026187D01*
X0058789Y0025081D01*
X0068632Y0015239D01*
X0133187Y0015239D01*
X0141061Y0023113D01*
X0175510Y0057561D01*
X0176616Y0058667D01*
X0176616Y0061602D01*
X0176628Y0061615D01*
X0176628Y0064721D01*
X0176837Y0064930D01*
X0177216Y0065844D01*
X0177216Y0066833D01*
X0176837Y0067748D01*
X0176137Y0068447D01*
X0175223Y0068826D01*
X0174234Y0068826D01*
X0173319Y0068447D01*
X0172620Y0067748D01*
X0172241Y0066833D01*
X0172241Y0065844D01*
X0172620Y0064930D01*
X0172828Y0064721D01*
X0172828Y0061615D01*
X0172841Y0061602D01*
X0172841Y0060231D01*
X0138392Y0025782D01*
X0131624Y0019013D01*
X0118533Y0019013D01*
X0119589Y0020069D01*
X0120175Y0021484D01*
X0120175Y0028516D01*
X0119589Y0029931D01*
X0118506Y0031014D01*
X0117091Y0031600D01*
X0115559Y0031600D01*
X0114144Y0031014D01*
X0113061Y0029931D01*
X0112475Y0028516D01*
X0112475Y0021484D01*
X0113061Y0020069D01*
X0114117Y0019013D01*
X0085733Y0019013D01*
X0086789Y0020069D01*
X0087375Y0021484D01*
X0087375Y0028516D01*
X0086789Y0029931D01*
X0085706Y0031014D01*
X0084291Y0031600D01*
X0082759Y0031600D01*
X0081344Y0031014D01*
X0080261Y0029931D01*
X0079675Y0028516D01*
X0079675Y0021484D01*
X0080261Y0020069D01*
X0081317Y0019013D01*
X0070195Y0019013D01*
X0061458Y0027750D01*
X0061458Y0054592D01*
X0068483Y0061617D01*
X0069060Y0061378D01*
X0070790Y0061378D01*
X0072389Y0062041D01*
X0073613Y0063264D01*
X0074275Y0064863D01*
X0074275Y0066594D01*
X0073613Y0068192D01*
X0072389Y0069416D01*
X0070790Y0070078D01*
X0069060Y0070078D01*
X0067461Y0069416D01*
X0066237Y0068192D01*
X0065575Y0066594D01*
X0065575Y0064863D01*
X0065814Y0064286D01*
X0058789Y0057261D01*
X0058789Y0057261D01*
X0059678Y0058151D02*
X0052810Y0058151D01*
X0051794Y0059149D02*
X0060677Y0059149D01*
X0061675Y0060148D02*
X0019502Y0060148D01*
X0018504Y0061146D02*
X0062674Y0061146D01*
X0063672Y0062145D02*
X0017505Y0062145D01*
X0016507Y0063143D02*
X0064671Y0063143D01*
X0065669Y0064142D02*
X0015508Y0064142D01*
X0014510Y0065140D02*
X0065575Y0065140D01*
X0065575Y0066139D02*
X0013511Y0066139D01*
X0012512Y0067137D02*
X0065800Y0067137D01*
X0066214Y0068136D02*
X0011514Y0068136D01*
X0010515Y0069134D02*
X0067179Y0069134D01*
X0067461Y0072041D02*
X0069060Y0071378D01*
X0070790Y0071378D01*
X0072389Y0072041D01*
X0073613Y0073264D01*
X0074275Y0074863D01*
X0074275Y0076594D01*
X0073613Y0078192D01*
X0072389Y0079416D01*
X0070790Y0080078D01*
X0069060Y0080078D01*
X0067461Y0079416D01*
X0066237Y0078192D01*
X0065575Y0076594D01*
X0065575Y0074863D01*
X0066237Y0073264D01*
X0067461Y0072041D01*
X0067372Y0072130D02*
X0007520Y0072130D01*
X0006521Y0073128D02*
X0014344Y0073128D01*
X0014548Y0073024D02*
X0015217Y0072807D01*
X0015780Y0072718D01*
X0015780Y0076681D01*
X0016748Y0076681D01*
X0016748Y0072718D01*
X0017310Y0072807D01*
X0017979Y0073024D01*
X0018606Y0073344D01*
X0019175Y0073757D01*
X0019672Y0074254D01*
X0020086Y0074823D01*
X0020405Y0075450D01*
X0020622Y0076119D01*
X0020711Y0076681D01*
X0016748Y0076681D01*
X0016748Y0077650D01*
X0015780Y0077650D01*
X0015780Y0081613D01*
X0015217Y0081524D01*
X0014548Y0081306D01*
X0013922Y0080987D01*
X0013353Y0080574D01*
X0012855Y0080076D01*
X0012442Y0079507D01*
X0012123Y0078881D01*
X0011905Y0078212D01*
X0011816Y0077650D01*
X0015779Y0077650D01*
X0015779Y0076681D01*
X0011816Y0076681D01*
X0011905Y0076119D01*
X0012123Y0075450D01*
X0012442Y0074823D01*
X0012855Y0074254D01*
X0013353Y0073757D01*
X0013922Y0073344D01*
X0014548Y0073024D01*
X0015780Y0073128D02*
X0016748Y0073128D01*
X0016748Y0074127D02*
X0015780Y0074127D01*
X0015780Y0075125D02*
X0016748Y0075125D01*
X0016748Y0076124D02*
X0015780Y0076124D01*
X0015779Y0077122D02*
X0004453Y0077122D01*
X0004453Y0076124D02*
X0011905Y0076124D01*
X0012288Y0075125D02*
X0004524Y0075125D01*
X0004453Y0075197D02*
X0004453Y0360630D01*
X0045791Y0401969D01*
X0154059Y0401969D01*
X0195398Y0360630D01*
X0195398Y0075197D01*
X0134374Y0014173D01*
X0065476Y0014173D01*
X0004453Y0075197D01*
X0005523Y0074127D02*
X0012983Y0074127D01*
X0011891Y0078121D02*
X0004453Y0078121D01*
X0004453Y0079119D02*
X0012244Y0079119D01*
X0012897Y0080118D02*
X0004453Y0080118D01*
X0004453Y0081116D02*
X0014175Y0081116D01*
X0015780Y0081116D02*
X0016748Y0081116D01*
X0016748Y0081613D02*
X0016748Y0077650D01*
X0020711Y0077650D01*
X0020622Y0078212D01*
X0020405Y0078881D01*
X0020086Y0079507D01*
X0019672Y0080076D01*
X0019175Y0080574D01*
X0018606Y0080987D01*
X0017979Y0081306D01*
X0017310Y0081524D01*
X0016748Y0081613D01*
X0016748Y0080118D02*
X0015780Y0080118D01*
X0015780Y0079119D02*
X0016748Y0079119D01*
X0016748Y0078121D02*
X0015780Y0078121D01*
X0016748Y0077122D02*
X0029912Y0077122D01*
X0029912Y0076356D02*
X0030531Y0074861D01*
X0031676Y0073716D01*
X0033171Y0073097D01*
X0034790Y0073097D01*
X0036285Y0073716D01*
X0037429Y0074861D01*
X0038049Y0076356D01*
X0038049Y0077975D01*
X0037429Y0079470D01*
X0036285Y0080614D01*
X0034790Y0081234D01*
X0033171Y0081234D01*
X0031676Y0080614D01*
X0030531Y0079470D01*
X0029912Y0077975D01*
X0029912Y0076356D01*
X0030008Y0076124D02*
X0020623Y0076124D01*
X0020239Y0075125D02*
X0030422Y0075125D01*
X0031265Y0074127D02*
X0019545Y0074127D01*
X0018183Y0073128D02*
X0033095Y0073128D01*
X0034865Y0073128D02*
X0066374Y0073128D01*
X0065880Y0074127D02*
X0036695Y0074127D01*
X0037539Y0075125D02*
X0065575Y0075125D01*
X0065575Y0076124D02*
X0037953Y0076124D01*
X0038049Y0077122D02*
X0065794Y0077122D01*
X0066208Y0078121D02*
X0037988Y0078121D01*
X0037575Y0079119D02*
X0067164Y0079119D01*
X0067461Y0082041D02*
X0069060Y0081378D01*
X0070790Y0081378D01*
X0072389Y0082041D01*
X0073613Y0083264D01*
X0074275Y0084863D01*
X0074275Y0086594D01*
X0073914Y0087466D01*
X0082817Y0096368D01*
X0082817Y0151309D01*
X0083852Y0152345D01*
X0083852Y0152345D01*
X0084837Y0153329D01*
X0085105Y0153597D01*
X0085586Y0153797D01*
X0086146Y0154356D01*
X0086705Y0153797D01*
X0087619Y0153418D01*
X0088609Y0153418D01*
X0089523Y0153797D01*
X0090223Y0154497D01*
X0090602Y0155411D01*
X0090602Y0156400D01*
X0090223Y0157315D01*
X0089523Y0158014D01*
X0088609Y0158393D01*
X0087878Y0158393D01*
X0081884Y0164387D01*
X0076628Y0164387D01*
X0075695Y0163455D01*
X0074275Y0162035D01*
X0074275Y0169434D01*
X0073631Y0170078D01*
X0066220Y0170078D01*
X0065575Y0169434D01*
X0065575Y0162023D01*
X0066220Y0161378D01*
X0073631Y0161378D01*
X0073727Y0161474D01*
X0073727Y0157918D01*
X0073613Y0158192D01*
X0072389Y0159416D01*
X0070790Y0160078D01*
X0069060Y0160078D01*
X0067461Y0159416D01*
X0066237Y0158192D01*
X0065575Y0156594D01*
X0065575Y0154863D01*
X0066237Y0153264D01*
X0067461Y0152041D01*
X0069060Y0151378D01*
X0070790Y0151378D01*
X0072389Y0152041D01*
X0073613Y0153264D01*
X0073727Y0153539D01*
X0073727Y0147918D01*
X0073613Y0148192D01*
X0072389Y0149416D01*
X0070790Y0150078D01*
X0069060Y0150078D01*
X0067461Y0149416D01*
X0066237Y0148192D01*
X0065575Y0146594D01*
X0065575Y0144863D01*
X0066237Y0143264D01*
X0067461Y0142041D01*
X0069060Y0141378D01*
X0070790Y0141378D01*
X0072389Y0142041D01*
X0073613Y0143264D01*
X0073727Y0143539D01*
X0073727Y0137918D01*
X0073613Y0138192D01*
X0072389Y0139416D01*
X0070790Y0140078D01*
X0069060Y0140078D01*
X0067461Y0139416D01*
X0066237Y0138192D01*
X0065575Y0136594D01*
X0065575Y0134863D01*
X0066237Y0133264D01*
X0067461Y0132041D01*
X0069060Y0131378D01*
X0070790Y0131378D01*
X0072389Y0132041D01*
X0073613Y0133264D01*
X0073727Y0133539D01*
X0073727Y0131782D01*
X0071662Y0129717D01*
X0070790Y0130078D01*
X0069060Y0130078D01*
X0067461Y0129416D01*
X0066237Y0128192D01*
X0065575Y0126594D01*
X0065575Y0124863D01*
X0066237Y0123264D01*
X0067461Y0122041D01*
X0069060Y0121378D01*
X0070790Y0121378D01*
X0072389Y0122041D01*
X0073613Y0123264D01*
X0074275Y0124863D01*
X0074275Y0126594D01*
X0073914Y0127466D01*
X0075695Y0129247D01*
X0075695Y0123750D01*
X0071662Y0119717D01*
X0070790Y0120078D01*
X0069060Y0120078D01*
X0067461Y0119416D01*
X0066237Y0118192D01*
X0065575Y0116594D01*
X0065575Y0114863D01*
X0066237Y0113264D01*
X0067461Y0112041D01*
X0069060Y0111378D01*
X0070790Y0111378D01*
X0072389Y0112041D01*
X0073613Y0113264D01*
X0074275Y0114863D01*
X0074275Y0116594D01*
X0073914Y0117466D01*
X0077664Y0121215D01*
X0077664Y0105719D01*
X0071662Y0099717D01*
X0070790Y0100078D01*
X0069060Y0100078D01*
X0067461Y0099416D01*
X0066237Y0098192D01*
X0065575Y0096594D01*
X0065575Y0094863D01*
X0066237Y0093264D01*
X0067461Y0092041D01*
X0069060Y0091378D01*
X0070790Y0091378D01*
X0072389Y0092041D01*
X0073613Y0093264D01*
X0074275Y0094863D01*
X0074275Y0096594D01*
X0073914Y0097466D01*
X0079632Y0103184D01*
X0079632Y0097687D01*
X0071662Y0089717D01*
X0070790Y0090078D01*
X0069060Y0090078D01*
X0067461Y0089416D01*
X0066237Y0088192D01*
X0065575Y0086594D01*
X0065575Y0084863D01*
X0066237Y0083264D01*
X0067461Y0082041D01*
X0067387Y0082115D02*
X0004453Y0082115D01*
X0004453Y0083113D02*
X0066388Y0083113D01*
X0065886Y0084112D02*
X0004453Y0084112D01*
X0004453Y0085110D02*
X0065575Y0085110D01*
X0065575Y0086109D02*
X0004453Y0086109D01*
X0004453Y0087107D02*
X0065788Y0087107D01*
X0066202Y0088106D02*
X0004453Y0088106D01*
X0004453Y0089104D02*
X0067149Y0089104D01*
X0067402Y0092100D02*
X0004453Y0092100D01*
X0004453Y0093098D02*
X0066403Y0093098D01*
X0065893Y0094097D02*
X0004453Y0094097D01*
X0004453Y0095095D02*
X0065575Y0095095D01*
X0065575Y0096094D02*
X0004453Y0096094D01*
X0004453Y0097092D02*
X0065782Y0097092D01*
X0066195Y0098091D02*
X0004453Y0098091D01*
X0004453Y0099089D02*
X0013708Y0099089D01*
X0013922Y0098934D02*
X0014548Y0098615D01*
X0015217Y0098397D01*
X0015780Y0098308D01*
X0015780Y0102272D01*
X0016748Y0102272D01*
X0016748Y0103240D01*
X0020711Y0103240D01*
X0020622Y0103802D01*
X0020405Y0104471D01*
X0020086Y0105098D01*
X0019672Y0105667D01*
X0019175Y0106164D01*
X0018606Y0106578D01*
X0017979Y0106897D01*
X0017310Y0107114D01*
X0016748Y0107203D01*
X0016748Y0103240D01*
X0015780Y0103240D01*
X0015780Y0107203D01*
X0015217Y0107114D01*
X0014548Y0106897D01*
X0013922Y0106578D01*
X0013353Y0106164D01*
X0012855Y0105667D01*
X0012442Y0105098D01*
X0012123Y0104471D01*
X0011905Y0103802D01*
X0011816Y0103240D01*
X0015779Y0103240D01*
X0015779Y0102272D01*
X0011816Y0102272D01*
X0011905Y0101710D01*
X0012123Y0101041D01*
X0012442Y0100414D01*
X0012855Y0099845D01*
X0013353Y0099348D01*
X0013922Y0098934D01*
X0012679Y0100088D02*
X0004453Y0100088D01*
X0004453Y0101086D02*
X0012108Y0101086D01*
X0011846Y0102085D02*
X0004453Y0102085D01*
X0004453Y0103084D02*
X0015779Y0103084D01*
X0016748Y0103084D02*
X0029912Y0103084D01*
X0029912Y0103565D02*
X0029912Y0101947D01*
X0030531Y0100451D01*
X0031676Y0099307D01*
X0033171Y0098687D01*
X0034790Y0098687D01*
X0036285Y0099307D01*
X0037429Y0100451D01*
X0038049Y0101947D01*
X0038049Y0103565D01*
X0037429Y0105061D01*
X0036285Y0106205D01*
X0034790Y0106824D01*
X0033171Y0106824D01*
X0031676Y0106205D01*
X0030531Y0105061D01*
X0029912Y0103565D01*
X0030126Y0104082D02*
X0020531Y0104082D01*
X0020094Y0105081D02*
X0030551Y0105081D01*
X0031550Y0106079D02*
X0019260Y0106079D01*
X0017423Y0107078D02*
X0065776Y0107078D01*
X0065575Y0106594D02*
X0065575Y0104863D01*
X0066237Y0103264D01*
X0067461Y0102041D01*
X0069060Y0101378D01*
X0070790Y0101378D01*
X0072389Y0102041D01*
X0073613Y0103264D01*
X0074275Y0104863D01*
X0074275Y0106594D01*
X0073613Y0108192D01*
X0072389Y0109416D01*
X0070790Y0110078D01*
X0069060Y0110078D01*
X0067461Y0109416D01*
X0066237Y0108192D01*
X0065575Y0106594D01*
X0065575Y0106079D02*
X0036411Y0106079D01*
X0037409Y0105081D02*
X0065575Y0105081D01*
X0065899Y0104082D02*
X0037835Y0104082D01*
X0038049Y0103084D02*
X0066418Y0103084D01*
X0067417Y0102085D02*
X0038049Y0102085D01*
X0037693Y0101086D02*
X0073032Y0101086D01*
X0072434Y0102085D02*
X0074030Y0102085D01*
X0073432Y0103084D02*
X0075029Y0103084D01*
X0076027Y0104082D02*
X0073952Y0104082D01*
X0074275Y0105081D02*
X0077026Y0105081D01*
X0077664Y0106079D02*
X0074275Y0106079D01*
X0074075Y0107078D02*
X0077664Y0107078D01*
X0077664Y0108076D02*
X0073661Y0108076D01*
X0072731Y0109075D02*
X0077664Y0109075D01*
X0077664Y0110073D02*
X0070803Y0110073D01*
X0069047Y0110073D02*
X0004453Y0110073D01*
X0004453Y0109075D02*
X0067120Y0109075D01*
X0066189Y0108076D02*
X0004453Y0108076D01*
X0004453Y0107078D02*
X0015104Y0107078D01*
X0015780Y0107078D02*
X0016748Y0107078D01*
X0016748Y0106079D02*
X0015780Y0106079D01*
X0015780Y0105081D02*
X0016748Y0105081D01*
X0016748Y0104082D02*
X0015780Y0104082D01*
X0015780Y0102085D02*
X0016748Y0102085D01*
X0016748Y0102272D02*
X0016748Y0098308D01*
X0017310Y0098397D01*
X0017979Y0098615D01*
X0018606Y0098934D01*
X0019175Y0099348D01*
X0019672Y0099845D01*
X0020086Y0100414D01*
X0020405Y0101041D01*
X0020622Y0101710D01*
X0020711Y0102272D01*
X0016748Y0102272D01*
X0016748Y0101086D02*
X0015780Y0101086D01*
X0015780Y0100088D02*
X0016748Y0100088D01*
X0016748Y0099089D02*
X0015780Y0099089D01*
X0011996Y0104082D02*
X0004453Y0104082D01*
X0004453Y0105081D02*
X0012433Y0105081D01*
X0013268Y0106079D02*
X0004453Y0106079D01*
X0004453Y0111072D02*
X0077664Y0111072D01*
X0077664Y0112070D02*
X0072419Y0112070D01*
X0073417Y0113069D02*
X0077664Y0113069D01*
X0077664Y0114067D02*
X0073945Y0114067D01*
X0074275Y0115066D02*
X0077664Y0115066D01*
X0077664Y0116064D02*
X0074275Y0116064D01*
X0074081Y0117063D02*
X0077664Y0117063D01*
X0077664Y0118061D02*
X0074510Y0118061D01*
X0075508Y0119060D02*
X0077664Y0119060D01*
X0077664Y0120058D02*
X0076507Y0120058D01*
X0077505Y0121057D02*
X0077664Y0121057D01*
X0074999Y0123054D02*
X0073402Y0123054D01*
X0073939Y0124052D02*
X0075695Y0124052D01*
X0075695Y0125051D02*
X0074275Y0125051D01*
X0074275Y0126049D02*
X0075695Y0126049D01*
X0075695Y0127048D02*
X0074087Y0127048D01*
X0074495Y0128046D02*
X0075695Y0128046D01*
X0075695Y0129045D02*
X0075493Y0129045D01*
X0072987Y0131042D02*
X0004453Y0131042D01*
X0004453Y0132040D02*
X0067462Y0132040D01*
X0066463Y0133039D02*
X0037254Y0133039D01*
X0037250Y0133035D02*
X0038307Y0134092D01*
X0038880Y0135473D01*
X0038880Y0136968D01*
X0038307Y0138349D01*
X0037250Y0139406D01*
X0035869Y0139978D01*
X0034375Y0139978D01*
X0032994Y0139406D01*
X0031937Y0138349D01*
X0031365Y0136968D01*
X0031365Y0135473D01*
X0031937Y0134092D01*
X0032994Y0133035D01*
X0034375Y0132463D01*
X0035869Y0132463D01*
X0037250Y0133035D01*
X0038253Y0134037D02*
X0065917Y0134037D01*
X0065575Y0135036D02*
X0038698Y0135036D01*
X0038880Y0136034D02*
X0065575Y0136034D01*
X0065757Y0137033D02*
X0038853Y0137033D01*
X0038439Y0138031D02*
X0066171Y0138031D01*
X0067075Y0139030D02*
X0037626Y0139030D01*
X0032618Y0139030D02*
X0018192Y0139030D01*
X0018293Y0138929D02*
X0017830Y0139392D01*
X0017301Y0139776D01*
X0016718Y0140073D01*
X0016096Y0140276D01*
X0015449Y0140378D01*
X0015409Y0140378D01*
X0015409Y0136508D01*
X0014835Y0136508D01*
X0014835Y0140378D01*
X0014795Y0140378D01*
X0014148Y0140276D01*
X0013526Y0140073D01*
X0012943Y0139776D01*
X0012414Y0139392D01*
X0011951Y0138929D01*
X0011566Y0138399D01*
X0011269Y0137816D01*
X0011067Y0137194D01*
X0010965Y0136548D01*
X0010965Y0136508D01*
X0014835Y0136508D01*
X0014835Y0135933D01*
X0015409Y0135933D01*
X0015409Y0132063D01*
X0015449Y0132063D01*
X0016096Y0132165D01*
X0016718Y0132368D01*
X0017301Y0132665D01*
X0017830Y0133049D01*
X0018293Y0133512D01*
X0018678Y0134041D01*
X0018975Y0134625D01*
X0019177Y0135247D01*
X0019280Y0135893D01*
X0019280Y0135933D01*
X0015410Y0135933D01*
X0015410Y0136508D01*
X0019280Y0136508D01*
X0019280Y0136548D01*
X0019177Y0137194D01*
X0018975Y0137816D01*
X0018678Y0138399D01*
X0018293Y0138929D01*
X0018865Y0138031D02*
X0031805Y0138031D01*
X0031392Y0137033D02*
X0019203Y0137033D01*
X0019109Y0135036D02*
X0031546Y0135036D01*
X0031365Y0136034D02*
X0015410Y0136034D01*
X0014835Y0136034D02*
X0004453Y0136034D01*
X0004453Y0135036D02*
X0011136Y0135036D01*
X0011067Y0135247D02*
X0011269Y0134625D01*
X0011566Y0134041D01*
X0011951Y0133512D01*
X0012414Y0133049D01*
X0012943Y0132665D01*
X0013526Y0132368D01*
X0014148Y0132165D01*
X0014795Y0132063D01*
X0014835Y0132063D01*
X0014835Y0135933D01*
X0010965Y0135933D01*
X0010965Y0135893D01*
X0011067Y0135247D01*
X0011569Y0134037D02*
X0004453Y0134037D01*
X0004453Y0133039D02*
X0012428Y0133039D01*
X0014835Y0133039D02*
X0015409Y0133039D01*
X0015409Y0134037D02*
X0014835Y0134037D01*
X0014835Y0135036D02*
X0015409Y0135036D01*
X0015409Y0137033D02*
X0014835Y0137033D01*
X0014835Y0138031D02*
X0015409Y0138031D01*
X0015409Y0139030D02*
X0014835Y0139030D01*
X0014835Y0140028D02*
X0015409Y0140028D01*
X0016806Y0140028D02*
X0068939Y0140028D01*
X0070911Y0140028D02*
X0073727Y0140028D01*
X0073727Y0139030D02*
X0072775Y0139030D01*
X0073680Y0138031D02*
X0073727Y0138031D01*
X0073727Y0141027D02*
X0004453Y0141027D01*
X0004453Y0142025D02*
X0067498Y0142025D01*
X0066478Y0143024D02*
X0028880Y0143024D01*
X0028880Y0142950D02*
X0028235Y0142306D01*
X0022009Y0142306D01*
X0021365Y0142950D01*
X0021365Y0149176D01*
X0022009Y0149820D01*
X0028235Y0149820D01*
X0028880Y0149176D01*
X0028880Y0142950D01*
X0028880Y0144022D02*
X0065923Y0144022D01*
X0065575Y0145021D02*
X0028880Y0145021D01*
X0028880Y0146020D02*
X0065575Y0146020D01*
X0065751Y0147018D02*
X0028880Y0147018D01*
X0028880Y0148017D02*
X0066165Y0148017D01*
X0067060Y0149015D02*
X0028880Y0149015D01*
X0031991Y0134037D02*
X0018675Y0134037D01*
X0017816Y0133039D02*
X0032990Y0133039D01*
X0021365Y0143024D02*
X0004453Y0143024D01*
X0004453Y0144022D02*
X0021365Y0144022D01*
X0021365Y0145021D02*
X0004453Y0145021D01*
X0004453Y0146020D02*
X0021365Y0146020D01*
X0021365Y0147018D02*
X0004453Y0147018D01*
X0004453Y0148017D02*
X0021365Y0148017D01*
X0021365Y0149015D02*
X0004453Y0149015D01*
X0004453Y0150014D02*
X0068904Y0150014D01*
X0070947Y0150014D02*
X0073727Y0150014D01*
X0073727Y0151012D02*
X0004453Y0151012D01*
X0004453Y0152011D02*
X0067534Y0152011D01*
X0066493Y0153009D02*
X0004453Y0153009D01*
X0004453Y0154008D02*
X0065930Y0154008D01*
X0065575Y0155006D02*
X0004453Y0155006D01*
X0004453Y0156005D02*
X0065575Y0156005D01*
X0065745Y0157003D02*
X0004453Y0157003D01*
X0004453Y0158002D02*
X0066158Y0158002D01*
X0067045Y0159000D02*
X0004453Y0159000D01*
X0004453Y0159999D02*
X0068868Y0159999D01*
X0070983Y0159999D02*
X0073727Y0159999D01*
X0073727Y0160997D02*
X0059955Y0160997D01*
X0060145Y0161076D02*
X0061369Y0162300D01*
X0062031Y0163898D01*
X0062031Y0165629D01*
X0061369Y0167228D01*
X0060145Y0168452D01*
X0058546Y0169114D01*
X0056816Y0169114D01*
X0055217Y0168452D01*
X0053993Y0167228D01*
X0053331Y0165629D01*
X0053331Y0163898D01*
X0053993Y0162300D01*
X0055217Y0161076D01*
X0056816Y0160414D01*
X0058546Y0160414D01*
X0060145Y0161076D01*
X0061065Y0161996D02*
X0065602Y0161996D01*
X0065575Y0162994D02*
X0061657Y0162994D01*
X0062031Y0163993D02*
X0065575Y0163993D01*
X0065575Y0164991D02*
X0062031Y0164991D01*
X0061882Y0165990D02*
X0065575Y0165990D01*
X0065575Y0166988D02*
X0061468Y0166988D01*
X0060610Y0167987D02*
X0065575Y0167987D01*
X0065575Y0168985D02*
X0058857Y0168985D01*
X0056506Y0168985D02*
X0051515Y0168985D01*
X0051387Y0169114D02*
X0052031Y0168469D01*
X0052031Y0161058D01*
X0051387Y0160414D01*
X0043975Y0160414D01*
X0043331Y0161058D01*
X0043331Y0168469D01*
X0043975Y0169114D01*
X0051387Y0169114D01*
X0052031Y0167987D02*
X0054752Y0167987D01*
X0053894Y0166988D02*
X0052031Y0166988D01*
X0052031Y0165990D02*
X0053480Y0165990D01*
X0053331Y0164991D02*
X0052031Y0164991D01*
X0052031Y0163993D02*
X0053331Y0163993D01*
X0053706Y0162994D02*
X0052031Y0162994D01*
X0052031Y0161996D02*
X0054297Y0161996D01*
X0055407Y0160997D02*
X0051970Y0160997D01*
X0043392Y0160997D02*
X0004453Y0160997D01*
X0004453Y0161996D02*
X0043331Y0161996D01*
X0043331Y0162994D02*
X0004453Y0162994D01*
X0004453Y0163993D02*
X0043331Y0163993D01*
X0043331Y0164991D02*
X0004453Y0164991D01*
X0004453Y0165990D02*
X0043331Y0165990D01*
X0043331Y0166988D02*
X0004453Y0166988D01*
X0004453Y0167987D02*
X0043331Y0167987D01*
X0043847Y0168985D02*
X0004453Y0168985D01*
X0004453Y0169984D02*
X0013216Y0169984D01*
X0013184Y0169997D02*
X0015182Y0169169D01*
X0017345Y0169169D01*
X0019344Y0169997D01*
X0020873Y0171526D01*
X0021701Y0173525D01*
X0021701Y0175688D01*
X0020873Y0177686D01*
X0019344Y0179216D01*
X0017345Y0180043D01*
X0015182Y0180043D01*
X0013184Y0179216D01*
X0011655Y0177686D01*
X0010827Y0175688D01*
X0010827Y0173525D01*
X0011655Y0171526D01*
X0013184Y0169997D01*
X0012199Y0170982D02*
X0004453Y0170982D01*
X0004453Y0171981D02*
X0011466Y0171981D01*
X0011053Y0172979D02*
X0004453Y0172979D01*
X0004453Y0173978D02*
X0010827Y0173978D01*
X0010827Y0174976D02*
X0004453Y0174976D01*
X0004453Y0175975D02*
X0010946Y0175975D01*
X0011359Y0176973D02*
X0004453Y0176973D01*
X0004453Y0177972D02*
X0011940Y0177972D01*
X0012939Y0178970D02*
X0004453Y0178970D01*
X0004453Y0179969D02*
X0015003Y0179969D01*
X0017525Y0179969D02*
X0163786Y0179969D01*
X0163786Y0180967D02*
X0004453Y0180967D01*
X0004453Y0181966D02*
X0163786Y0181966D01*
X0163786Y0182964D02*
X0004453Y0182964D01*
X0004453Y0183963D02*
X0163786Y0183963D01*
X0163786Y0184961D02*
X0004453Y0184961D01*
X0004453Y0185960D02*
X0163786Y0185960D01*
X0163786Y0186958D02*
X0004453Y0186958D01*
X0004453Y0187957D02*
X0163786Y0187957D01*
X0163786Y0188955D02*
X0004453Y0188955D01*
X0004453Y0189954D02*
X0163786Y0189954D01*
X0163786Y0190953D02*
X0004453Y0190953D01*
X0004453Y0191951D02*
X0163786Y0191951D01*
X0163786Y0192950D02*
X0004453Y0192950D01*
X0004453Y0193948D02*
X0163786Y0193948D01*
X0163786Y0194947D02*
X0004453Y0194947D01*
X0004453Y0195945D02*
X0163786Y0195945D01*
X0163786Y0196944D02*
X0004453Y0196944D01*
X0004453Y0197942D02*
X0163786Y0197942D01*
X0163786Y0198941D02*
X0004453Y0198941D01*
X0004453Y0199939D02*
X0163786Y0199939D01*
X0163786Y0200938D02*
X0004453Y0200938D01*
X0004453Y0201936D02*
X0163786Y0201936D01*
X0163786Y0202935D02*
X0004453Y0202935D01*
X0004453Y0203933D02*
X0163786Y0203933D01*
X0163786Y0204932D02*
X0004453Y0204932D01*
X0004453Y0205930D02*
X0163786Y0205930D01*
X0163786Y0206929D02*
X0004453Y0206929D01*
X0004453Y0207927D02*
X0163786Y0207927D01*
X0163786Y0208926D02*
X0004453Y0208926D01*
X0004453Y0209924D02*
X0163786Y0209924D01*
X0163786Y0210923D02*
X0004453Y0210923D01*
X0004453Y0211921D02*
X0163786Y0211921D01*
X0163786Y0212920D02*
X0004453Y0212920D01*
X0004453Y0213918D02*
X0163786Y0213918D01*
X0163786Y0214917D02*
X0004453Y0214917D01*
X0004453Y0215915D02*
X0163786Y0215915D01*
X0163786Y0216914D02*
X0004453Y0216914D01*
X0004453Y0217912D02*
X0163786Y0217912D01*
X0163786Y0218911D02*
X0004453Y0218911D01*
X0004453Y0219909D02*
X0163786Y0219909D01*
X0163786Y0220908D02*
X0004453Y0220908D01*
X0004453Y0221906D02*
X0163786Y0221906D01*
X0163786Y0222905D02*
X0004453Y0222905D01*
X0004453Y0223903D02*
X0163786Y0223903D01*
X0163786Y0224902D02*
X0004453Y0224902D01*
X0004453Y0225900D02*
X0163786Y0225900D01*
X0163786Y0226899D02*
X0004453Y0226899D01*
X0004453Y0227897D02*
X0163786Y0227897D01*
X0163786Y0228896D02*
X0004453Y0228896D01*
X0004453Y0229894D02*
X0163786Y0229894D01*
X0163786Y0230893D02*
X0004453Y0230893D01*
X0004453Y0231891D02*
X0163786Y0231891D01*
X0163786Y0232890D02*
X0004453Y0232890D01*
X0004453Y0233888D02*
X0163786Y0233888D01*
X0163786Y0234887D02*
X0004453Y0234887D01*
X0004453Y0235886D02*
X0163786Y0235886D01*
X0163786Y0236884D02*
X0004453Y0236884D01*
X0004453Y0237883D02*
X0163786Y0237883D01*
X0163786Y0238881D02*
X0004453Y0238881D01*
X0004453Y0239880D02*
X0163786Y0239880D01*
X0163786Y0240878D02*
X0004453Y0240878D01*
X0004453Y0241877D02*
X0163786Y0241877D01*
X0163786Y0242875D02*
X0004453Y0242875D01*
X0004453Y0243874D02*
X0163786Y0243874D01*
X0163786Y0244872D02*
X0004453Y0244872D01*
X0004453Y0245871D02*
X0163786Y0245871D01*
X0163786Y0246869D02*
X0004453Y0246869D01*
X0004453Y0247868D02*
X0163786Y0247868D01*
X0163786Y0248866D02*
X0004453Y0248866D01*
X0004453Y0249865D02*
X0163786Y0249865D01*
X0163786Y0250863D02*
X0004453Y0250863D01*
X0004453Y0251862D02*
X0163786Y0251862D01*
X0163786Y0252860D02*
X0004453Y0252860D01*
X0004453Y0253859D02*
X0163786Y0253859D01*
X0163786Y0254857D02*
X0004453Y0254857D01*
X0004453Y0255856D02*
X0163786Y0255856D01*
X0163786Y0256854D02*
X0004453Y0256854D01*
X0004453Y0257853D02*
X0163786Y0257853D01*
X0163786Y0258851D02*
X0004453Y0258851D01*
X0004453Y0259850D02*
X0163786Y0259850D01*
X0163786Y0260848D02*
X0004453Y0260848D01*
X0004453Y0261847D02*
X0163786Y0261847D01*
X0163786Y0262845D02*
X0004453Y0262845D01*
X0004453Y0263844D02*
X0163786Y0263844D01*
X0163786Y0264842D02*
X0004453Y0264842D01*
X0004453Y0265841D02*
X0163786Y0265841D01*
X0163786Y0266839D02*
X0004453Y0266839D01*
X0004453Y0267838D02*
X0163786Y0267838D01*
X0163786Y0268836D02*
X0004453Y0268836D01*
X0004453Y0269835D02*
X0163786Y0269835D01*
X0163786Y0270833D02*
X0004453Y0270833D01*
X0004453Y0271832D02*
X0163786Y0271832D01*
X0163786Y0272830D02*
X0004453Y0272830D01*
X0004453Y0273829D02*
X0163786Y0273829D01*
X0163786Y0274827D02*
X0004453Y0274827D01*
X0004453Y0275826D02*
X0014319Y0275826D01*
X0015182Y0275469D02*
X0017345Y0275469D01*
X0019344Y0276296D01*
X0020873Y0277826D01*
X0021701Y0279824D01*
X0021701Y0281987D01*
X0020873Y0283985D01*
X0019344Y0285515D01*
X0017345Y0286343D01*
X0015182Y0286343D01*
X0013184Y0285515D01*
X0011655Y0283985D01*
X0010827Y0281987D01*
X0010827Y0279824D01*
X0011655Y0277826D01*
X0013184Y0276296D01*
X0015182Y0275469D01*
X0012656Y0276824D02*
X0004453Y0276824D01*
X0004453Y0277823D02*
X0011657Y0277823D01*
X0011242Y0278822D02*
X0004453Y0278822D01*
X0004453Y0279820D02*
X0010828Y0279820D01*
X0010827Y0280819D02*
X0004453Y0280819D01*
X0004453Y0281817D02*
X0010827Y0281817D01*
X0011170Y0282816D02*
X0004453Y0282816D01*
X0004453Y0283814D02*
X0011584Y0283814D01*
X0012482Y0284813D02*
X0004453Y0284813D01*
X0004453Y0285811D02*
X0013899Y0285811D01*
X0018628Y0285811D02*
X0163786Y0285811D01*
X0163786Y0284813D02*
X0020046Y0284813D01*
X0020944Y0283814D02*
X0163786Y0283814D01*
X0163786Y0282816D02*
X0021358Y0282816D01*
X0021701Y0281817D02*
X0163786Y0281817D01*
X0163786Y0280819D02*
X0021701Y0280819D01*
X0021699Y0279820D02*
X0163786Y0279820D01*
X0163786Y0278822D02*
X0021286Y0278822D01*
X0020870Y0277823D02*
X0163786Y0277823D01*
X0163786Y0276824D02*
X0019872Y0276824D01*
X0018208Y0275826D02*
X0163786Y0275826D01*
X0167954Y0275826D02*
X0181642Y0275826D01*
X0182505Y0275469D02*
X0180507Y0276296D01*
X0178977Y0277826D01*
X0178150Y0279824D01*
X0178150Y0281987D01*
X0178977Y0283985D01*
X0180507Y0285515D01*
X0182505Y0286343D01*
X0184668Y0286343D01*
X0186666Y0285515D01*
X0188196Y0283985D01*
X0189024Y0281987D01*
X0189024Y0279824D01*
X0188196Y0277826D01*
X0186666Y0276296D01*
X0184668Y0275469D01*
X0182505Y0275469D01*
X0179979Y0276824D02*
X0167954Y0276824D01*
X0167954Y0277823D02*
X0178980Y0277823D01*
X0178565Y0278822D02*
X0167954Y0278822D01*
X0167954Y0279820D02*
X0178151Y0279820D01*
X0178150Y0280819D02*
X0167954Y0280819D01*
X0167954Y0281817D02*
X0178150Y0281817D01*
X0178493Y0282816D02*
X0167954Y0282816D01*
X0167954Y0283814D02*
X0178906Y0283814D01*
X0179805Y0284813D02*
X0167954Y0284813D01*
X0167954Y0285811D02*
X0181222Y0285811D01*
X0185951Y0285811D02*
X0195398Y0285811D01*
X0195398Y0284813D02*
X0187369Y0284813D01*
X0188267Y0283814D02*
X0195398Y0283814D01*
X0195398Y0282816D02*
X0188680Y0282816D01*
X0189024Y0281817D02*
X0195398Y0281817D01*
X0195398Y0280819D02*
X0189024Y0280819D01*
X0189022Y0279820D02*
X0195398Y0279820D01*
X0195398Y0278822D02*
X0188608Y0278822D01*
X0188193Y0277823D02*
X0195398Y0277823D01*
X0195398Y0276824D02*
X0187195Y0276824D01*
X0185531Y0275826D02*
X0195398Y0275826D01*
X0195398Y0274827D02*
X0167954Y0274827D01*
X0167954Y0273829D02*
X0195398Y0273829D01*
X0195398Y0272830D02*
X0167954Y0272830D01*
X0167954Y0271832D02*
X0195398Y0271832D01*
X0195398Y0270833D02*
X0167954Y0270833D01*
X0167954Y0269835D02*
X0195398Y0269835D01*
X0195398Y0268836D02*
X0167954Y0268836D01*
X0167954Y0267838D02*
X0195398Y0267838D01*
X0195398Y0266839D02*
X0167954Y0266839D01*
X0167954Y0265841D02*
X0195398Y0265841D01*
X0195398Y0264842D02*
X0167954Y0264842D01*
X0167954Y0263844D02*
X0195398Y0263844D01*
X0195398Y0262845D02*
X0167954Y0262845D01*
X0167954Y0261847D02*
X0195398Y0261847D01*
X0195398Y0260848D02*
X0167954Y0260848D01*
X0167954Y0259850D02*
X0195398Y0259850D01*
X0195398Y0258851D02*
X0167954Y0258851D01*
X0167954Y0257853D02*
X0195398Y0257853D01*
X0195398Y0256854D02*
X0167954Y0256854D01*
X0167954Y0255856D02*
X0195398Y0255856D01*
X0195398Y0254857D02*
X0167954Y0254857D01*
X0167954Y0253859D02*
X0195398Y0253859D01*
X0195398Y0252860D02*
X0167954Y0252860D01*
X0167954Y0251862D02*
X0195398Y0251862D01*
X0195398Y0250863D02*
X0167954Y0250863D01*
X0167954Y0249865D02*
X0195398Y0249865D01*
X0195398Y0248866D02*
X0167954Y0248866D01*
X0167954Y0247868D02*
X0195398Y0247868D01*
X0195398Y0246869D02*
X0167954Y0246869D01*
X0167954Y0245871D02*
X0195398Y0245871D01*
X0195398Y0244872D02*
X0167954Y0244872D01*
X0167954Y0243874D02*
X0195398Y0243874D01*
X0195398Y0242875D02*
X0167954Y0242875D01*
X0167954Y0241877D02*
X0195398Y0241877D01*
X0195398Y0240878D02*
X0167954Y0240878D01*
X0167954Y0239880D02*
X0195398Y0239880D01*
X0195398Y0238881D02*
X0167954Y0238881D01*
X0167954Y0237883D02*
X0195398Y0237883D01*
X0195398Y0236884D02*
X0167954Y0236884D01*
X0167954Y0235886D02*
X0195398Y0235886D01*
X0195398Y0234887D02*
X0167954Y0234887D01*
X0167954Y0233888D02*
X0195398Y0233888D01*
X0195398Y0232890D02*
X0167954Y0232890D01*
X0167954Y0231891D02*
X0195398Y0231891D01*
X0195398Y0230893D02*
X0167954Y0230893D01*
X0167954Y0229894D02*
X0195398Y0229894D01*
X0195398Y0228896D02*
X0167954Y0228896D01*
X0167954Y0227897D02*
X0195398Y0227897D01*
X0195398Y0226899D02*
X0167954Y0226899D01*
X0167954Y0225900D02*
X0195398Y0225900D01*
X0195398Y0224902D02*
X0167954Y0224902D01*
X0167954Y0223903D02*
X0195398Y0223903D01*
X0195398Y0222905D02*
X0167954Y0222905D01*
X0167954Y0221906D02*
X0195398Y0221906D01*
X0195398Y0220908D02*
X0167954Y0220908D01*
X0167954Y0219909D02*
X0195398Y0219909D01*
X0195398Y0218911D02*
X0167954Y0218911D01*
X0167954Y0217912D02*
X0195398Y0217912D01*
X0195398Y0216914D02*
X0167954Y0216914D01*
X0167954Y0215915D02*
X0195398Y0215915D01*
X0195398Y0214917D02*
X0167954Y0214917D01*
X0167954Y0213918D02*
X0195398Y0213918D01*
X0195398Y0212920D02*
X0167954Y0212920D01*
X0167954Y0211921D02*
X0195398Y0211921D01*
X0195398Y0210923D02*
X0167954Y0210923D01*
X0167954Y0209924D02*
X0195398Y0209924D01*
X0195398Y0208926D02*
X0167954Y0208926D01*
X0167954Y0207927D02*
X0195398Y0207927D01*
X0195398Y0206929D02*
X0167954Y0206929D01*
X0167954Y0205930D02*
X0195398Y0205930D01*
X0195398Y0204932D02*
X0167954Y0204932D01*
X0167954Y0203933D02*
X0195398Y0203933D01*
X0195398Y0202935D02*
X0167954Y0202935D01*
X0167954Y0201936D02*
X0195398Y0201936D01*
X0195398Y0200938D02*
X0167954Y0200938D01*
X0167954Y0199939D02*
X0195398Y0199939D01*
X0195398Y0198941D02*
X0167954Y0198941D01*
X0167954Y0197942D02*
X0195398Y0197942D01*
X0195398Y0196944D02*
X0167954Y0196944D01*
X0167954Y0195945D02*
X0195398Y0195945D01*
X0195398Y0194947D02*
X0167954Y0194947D01*
X0167954Y0193948D02*
X0195398Y0193948D01*
X0195398Y0192950D02*
X0167954Y0192950D01*
X0167954Y0191951D02*
X0195398Y0191951D01*
X0195398Y0190953D02*
X0167954Y0190953D01*
X0167954Y0189954D02*
X0195398Y0189954D01*
X0195398Y0188955D02*
X0167954Y0188955D01*
X0167954Y0187957D02*
X0195398Y0187957D01*
X0195398Y0186958D02*
X0167954Y0186958D01*
X0167954Y0185960D02*
X0195398Y0185960D01*
X0195398Y0184961D02*
X0167954Y0184961D01*
X0167954Y0183963D02*
X0195398Y0183963D01*
X0195398Y0182964D02*
X0167954Y0182964D01*
X0167954Y0181966D02*
X0195398Y0181966D01*
X0195398Y0180967D02*
X0167954Y0180967D01*
X0167954Y0179969D02*
X0182325Y0179969D01*
X0182505Y0180043D02*
X0180507Y0179216D01*
X0178977Y0177686D01*
X0178150Y0175688D01*
X0178150Y0173525D01*
X0178977Y0171526D01*
X0180507Y0169997D01*
X0182505Y0169169D01*
X0184668Y0169169D01*
X0186666Y0169997D01*
X0188196Y0171526D01*
X0189024Y0173525D01*
X0189024Y0175688D01*
X0188196Y0177686D01*
X0186666Y0179216D01*
X0184668Y0180043D01*
X0182505Y0180043D01*
X0184848Y0179969D02*
X0195398Y0179969D01*
X0195398Y0178970D02*
X0186912Y0178970D01*
X0187910Y0177972D02*
X0195398Y0177972D01*
X0195398Y0176973D02*
X0188491Y0176973D01*
X0188905Y0175975D02*
X0195398Y0175975D01*
X0195398Y0174976D02*
X0189024Y0174976D01*
X0189024Y0173978D02*
X0195398Y0173978D01*
X0195398Y0172979D02*
X0188798Y0172979D01*
X0188384Y0171981D02*
X0195398Y0171981D01*
X0195398Y0170982D02*
X0187652Y0170982D01*
X0186634Y0169984D02*
X0195398Y0169984D01*
X0195398Y0168985D02*
X0167954Y0168985D01*
X0167954Y0167987D02*
X0195398Y0167987D01*
X0195398Y0166988D02*
X0167954Y0166988D01*
X0167954Y0165990D02*
X0195398Y0165990D01*
X0195398Y0164991D02*
X0167954Y0164991D01*
X0167954Y0163993D02*
X0195398Y0163993D01*
X0195398Y0162994D02*
X0167954Y0162994D01*
X0167954Y0161996D02*
X0195398Y0161996D01*
X0195398Y0160997D02*
X0167954Y0160997D01*
X0167954Y0159999D02*
X0195398Y0159999D01*
X0195398Y0159000D02*
X0167954Y0159000D01*
X0167954Y0158002D02*
X0195398Y0158002D01*
X0195398Y0157003D02*
X0167954Y0157003D01*
X0167954Y0156005D02*
X0195398Y0156005D01*
X0195398Y0155006D02*
X0167954Y0155006D01*
X0167954Y0154008D02*
X0195398Y0154008D01*
X0195398Y0153009D02*
X0167954Y0153009D01*
X0167954Y0152011D02*
X0195398Y0152011D01*
X0195398Y0151012D02*
X0167954Y0151012D01*
X0167954Y0150014D02*
X0195398Y0150014D01*
X0195398Y0149015D02*
X0178486Y0149015D01*
X0178486Y0149176D02*
X0177841Y0149820D01*
X0171615Y0149820D01*
X0170971Y0149176D01*
X0170971Y0142950D01*
X0171615Y0142306D01*
X0177841Y0142306D01*
X0178486Y0142950D01*
X0178486Y0149176D01*
X0178486Y0148017D02*
X0195398Y0148017D01*
X0195398Y0147018D02*
X0178486Y0147018D01*
X0178486Y0146020D02*
X0195398Y0146020D01*
X0195398Y0145021D02*
X0178486Y0145021D01*
X0178486Y0144022D02*
X0195398Y0144022D01*
X0195398Y0143024D02*
X0178486Y0143024D01*
X0182600Y0139406D02*
X0181543Y0138349D01*
X0181525Y0138305D01*
X0174607Y0138305D01*
X0167954Y0144958D01*
X0167954Y0348026D01*
X0167976Y0348049D01*
X0167955Y0348857D01*
X0168907Y0349808D01*
X0169466Y0351159D01*
X0169466Y0352621D01*
X0168907Y0353971D01*
X0167873Y0355005D01*
X0166522Y0355565D01*
X0166009Y0355565D01*
X0161065Y0360509D01*
X0141380Y0380194D01*
X0140159Y0381415D01*
X0132285Y0381415D01*
X0130631Y0383068D01*
X0130631Y0383974D01*
X0131663Y0385005D01*
X0132222Y0386356D01*
X0132222Y0387818D01*
X0131663Y0389168D01*
X0130629Y0390202D01*
X0129278Y0390761D01*
X0127816Y0390761D01*
X0126466Y0390202D01*
X0125432Y0389168D01*
X0124872Y0387818D01*
X0124872Y0386356D01*
X0125432Y0385005D01*
X0126463Y0383974D01*
X0126463Y0381415D01*
X0085040Y0381415D01*
X0083387Y0383068D01*
X0083387Y0383974D01*
X0084418Y0385005D01*
X0084978Y0386356D01*
X0084978Y0387818D01*
X0084418Y0389168D01*
X0083385Y0390202D01*
X0082034Y0390761D01*
X0080572Y0390761D01*
X0079222Y0390202D01*
X0078188Y0389168D01*
X0077628Y0387818D01*
X0077628Y0386356D01*
X0078188Y0385005D01*
X0079219Y0383974D01*
X0079219Y0381415D01*
X0055755Y0381415D01*
X0036070Y0361730D01*
X0028196Y0361730D01*
X0026975Y0360509D01*
X0021975Y0355509D01*
X0021975Y0355002D01*
X0020944Y0353971D01*
X0020384Y0352621D01*
X0020384Y0351159D01*
X0020944Y0349808D01*
X0021975Y0348777D01*
X0021975Y0317444D01*
X0026835Y0312584D01*
X0026678Y0312204D01*
X0026678Y0310473D01*
X0027340Y0308874D01*
X0028563Y0307651D01*
X0030162Y0306989D01*
X0031893Y0306989D01*
X0033492Y0307651D01*
X0034715Y0308874D01*
X0035378Y0310473D01*
X0035378Y0312204D01*
X0034715Y0313803D01*
X0033492Y0315026D01*
X0031893Y0315689D01*
X0030162Y0315689D01*
X0029782Y0315531D01*
X0026143Y0319170D01*
X0026143Y0348777D01*
X0027174Y0349808D01*
X0027734Y0351159D01*
X0027734Y0352621D01*
X0027174Y0353971D01*
X0026753Y0354392D01*
X0029922Y0357561D01*
X0037796Y0357561D01*
X0039017Y0358782D01*
X0057481Y0377246D01*
X0069303Y0377246D01*
X0069219Y0377163D01*
X0069219Y0374687D01*
X0068188Y0373656D01*
X0067628Y0372306D01*
X0067628Y0370844D01*
X0068188Y0369493D01*
X0069222Y0368459D01*
X0070572Y0367900D01*
X0072034Y0367900D01*
X0073385Y0368459D01*
X0074418Y0369493D01*
X0074978Y0370844D01*
X0074978Y0372306D01*
X0074418Y0373656D01*
X0073387Y0374687D01*
X0073387Y0375436D01*
X0075198Y0377246D01*
X0116547Y0377246D01*
X0116463Y0377163D01*
X0116463Y0374687D01*
X0115432Y0373656D01*
X0114872Y0372306D01*
X0114872Y0370844D01*
X0115432Y0369493D01*
X0116466Y0368459D01*
X0117816Y0367900D01*
X0119278Y0367900D01*
X0120629Y0368459D01*
X0121663Y0369493D01*
X0122222Y0370844D01*
X0122222Y0372306D01*
X0121663Y0373656D01*
X0120631Y0374687D01*
X0120631Y0375436D01*
X0122442Y0377246D01*
X0138432Y0377246D01*
X0158117Y0357561D01*
X0162392Y0353286D01*
X0162117Y0352621D01*
X0162117Y0351159D01*
X0162676Y0349808D01*
X0163710Y0348774D01*
X0163786Y0348743D01*
X0163786Y0146179D01*
X0137448Y0146179D01*
X0131170Y0139901D01*
X0130790Y0140059D01*
X0129060Y0140059D01*
X0127461Y0139396D01*
X0126237Y0138173D01*
X0126080Y0137793D01*
X0123938Y0137793D01*
X0102413Y0159318D01*
X0102413Y0159353D01*
X0102034Y0160267D01*
X0101334Y0160967D01*
X0100420Y0161346D01*
X0099430Y0161346D01*
X0098516Y0160967D01*
X0097816Y0160267D01*
X0097438Y0159353D01*
X0097438Y0158363D01*
X0097816Y0157449D01*
X0098516Y0156750D01*
X0099430Y0156371D01*
X0099465Y0156371D01*
X0122211Y0133624D01*
X0126080Y0133624D01*
X0126237Y0133245D01*
X0127461Y0132021D01*
X0129060Y0131359D01*
X0130790Y0131359D01*
X0132389Y0132021D01*
X0133613Y0133245D01*
X0134275Y0134843D01*
X0134275Y0136574D01*
X0134118Y0136954D01*
X0139174Y0142010D01*
X0165007Y0142010D01*
X0171660Y0135357D01*
X0172881Y0134136D01*
X0181525Y0134136D01*
X0181543Y0134092D01*
X0182600Y0133035D01*
X0183981Y0132463D01*
X0185476Y0132463D01*
X0186857Y0133035D01*
X0187914Y0134092D01*
X0188486Y0135473D01*
X0188486Y0136968D01*
X0187914Y0138349D01*
X0186857Y0139406D01*
X0185476Y0139978D01*
X0183981Y0139978D01*
X0182600Y0139406D01*
X0182224Y0139030D02*
X0173882Y0139030D01*
X0172884Y0140028D02*
X0195398Y0140028D01*
X0195398Y0139030D02*
X0187233Y0139030D01*
X0188045Y0138031D02*
X0195398Y0138031D01*
X0195398Y0137033D02*
X0188459Y0137033D01*
X0188486Y0136034D02*
X0195398Y0136034D01*
X0195398Y0135036D02*
X0188305Y0135036D01*
X0187859Y0134037D02*
X0195398Y0134037D01*
X0195398Y0133039D02*
X0186861Y0133039D01*
X0182596Y0133039D02*
X0167422Y0133039D01*
X0167437Y0133049D02*
X0167899Y0133512D01*
X0168284Y0134041D01*
X0168581Y0134625D01*
X0168783Y0135247D01*
X0168886Y0135893D01*
X0168886Y0135933D01*
X0165016Y0135933D01*
X0165016Y0136508D01*
X0168886Y0136508D01*
X0168886Y0136548D01*
X0168783Y0137194D01*
X0168581Y0137816D01*
X0168284Y0138399D01*
X0167899Y0138929D01*
X0167437Y0139392D01*
X0166907Y0139776D01*
X0166324Y0140073D01*
X0165702Y0140276D01*
X0165056Y0140378D01*
X0165016Y0140378D01*
X0165016Y0136508D01*
X0164441Y0136508D01*
X0164441Y0140378D01*
X0164401Y0140378D01*
X0163755Y0140276D01*
X0163132Y0140073D01*
X0162549Y0139776D01*
X0162020Y0139392D01*
X0161557Y0138929D01*
X0161173Y0138399D01*
X0160875Y0137816D01*
X0160673Y0137194D01*
X0160571Y0136548D01*
X0160571Y0136508D01*
X0164441Y0136508D01*
X0164441Y0135933D01*
X0165016Y0135933D01*
X0165016Y0132063D01*
X0165056Y0132063D01*
X0165702Y0132165D01*
X0166324Y0132368D01*
X0166907Y0132665D01*
X0167437Y0133049D01*
X0168281Y0134037D02*
X0181598Y0134037D01*
X0171981Y0135036D02*
X0168715Y0135036D01*
X0168809Y0137033D02*
X0169984Y0137033D01*
X0168986Y0138031D02*
X0168472Y0138031D01*
X0167987Y0139030D02*
X0167798Y0139030D01*
X0166989Y0140028D02*
X0166412Y0140028D01*
X0165990Y0141027D02*
X0138191Y0141027D01*
X0137193Y0140028D02*
X0163044Y0140028D01*
X0164441Y0140028D02*
X0165016Y0140028D01*
X0165016Y0139030D02*
X0164441Y0139030D01*
X0164441Y0138031D02*
X0165016Y0138031D01*
X0165016Y0137033D02*
X0164441Y0137033D01*
X0164441Y0136034D02*
X0134275Y0136034D01*
X0134275Y0135036D02*
X0154278Y0135036D01*
X0154619Y0135376D02*
X0153919Y0134677D01*
X0153540Y0133762D01*
X0153540Y0133032D01*
X0137809Y0117301D01*
X0133974Y0117301D01*
X0133613Y0118173D01*
X0132389Y0119396D01*
X0130790Y0120059D01*
X0129060Y0120059D01*
X0127461Y0119396D01*
X0126237Y0118173D01*
X0125575Y0116574D01*
X0125575Y0114843D01*
X0126237Y0113245D01*
X0127461Y0112021D01*
X0129060Y0111359D01*
X0130790Y0111359D01*
X0132389Y0112021D01*
X0133613Y0113245D01*
X0133974Y0114117D01*
X0139128Y0114117D01*
X0155792Y0130780D01*
X0156522Y0130780D01*
X0157437Y0131159D01*
X0158136Y0131859D01*
X0158515Y0132773D01*
X0158515Y0133762D01*
X0158136Y0134677D01*
X0157437Y0135376D01*
X0156522Y0135755D01*
X0155533Y0135755D01*
X0154619Y0135376D01*
X0153654Y0134037D02*
X0133941Y0134037D01*
X0133407Y0133039D02*
X0153540Y0133039D01*
X0152549Y0132040D02*
X0132409Y0132040D01*
X0130827Y0130043D02*
X0150552Y0130043D01*
X0151550Y0131042D02*
X0082817Y0131042D01*
X0082817Y0132040D02*
X0127442Y0132040D01*
X0126443Y0133039D02*
X0082817Y0133039D01*
X0082817Y0134037D02*
X0121799Y0134037D01*
X0120800Y0135036D02*
X0082817Y0135036D01*
X0082817Y0136034D02*
X0119801Y0136034D01*
X0118803Y0137033D02*
X0082817Y0137033D01*
X0082817Y0138031D02*
X0117804Y0138031D01*
X0116806Y0139030D02*
X0082817Y0139030D01*
X0082817Y0140028D02*
X0115807Y0140028D01*
X0114809Y0141027D02*
X0082817Y0141027D01*
X0082817Y0142025D02*
X0113810Y0142025D01*
X0112812Y0143024D02*
X0082817Y0143024D01*
X0082817Y0144022D02*
X0111813Y0144022D01*
X0110815Y0145021D02*
X0082817Y0145021D01*
X0082817Y0146020D02*
X0109816Y0146020D01*
X0108818Y0147018D02*
X0082817Y0147018D01*
X0082817Y0148017D02*
X0107819Y0148017D01*
X0106821Y0149015D02*
X0082817Y0149015D01*
X0082817Y0150014D02*
X0105822Y0150014D01*
X0104824Y0151012D02*
X0082817Y0151012D01*
X0083518Y0152011D02*
X0103825Y0152011D01*
X0102827Y0153009D02*
X0084517Y0153009D01*
X0084837Y0153329D02*
X0084837Y0153329D01*
X0085797Y0154008D02*
X0086494Y0154008D01*
X0089734Y0154008D02*
X0101828Y0154008D01*
X0100830Y0155006D02*
X0090434Y0155006D01*
X0090602Y0156005D02*
X0099831Y0156005D01*
X0098263Y0157003D02*
X0090352Y0157003D01*
X0089536Y0158002D02*
X0097588Y0158002D01*
X0097438Y0159000D02*
X0087271Y0159000D01*
X0086273Y0159999D02*
X0097705Y0159999D01*
X0098589Y0160997D02*
X0085274Y0160997D01*
X0084276Y0161996D02*
X0127522Y0161996D01*
X0127461Y0162021D02*
X0129060Y0161359D01*
X0130790Y0161359D01*
X0132389Y0162021D01*
X0133613Y0163245D01*
X0134275Y0164843D01*
X0134275Y0166574D01*
X0133613Y0168173D01*
X0132389Y0169396D01*
X0130790Y0170059D01*
X0129060Y0170059D01*
X0127461Y0169396D01*
X0126237Y0168173D01*
X0125575Y0166574D01*
X0125575Y0164843D01*
X0126237Y0163245D01*
X0127461Y0162021D01*
X0126488Y0162994D02*
X0083277Y0162994D01*
X0082279Y0163993D02*
X0125928Y0163993D01*
X0125575Y0164991D02*
X0074275Y0164991D01*
X0074275Y0163993D02*
X0076233Y0163993D01*
X0075235Y0162994D02*
X0074275Y0162994D01*
X0074275Y0165990D02*
X0087239Y0165990D01*
X0087003Y0166147D02*
X0087541Y0165788D01*
X0088140Y0165540D01*
X0088775Y0165413D01*
X0089098Y0165413D01*
X0089098Y0168701D01*
X0089098Y0168701D01*
X0085811Y0168701D01*
X0085811Y0169025D01*
X0085937Y0169660D01*
X0086185Y0170258D01*
X0086545Y0170796D01*
X0087003Y0171254D01*
X0087541Y0171614D01*
X0088140Y0171862D01*
X0088775Y0171988D01*
X0089098Y0171988D01*
X0089098Y0168701D01*
X0089098Y0168701D01*
X0085811Y0168701D01*
X0085811Y0168377D01*
X0085937Y0167742D01*
X0086185Y0167144D01*
X0086545Y0166605D01*
X0087003Y0166147D01*
X0086289Y0166988D02*
X0074275Y0166988D01*
X0074275Y0167987D02*
X0085889Y0167987D01*
X0085811Y0168985D02*
X0074275Y0168985D01*
X0073725Y0169984D02*
X0086072Y0169984D01*
X0086731Y0170982D02*
X0020329Y0170982D01*
X0021061Y0171981D02*
X0088738Y0171981D01*
X0089098Y0171981D02*
X0089098Y0171981D01*
X0089098Y0171988D02*
X0089098Y0168701D01*
X0089098Y0168701D01*
X0089099Y0168701D02*
X0092386Y0168701D01*
X0092386Y0169025D01*
X0092259Y0169660D01*
X0092012Y0170258D01*
X0091652Y0170796D01*
X0091194Y0171254D01*
X0090656Y0171614D01*
X0090057Y0171862D01*
X0089422Y0171988D01*
X0089098Y0171988D01*
X0089459Y0171981D02*
X0163786Y0171981D01*
X0163786Y0172979D02*
X0021475Y0172979D01*
X0021701Y0173978D02*
X0163786Y0173978D01*
X0163786Y0174976D02*
X0021701Y0174976D01*
X0021582Y0175975D02*
X0163786Y0175975D01*
X0163786Y0176973D02*
X0021168Y0176973D01*
X0020587Y0177972D02*
X0163786Y0177972D01*
X0163786Y0178970D02*
X0019589Y0178970D01*
X0019312Y0169984D02*
X0066125Y0169984D01*
X0072805Y0159000D02*
X0073727Y0159000D01*
X0073692Y0158002D02*
X0073727Y0158002D01*
X0073727Y0153009D02*
X0073358Y0153009D01*
X0073727Y0152011D02*
X0072317Y0152011D01*
X0072790Y0149015D02*
X0073727Y0149015D01*
X0073686Y0148017D02*
X0073727Y0148017D01*
X0073727Y0143024D02*
X0073373Y0143024D01*
X0073727Y0142025D02*
X0072353Y0142025D01*
X0073388Y0133039D02*
X0073727Y0133039D01*
X0073727Y0132040D02*
X0072389Y0132040D01*
X0071989Y0130043D02*
X0070875Y0130043D01*
X0068975Y0130043D02*
X0004453Y0130043D01*
X0004453Y0129045D02*
X0067090Y0129045D01*
X0066177Y0128046D02*
X0004453Y0128046D01*
X0004453Y0127048D02*
X0065763Y0127048D01*
X0065575Y0126049D02*
X0004453Y0126049D01*
X0004453Y0125051D02*
X0065575Y0125051D01*
X0065911Y0124052D02*
X0004453Y0124052D01*
X0004453Y0123054D02*
X0066448Y0123054D01*
X0067446Y0122055D02*
X0004453Y0122055D01*
X0004453Y0121057D02*
X0073002Y0121057D01*
X0072404Y0122055D02*
X0074000Y0122055D01*
X0072003Y0120058D02*
X0070839Y0120058D01*
X0069011Y0120058D02*
X0004453Y0120058D01*
X0004453Y0119060D02*
X0067105Y0119060D01*
X0066183Y0118061D02*
X0004453Y0118061D01*
X0004453Y0117063D02*
X0065769Y0117063D01*
X0065575Y0116064D02*
X0004453Y0116064D01*
X0004453Y0115066D02*
X0065575Y0115066D01*
X0065905Y0114067D02*
X0004453Y0114067D01*
X0004453Y0113069D02*
X0066433Y0113069D01*
X0067432Y0112070D02*
X0004453Y0112070D01*
X0004453Y0091101D02*
X0073047Y0091101D01*
X0072449Y0092100D02*
X0074045Y0092100D01*
X0073447Y0093098D02*
X0075044Y0093098D01*
X0076042Y0094097D02*
X0073958Y0094097D01*
X0074275Y0095095D02*
X0077041Y0095095D01*
X0078039Y0096094D02*
X0074275Y0096094D01*
X0074069Y0097092D02*
X0079038Y0097092D01*
X0079632Y0098091D02*
X0074539Y0098091D01*
X0075538Y0099089D02*
X0079632Y0099089D01*
X0079632Y0100088D02*
X0076536Y0100088D01*
X0077535Y0101086D02*
X0079632Y0101086D01*
X0079632Y0102085D02*
X0078533Y0102085D01*
X0079532Y0103084D02*
X0079632Y0103084D01*
X0082817Y0103084D02*
X0126398Y0103084D01*
X0126237Y0103245D02*
X0127461Y0102021D01*
X0129060Y0101359D01*
X0130790Y0101359D01*
X0132389Y0102021D01*
X0133613Y0103245D01*
X0134275Y0104843D01*
X0134275Y0106574D01*
X0133613Y0108173D01*
X0132389Y0109396D01*
X0130790Y0110059D01*
X0129060Y0110059D01*
X0127461Y0109396D01*
X0126237Y0108173D01*
X0125575Y0106574D01*
X0125575Y0104843D01*
X0126237Y0103245D01*
X0125891Y0104082D02*
X0082817Y0104082D01*
X0082817Y0105081D02*
X0125575Y0105081D01*
X0125575Y0106079D02*
X0082817Y0106079D01*
X0082817Y0107078D02*
X0125784Y0107078D01*
X0126197Y0108076D02*
X0082817Y0108076D01*
X0082817Y0109075D02*
X0127139Y0109075D01*
X0127412Y0112070D02*
X0082817Y0112070D01*
X0082817Y0111072D02*
X0195398Y0111072D01*
X0195398Y0112070D02*
X0132438Y0112070D01*
X0133437Y0113069D02*
X0195398Y0113069D01*
X0195398Y0114067D02*
X0133954Y0114067D01*
X0133659Y0118061D02*
X0138569Y0118061D01*
X0139568Y0119060D02*
X0132726Y0119060D01*
X0130792Y0120058D02*
X0140566Y0120058D01*
X0141565Y0121057D02*
X0082817Y0121057D01*
X0082817Y0122055D02*
X0127427Y0122055D01*
X0127461Y0122021D02*
X0129060Y0121359D01*
X0130790Y0121359D01*
X0132389Y0122021D01*
X0133613Y0123245D01*
X0134275Y0124843D01*
X0134275Y0126574D01*
X0133613Y0128173D01*
X0132389Y0129396D01*
X0130790Y0130059D01*
X0129060Y0130059D01*
X0127461Y0129396D01*
X0126237Y0128173D01*
X0125575Y0126574D01*
X0125575Y0124843D01*
X0126237Y0123245D01*
X0127461Y0122021D01*
X0126428Y0123054D02*
X0082817Y0123054D01*
X0082817Y0124052D02*
X0125903Y0124052D01*
X0125575Y0125051D02*
X0082817Y0125051D01*
X0082817Y0126049D02*
X0125575Y0126049D01*
X0125771Y0127048D02*
X0082817Y0127048D01*
X0082817Y0128046D02*
X0126185Y0128046D01*
X0127110Y0129045D02*
X0082817Y0129045D01*
X0082817Y0130043D02*
X0129023Y0130043D01*
X0132741Y0129045D02*
X0149553Y0129045D01*
X0148555Y0128046D02*
X0133665Y0128046D01*
X0134079Y0127048D02*
X0147556Y0127048D01*
X0146558Y0126049D02*
X0134275Y0126049D01*
X0134275Y0125051D02*
X0145559Y0125051D01*
X0144560Y0124052D02*
X0133947Y0124052D01*
X0133422Y0123054D02*
X0143562Y0123054D01*
X0142563Y0122055D02*
X0132424Y0122055D01*
X0129059Y0120058D02*
X0082817Y0120058D01*
X0082817Y0119060D02*
X0127124Y0119060D01*
X0126191Y0118061D02*
X0082817Y0118061D01*
X0082817Y0117063D02*
X0125778Y0117063D01*
X0125575Y0116064D02*
X0082817Y0116064D01*
X0082817Y0115066D02*
X0125575Y0115066D01*
X0125897Y0114067D02*
X0082817Y0114067D01*
X0082817Y0113069D02*
X0126413Y0113069D01*
X0127397Y0102085D02*
X0082817Y0102085D01*
X0082817Y0101086D02*
X0161714Y0101086D01*
X0161729Y0101041D02*
X0162048Y0100414D01*
X0162462Y0099845D01*
X0162959Y0099348D01*
X0163528Y0098934D01*
X0164155Y0098615D01*
X0164824Y0098397D01*
X0165386Y0098308D01*
X0165386Y0102272D01*
X0161423Y0102272D01*
X0161512Y0101710D01*
X0161729Y0101041D01*
X0161452Y0102085D02*
X0132453Y0102085D01*
X0133452Y0103084D02*
X0165386Y0103084D01*
X0165386Y0103240D02*
X0165386Y0102272D01*
X0166354Y0102272D01*
X0166354Y0103240D01*
X0165386Y0103240D01*
X0161423Y0103240D01*
X0161512Y0103802D01*
X0161729Y0104471D01*
X0162048Y0105098D01*
X0162462Y0105667D01*
X0162959Y0106164D01*
X0163528Y0106578D01*
X0164155Y0106897D01*
X0164824Y0107114D01*
X0165386Y0107203D01*
X0165386Y0103240D01*
X0165386Y0104082D02*
X0166354Y0104082D01*
X0166354Y0103240D02*
X0166354Y0107203D01*
X0166916Y0107114D01*
X0167585Y0106897D01*
X0168212Y0106578D01*
X0168781Y0106164D01*
X0169278Y0105667D01*
X0169692Y0105098D01*
X0170011Y0104471D01*
X0170229Y0103802D01*
X0170318Y0103240D01*
X0166354Y0103240D01*
X0166354Y0103084D02*
X0179518Y0103084D01*
X0179518Y0103565D02*
X0179518Y0101947D01*
X0180137Y0100451D01*
X0181282Y0099307D01*
X0182777Y0098687D01*
X0184396Y0098687D01*
X0185891Y0099307D01*
X0187036Y0100451D01*
X0187655Y0101947D01*
X0187655Y0103565D01*
X0187036Y0105061D01*
X0185891Y0106205D01*
X0184396Y0106824D01*
X0182777Y0106824D01*
X0181282Y0106205D01*
X0180137Y0105061D01*
X0179518Y0103565D01*
X0179732Y0104082D02*
X0170138Y0104082D01*
X0169701Y0105081D02*
X0180158Y0105081D01*
X0181156Y0106079D02*
X0168866Y0106079D01*
X0167030Y0107078D02*
X0195398Y0107078D01*
X0195398Y0108076D02*
X0133653Y0108076D01*
X0134067Y0107078D02*
X0164710Y0107078D01*
X0165386Y0107078D02*
X0166354Y0107078D01*
X0166354Y0106079D02*
X0165386Y0106079D01*
X0165386Y0105081D02*
X0166354Y0105081D01*
X0166354Y0102272D02*
X0170318Y0102272D01*
X0170229Y0101710D01*
X0170011Y0101041D01*
X0169692Y0100414D01*
X0169278Y0099845D01*
X0168781Y0099348D01*
X0168212Y0098934D01*
X0167585Y0098615D01*
X0166916Y0098397D01*
X0166354Y0098308D01*
X0166354Y0102272D01*
X0166354Y0102085D02*
X0165386Y0102085D01*
X0165386Y0101086D02*
X0166354Y0101086D01*
X0166354Y0100088D02*
X0165386Y0100088D01*
X0165386Y0099089D02*
X0166354Y0099089D01*
X0168426Y0099089D02*
X0181807Y0099089D01*
X0180501Y0100088D02*
X0169455Y0100088D01*
X0170026Y0101086D02*
X0179874Y0101086D01*
X0179518Y0102085D02*
X0170288Y0102085D01*
X0163314Y0099089D02*
X0132696Y0099089D01*
X0132389Y0099396D02*
X0130790Y0100059D01*
X0129060Y0100059D01*
X0127461Y0099396D01*
X0126237Y0098173D01*
X0125575Y0096574D01*
X0125575Y0094843D01*
X0126237Y0093245D01*
X0127461Y0092021D01*
X0129060Y0091359D01*
X0130790Y0091359D01*
X0132389Y0092021D01*
X0133613Y0093245D01*
X0134275Y0094843D01*
X0134275Y0096574D01*
X0133613Y0098173D01*
X0132389Y0099396D01*
X0133647Y0098091D02*
X0195398Y0098091D01*
X0195398Y0099089D02*
X0185367Y0099089D01*
X0186672Y0100088D02*
X0195398Y0100088D01*
X0195398Y0101086D02*
X0187299Y0101086D01*
X0187655Y0102085D02*
X0195398Y0102085D01*
X0195398Y0103084D02*
X0187655Y0103084D01*
X0187441Y0104082D02*
X0195398Y0104082D01*
X0195398Y0105081D02*
X0187016Y0105081D01*
X0186017Y0106079D02*
X0195398Y0106079D01*
X0195398Y0109075D02*
X0132711Y0109075D01*
X0134275Y0106079D02*
X0162874Y0106079D01*
X0162039Y0105081D02*
X0134275Y0105081D01*
X0133960Y0104082D02*
X0161602Y0104082D01*
X0162285Y0100088D02*
X0082817Y0100088D01*
X0082817Y0099089D02*
X0127154Y0099089D01*
X0126204Y0098091D02*
X0082817Y0098091D01*
X0082817Y0097092D02*
X0125790Y0097092D01*
X0125575Y0096094D02*
X0082542Y0096094D01*
X0081544Y0095095D02*
X0125575Y0095095D01*
X0125884Y0094097D02*
X0106085Y0094097D01*
X0105336Y0094407D02*
X0107332Y0093580D01*
X0108860Y0092053D01*
X0108863Y0092045D01*
X0112347Y0092045D01*
X0113474Y0091578D01*
X0114338Y0090715D01*
X0114633Y0090419D01*
X0114633Y0090419D01*
X0120364Y0084688D01*
X0121227Y0083825D01*
X0121694Y0082697D01*
X0121694Y0048744D01*
X0121227Y0047616D01*
X0110994Y0037383D01*
X0110994Y0028083D01*
X0111613Y0027464D01*
X0112275Y0025865D01*
X0112275Y0024135D01*
X0111613Y0022536D01*
X0110389Y0021312D01*
X0108790Y0020650D01*
X0107060Y0020650D01*
X0105461Y0021312D01*
X0104275Y0022498D01*
X0104275Y0021294D01*
X0103631Y0020650D01*
X0096220Y0020650D01*
X0095575Y0021294D01*
X0095575Y0022498D01*
X0094389Y0021312D01*
X0092790Y0020650D01*
X0091060Y0020650D01*
X0089461Y0021312D01*
X0088237Y0022536D01*
X0087575Y0024135D01*
X0087575Y0025865D01*
X0088237Y0027464D01*
X0089461Y0028688D01*
X0091060Y0029350D01*
X0092790Y0029350D01*
X0094389Y0028688D01*
X0095575Y0027502D01*
X0095575Y0028706D01*
X0096220Y0029350D01*
X0103631Y0029350D01*
X0104275Y0028706D01*
X0104275Y0027502D01*
X0104857Y0028083D01*
X0104857Y0039264D01*
X0105324Y0040392D01*
X0115557Y0050625D01*
X0115557Y0080816D01*
X0110465Y0085908D01*
X0108863Y0085908D01*
X0108860Y0085900D01*
X0107332Y0084372D01*
X0105336Y0083546D01*
X0094514Y0083546D01*
X0092518Y0084372D01*
X0090991Y0085900D01*
X0090164Y0087896D01*
X0090164Y0090057D01*
X0090991Y0092053D01*
X0092518Y0093580D01*
X0094514Y0094407D01*
X0105336Y0094407D01*
X0107814Y0093098D02*
X0126384Y0093098D01*
X0127382Y0092100D02*
X0108813Y0092100D01*
X0108070Y0085110D02*
X0111263Y0085110D01*
X0112261Y0084112D02*
X0106703Y0084112D01*
X0113260Y0083113D02*
X0086128Y0083113D01*
X0086128Y0082115D02*
X0114258Y0082115D01*
X0115257Y0081116D02*
X0086128Y0081116D01*
X0086128Y0080118D02*
X0115557Y0080118D01*
X0115557Y0079119D02*
X0086128Y0079119D01*
X0086128Y0078121D02*
X0115557Y0078121D01*
X0115557Y0077122D02*
X0086128Y0077122D01*
X0086128Y0076124D02*
X0115557Y0076124D01*
X0115557Y0075125D02*
X0086128Y0075125D01*
X0086128Y0074127D02*
X0115557Y0074127D01*
X0115557Y0073128D02*
X0085717Y0073128D01*
X0085351Y0072245D02*
X0083916Y0070810D01*
X0082042Y0070034D01*
X0080013Y0070034D01*
X0078139Y0070810D01*
X0076704Y0072245D01*
X0075928Y0074119D01*
X0075928Y0084148D01*
X0076704Y0086023D01*
X0078139Y0087457D01*
X0080013Y0088234D01*
X0082042Y0088234D01*
X0083916Y0087457D01*
X0085351Y0086023D01*
X0086128Y0084148D01*
X0086128Y0074119D01*
X0085351Y0072245D01*
X0085236Y0072130D02*
X0115557Y0072130D01*
X0115557Y0071131D02*
X0084237Y0071131D01*
X0082280Y0070133D02*
X0093188Y0070133D01*
X0093043Y0070058D02*
X0092342Y0069549D01*
X0091730Y0068937D01*
X0091221Y0068237D01*
X0090828Y0067466D01*
X0090561Y0066642D01*
X0090425Y0065787D01*
X0090425Y0065654D01*
X0099625Y0065654D01*
X0099625Y0065054D01*
X0100225Y0065054D01*
X0100225Y0059854D01*
X0104358Y0059854D01*
X0105213Y0059990D01*
X0106036Y0060257D01*
X0106808Y0060650D01*
X0107508Y0061159D01*
X0108120Y0061771D01*
X0108629Y0062472D01*
X0109022Y0063243D01*
X0109290Y0064066D01*
X0109425Y0064921D01*
X0109425Y0065054D01*
X0100225Y0065054D01*
X0100225Y0065654D01*
X0109425Y0065654D01*
X0109425Y0065787D01*
X0109290Y0066642D01*
X0109022Y0067466D01*
X0108629Y0068237D01*
X0108120Y0068937D01*
X0107508Y0069549D01*
X0106808Y0070058D01*
X0106036Y0070451D01*
X0105213Y0070719D01*
X0104358Y0070854D01*
X0100225Y0070854D01*
X0100225Y0065654D01*
X0099625Y0065654D01*
X0099625Y0070854D01*
X0095492Y0070854D01*
X0094637Y0070719D01*
X0093814Y0070451D01*
X0093043Y0070058D01*
X0091927Y0069134D02*
X0072671Y0069134D01*
X0073636Y0068136D02*
X0091170Y0068136D01*
X0090721Y0067137D02*
X0074050Y0067137D01*
X0074275Y0066139D02*
X0090481Y0066139D01*
X0090425Y0065054D02*
X0090425Y0064921D01*
X0090561Y0064066D01*
X0090828Y0063243D01*
X0091221Y0062472D01*
X0091730Y0061771D01*
X0092342Y0061159D01*
X0093043Y0060650D01*
X0093814Y0060257D01*
X0094637Y0059990D01*
X0095492Y0059854D01*
X0099625Y0059854D01*
X0099625Y0065054D01*
X0090425Y0065054D01*
X0090549Y0064142D02*
X0073976Y0064142D01*
X0074275Y0065140D02*
X0099625Y0065140D01*
X0100225Y0065140D02*
X0115557Y0065140D01*
X0115557Y0064142D02*
X0109302Y0064142D01*
X0108971Y0063143D02*
X0115557Y0063143D01*
X0115557Y0062145D02*
X0108392Y0062145D01*
X0107490Y0061146D02*
X0115557Y0061146D01*
X0115557Y0060148D02*
X0105699Y0060148D01*
X0100225Y0060148D02*
X0099625Y0060148D01*
X0099625Y0061146D02*
X0100225Y0061146D01*
X0100225Y0062145D02*
X0099625Y0062145D01*
X0099625Y0063143D02*
X0100225Y0063143D01*
X0100225Y0064142D02*
X0099625Y0064142D01*
X0099625Y0066139D02*
X0100225Y0066139D01*
X0100225Y0067137D02*
X0099625Y0067137D01*
X0099625Y0068136D02*
X0100225Y0068136D01*
X0100225Y0069134D02*
X0099625Y0069134D01*
X0099625Y0070133D02*
X0100225Y0070133D01*
X0106662Y0070133D02*
X0115557Y0070133D01*
X0115557Y0069134D02*
X0107924Y0069134D01*
X0108681Y0068136D02*
X0115557Y0068136D01*
X0115557Y0067137D02*
X0109129Y0067137D01*
X0109370Y0066139D02*
X0115557Y0066139D01*
X0115557Y0059149D02*
X0072656Y0059149D01*
X0072389Y0059416D02*
X0070790Y0060078D01*
X0069060Y0060078D01*
X0067461Y0059416D01*
X0066237Y0058192D01*
X0065575Y0056594D01*
X0065575Y0054863D01*
X0066237Y0053264D01*
X0067461Y0052041D01*
X0069060Y0051378D01*
X0070790Y0051378D01*
X0072389Y0052041D01*
X0073613Y0053264D01*
X0074275Y0054863D01*
X0074275Y0056594D01*
X0073613Y0058192D01*
X0072389Y0059416D01*
X0073630Y0058151D02*
X0115557Y0058151D01*
X0115557Y0057152D02*
X0074044Y0057152D01*
X0074275Y0056153D02*
X0115557Y0056153D01*
X0115557Y0055155D02*
X0074275Y0055155D01*
X0073982Y0054156D02*
X0115557Y0054156D01*
X0115557Y0053158D02*
X0073507Y0053158D01*
X0072508Y0052159D02*
X0115557Y0052159D01*
X0115557Y0051161D02*
X0061458Y0051161D01*
X0061458Y0052159D02*
X0067342Y0052159D01*
X0066344Y0053158D02*
X0061458Y0053158D01*
X0061458Y0054156D02*
X0065868Y0054156D01*
X0065575Y0055155D02*
X0062021Y0055155D01*
X0063020Y0056153D02*
X0065575Y0056153D01*
X0065806Y0057152D02*
X0064018Y0057152D01*
X0065017Y0058151D02*
X0066220Y0058151D01*
X0066015Y0059149D02*
X0067194Y0059149D01*
X0067014Y0060148D02*
X0094152Y0060148D01*
X0092360Y0061146D02*
X0068012Y0061146D01*
X0072493Y0062145D02*
X0091459Y0062145D01*
X0090879Y0063143D02*
X0073492Y0063143D01*
X0072478Y0072130D02*
X0076819Y0072130D01*
X0076338Y0073128D02*
X0073477Y0073128D01*
X0073970Y0074127D02*
X0075928Y0074127D01*
X0075928Y0075125D02*
X0074275Y0075125D01*
X0074275Y0076124D02*
X0075928Y0076124D01*
X0075928Y0077122D02*
X0074056Y0077122D01*
X0073643Y0078121D02*
X0075928Y0078121D01*
X0075928Y0079119D02*
X0072686Y0079119D01*
X0072463Y0082115D02*
X0075928Y0082115D01*
X0075928Y0083113D02*
X0073462Y0083113D01*
X0073964Y0084112D02*
X0075928Y0084112D01*
X0076326Y0085110D02*
X0074275Y0085110D01*
X0074275Y0086109D02*
X0076790Y0086109D01*
X0077789Y0087107D02*
X0074062Y0087107D01*
X0074554Y0088106D02*
X0079704Y0088106D01*
X0077550Y0091101D02*
X0090597Y0091101D01*
X0090183Y0090103D02*
X0076551Y0090103D01*
X0075553Y0089104D02*
X0090164Y0089104D01*
X0090164Y0088106D02*
X0082351Y0088106D01*
X0084267Y0087107D02*
X0090491Y0087107D01*
X0090904Y0086109D02*
X0085265Y0086109D01*
X0085729Y0085110D02*
X0091780Y0085110D01*
X0093147Y0084112D02*
X0086128Y0084112D01*
X0091038Y0092100D02*
X0078548Y0092100D01*
X0079547Y0093098D02*
X0092036Y0093098D01*
X0093765Y0094097D02*
X0080545Y0094097D01*
X0072048Y0090103D02*
X0004453Y0090103D01*
X0008518Y0071131D02*
X0077818Y0071131D01*
X0079775Y0070133D02*
X0009517Y0070133D01*
X0018352Y0081116D02*
X0032887Y0081116D01*
X0031179Y0080118D02*
X0019631Y0080118D01*
X0020283Y0079119D02*
X0030386Y0079119D01*
X0029972Y0078121D02*
X0020637Y0078121D01*
X0020501Y0059149D02*
X0045694Y0059149D01*
X0044678Y0058151D02*
X0021499Y0058151D01*
X0022498Y0057152D02*
X0043946Y0057152D01*
X0043533Y0056153D02*
X0023496Y0056153D01*
X0024495Y0055155D02*
X0043307Y0055155D01*
X0043307Y0054156D02*
X0025493Y0054156D01*
X0026492Y0053158D02*
X0043426Y0053158D01*
X0036477Y0043173D02*
X0057683Y0043173D01*
X0057683Y0044171D02*
X0035478Y0044171D01*
X0034480Y0045170D02*
X0057683Y0045170D01*
X0057683Y0046168D02*
X0033481Y0046168D01*
X0032483Y0047167D02*
X0057683Y0047167D01*
X0057683Y0048165D02*
X0031484Y0048165D01*
X0037475Y0042174D02*
X0057683Y0042174D01*
X0057683Y0041176D02*
X0038474Y0041176D01*
X0039472Y0040177D02*
X0057683Y0040177D01*
X0057683Y0039179D02*
X0040471Y0039179D01*
X0041469Y0038180D02*
X0057683Y0038180D01*
X0057683Y0037182D02*
X0042468Y0037182D01*
X0043466Y0036183D02*
X0057683Y0036183D01*
X0057683Y0035185D02*
X0044465Y0035185D01*
X0045463Y0034186D02*
X0057683Y0034186D01*
X0057683Y0033188D02*
X0046462Y0033188D01*
X0047460Y0032189D02*
X0057683Y0032189D01*
X0057683Y0031191D02*
X0048459Y0031191D01*
X0049457Y0030192D02*
X0057683Y0030192D01*
X0057683Y0029194D02*
X0050456Y0029194D01*
X0051454Y0028195D02*
X0057683Y0028195D01*
X0057683Y0027197D02*
X0052453Y0027197D01*
X0053451Y0026198D02*
X0057683Y0026198D01*
X0058671Y0025200D02*
X0054450Y0025200D01*
X0055448Y0024201D02*
X0059669Y0024201D01*
X0060668Y0023203D02*
X0056447Y0023203D01*
X0057446Y0022204D02*
X0061666Y0022204D01*
X0062665Y0021206D02*
X0058444Y0021206D01*
X0059443Y0020207D02*
X0063663Y0020207D01*
X0064662Y0019209D02*
X0060441Y0019209D01*
X0061440Y0018210D02*
X0065660Y0018210D01*
X0066659Y0017212D02*
X0062438Y0017212D01*
X0063437Y0016213D02*
X0067657Y0016213D01*
X0065434Y0014216D02*
X0134417Y0014216D01*
X0135415Y0015215D02*
X0064435Y0015215D01*
X0069001Y0020207D02*
X0080204Y0020207D01*
X0079791Y0021206D02*
X0068003Y0021206D01*
X0067461Y0022041D02*
X0069060Y0021378D01*
X0070790Y0021378D01*
X0072389Y0022041D01*
X0073613Y0023264D01*
X0074275Y0024863D01*
X0074275Y0026594D01*
X0073613Y0028192D01*
X0072389Y0029416D01*
X0070790Y0030078D01*
X0069060Y0030078D01*
X0067461Y0029416D01*
X0066237Y0028192D01*
X0065575Y0026594D01*
X0065575Y0024863D01*
X0066237Y0023264D01*
X0067461Y0022041D01*
X0067298Y0022204D02*
X0067004Y0022204D01*
X0066299Y0023203D02*
X0066006Y0023203D01*
X0065849Y0024201D02*
X0065007Y0024201D01*
X0065575Y0025200D02*
X0064009Y0025200D01*
X0063010Y0026198D02*
X0065575Y0026198D01*
X0065825Y0027197D02*
X0062012Y0027197D01*
X0061458Y0028195D02*
X0066240Y0028195D01*
X0067239Y0029194D02*
X0061458Y0029194D01*
X0061458Y0030192D02*
X0080523Y0030192D01*
X0079956Y0029194D02*
X0072612Y0029194D01*
X0073610Y0028195D02*
X0079675Y0028195D01*
X0079675Y0027197D02*
X0074025Y0027197D01*
X0074275Y0026198D02*
X0079675Y0026198D01*
X0079675Y0025200D02*
X0074275Y0025200D01*
X0074001Y0024201D02*
X0079675Y0024201D01*
X0079675Y0023203D02*
X0073551Y0023203D01*
X0072553Y0022204D02*
X0079675Y0022204D01*
X0081122Y0019209D02*
X0070000Y0019209D01*
X0070790Y0031378D02*
X0069060Y0031378D01*
X0067461Y0032041D01*
X0066237Y0033264D01*
X0065575Y0034863D01*
X0065575Y0036594D01*
X0066237Y0038192D01*
X0067461Y0039416D01*
X0069060Y0040078D01*
X0070790Y0040078D01*
X0072389Y0039416D01*
X0073613Y0038192D01*
X0074275Y0036594D01*
X0074275Y0034863D01*
X0073613Y0033264D01*
X0072389Y0032041D01*
X0070790Y0031378D01*
X0072538Y0032189D02*
X0104857Y0032189D01*
X0104857Y0031191D02*
X0085279Y0031191D01*
X0086528Y0030192D02*
X0104857Y0030192D01*
X0104857Y0029194D02*
X0103787Y0029194D01*
X0104275Y0028195D02*
X0104857Y0028195D01*
X0104569Y0022204D02*
X0104275Y0022204D01*
X0104186Y0021206D02*
X0105719Y0021206D01*
X0110132Y0021206D02*
X0112591Y0021206D01*
X0112475Y0022204D02*
X0111281Y0022204D01*
X0111889Y0023203D02*
X0112475Y0023203D01*
X0112475Y0024201D02*
X0112275Y0024201D01*
X0112275Y0025200D02*
X0112475Y0025200D01*
X0112475Y0026198D02*
X0112137Y0026198D01*
X0112475Y0027197D02*
X0111724Y0027197D01*
X0110994Y0028195D02*
X0112475Y0028195D01*
X0112756Y0029194D02*
X0110994Y0029194D01*
X0110994Y0030192D02*
X0113323Y0030192D01*
X0114571Y0031191D02*
X0110994Y0031191D01*
X0110994Y0032189D02*
X0127293Y0032189D01*
X0127461Y0032021D02*
X0129060Y0031359D01*
X0130790Y0031359D01*
X0132389Y0032021D01*
X0133613Y0033245D01*
X0134275Y0034843D01*
X0134275Y0036574D01*
X0133613Y0038173D01*
X0132389Y0039396D01*
X0130790Y0040059D01*
X0129060Y0040059D01*
X0127461Y0039396D01*
X0126237Y0038173D01*
X0125575Y0036574D01*
X0125575Y0034843D01*
X0126237Y0033245D01*
X0127461Y0032021D01*
X0126294Y0033188D02*
X0110994Y0033188D01*
X0110994Y0034186D02*
X0125847Y0034186D01*
X0125575Y0035185D02*
X0110994Y0035185D01*
X0110994Y0036183D02*
X0125575Y0036183D01*
X0125827Y0037182D02*
X0110994Y0037182D01*
X0111791Y0038180D02*
X0126245Y0038180D01*
X0127243Y0039179D02*
X0112790Y0039179D01*
X0113788Y0040177D02*
X0152788Y0040177D01*
X0153786Y0041176D02*
X0114787Y0041176D01*
X0115785Y0042174D02*
X0127308Y0042174D01*
X0127461Y0042021D02*
X0129060Y0041359D01*
X0130790Y0041359D01*
X0132389Y0042021D01*
X0133613Y0043245D01*
X0134275Y0044843D01*
X0134275Y0046574D01*
X0133613Y0048173D01*
X0132389Y0049396D01*
X0130790Y0050059D01*
X0129060Y0050059D01*
X0127461Y0049396D01*
X0126237Y0048173D01*
X0125575Y0046574D01*
X0125575Y0044843D01*
X0126237Y0043245D01*
X0127461Y0042021D01*
X0126309Y0043173D02*
X0116784Y0043173D01*
X0117783Y0044171D02*
X0125854Y0044171D01*
X0125575Y0045170D02*
X0118781Y0045170D01*
X0119780Y0046168D02*
X0125575Y0046168D01*
X0125821Y0047167D02*
X0120778Y0047167D01*
X0121455Y0048165D02*
X0126234Y0048165D01*
X0127229Y0049164D02*
X0121694Y0049164D01*
X0121694Y0050162D02*
X0147782Y0050162D01*
X0148026Y0049918D02*
X0146497Y0051448D01*
X0145669Y0053446D01*
X0145669Y0055609D01*
X0146497Y0057607D01*
X0148026Y0059137D01*
X0150025Y0059965D01*
X0152188Y0059965D01*
X0154186Y0059137D01*
X0155716Y0057607D01*
X0156543Y0055609D01*
X0156543Y0053446D01*
X0155716Y0051448D01*
X0154186Y0049918D01*
X0152188Y0049091D01*
X0150025Y0049091D01*
X0148026Y0049918D01*
X0146784Y0051161D02*
X0121694Y0051161D01*
X0121694Y0052159D02*
X0127323Y0052159D01*
X0127461Y0052021D02*
X0129060Y0051359D01*
X0130790Y0051359D01*
X0132389Y0052021D01*
X0133613Y0053245D01*
X0134275Y0054843D01*
X0134275Y0056574D01*
X0133613Y0058173D01*
X0132389Y0059396D01*
X0130790Y0060059D01*
X0129060Y0060059D01*
X0127461Y0059396D01*
X0126237Y0058173D01*
X0125575Y0056574D01*
X0125575Y0054843D01*
X0126237Y0053245D01*
X0127461Y0052021D01*
X0126324Y0053158D02*
X0121694Y0053158D01*
X0121694Y0054156D02*
X0125860Y0054156D01*
X0125575Y0055155D02*
X0121694Y0055155D01*
X0121694Y0056153D02*
X0125575Y0056153D01*
X0125815Y0057152D02*
X0121694Y0057152D01*
X0121694Y0058151D02*
X0126228Y0058151D01*
X0127214Y0059149D02*
X0121694Y0059149D01*
X0121694Y0060148D02*
X0172758Y0060148D01*
X0172841Y0061146D02*
X0121694Y0061146D01*
X0121694Y0062145D02*
X0127337Y0062145D01*
X0127461Y0062021D02*
X0129060Y0061359D01*
X0130790Y0061359D01*
X0132389Y0062021D01*
X0133613Y0063245D01*
X0134275Y0064843D01*
X0134275Y0066574D01*
X0133613Y0068173D01*
X0132389Y0069396D01*
X0130790Y0070059D01*
X0129060Y0070059D01*
X0127461Y0069396D01*
X0126237Y0068173D01*
X0125575Y0066574D01*
X0125575Y0064843D01*
X0126237Y0063245D01*
X0127461Y0062021D01*
X0126339Y0063143D02*
X0121694Y0063143D01*
X0121694Y0064142D02*
X0125866Y0064142D01*
X0125575Y0065140D02*
X0121694Y0065140D01*
X0121694Y0066139D02*
X0125575Y0066139D01*
X0125808Y0067137D02*
X0121694Y0067137D01*
X0121694Y0068136D02*
X0126222Y0068136D01*
X0127199Y0069134D02*
X0121694Y0069134D01*
X0121694Y0070133D02*
X0190333Y0070133D01*
X0189335Y0069134D02*
X0132652Y0069134D01*
X0133628Y0068136D02*
X0173008Y0068136D01*
X0172367Y0067137D02*
X0134042Y0067137D01*
X0134275Y0066139D02*
X0172241Y0066139D01*
X0172532Y0065140D02*
X0134275Y0065140D01*
X0133984Y0064142D02*
X0172828Y0064142D01*
X0172828Y0063143D02*
X0133511Y0063143D01*
X0132513Y0062145D02*
X0172828Y0062145D01*
X0171759Y0059149D02*
X0154157Y0059149D01*
X0155172Y0058151D02*
X0170761Y0058151D01*
X0169762Y0057152D02*
X0155904Y0057152D01*
X0156318Y0056153D02*
X0168764Y0056153D01*
X0167765Y0055155D02*
X0156543Y0055155D01*
X0156543Y0054156D02*
X0166767Y0054156D01*
X0165768Y0053158D02*
X0156424Y0053158D01*
X0156010Y0052159D02*
X0164770Y0052159D01*
X0163771Y0051161D02*
X0155429Y0051161D01*
X0154430Y0050162D02*
X0162773Y0050162D01*
X0161774Y0049164D02*
X0152365Y0049164D01*
X0149848Y0049164D02*
X0132622Y0049164D01*
X0133616Y0048165D02*
X0160776Y0048165D01*
X0159777Y0047167D02*
X0134030Y0047167D01*
X0134275Y0046168D02*
X0158779Y0046168D01*
X0157780Y0045170D02*
X0134275Y0045170D01*
X0133997Y0044171D02*
X0156782Y0044171D01*
X0155783Y0043173D02*
X0133541Y0043173D01*
X0132543Y0042174D02*
X0154785Y0042174D01*
X0157127Y0039179D02*
X0159380Y0039179D01*
X0160378Y0040177D02*
X0158126Y0040177D01*
X0159125Y0041176D02*
X0161377Y0041176D01*
X0162375Y0042174D02*
X0160123Y0042174D01*
X0161122Y0043173D02*
X0163374Y0043173D01*
X0164372Y0044171D02*
X0162120Y0044171D01*
X0163119Y0045170D02*
X0165371Y0045170D01*
X0166369Y0046168D02*
X0164117Y0046168D01*
X0165116Y0047167D02*
X0167368Y0047167D01*
X0168366Y0048165D02*
X0166114Y0048165D01*
X0167113Y0049164D02*
X0169365Y0049164D01*
X0170363Y0050162D02*
X0168111Y0050162D01*
X0169110Y0051161D02*
X0171362Y0051161D01*
X0172360Y0052159D02*
X0170108Y0052159D01*
X0171107Y0053158D02*
X0173359Y0053158D01*
X0174357Y0054156D02*
X0172105Y0054156D01*
X0173104Y0055155D02*
X0175356Y0055155D01*
X0176354Y0056153D02*
X0174102Y0056153D01*
X0175101Y0057152D02*
X0177353Y0057152D01*
X0178351Y0058151D02*
X0176099Y0058151D01*
X0176616Y0059149D02*
X0179350Y0059149D01*
X0180348Y0060148D02*
X0176616Y0060148D01*
X0176616Y0061146D02*
X0181347Y0061146D01*
X0182345Y0062145D02*
X0176628Y0062145D01*
X0176628Y0063143D02*
X0183344Y0063143D01*
X0184342Y0064142D02*
X0176628Y0064142D01*
X0176924Y0065140D02*
X0185341Y0065140D01*
X0186339Y0066139D02*
X0177216Y0066139D01*
X0177090Y0067137D02*
X0187338Y0067137D01*
X0188336Y0068136D02*
X0176449Y0068136D01*
X0181282Y0073716D02*
X0182777Y0073097D01*
X0184396Y0073097D01*
X0185891Y0073716D01*
X0187036Y0074861D01*
X0187655Y0076356D01*
X0187655Y0077975D01*
X0187036Y0079470D01*
X0185891Y0080614D01*
X0184396Y0081234D01*
X0182777Y0081234D01*
X0181282Y0080614D01*
X0180137Y0079470D01*
X0179518Y0077975D01*
X0179518Y0076356D01*
X0180137Y0074861D01*
X0181282Y0073716D01*
X0180872Y0074127D02*
X0169151Y0074127D01*
X0169278Y0074254D02*
X0169692Y0074823D01*
X0170011Y0075450D01*
X0170229Y0076119D01*
X0170318Y0076681D01*
X0166354Y0076681D01*
X0166354Y0072718D01*
X0166916Y0072807D01*
X0167585Y0073024D01*
X0168212Y0073344D01*
X0168781Y0073757D01*
X0169278Y0074254D01*
X0169846Y0075125D02*
X0180028Y0075125D01*
X0179614Y0076124D02*
X0170229Y0076124D01*
X0170318Y0077650D02*
X0170229Y0078212D01*
X0170011Y0078881D01*
X0169692Y0079507D01*
X0169278Y0080076D01*
X0168781Y0080574D01*
X0168212Y0080987D01*
X0167585Y0081306D01*
X0166916Y0081524D01*
X0166354Y0081613D01*
X0166354Y0077650D01*
X0165386Y0077650D01*
X0165386Y0081613D01*
X0164824Y0081524D01*
X0164155Y0081306D01*
X0163528Y0080987D01*
X0162959Y0080574D01*
X0162462Y0080076D01*
X0162048Y0079507D01*
X0161729Y0078881D01*
X0161512Y0078212D01*
X0161423Y0077650D01*
X0165386Y0077650D01*
X0165386Y0076681D01*
X0166354Y0076681D01*
X0166354Y0077650D01*
X0170318Y0077650D01*
X0170243Y0078121D02*
X0179579Y0078121D01*
X0179518Y0077122D02*
X0166354Y0077122D01*
X0165386Y0077122D02*
X0134048Y0077122D01*
X0134275Y0076574D02*
X0133613Y0078173D01*
X0132389Y0079396D01*
X0130790Y0080059D01*
X0129060Y0080059D01*
X0127461Y0079396D01*
X0126237Y0078173D01*
X0125575Y0076574D01*
X0125575Y0074843D01*
X0126237Y0073245D01*
X0127461Y0072021D01*
X0129060Y0071359D01*
X0130790Y0071359D01*
X0132389Y0072021D01*
X0133613Y0073245D01*
X0134275Y0074843D01*
X0134275Y0076574D01*
X0134275Y0076124D02*
X0161511Y0076124D01*
X0161512Y0076119D02*
X0161729Y0075450D01*
X0162048Y0074823D01*
X0162462Y0074254D01*
X0162959Y0073757D01*
X0163528Y0073344D01*
X0164155Y0073024D01*
X0164824Y0072807D01*
X0165386Y0072718D01*
X0165386Y0076681D01*
X0161423Y0076681D01*
X0161512Y0076119D01*
X0161894Y0075125D02*
X0134275Y0075125D01*
X0133978Y0074127D02*
X0162589Y0074127D01*
X0163951Y0073128D02*
X0133497Y0073128D01*
X0132498Y0072130D02*
X0192330Y0072130D01*
X0191332Y0071131D02*
X0121694Y0071131D01*
X0121694Y0072130D02*
X0127352Y0072130D01*
X0126354Y0073128D02*
X0121694Y0073128D01*
X0121694Y0074127D02*
X0125872Y0074127D01*
X0125575Y0075125D02*
X0121694Y0075125D01*
X0121694Y0076124D02*
X0125575Y0076124D01*
X0125802Y0077122D02*
X0121694Y0077122D01*
X0121694Y0078121D02*
X0126216Y0078121D01*
X0127184Y0079119D02*
X0121694Y0079119D01*
X0121694Y0080118D02*
X0162503Y0080118D01*
X0161851Y0079119D02*
X0132666Y0079119D01*
X0133634Y0078121D02*
X0161497Y0078121D01*
X0163781Y0081116D02*
X0121694Y0081116D01*
X0121694Y0082115D02*
X0127367Y0082115D01*
X0127461Y0082021D02*
X0129060Y0081359D01*
X0130790Y0081359D01*
X0132389Y0082021D01*
X0133613Y0083245D01*
X0134275Y0084843D01*
X0134275Y0086574D01*
X0133613Y0088173D01*
X0132389Y0089396D01*
X0130790Y0090059D01*
X0129060Y0090059D01*
X0127461Y0089396D01*
X0126237Y0088173D01*
X0125575Y0086574D01*
X0125575Y0084843D01*
X0126237Y0083245D01*
X0127461Y0082021D01*
X0126369Y0083113D02*
X0121522Y0083113D01*
X0120940Y0084112D02*
X0125878Y0084112D01*
X0125575Y0085110D02*
X0119942Y0085110D01*
X0118943Y0086109D02*
X0125575Y0086109D01*
X0125796Y0087107D02*
X0117945Y0087107D01*
X0116946Y0088106D02*
X0126210Y0088106D01*
X0127169Y0089104D02*
X0115948Y0089104D01*
X0114949Y0090103D02*
X0195398Y0090103D01*
X0195398Y0091101D02*
X0113951Y0091101D01*
X0132468Y0092100D02*
X0195398Y0092100D01*
X0195398Y0093098D02*
X0133467Y0093098D01*
X0133966Y0094097D02*
X0195398Y0094097D01*
X0195398Y0095095D02*
X0134275Y0095095D01*
X0134275Y0096094D02*
X0195398Y0096094D01*
X0195398Y0097092D02*
X0134060Y0097092D01*
X0132681Y0089104D02*
X0195398Y0089104D01*
X0195398Y0088106D02*
X0133641Y0088106D01*
X0134054Y0087107D02*
X0195398Y0087107D01*
X0195398Y0086109D02*
X0134275Y0086109D01*
X0134275Y0085110D02*
X0195398Y0085110D01*
X0195398Y0084112D02*
X0133972Y0084112D01*
X0133482Y0083113D02*
X0195398Y0083113D01*
X0195398Y0082115D02*
X0132483Y0082115D01*
X0132637Y0059149D02*
X0148056Y0059149D01*
X0147040Y0058151D02*
X0133622Y0058151D01*
X0134036Y0057152D02*
X0146308Y0057152D01*
X0145895Y0056153D02*
X0134275Y0056153D01*
X0134275Y0055155D02*
X0145669Y0055155D01*
X0145669Y0054156D02*
X0133991Y0054156D01*
X0133526Y0053158D02*
X0145789Y0053158D01*
X0146202Y0052159D02*
X0132528Y0052159D01*
X0132607Y0039179D02*
X0151789Y0039179D01*
X0150791Y0038180D02*
X0133605Y0038180D01*
X0134023Y0037182D02*
X0149792Y0037182D01*
X0148794Y0036183D02*
X0134275Y0036183D01*
X0134275Y0035185D02*
X0147795Y0035185D01*
X0146797Y0034186D02*
X0134003Y0034186D01*
X0133556Y0033188D02*
X0145798Y0033188D01*
X0144800Y0032189D02*
X0132558Y0032189D01*
X0133631Y0030059D02*
X0126220Y0030059D01*
X0125575Y0029414D01*
X0125575Y0022003D01*
X0126220Y0021359D01*
X0133631Y0021359D01*
X0134275Y0022003D01*
X0134275Y0029414D01*
X0133631Y0030059D01*
X0134275Y0029194D02*
X0141804Y0029194D01*
X0142803Y0030192D02*
X0119328Y0030192D01*
X0119894Y0029194D02*
X0125575Y0029194D01*
X0125575Y0028195D02*
X0120175Y0028195D01*
X0120175Y0027197D02*
X0125575Y0027197D01*
X0125575Y0026198D02*
X0120175Y0026198D01*
X0120175Y0025200D02*
X0125575Y0025200D01*
X0125575Y0024201D02*
X0120175Y0024201D01*
X0120175Y0023203D02*
X0125575Y0023203D01*
X0125575Y0022204D02*
X0120175Y0022204D01*
X0120060Y0021206D02*
X0133816Y0021206D01*
X0134275Y0022204D02*
X0134814Y0022204D01*
X0134275Y0023203D02*
X0135813Y0023203D01*
X0136811Y0024201D02*
X0134275Y0024201D01*
X0134275Y0025200D02*
X0137810Y0025200D01*
X0138808Y0026198D02*
X0134275Y0026198D01*
X0134275Y0027197D02*
X0139807Y0027197D01*
X0140806Y0028195D02*
X0134275Y0028195D01*
X0132817Y0020207D02*
X0119646Y0020207D01*
X0118728Y0019209D02*
X0131819Y0019209D01*
X0134162Y0016213D02*
X0136414Y0016213D01*
X0137412Y0017212D02*
X0135160Y0017212D01*
X0136159Y0018210D02*
X0138411Y0018210D01*
X0139409Y0019209D02*
X0137157Y0019209D01*
X0138156Y0020207D02*
X0140408Y0020207D01*
X0141406Y0021206D02*
X0139154Y0021206D01*
X0140153Y0022204D02*
X0142405Y0022204D01*
X0143403Y0023203D02*
X0141151Y0023203D01*
X0142150Y0024201D02*
X0144402Y0024201D01*
X0145400Y0025200D02*
X0143148Y0025200D01*
X0144147Y0026198D02*
X0146399Y0026198D01*
X0147397Y0027197D02*
X0145145Y0027197D01*
X0146144Y0028195D02*
X0148396Y0028195D01*
X0149394Y0029194D02*
X0147142Y0029194D01*
X0148141Y0030192D02*
X0150393Y0030192D01*
X0151391Y0031191D02*
X0149139Y0031191D01*
X0150138Y0032189D02*
X0152390Y0032189D01*
X0153389Y0033188D02*
X0151136Y0033188D01*
X0152135Y0034186D02*
X0154387Y0034186D01*
X0155386Y0035185D02*
X0153133Y0035185D01*
X0154132Y0036183D02*
X0156384Y0036183D01*
X0157383Y0037182D02*
X0155130Y0037182D01*
X0156129Y0038180D02*
X0158381Y0038180D01*
X0143801Y0031191D02*
X0118079Y0031191D01*
X0113004Y0020207D02*
X0086846Y0020207D01*
X0087260Y0021206D02*
X0089719Y0021206D01*
X0088569Y0022204D02*
X0087375Y0022204D01*
X0087375Y0023203D02*
X0087961Y0023203D01*
X0087575Y0024201D02*
X0087375Y0024201D01*
X0087375Y0025200D02*
X0087575Y0025200D01*
X0087713Y0026198D02*
X0087375Y0026198D01*
X0087375Y0027197D02*
X0088127Y0027197D01*
X0087375Y0028195D02*
X0088969Y0028195D01*
X0090683Y0029194D02*
X0087094Y0029194D01*
X0081771Y0031191D02*
X0061458Y0031191D01*
X0061458Y0032189D02*
X0067312Y0032189D01*
X0066314Y0033188D02*
X0061458Y0033188D01*
X0061458Y0034186D02*
X0065856Y0034186D01*
X0065575Y0035185D02*
X0061458Y0035185D01*
X0061458Y0036183D02*
X0065575Y0036183D01*
X0065819Y0037182D02*
X0061458Y0037182D01*
X0061458Y0038180D02*
X0066232Y0038180D01*
X0067224Y0039179D02*
X0061458Y0039179D01*
X0061458Y0040177D02*
X0105235Y0040177D01*
X0104857Y0039179D02*
X0072627Y0039179D01*
X0073618Y0038180D02*
X0104857Y0038180D01*
X0104857Y0037182D02*
X0074032Y0037182D01*
X0074275Y0036183D02*
X0104857Y0036183D01*
X0104857Y0035185D02*
X0074275Y0035185D01*
X0073995Y0034186D02*
X0104857Y0034186D01*
X0104857Y0033188D02*
X0073536Y0033188D01*
X0070790Y0041378D02*
X0069060Y0041378D01*
X0067461Y0042041D01*
X0066237Y0043264D01*
X0065575Y0044863D01*
X0065575Y0046594D01*
X0066237Y0048192D01*
X0067461Y0049416D01*
X0069060Y0050078D01*
X0070790Y0050078D01*
X0072389Y0049416D01*
X0073613Y0048192D01*
X0074275Y0046594D01*
X0074275Y0044863D01*
X0073613Y0043264D01*
X0072389Y0042041D01*
X0070790Y0041378D01*
X0072523Y0042174D02*
X0107106Y0042174D01*
X0106108Y0041176D02*
X0061458Y0041176D01*
X0061458Y0042174D02*
X0067327Y0042174D01*
X0066329Y0043173D02*
X0061458Y0043173D01*
X0061458Y0044171D02*
X0065862Y0044171D01*
X0065575Y0045170D02*
X0061458Y0045170D01*
X0061458Y0046168D02*
X0065575Y0046168D01*
X0065813Y0047167D02*
X0061458Y0047167D01*
X0061458Y0048165D02*
X0066226Y0048165D01*
X0067209Y0049164D02*
X0061458Y0049164D01*
X0061458Y0050162D02*
X0115095Y0050162D01*
X0114096Y0049164D02*
X0072641Y0049164D01*
X0073624Y0048165D02*
X0113098Y0048165D01*
X0112099Y0047167D02*
X0074038Y0047167D01*
X0074275Y0046168D02*
X0111101Y0046168D01*
X0110102Y0045170D02*
X0074275Y0045170D01*
X0073989Y0044171D02*
X0109103Y0044171D01*
X0108105Y0043173D02*
X0073522Y0043173D01*
X0085928Y0019209D02*
X0113922Y0019209D01*
X0096063Y0029194D02*
X0093168Y0029194D01*
X0094882Y0028195D02*
X0095575Y0028195D01*
X0095575Y0022204D02*
X0095281Y0022204D01*
X0095664Y0021206D02*
X0094132Y0021206D01*
X0075928Y0080118D02*
X0036782Y0080118D01*
X0035073Y0081116D02*
X0075928Y0081116D01*
X0072033Y0100088D02*
X0037066Y0100088D01*
X0035760Y0099089D02*
X0067134Y0099089D01*
X0082817Y0110073D02*
X0195398Y0110073D01*
X0195398Y0115066D02*
X0140077Y0115066D01*
X0141076Y0116064D02*
X0195398Y0116064D01*
X0195398Y0117063D02*
X0142074Y0117063D01*
X0143073Y0118061D02*
X0195398Y0118061D01*
X0195398Y0119060D02*
X0144071Y0119060D01*
X0145070Y0120058D02*
X0195398Y0120058D01*
X0195398Y0121057D02*
X0146068Y0121057D01*
X0147067Y0122055D02*
X0195398Y0122055D01*
X0195398Y0123054D02*
X0148065Y0123054D01*
X0149064Y0124052D02*
X0195398Y0124052D01*
X0195398Y0125051D02*
X0150062Y0125051D01*
X0151061Y0126049D02*
X0195398Y0126049D01*
X0195398Y0127048D02*
X0152059Y0127048D01*
X0153058Y0128046D02*
X0195398Y0128046D01*
X0195398Y0129045D02*
X0154056Y0129045D01*
X0155055Y0130043D02*
X0195398Y0130043D01*
X0195398Y0131042D02*
X0157154Y0131042D01*
X0158211Y0132040D02*
X0195398Y0132040D01*
X0195398Y0141027D02*
X0171885Y0141027D01*
X0170887Y0142025D02*
X0195398Y0142025D01*
X0180539Y0169984D02*
X0167954Y0169984D01*
X0167954Y0170982D02*
X0179522Y0170982D01*
X0178789Y0171981D02*
X0167954Y0171981D01*
X0167954Y0172979D02*
X0178376Y0172979D01*
X0178150Y0173978D02*
X0167954Y0173978D01*
X0167954Y0174976D02*
X0178150Y0174976D01*
X0178269Y0175975D02*
X0167954Y0175975D01*
X0167954Y0176973D02*
X0178682Y0176973D01*
X0179263Y0177972D02*
X0167954Y0177972D01*
X0167954Y0178970D02*
X0180262Y0178970D01*
X0170971Y0149015D02*
X0167954Y0149015D01*
X0167954Y0148017D02*
X0170971Y0148017D01*
X0170971Y0147018D02*
X0167954Y0147018D01*
X0167954Y0146020D02*
X0170971Y0146020D01*
X0170971Y0145021D02*
X0167954Y0145021D01*
X0168890Y0144022D02*
X0170971Y0144022D01*
X0170971Y0143024D02*
X0169888Y0143024D01*
X0170983Y0136034D02*
X0165016Y0136034D01*
X0164441Y0135933D02*
X0164441Y0132063D01*
X0164401Y0132063D01*
X0163755Y0132165D01*
X0163132Y0132368D01*
X0162549Y0132665D01*
X0162020Y0133049D01*
X0161557Y0133512D01*
X0161173Y0134041D01*
X0160875Y0134625D01*
X0160673Y0135247D01*
X0160571Y0135893D01*
X0160571Y0135933D01*
X0164441Y0135933D01*
X0164441Y0135036D02*
X0165016Y0135036D01*
X0165016Y0134037D02*
X0164441Y0134037D01*
X0164441Y0133039D02*
X0165016Y0133039D01*
X0162034Y0133039D02*
X0158515Y0133039D01*
X0158401Y0134037D02*
X0161176Y0134037D01*
X0160742Y0135036D02*
X0157777Y0135036D01*
X0160648Y0137033D02*
X0134197Y0137033D01*
X0135196Y0138031D02*
X0160985Y0138031D01*
X0161658Y0139030D02*
X0136194Y0139030D01*
X0134293Y0143024D02*
X0133392Y0143024D01*
X0133613Y0143245D02*
X0134275Y0144843D01*
X0134275Y0146574D01*
X0133613Y0148173D01*
X0132389Y0149396D01*
X0130790Y0150059D01*
X0129060Y0150059D01*
X0127461Y0149396D01*
X0126237Y0148173D01*
X0125575Y0146574D01*
X0125575Y0144843D01*
X0126237Y0143245D01*
X0127461Y0142021D01*
X0129060Y0141359D01*
X0130790Y0141359D01*
X0132389Y0142021D01*
X0133613Y0143245D01*
X0133935Y0144022D02*
X0135291Y0144022D01*
X0136290Y0145021D02*
X0134275Y0145021D01*
X0134275Y0146020D02*
X0137288Y0146020D01*
X0134091Y0147018D02*
X0163786Y0147018D01*
X0163786Y0148017D02*
X0133678Y0148017D01*
X0132771Y0149015D02*
X0163786Y0149015D01*
X0163786Y0150014D02*
X0130899Y0150014D01*
X0130636Y0151012D02*
X0163786Y0151012D01*
X0163786Y0152011D02*
X0132916Y0152011D01*
X0133020Y0152086D02*
X0133548Y0152614D01*
X0133988Y0153219D01*
X0134327Y0153885D01*
X0134558Y0154596D01*
X0134658Y0155224D01*
X0130410Y0155224D01*
X0130410Y0156193D01*
X0134658Y0156193D01*
X0134558Y0156821D01*
X0134327Y0157532D01*
X0133988Y0158198D01*
X0133548Y0158803D01*
X0133020Y0159332D01*
X0132415Y0159771D01*
X0131749Y0160111D01*
X0131037Y0160342D01*
X0130409Y0160441D01*
X0130409Y0156193D01*
X0129441Y0156193D01*
X0129441Y0160441D01*
X0128813Y0160342D01*
X0128102Y0160111D01*
X0127436Y0159771D01*
X0126831Y0159332D01*
X0126302Y0158803D01*
X0125863Y0158198D01*
X0125523Y0157532D01*
X0125292Y0156821D01*
X0125193Y0156193D01*
X0129441Y0156193D01*
X0129441Y0155224D01*
X0130409Y0155224D01*
X0130409Y0150976D01*
X0131037Y0151076D01*
X0131749Y0151307D01*
X0132415Y0151646D01*
X0133020Y0152086D01*
X0133835Y0153009D02*
X0163786Y0153009D01*
X0163786Y0154008D02*
X0134367Y0154008D01*
X0134623Y0155006D02*
X0163786Y0155006D01*
X0163786Y0156005D02*
X0130410Y0156005D01*
X0129441Y0156005D02*
X0105726Y0156005D01*
X0104728Y0157003D02*
X0125351Y0157003D01*
X0125762Y0158002D02*
X0103729Y0158002D01*
X0102731Y0159000D02*
X0126499Y0159000D01*
X0127882Y0159999D02*
X0102145Y0159999D01*
X0101261Y0160997D02*
X0139896Y0160997D01*
X0139705Y0161076D02*
X0141304Y0160414D01*
X0143035Y0160414D01*
X0144633Y0161076D01*
X0145857Y0162300D01*
X0146519Y0163898D01*
X0146519Y0165629D01*
X0145857Y0167228D01*
X0144633Y0168452D01*
X0143035Y0169114D01*
X0141304Y0169114D01*
X0139705Y0168452D01*
X0138482Y0167228D01*
X0137819Y0165629D01*
X0137819Y0163898D01*
X0138482Y0162300D01*
X0139705Y0161076D01*
X0138786Y0161996D02*
X0132328Y0161996D01*
X0133363Y0162994D02*
X0138194Y0162994D01*
X0137819Y0163993D02*
X0133923Y0163993D01*
X0134275Y0164991D02*
X0137819Y0164991D01*
X0137969Y0165990D02*
X0134275Y0165990D01*
X0134104Y0166988D02*
X0138382Y0166988D01*
X0139240Y0167987D02*
X0133690Y0167987D01*
X0132800Y0168985D02*
X0140994Y0168985D01*
X0143345Y0168985D02*
X0148335Y0168985D01*
X0148464Y0169114D02*
X0147819Y0168469D01*
X0147819Y0161058D01*
X0148464Y0160414D01*
X0155875Y0160414D01*
X0156519Y0161058D01*
X0156519Y0168469D01*
X0155875Y0169114D01*
X0148464Y0169114D01*
X0147819Y0167987D02*
X0145098Y0167987D01*
X0145956Y0166988D02*
X0147819Y0166988D01*
X0147819Y0165990D02*
X0146370Y0165990D01*
X0146519Y0164991D02*
X0147819Y0164991D01*
X0147819Y0163993D02*
X0146519Y0163993D01*
X0146145Y0162994D02*
X0147819Y0162994D01*
X0147819Y0161996D02*
X0145553Y0161996D01*
X0144443Y0160997D02*
X0147880Y0160997D01*
X0156458Y0160997D02*
X0163786Y0160997D01*
X0163786Y0159999D02*
X0131968Y0159999D01*
X0130409Y0159999D02*
X0129441Y0159999D01*
X0129441Y0159000D02*
X0130409Y0159000D01*
X0130409Y0158002D02*
X0129441Y0158002D01*
X0129441Y0157003D02*
X0130409Y0157003D01*
X0130409Y0155006D02*
X0129441Y0155006D01*
X0129441Y0155224D02*
X0129441Y0150976D01*
X0128813Y0151076D01*
X0128102Y0151307D01*
X0127436Y0151646D01*
X0126831Y0152086D01*
X0126302Y0152614D01*
X0125863Y0153219D01*
X0125523Y0153885D01*
X0125292Y0154596D01*
X0125193Y0155224D01*
X0129441Y0155224D01*
X0129441Y0154008D02*
X0130409Y0154008D01*
X0130409Y0153009D02*
X0129441Y0153009D01*
X0129441Y0152011D02*
X0130409Y0152011D01*
X0130409Y0151012D02*
X0129441Y0151012D01*
X0129214Y0151012D02*
X0110719Y0151012D01*
X0111717Y0150014D02*
X0128951Y0150014D01*
X0127080Y0149015D02*
X0112716Y0149015D01*
X0113715Y0148017D02*
X0126173Y0148017D01*
X0125759Y0147018D02*
X0114713Y0147018D01*
X0115712Y0146020D02*
X0125575Y0146020D01*
X0125575Y0145021D02*
X0116710Y0145021D01*
X0117709Y0144022D02*
X0125915Y0144022D01*
X0126458Y0143024D02*
X0118707Y0143024D01*
X0119706Y0142025D02*
X0127457Y0142025D01*
X0128987Y0140028D02*
X0121703Y0140028D01*
X0122701Y0139030D02*
X0127095Y0139030D01*
X0126179Y0138031D02*
X0123700Y0138031D01*
X0120704Y0141027D02*
X0132296Y0141027D01*
X0132394Y0142025D02*
X0133294Y0142025D01*
X0131297Y0140028D02*
X0130863Y0140028D01*
X0126934Y0152011D02*
X0109720Y0152011D01*
X0108722Y0153009D02*
X0126015Y0153009D01*
X0125483Y0154008D02*
X0107723Y0154008D01*
X0106725Y0155006D02*
X0125227Y0155006D01*
X0125575Y0165990D02*
X0090958Y0165990D01*
X0091194Y0166147D02*
X0091652Y0166605D01*
X0092012Y0167144D01*
X0092259Y0167742D01*
X0092386Y0168377D01*
X0092386Y0168701D01*
X0089099Y0168701D01*
X0089099Y0168701D01*
X0089098Y0168701D02*
X0089098Y0165413D01*
X0089422Y0165413D01*
X0090057Y0165540D01*
X0090656Y0165788D01*
X0091194Y0166147D01*
X0091908Y0166988D02*
X0125747Y0166988D01*
X0126160Y0167987D02*
X0092308Y0167987D01*
X0092386Y0168985D02*
X0127050Y0168985D01*
X0128879Y0169984D02*
X0092125Y0169984D01*
X0091466Y0170982D02*
X0163786Y0170982D01*
X0163786Y0169984D02*
X0130971Y0169984D01*
X0133351Y0159000D02*
X0163786Y0159000D01*
X0163786Y0158002D02*
X0134088Y0158002D01*
X0134499Y0157003D02*
X0163786Y0157003D01*
X0163786Y0161996D02*
X0156519Y0161996D01*
X0156519Y0162994D02*
X0163786Y0162994D01*
X0163786Y0163993D02*
X0156519Y0163993D01*
X0156519Y0164991D02*
X0163786Y0164991D01*
X0163786Y0165990D02*
X0156519Y0165990D01*
X0156519Y0166988D02*
X0163786Y0166988D01*
X0163786Y0167987D02*
X0156519Y0167987D01*
X0156003Y0168985D02*
X0163786Y0168985D01*
X0171660Y0135357D02*
X0171660Y0135357D01*
X0167959Y0081116D02*
X0182493Y0081116D01*
X0180785Y0080118D02*
X0169237Y0080118D01*
X0169890Y0079119D02*
X0179992Y0079119D01*
X0182702Y0073128D02*
X0167789Y0073128D01*
X0166354Y0073128D02*
X0165386Y0073128D01*
X0165386Y0074127D02*
X0166354Y0074127D01*
X0166354Y0075125D02*
X0165386Y0075125D01*
X0165386Y0076124D02*
X0166354Y0076124D01*
X0166354Y0078121D02*
X0165386Y0078121D01*
X0165386Y0079119D02*
X0166354Y0079119D01*
X0166354Y0080118D02*
X0165386Y0080118D01*
X0165386Y0081116D02*
X0166354Y0081116D01*
X0184680Y0081116D02*
X0195398Y0081116D01*
X0195398Y0080118D02*
X0186388Y0080118D01*
X0187181Y0079119D02*
X0195398Y0079119D01*
X0195398Y0078121D02*
X0187595Y0078121D01*
X0187655Y0077122D02*
X0195398Y0077122D01*
X0195398Y0076124D02*
X0187559Y0076124D01*
X0187145Y0075125D02*
X0195326Y0075125D01*
X0194327Y0074127D02*
X0186302Y0074127D01*
X0184472Y0073128D02*
X0193329Y0073128D01*
X0089098Y0165990D02*
X0089098Y0165990D01*
X0089098Y0166988D02*
X0089098Y0166988D01*
X0089098Y0167987D02*
X0089098Y0167987D01*
X0089098Y0168985D02*
X0089098Y0168985D01*
X0089098Y0169984D02*
X0089098Y0169984D01*
X0089098Y0170982D02*
X0089098Y0170982D01*
X0032200Y0099089D02*
X0018820Y0099089D01*
X0019849Y0100088D02*
X0030895Y0100088D01*
X0030268Y0101086D02*
X0020420Y0101086D01*
X0020682Y0102085D02*
X0029912Y0102085D01*
X0011041Y0137033D02*
X0004453Y0137033D01*
X0004453Y0138031D02*
X0011379Y0138031D01*
X0012052Y0139030D02*
X0004453Y0139030D01*
X0004453Y0140028D02*
X0013438Y0140028D01*
X0004453Y0286810D02*
X0163786Y0286810D01*
X0163786Y0287808D02*
X0004453Y0287808D01*
X0004453Y0288807D02*
X0163786Y0288807D01*
X0163786Y0289805D02*
X0004453Y0289805D01*
X0004453Y0290804D02*
X0163786Y0290804D01*
X0163786Y0291802D02*
X0004453Y0291802D01*
X0004453Y0292801D02*
X0163786Y0292801D01*
X0163786Y0293799D02*
X0004453Y0293799D01*
X0004453Y0294798D02*
X0163786Y0294798D01*
X0163786Y0295796D02*
X0004453Y0295796D01*
X0004453Y0296795D02*
X0027019Y0296795D01*
X0026857Y0296888D02*
X0027199Y0296691D01*
X0027580Y0296589D01*
X0030543Y0296589D01*
X0030543Y0300854D01*
X0026278Y0300854D01*
X0026278Y0297891D01*
X0026380Y0297510D01*
X0026577Y0297168D01*
X0026857Y0296888D01*
X0026304Y0297793D02*
X0004453Y0297793D01*
X0004453Y0298792D02*
X0026278Y0298792D01*
X0026278Y0299790D02*
X0004453Y0299790D01*
X0004453Y0300789D02*
X0026278Y0300789D01*
X0026278Y0301823D02*
X0030543Y0301823D01*
X0030543Y0300854D01*
X0031512Y0300854D01*
X0031512Y0296589D01*
X0034475Y0296589D01*
X0034857Y0296691D01*
X0035199Y0296888D01*
X0035478Y0297168D01*
X0035675Y0297510D01*
X0035778Y0297891D01*
X0035778Y0300854D01*
X0031512Y0300854D01*
X0031512Y0301823D01*
X0035778Y0301823D01*
X0035778Y0304786D01*
X0035675Y0305168D01*
X0035478Y0305510D01*
X0035199Y0305789D01*
X0034857Y0305986D01*
X0034475Y0306089D01*
X0031512Y0306089D01*
X0031512Y0301823D01*
X0030543Y0301823D01*
X0030543Y0306089D01*
X0027580Y0306089D01*
X0027199Y0305986D01*
X0026857Y0305789D01*
X0026577Y0305510D01*
X0026380Y0305168D01*
X0026278Y0304786D01*
X0026278Y0301823D01*
X0026278Y0302786D02*
X0004453Y0302786D01*
X0004453Y0303784D02*
X0026278Y0303784D01*
X0026278Y0304783D02*
X0004453Y0304783D01*
X0004453Y0305781D02*
X0026849Y0305781D01*
X0028436Y0307778D02*
X0004453Y0307778D01*
X0004453Y0306780D02*
X0163786Y0306780D01*
X0163786Y0307778D02*
X0033619Y0307778D01*
X0034618Y0308777D02*
X0163786Y0308777D01*
X0163786Y0309775D02*
X0035088Y0309775D01*
X0035378Y0310774D02*
X0163786Y0310774D01*
X0163786Y0311772D02*
X0035378Y0311772D01*
X0035143Y0312771D02*
X0163786Y0312771D01*
X0163786Y0313769D02*
X0034729Y0313769D01*
X0033750Y0314768D02*
X0163786Y0314768D01*
X0163786Y0315766D02*
X0029547Y0315766D01*
X0030162Y0316989D02*
X0028563Y0317651D01*
X0027340Y0318874D01*
X0026678Y0320473D01*
X0026678Y0322204D01*
X0027340Y0323803D01*
X0028563Y0325026D01*
X0030162Y0325689D01*
X0031893Y0325689D01*
X0033492Y0325026D01*
X0034715Y0323803D01*
X0035378Y0322204D01*
X0035378Y0320473D01*
X0034715Y0318874D01*
X0033492Y0317651D01*
X0031893Y0316989D01*
X0030162Y0316989D01*
X0028549Y0316765D02*
X0163786Y0316765D01*
X0163786Y0317763D02*
X0033604Y0317763D01*
X0034603Y0318762D02*
X0163786Y0318762D01*
X0163786Y0319760D02*
X0035082Y0319760D01*
X0035378Y0320759D02*
X0163786Y0320759D01*
X0163786Y0321757D02*
X0035378Y0321757D01*
X0035149Y0322756D02*
X0163786Y0322756D01*
X0163786Y0323755D02*
X0034735Y0323755D01*
X0033765Y0324753D02*
X0163786Y0324753D01*
X0163786Y0325752D02*
X0026143Y0325752D01*
X0026143Y0326750D02*
X0163786Y0326750D01*
X0163786Y0327749D02*
X0033589Y0327749D01*
X0033492Y0327651D02*
X0034715Y0328874D01*
X0035378Y0330473D01*
X0035378Y0332204D01*
X0034715Y0333803D01*
X0033492Y0335026D01*
X0031893Y0335689D01*
X0030162Y0335689D01*
X0028563Y0335026D01*
X0027340Y0333803D01*
X0026678Y0332204D01*
X0026678Y0330473D01*
X0027340Y0328874D01*
X0028563Y0327651D01*
X0030162Y0326989D01*
X0031893Y0326989D01*
X0033492Y0327651D01*
X0034588Y0328747D02*
X0163786Y0328747D01*
X0163786Y0329746D02*
X0035076Y0329746D01*
X0035378Y0330744D02*
X0163786Y0330744D01*
X0163786Y0331743D02*
X0035378Y0331743D01*
X0035155Y0332741D02*
X0163786Y0332741D01*
X0163786Y0333740D02*
X0034741Y0333740D01*
X0033780Y0334738D02*
X0163786Y0334738D01*
X0163786Y0335737D02*
X0026143Y0335737D01*
X0026143Y0336735D02*
X0163786Y0336735D01*
X0163786Y0337734D02*
X0026143Y0337734D01*
X0026143Y0338732D02*
X0163786Y0338732D01*
X0163786Y0339731D02*
X0026143Y0339731D01*
X0026143Y0340729D02*
X0163786Y0340729D01*
X0163786Y0341728D02*
X0026143Y0341728D01*
X0026143Y0342726D02*
X0163786Y0342726D01*
X0163786Y0343725D02*
X0026143Y0343725D01*
X0026143Y0344723D02*
X0163786Y0344723D01*
X0163786Y0345722D02*
X0026143Y0345722D01*
X0026143Y0346720D02*
X0163786Y0346720D01*
X0163786Y0347719D02*
X0026143Y0347719D01*
X0026143Y0348717D02*
X0032115Y0348717D01*
X0031977Y0348774D02*
X0033328Y0348215D01*
X0034790Y0348215D01*
X0036141Y0348774D01*
X0037174Y0349808D01*
X0037734Y0351159D01*
X0037734Y0352621D01*
X0037174Y0353971D01*
X0036141Y0355005D01*
X0034790Y0355565D01*
X0033328Y0355565D01*
X0031977Y0355005D01*
X0030944Y0353971D01*
X0030384Y0352621D01*
X0030384Y0351159D01*
X0030944Y0349808D01*
X0031977Y0348774D01*
X0031036Y0349716D02*
X0027082Y0349716D01*
X0027550Y0350714D02*
X0030568Y0350714D01*
X0030384Y0351713D02*
X0027734Y0351713D01*
X0027696Y0352711D02*
X0030422Y0352711D01*
X0030835Y0353710D02*
X0027283Y0353710D01*
X0027069Y0354708D02*
X0031681Y0354708D01*
X0029066Y0356705D02*
X0158973Y0356705D01*
X0159972Y0355707D02*
X0028068Y0355707D01*
X0026167Y0359701D02*
X0004453Y0359701D01*
X0004453Y0358702D02*
X0025168Y0358702D01*
X0024170Y0357704D02*
X0004453Y0357704D01*
X0004453Y0356705D02*
X0023171Y0356705D01*
X0022173Y0355707D02*
X0004453Y0355707D01*
X0004453Y0354708D02*
X0021681Y0354708D01*
X0020835Y0353710D02*
X0004453Y0353710D01*
X0004453Y0352711D02*
X0020422Y0352711D01*
X0020384Y0351713D02*
X0004453Y0351713D01*
X0004453Y0350714D02*
X0020568Y0350714D01*
X0021036Y0349716D02*
X0004453Y0349716D01*
X0004453Y0348717D02*
X0021975Y0348717D01*
X0021975Y0347719D02*
X0004453Y0347719D01*
X0004453Y0346720D02*
X0021975Y0346720D01*
X0021975Y0345722D02*
X0004453Y0345722D01*
X0004453Y0344723D02*
X0021975Y0344723D01*
X0021975Y0343725D02*
X0004453Y0343725D01*
X0004453Y0342726D02*
X0021975Y0342726D01*
X0021975Y0341728D02*
X0004453Y0341728D01*
X0004453Y0340729D02*
X0021975Y0340729D01*
X0021975Y0339731D02*
X0004453Y0339731D01*
X0004453Y0338732D02*
X0021975Y0338732D01*
X0021975Y0337734D02*
X0004453Y0337734D01*
X0004453Y0336735D02*
X0021975Y0336735D01*
X0021975Y0335737D02*
X0004453Y0335737D01*
X0004453Y0334738D02*
X0021975Y0334738D01*
X0021975Y0333740D02*
X0004453Y0333740D01*
X0004453Y0332741D02*
X0021975Y0332741D01*
X0021975Y0331743D02*
X0004453Y0331743D01*
X0004453Y0330744D02*
X0021975Y0330744D01*
X0021975Y0329746D02*
X0004453Y0329746D01*
X0004453Y0328747D02*
X0021975Y0328747D01*
X0021975Y0327749D02*
X0004453Y0327749D01*
X0004453Y0326750D02*
X0021975Y0326750D01*
X0021975Y0325752D02*
X0004453Y0325752D01*
X0004453Y0324753D02*
X0021975Y0324753D01*
X0021975Y0323755D02*
X0004453Y0323755D01*
X0004453Y0322756D02*
X0021975Y0322756D01*
X0021975Y0321757D02*
X0004453Y0321757D01*
X0004453Y0320759D02*
X0021975Y0320759D01*
X0021975Y0319760D02*
X0004453Y0319760D01*
X0004453Y0318762D02*
X0021975Y0318762D01*
X0021975Y0317763D02*
X0004453Y0317763D01*
X0004453Y0316765D02*
X0022654Y0316765D01*
X0023652Y0315766D02*
X0004453Y0315766D01*
X0004453Y0314768D02*
X0024651Y0314768D01*
X0025649Y0313769D02*
X0004453Y0313769D01*
X0004453Y0312771D02*
X0026648Y0312771D01*
X0026678Y0311772D02*
X0004453Y0311772D01*
X0004453Y0310774D02*
X0026678Y0310774D01*
X0026967Y0309775D02*
X0004453Y0309775D01*
X0004453Y0308777D02*
X0027437Y0308777D01*
X0030543Y0305781D02*
X0031512Y0305781D01*
X0031512Y0304783D02*
X0030543Y0304783D01*
X0030543Y0303784D02*
X0031512Y0303784D01*
X0031512Y0302786D02*
X0030543Y0302786D01*
X0030543Y0301787D02*
X0004453Y0301787D01*
X0026552Y0318762D02*
X0027452Y0318762D01*
X0027550Y0317763D02*
X0028451Y0317763D01*
X0026973Y0319760D02*
X0026143Y0319760D01*
X0026143Y0320759D02*
X0026678Y0320759D01*
X0026678Y0321757D02*
X0026143Y0321757D01*
X0026143Y0322756D02*
X0026906Y0322756D01*
X0027320Y0323755D02*
X0026143Y0323755D01*
X0026143Y0324753D02*
X0028290Y0324753D01*
X0028466Y0327749D02*
X0026143Y0327749D01*
X0026143Y0328747D02*
X0027467Y0328747D01*
X0026979Y0329746D02*
X0026143Y0329746D01*
X0026143Y0330744D02*
X0026678Y0330744D01*
X0026678Y0331743D02*
X0026143Y0331743D01*
X0026143Y0332741D02*
X0026900Y0332741D01*
X0027314Y0333740D02*
X0026143Y0333740D01*
X0026143Y0334738D02*
X0028275Y0334738D01*
X0036003Y0348717D02*
X0163786Y0348717D01*
X0162768Y0349716D02*
X0037082Y0349716D01*
X0037550Y0350714D02*
X0162301Y0350714D01*
X0162117Y0351713D02*
X0037734Y0351713D01*
X0037696Y0352711D02*
X0162154Y0352711D01*
X0161969Y0353710D02*
X0037283Y0353710D01*
X0036437Y0354708D02*
X0160970Y0354708D01*
X0163870Y0357704D02*
X0195398Y0357704D01*
X0195398Y0358702D02*
X0162871Y0358702D01*
X0161873Y0359701D02*
X0195398Y0359701D01*
X0195328Y0360699D02*
X0160874Y0360699D01*
X0159876Y0361698D02*
X0194330Y0361698D01*
X0193331Y0362696D02*
X0158877Y0362696D01*
X0157879Y0363695D02*
X0164090Y0363695D01*
X0164227Y0363625D02*
X0164837Y0363427D01*
X0165471Y0363327D01*
X0165504Y0363327D01*
X0165504Y0367114D01*
X0166079Y0367114D01*
X0166079Y0367689D01*
X0169866Y0367689D01*
X0172117Y0367689D01*
X0172117Y0368133D02*
X0172117Y0366671D01*
X0172676Y0365320D01*
X0173710Y0364286D01*
X0175060Y0363727D01*
X0176522Y0363727D01*
X0177873Y0364286D01*
X0178907Y0365320D01*
X0179466Y0366671D01*
X0179466Y0368133D01*
X0178907Y0369483D01*
X0177873Y0370517D01*
X0176522Y0371076D01*
X0175060Y0371076D01*
X0173710Y0370517D01*
X0172676Y0369483D01*
X0172117Y0368133D01*
X0172346Y0368688D02*
X0169658Y0368688D01*
X0169568Y0368966D02*
X0169276Y0369537D01*
X0168899Y0370056D01*
X0168446Y0370510D01*
X0167927Y0370887D01*
X0167356Y0371178D01*
X0166746Y0371376D01*
X0166112Y0371476D01*
X0166079Y0371476D01*
X0166079Y0367689D01*
X0165504Y0367689D01*
X0165504Y0371476D01*
X0165471Y0371476D01*
X0164837Y0371376D01*
X0164227Y0371178D01*
X0163656Y0370887D01*
X0163137Y0370510D01*
X0162683Y0370056D01*
X0162306Y0369537D01*
X0162015Y0368966D01*
X0161817Y0368356D01*
X0161717Y0367722D01*
X0161717Y0367689D01*
X0153885Y0367689D01*
X0154883Y0366691D02*
X0161778Y0366691D01*
X0161817Y0366447D02*
X0162015Y0365837D01*
X0162306Y0365266D01*
X0162683Y0364747D01*
X0163137Y0364293D01*
X0163656Y0363916D01*
X0164227Y0363625D01*
X0165504Y0363695D02*
X0166079Y0363695D01*
X0166079Y0363327D02*
X0166112Y0363327D01*
X0166746Y0363427D01*
X0167356Y0363625D01*
X0167927Y0363916D01*
X0168446Y0364293D01*
X0168899Y0364747D01*
X0169276Y0365266D01*
X0169568Y0365837D01*
X0169766Y0366447D01*
X0169866Y0367081D01*
X0169866Y0367114D01*
X0166079Y0367114D01*
X0166079Y0363327D01*
X0166079Y0364693D02*
X0165504Y0364693D01*
X0165504Y0365692D02*
X0166079Y0365692D01*
X0166079Y0366691D02*
X0165504Y0366691D01*
X0165504Y0367114D02*
X0161717Y0367114D01*
X0161717Y0367081D01*
X0161817Y0366447D01*
X0162089Y0365692D02*
X0155882Y0365692D01*
X0156880Y0364693D02*
X0162737Y0364693D01*
X0161717Y0367689D02*
X0165504Y0367689D01*
X0165504Y0367114D01*
X0165504Y0368688D02*
X0166079Y0368688D01*
X0166079Y0369686D02*
X0165504Y0369686D01*
X0165504Y0370685D02*
X0166079Y0370685D01*
X0168205Y0370685D02*
X0174114Y0370685D01*
X0172879Y0369686D02*
X0169168Y0369686D01*
X0169568Y0368966D02*
X0169766Y0368356D01*
X0169866Y0367722D01*
X0169866Y0367689D01*
X0169804Y0366691D02*
X0172117Y0366691D01*
X0172522Y0365692D02*
X0169494Y0365692D01*
X0168846Y0364693D02*
X0173302Y0364693D01*
X0177468Y0370685D02*
X0185343Y0370685D01*
X0184345Y0371683D02*
X0149890Y0371683D01*
X0148892Y0372682D02*
X0183346Y0372682D01*
X0182347Y0373680D02*
X0147893Y0373680D01*
X0146895Y0374679D02*
X0181349Y0374679D01*
X0180350Y0375677D02*
X0145896Y0375677D01*
X0144898Y0376676D02*
X0179352Y0376676D01*
X0178353Y0377674D02*
X0143899Y0377674D01*
X0142901Y0378673D02*
X0177355Y0378673D01*
X0176356Y0379671D02*
X0141902Y0379671D01*
X0140904Y0380670D02*
X0175358Y0380670D01*
X0174359Y0381668D02*
X0132031Y0381668D01*
X0131033Y0382667D02*
X0173361Y0382667D01*
X0172362Y0383665D02*
X0130631Y0383665D01*
X0131321Y0384664D02*
X0171364Y0384664D01*
X0170365Y0385662D02*
X0131935Y0385662D01*
X0132222Y0386661D02*
X0169367Y0386661D01*
X0168368Y0387659D02*
X0132222Y0387659D01*
X0131874Y0388658D02*
X0167370Y0388658D01*
X0166371Y0389656D02*
X0131175Y0389656D01*
X0129536Y0390655D02*
X0165373Y0390655D01*
X0164374Y0391653D02*
X0035476Y0391653D01*
X0034478Y0390655D02*
X0070315Y0390655D01*
X0070572Y0390761D02*
X0069222Y0390202D01*
X0068188Y0389168D01*
X0067628Y0387818D01*
X0067628Y0386356D01*
X0068188Y0385005D01*
X0069222Y0383971D01*
X0070572Y0383412D01*
X0072034Y0383412D01*
X0073385Y0383971D01*
X0074418Y0385005D01*
X0074978Y0386356D01*
X0074978Y0387818D01*
X0074418Y0389168D01*
X0073385Y0390202D01*
X0072034Y0390761D01*
X0070572Y0390761D01*
X0072292Y0390655D02*
X0080315Y0390655D01*
X0078676Y0389656D02*
X0073930Y0389656D01*
X0074630Y0388658D02*
X0077976Y0388658D01*
X0077628Y0387659D02*
X0074978Y0387659D01*
X0074978Y0386661D02*
X0077628Y0386661D01*
X0077916Y0385662D02*
X0074691Y0385662D01*
X0074077Y0384664D02*
X0078529Y0384664D01*
X0079219Y0383665D02*
X0072646Y0383665D01*
X0069960Y0383665D02*
X0027488Y0383665D01*
X0026490Y0382667D02*
X0079219Y0382667D01*
X0079219Y0381668D02*
X0025491Y0381668D01*
X0024492Y0380670D02*
X0055009Y0380670D01*
X0054011Y0379671D02*
X0023494Y0379671D01*
X0022495Y0378673D02*
X0053012Y0378673D01*
X0052014Y0377674D02*
X0021497Y0377674D01*
X0020498Y0376676D02*
X0051015Y0376676D01*
X0050017Y0375677D02*
X0019500Y0375677D01*
X0018501Y0374679D02*
X0049018Y0374679D01*
X0048020Y0373680D02*
X0017503Y0373680D01*
X0016504Y0372682D02*
X0047021Y0372682D01*
X0046023Y0371683D02*
X0015506Y0371683D01*
X0014507Y0370685D02*
X0021645Y0370685D01*
X0021404Y0370510D02*
X0020951Y0370056D01*
X0020574Y0369537D01*
X0020283Y0368966D01*
X0020085Y0368356D01*
X0019984Y0367722D01*
X0019984Y0367689D01*
X0011512Y0367689D01*
X0012510Y0368688D02*
X0020192Y0368688D01*
X0019984Y0367689D02*
X0023772Y0367689D01*
X0023772Y0371476D01*
X0023738Y0371476D01*
X0023105Y0371376D01*
X0022495Y0371178D01*
X0021923Y0370887D01*
X0021404Y0370510D01*
X0020682Y0369686D02*
X0013509Y0369686D01*
X0010513Y0366691D02*
X0020046Y0366691D01*
X0020085Y0366447D02*
X0020283Y0365837D01*
X0020574Y0365266D01*
X0020951Y0364747D01*
X0021404Y0364293D01*
X0021923Y0363916D01*
X0022495Y0363625D01*
X0023105Y0363427D01*
X0023738Y0363327D01*
X0023772Y0363327D01*
X0023772Y0367114D01*
X0024346Y0367114D01*
X0024346Y0363327D01*
X0024380Y0363327D01*
X0025013Y0363427D01*
X0025623Y0363625D01*
X0026195Y0363916D01*
X0026714Y0364293D01*
X0027167Y0364747D01*
X0027544Y0365266D01*
X0027835Y0365837D01*
X0028034Y0366447D01*
X0028134Y0367081D01*
X0028134Y0367114D01*
X0024347Y0367114D01*
X0024347Y0367689D01*
X0028134Y0367689D01*
X0030384Y0367689D01*
X0030384Y0368133D02*
X0030384Y0366671D01*
X0030944Y0365320D01*
X0031977Y0364286D01*
X0033328Y0363727D01*
X0034790Y0363727D01*
X0036141Y0364286D01*
X0037174Y0365320D01*
X0037734Y0366671D01*
X0037734Y0368133D01*
X0037174Y0369483D01*
X0036141Y0370517D01*
X0034790Y0371076D01*
X0033328Y0371076D01*
X0031977Y0370517D01*
X0030944Y0369483D01*
X0030384Y0368133D01*
X0030614Y0368688D02*
X0027926Y0368688D01*
X0027835Y0368966D02*
X0027544Y0369537D01*
X0027167Y0370056D01*
X0026714Y0370510D01*
X0026195Y0370887D01*
X0025623Y0371178D01*
X0025013Y0371376D01*
X0024380Y0371476D01*
X0024346Y0371476D01*
X0024346Y0367689D01*
X0023772Y0367689D01*
X0023772Y0367114D01*
X0019984Y0367114D01*
X0019984Y0367081D01*
X0020085Y0366447D01*
X0020357Y0365692D02*
X0009515Y0365692D01*
X0008516Y0364693D02*
X0021005Y0364693D01*
X0022358Y0363695D02*
X0007518Y0363695D01*
X0006519Y0362696D02*
X0037036Y0362696D01*
X0038035Y0363695D02*
X0025760Y0363695D01*
X0024346Y0363695D02*
X0023772Y0363695D01*
X0023772Y0364693D02*
X0024346Y0364693D01*
X0024346Y0365692D02*
X0023772Y0365692D01*
X0023772Y0366691D02*
X0024346Y0366691D01*
X0024346Y0368688D02*
X0023772Y0368688D01*
X0023772Y0369686D02*
X0024346Y0369686D01*
X0024346Y0370685D02*
X0023772Y0370685D01*
X0026473Y0370685D02*
X0032382Y0370685D01*
X0031147Y0369686D02*
X0027436Y0369686D01*
X0027835Y0368966D02*
X0028034Y0368356D01*
X0028134Y0367722D01*
X0028134Y0367689D01*
X0028072Y0366691D02*
X0030384Y0366691D01*
X0030790Y0365692D02*
X0027761Y0365692D01*
X0027114Y0364693D02*
X0031570Y0364693D01*
X0028164Y0361698D02*
X0005521Y0361698D01*
X0004522Y0360699D02*
X0027165Y0360699D01*
X0026975Y0360509D02*
X0026975Y0360509D01*
X0035736Y0370685D02*
X0045024Y0370685D01*
X0044026Y0369686D02*
X0036972Y0369686D01*
X0037504Y0368688D02*
X0043027Y0368688D01*
X0042029Y0367689D02*
X0037734Y0367689D01*
X0037734Y0366691D02*
X0041030Y0366691D01*
X0040032Y0365692D02*
X0037328Y0365692D01*
X0036548Y0364693D02*
X0039033Y0364693D01*
X0041933Y0361698D02*
X0153980Y0361698D01*
X0152982Y0362696D02*
X0042931Y0362696D01*
X0043930Y0363695D02*
X0151983Y0363695D01*
X0150985Y0364693D02*
X0044928Y0364693D01*
X0045927Y0365692D02*
X0149986Y0365692D01*
X0148988Y0366691D02*
X0046925Y0366691D01*
X0047924Y0367689D02*
X0147989Y0367689D01*
X0146991Y0368688D02*
X0130857Y0368688D01*
X0130629Y0368459D02*
X0131663Y0369493D01*
X0132222Y0370844D01*
X0132222Y0372306D01*
X0131663Y0373656D01*
X0130629Y0374690D01*
X0129278Y0375250D01*
X0127816Y0375250D01*
X0126466Y0374690D01*
X0125432Y0373656D01*
X0124872Y0372306D01*
X0124872Y0370844D01*
X0125432Y0369493D01*
X0126466Y0368459D01*
X0127816Y0367900D01*
X0129278Y0367900D01*
X0130629Y0368459D01*
X0131742Y0369686D02*
X0145992Y0369686D01*
X0144994Y0370685D02*
X0132156Y0370685D01*
X0132222Y0371683D02*
X0143995Y0371683D01*
X0142997Y0372682D02*
X0132066Y0372682D01*
X0131639Y0373680D02*
X0141998Y0373680D01*
X0141000Y0374679D02*
X0130640Y0374679D01*
X0126454Y0374679D02*
X0120640Y0374679D01*
X0120873Y0375677D02*
X0140001Y0375677D01*
X0139003Y0376676D02*
X0121871Y0376676D01*
X0121639Y0373680D02*
X0125456Y0373680D01*
X0125028Y0372682D02*
X0122066Y0372682D01*
X0122222Y0371683D02*
X0124872Y0371683D01*
X0124938Y0370685D02*
X0122156Y0370685D01*
X0121742Y0369686D02*
X0125352Y0369686D01*
X0126238Y0368688D02*
X0120857Y0368688D01*
X0116238Y0368688D02*
X0083613Y0368688D01*
X0083385Y0368459D02*
X0084418Y0369493D01*
X0084978Y0370844D01*
X0084978Y0372306D01*
X0084418Y0373656D01*
X0083385Y0374690D01*
X0082034Y0375250D01*
X0080572Y0375250D01*
X0079222Y0374690D01*
X0078188Y0373656D01*
X0077628Y0372306D01*
X0077628Y0370844D01*
X0078188Y0369493D01*
X0079222Y0368459D01*
X0080572Y0367900D01*
X0082034Y0367900D01*
X0083385Y0368459D01*
X0084498Y0369686D02*
X0115352Y0369686D01*
X0114938Y0370685D02*
X0084912Y0370685D01*
X0084978Y0371683D02*
X0114872Y0371683D01*
X0115028Y0372682D02*
X0084822Y0372682D01*
X0084395Y0373680D02*
X0115456Y0373680D01*
X0116454Y0374679D02*
X0083396Y0374679D01*
X0079210Y0374679D02*
X0073396Y0374679D01*
X0073629Y0375677D02*
X0116463Y0375677D01*
X0116463Y0376676D02*
X0074627Y0376676D01*
X0074395Y0373680D02*
X0078211Y0373680D01*
X0077784Y0372682D02*
X0074822Y0372682D01*
X0074978Y0371683D02*
X0077628Y0371683D01*
X0077694Y0370685D02*
X0074912Y0370685D01*
X0074498Y0369686D02*
X0078108Y0369686D01*
X0078993Y0368688D02*
X0073613Y0368688D01*
X0068993Y0368688D02*
X0048923Y0368688D01*
X0049921Y0369686D02*
X0068108Y0369686D01*
X0067694Y0370685D02*
X0050920Y0370685D01*
X0051918Y0371683D02*
X0067628Y0371683D01*
X0067784Y0372682D02*
X0052917Y0372682D01*
X0053915Y0373680D02*
X0068211Y0373680D01*
X0069210Y0374679D02*
X0054914Y0374679D01*
X0055912Y0375677D02*
X0069219Y0375677D01*
X0069219Y0376676D02*
X0056911Y0376676D01*
X0067916Y0385662D02*
X0029485Y0385662D01*
X0028487Y0384664D02*
X0068529Y0384664D01*
X0067628Y0386661D02*
X0030484Y0386661D01*
X0031482Y0387659D02*
X0067628Y0387659D01*
X0067976Y0388658D02*
X0032481Y0388658D01*
X0033479Y0389656D02*
X0068676Y0389656D01*
X0082292Y0390655D02*
X0117559Y0390655D01*
X0117816Y0390761D02*
X0116466Y0390202D01*
X0115432Y0389168D01*
X0114872Y0387818D01*
X0114872Y0386356D01*
X0115432Y0385005D01*
X0116466Y0383971D01*
X0117816Y0383412D01*
X0119278Y0383412D01*
X0120629Y0383971D01*
X0121663Y0385005D01*
X0122222Y0386356D01*
X0122222Y0387818D01*
X0121663Y0389168D01*
X0120629Y0390202D01*
X0119278Y0390761D01*
X0117816Y0390761D01*
X0119536Y0390655D02*
X0127559Y0390655D01*
X0125920Y0389656D02*
X0121175Y0389656D01*
X0121874Y0388658D02*
X0125220Y0388658D01*
X0124872Y0387659D02*
X0122222Y0387659D01*
X0122222Y0386661D02*
X0124872Y0386661D01*
X0125160Y0385662D02*
X0121935Y0385662D01*
X0121321Y0384664D02*
X0125773Y0384664D01*
X0126463Y0383665D02*
X0119890Y0383665D01*
X0117205Y0383665D02*
X0083387Y0383665D01*
X0083789Y0382667D02*
X0126463Y0382667D01*
X0126463Y0381668D02*
X0084787Y0381668D01*
X0084077Y0384664D02*
X0115773Y0384664D01*
X0115160Y0385662D02*
X0084691Y0385662D01*
X0084978Y0386661D02*
X0114872Y0386661D01*
X0114872Y0387659D02*
X0084978Y0387659D01*
X0084630Y0388658D02*
X0115220Y0388658D01*
X0115920Y0389656D02*
X0083930Y0389656D01*
X0045461Y0401638D02*
X0154389Y0401638D01*
X0155388Y0400640D02*
X0044463Y0400640D01*
X0043464Y0399641D02*
X0156386Y0399641D01*
X0157385Y0398643D02*
X0042466Y0398643D01*
X0041467Y0397644D02*
X0158383Y0397644D01*
X0159382Y0396646D02*
X0040469Y0396646D01*
X0039470Y0395647D02*
X0160380Y0395647D01*
X0161379Y0394649D02*
X0038472Y0394649D01*
X0037473Y0393650D02*
X0162377Y0393650D01*
X0163376Y0392652D02*
X0036475Y0392652D01*
X0040934Y0360699D02*
X0154979Y0360699D01*
X0155977Y0359701D02*
X0039936Y0359701D01*
X0038937Y0358702D02*
X0156976Y0358702D01*
X0157974Y0357704D02*
X0037939Y0357704D01*
X0035206Y0305781D02*
X0163786Y0305781D01*
X0163786Y0304783D02*
X0035778Y0304783D01*
X0035778Y0303784D02*
X0163786Y0303784D01*
X0163786Y0302786D02*
X0035778Y0302786D01*
X0035778Y0300789D02*
X0163786Y0300789D01*
X0163786Y0301787D02*
X0031512Y0301787D01*
X0031512Y0300789D02*
X0030543Y0300789D01*
X0030543Y0299790D02*
X0031512Y0299790D01*
X0031512Y0298792D02*
X0030543Y0298792D01*
X0030543Y0297793D02*
X0031512Y0297793D01*
X0031512Y0296795D02*
X0030543Y0296795D01*
X0035036Y0296795D02*
X0163786Y0296795D01*
X0163786Y0297793D02*
X0035751Y0297793D01*
X0035778Y0298792D02*
X0163786Y0298792D01*
X0163786Y0299790D02*
X0035778Y0299790D01*
X0150889Y0370685D02*
X0163378Y0370685D01*
X0162414Y0369686D02*
X0151888Y0369686D01*
X0152886Y0368688D02*
X0161925Y0368688D01*
X0167492Y0363695D02*
X0192333Y0363695D01*
X0191334Y0364693D02*
X0178280Y0364693D01*
X0179061Y0365692D02*
X0190336Y0365692D01*
X0189337Y0366691D02*
X0179466Y0366691D01*
X0179466Y0367689D02*
X0188339Y0367689D01*
X0187340Y0368688D02*
X0179236Y0368688D01*
X0178704Y0369686D02*
X0186342Y0369686D01*
X0195398Y0356705D02*
X0164868Y0356705D01*
X0165867Y0355707D02*
X0195398Y0355707D01*
X0195398Y0354708D02*
X0178170Y0354708D01*
X0177873Y0355005D02*
X0176522Y0355565D01*
X0175060Y0355565D01*
X0173710Y0355005D01*
X0172676Y0353971D01*
X0172117Y0352621D01*
X0172117Y0351159D01*
X0172676Y0349808D01*
X0173710Y0348774D01*
X0175060Y0348215D01*
X0176522Y0348215D01*
X0177873Y0348774D01*
X0178907Y0349808D01*
X0179466Y0351159D01*
X0179466Y0352621D01*
X0178907Y0353971D01*
X0177873Y0355005D01*
X0179015Y0353710D02*
X0195398Y0353710D01*
X0195398Y0352711D02*
X0179429Y0352711D01*
X0179466Y0351713D02*
X0195398Y0351713D01*
X0195398Y0350714D02*
X0179282Y0350714D01*
X0178814Y0349716D02*
X0195398Y0349716D01*
X0195398Y0348717D02*
X0177735Y0348717D01*
X0173848Y0348717D02*
X0167959Y0348717D01*
X0167954Y0347719D02*
X0195398Y0347719D01*
X0195398Y0346720D02*
X0167954Y0346720D01*
X0167954Y0345722D02*
X0195398Y0345722D01*
X0195398Y0344723D02*
X0167954Y0344723D01*
X0167954Y0343725D02*
X0195398Y0343725D01*
X0195398Y0342726D02*
X0167954Y0342726D01*
X0167954Y0341728D02*
X0195398Y0341728D01*
X0195398Y0340729D02*
X0167954Y0340729D01*
X0167954Y0339731D02*
X0195398Y0339731D01*
X0195398Y0338732D02*
X0167954Y0338732D01*
X0167954Y0337734D02*
X0195398Y0337734D01*
X0195398Y0336735D02*
X0167954Y0336735D01*
X0167954Y0335737D02*
X0195398Y0335737D01*
X0195398Y0334738D02*
X0167954Y0334738D01*
X0167954Y0333740D02*
X0195398Y0333740D01*
X0195398Y0332741D02*
X0167954Y0332741D01*
X0167954Y0331743D02*
X0195398Y0331743D01*
X0195398Y0330744D02*
X0167954Y0330744D01*
X0167954Y0329746D02*
X0195398Y0329746D01*
X0195398Y0328747D02*
X0167954Y0328747D01*
X0167954Y0327749D02*
X0195398Y0327749D01*
X0195398Y0326750D02*
X0167954Y0326750D01*
X0167954Y0325752D02*
X0195398Y0325752D01*
X0195398Y0324753D02*
X0167954Y0324753D01*
X0167954Y0323755D02*
X0195398Y0323755D01*
X0195398Y0322756D02*
X0167954Y0322756D01*
X0167954Y0321757D02*
X0195398Y0321757D01*
X0195398Y0320759D02*
X0167954Y0320759D01*
X0167954Y0319760D02*
X0195398Y0319760D01*
X0195398Y0318762D02*
X0167954Y0318762D01*
X0167954Y0317763D02*
X0195398Y0317763D01*
X0195398Y0316765D02*
X0167954Y0316765D01*
X0167954Y0315766D02*
X0195398Y0315766D01*
X0195398Y0314768D02*
X0167954Y0314768D01*
X0167954Y0313769D02*
X0195398Y0313769D01*
X0195398Y0312771D02*
X0167954Y0312771D01*
X0167954Y0311772D02*
X0195398Y0311772D01*
X0195398Y0310774D02*
X0167954Y0310774D01*
X0167954Y0309775D02*
X0195398Y0309775D01*
X0195398Y0308777D02*
X0167954Y0308777D01*
X0167954Y0307778D02*
X0195398Y0307778D01*
X0195398Y0306780D02*
X0167954Y0306780D01*
X0167954Y0305781D02*
X0195398Y0305781D01*
X0195398Y0304783D02*
X0167954Y0304783D01*
X0167954Y0303784D02*
X0195398Y0303784D01*
X0195398Y0302786D02*
X0167954Y0302786D01*
X0167954Y0301787D02*
X0195398Y0301787D01*
X0195398Y0300789D02*
X0167954Y0300789D01*
X0167954Y0299790D02*
X0195398Y0299790D01*
X0195398Y0298792D02*
X0167954Y0298792D01*
X0167954Y0297793D02*
X0195398Y0297793D01*
X0195398Y0296795D02*
X0167954Y0296795D01*
X0167954Y0295796D02*
X0195398Y0295796D01*
X0195398Y0294798D02*
X0167954Y0294798D01*
X0167954Y0293799D02*
X0195398Y0293799D01*
X0195398Y0292801D02*
X0167954Y0292801D01*
X0167954Y0291802D02*
X0195398Y0291802D01*
X0195398Y0290804D02*
X0167954Y0290804D01*
X0167954Y0289805D02*
X0195398Y0289805D01*
X0195398Y0288807D02*
X0167954Y0288807D01*
X0167954Y0287808D02*
X0195398Y0287808D01*
X0195398Y0286810D02*
X0167954Y0286810D01*
X0168814Y0349716D02*
X0172768Y0349716D01*
X0172301Y0350714D02*
X0169282Y0350714D01*
X0169466Y0351713D02*
X0172117Y0351713D01*
X0172154Y0352711D02*
X0169429Y0352711D01*
X0169015Y0353710D02*
X0172568Y0353710D01*
X0173413Y0354708D02*
X0168170Y0354708D01*
D22*
X0090083Y0171654D02*
X0088114Y0171654D01*
X0086146Y0169685D01*
X0086146Y0167717D01*
X0088114Y0165748D01*
X0090083Y0165748D01*
X0092051Y0167717D01*
X0092051Y0169685D01*
X0090083Y0171654D01*
X0090325Y0171411D02*
X0087872Y0171411D01*
X0086889Y0170428D02*
X0091308Y0170428D01*
X0092051Y0169445D02*
X0086146Y0169445D01*
X0086146Y0168463D02*
X0092051Y0168463D01*
X0091814Y0167480D02*
X0086382Y0167480D01*
X0087365Y0166497D02*
X0090832Y0166497D01*
X0081224Y0162795D02*
X0088114Y0155906D01*
X0084177Y0155906D02*
X0084177Y0154921D01*
X0083193Y0153937D01*
X0081224Y0151969D01*
X0081224Y0150000D01*
X0081224Y0146063D01*
X0081224Y0118504D01*
X0081224Y0100965D01*
X0081224Y0097028D01*
X0069925Y0085728D01*
X0069925Y0095728D02*
X0079256Y0105059D01*
X0079256Y0108996D01*
X0079256Y0131299D01*
X0079256Y0152953D01*
X0081224Y0154921D01*
X0081224Y0156890D01*
X0078272Y0159843D01*
X0081224Y0156890D01*
X0078272Y0159843D01*
X0081224Y0156890D01*
X0078272Y0159843D01*
X0077287Y0162795D02*
X0081224Y0162795D01*
X0077287Y0162795D02*
X0075319Y0160827D01*
X0075319Y0158858D01*
X0075319Y0135059D01*
X0075319Y0131122D01*
X0069925Y0125728D01*
X0077287Y0123091D02*
X0069925Y0115728D01*
X0077287Y0123091D02*
X0077287Y0127028D01*
X0077287Y0154921D01*
X0078272Y0155906D01*
X0092051Y0070276D02*
X0107799Y0070276D01*
X0109768Y0068307D01*
X0109768Y0062402D01*
X0107799Y0060433D01*
X0092051Y0060433D01*
X0090083Y0062402D01*
X0090083Y0068307D01*
X0092051Y0070276D01*
X0091962Y0070186D02*
X0107889Y0070186D01*
X0108871Y0069204D02*
X0090979Y0069204D01*
X0090083Y0068221D02*
X0109768Y0068221D01*
X0109768Y0067238D02*
X0090083Y0067238D01*
X0090083Y0066255D02*
X0109768Y0066255D01*
X0109768Y0065272D02*
X0090083Y0065272D01*
X0090083Y0064290D02*
X0109768Y0064290D01*
X0109768Y0063307D02*
X0090083Y0063307D01*
X0090160Y0062324D02*
X0109690Y0062324D01*
X0108708Y0061341D02*
X0091143Y0061341D01*
X0129925Y0115709D02*
X0138469Y0115709D01*
X0156028Y0133268D01*
D23*
X0174728Y0066339D02*
X0174728Y0062402D01*
D24*
X0174728Y0066339D03*
X0156028Y0133268D03*
X0099925Y0158858D03*
X0088114Y0155906D03*
X0084177Y0155906D03*
X0078272Y0155906D03*
X0078272Y0159843D03*
D25*
X0069925Y0065728D02*
X0059571Y0055374D01*
X0059571Y0026969D01*
X0069413Y0017126D01*
X0080240Y0017126D01*
X0129453Y0017126D01*
X0132406Y0017126D01*
X0140280Y0025000D01*
X0174728Y0059449D01*
X0174728Y0062402D01*
D26*
X0173744Y0136220D02*
X0184728Y0136220D01*
X0173744Y0136220D02*
X0165870Y0144094D01*
X0165870Y0147047D01*
X0165870Y0348858D01*
X0165791Y0351890D01*
X0165870Y0351811D01*
X0165791Y0351890D02*
X0165791Y0352835D01*
X0158980Y0359646D01*
X0139295Y0379331D01*
X0131421Y0379331D01*
X0128547Y0382205D01*
X0128547Y0384331D01*
X0128547Y0387087D01*
X0131421Y0379331D02*
X0121579Y0379331D01*
X0118547Y0376299D01*
X0118547Y0374331D01*
X0118547Y0371575D01*
X0121579Y0379331D02*
X0084177Y0379331D01*
X0081303Y0382205D01*
X0081303Y0384331D01*
X0081303Y0387087D01*
X0084177Y0379331D02*
X0074335Y0379331D01*
X0071303Y0376299D01*
X0071303Y0374331D01*
X0071303Y0371575D01*
X0070398Y0379331D02*
X0056618Y0379331D01*
X0036933Y0359646D01*
X0029059Y0359646D01*
X0024059Y0354646D01*
X0024059Y0351890D01*
X0024059Y0325276D01*
X0024059Y0318307D01*
X0031028Y0311339D01*
X0070398Y0379331D02*
X0074335Y0379331D01*
X0099925Y0158858D02*
X0123075Y0135709D01*
X0129925Y0135709D01*
X0138311Y0144094D01*
X0163902Y0144094D01*
X0165870Y0144094D01*
D27*
X0112031Y0088681D02*
X0118626Y0082087D01*
X0118626Y0049354D01*
X0107925Y0038654D01*
X0107925Y0025000D01*
X0112031Y0088681D02*
X0111736Y0088976D01*
X0099925Y0088976D01*
M02*
