G75*
%MOIN*%
%OFA0B0*%
%FSLAX25Y25*%
%IPPOS*%
%LPD*%
%AMOC8*
5,1,8,0,0,1.08239X$1,22.5*
%
%ADD10C,0.00000*%
%ADD11C,0.00500*%
%ADD12C,0.00200*%
%ADD13C,0.03150*%
%ADD14C,0.03500*%
%ADD15C,0.00300*%
D10*
X0064492Y0011220D02*
X0001500Y0074213D01*
X0001500Y0361614D01*
X0044807Y0404921D01*
X0155043Y0404921D01*
X0198350Y0361614D01*
X0198350Y0074213D01*
X0135358Y0011220D01*
X0064492Y0011220D01*
X0044807Y0054528D02*
X0044809Y0054653D01*
X0044815Y0054778D01*
X0044825Y0054902D01*
X0044839Y0055026D01*
X0044856Y0055150D01*
X0044878Y0055273D01*
X0044904Y0055395D01*
X0044933Y0055517D01*
X0044966Y0055637D01*
X0045004Y0055756D01*
X0045044Y0055875D01*
X0045089Y0055991D01*
X0045137Y0056106D01*
X0045189Y0056220D01*
X0045245Y0056332D01*
X0045304Y0056442D01*
X0045366Y0056550D01*
X0045432Y0056657D01*
X0045501Y0056761D01*
X0045574Y0056862D01*
X0045649Y0056962D01*
X0045728Y0057059D01*
X0045810Y0057153D01*
X0045895Y0057245D01*
X0045982Y0057334D01*
X0046073Y0057420D01*
X0046166Y0057503D01*
X0046262Y0057584D01*
X0046360Y0057661D01*
X0046460Y0057735D01*
X0046563Y0057806D01*
X0046668Y0057873D01*
X0046776Y0057938D01*
X0046885Y0057998D01*
X0046996Y0058056D01*
X0047109Y0058109D01*
X0047223Y0058159D01*
X0047339Y0058206D01*
X0047456Y0058248D01*
X0047575Y0058287D01*
X0047695Y0058323D01*
X0047816Y0058354D01*
X0047938Y0058382D01*
X0048060Y0058405D01*
X0048184Y0058425D01*
X0048308Y0058441D01*
X0048432Y0058453D01*
X0048557Y0058461D01*
X0048682Y0058465D01*
X0048806Y0058465D01*
X0048931Y0058461D01*
X0049056Y0058453D01*
X0049180Y0058441D01*
X0049304Y0058425D01*
X0049428Y0058405D01*
X0049550Y0058382D01*
X0049672Y0058354D01*
X0049793Y0058323D01*
X0049913Y0058287D01*
X0050032Y0058248D01*
X0050149Y0058206D01*
X0050265Y0058159D01*
X0050379Y0058109D01*
X0050492Y0058056D01*
X0050603Y0057998D01*
X0050713Y0057938D01*
X0050820Y0057873D01*
X0050925Y0057806D01*
X0051028Y0057735D01*
X0051128Y0057661D01*
X0051226Y0057584D01*
X0051322Y0057503D01*
X0051415Y0057420D01*
X0051506Y0057334D01*
X0051593Y0057245D01*
X0051678Y0057153D01*
X0051760Y0057059D01*
X0051839Y0056962D01*
X0051914Y0056862D01*
X0051987Y0056761D01*
X0052056Y0056657D01*
X0052122Y0056550D01*
X0052184Y0056442D01*
X0052243Y0056332D01*
X0052299Y0056220D01*
X0052351Y0056106D01*
X0052399Y0055991D01*
X0052444Y0055875D01*
X0052484Y0055756D01*
X0052522Y0055637D01*
X0052555Y0055517D01*
X0052584Y0055395D01*
X0052610Y0055273D01*
X0052632Y0055150D01*
X0052649Y0055026D01*
X0052663Y0054902D01*
X0052673Y0054778D01*
X0052679Y0054653D01*
X0052681Y0054528D01*
X0052679Y0054403D01*
X0052673Y0054278D01*
X0052663Y0054154D01*
X0052649Y0054030D01*
X0052632Y0053906D01*
X0052610Y0053783D01*
X0052584Y0053661D01*
X0052555Y0053539D01*
X0052522Y0053419D01*
X0052484Y0053300D01*
X0052444Y0053181D01*
X0052399Y0053065D01*
X0052351Y0052950D01*
X0052299Y0052836D01*
X0052243Y0052724D01*
X0052184Y0052614D01*
X0052122Y0052506D01*
X0052056Y0052399D01*
X0051987Y0052295D01*
X0051914Y0052194D01*
X0051839Y0052094D01*
X0051760Y0051997D01*
X0051678Y0051903D01*
X0051593Y0051811D01*
X0051506Y0051722D01*
X0051415Y0051636D01*
X0051322Y0051553D01*
X0051226Y0051472D01*
X0051128Y0051395D01*
X0051028Y0051321D01*
X0050925Y0051250D01*
X0050820Y0051183D01*
X0050712Y0051118D01*
X0050603Y0051058D01*
X0050492Y0051000D01*
X0050379Y0050947D01*
X0050265Y0050897D01*
X0050149Y0050850D01*
X0050032Y0050808D01*
X0049913Y0050769D01*
X0049793Y0050733D01*
X0049672Y0050702D01*
X0049550Y0050674D01*
X0049428Y0050651D01*
X0049304Y0050631D01*
X0049180Y0050615D01*
X0049056Y0050603D01*
X0048931Y0050595D01*
X0048806Y0050591D01*
X0048682Y0050591D01*
X0048557Y0050595D01*
X0048432Y0050603D01*
X0048308Y0050615D01*
X0048184Y0050631D01*
X0048060Y0050651D01*
X0047938Y0050674D01*
X0047816Y0050702D01*
X0047695Y0050733D01*
X0047575Y0050769D01*
X0047456Y0050808D01*
X0047339Y0050850D01*
X0047223Y0050897D01*
X0047109Y0050947D01*
X0046996Y0051000D01*
X0046885Y0051058D01*
X0046775Y0051118D01*
X0046668Y0051183D01*
X0046563Y0051250D01*
X0046460Y0051321D01*
X0046360Y0051395D01*
X0046262Y0051472D01*
X0046166Y0051553D01*
X0046073Y0051636D01*
X0045982Y0051722D01*
X0045895Y0051811D01*
X0045810Y0051903D01*
X0045728Y0051997D01*
X0045649Y0052094D01*
X0045574Y0052194D01*
X0045501Y0052295D01*
X0045432Y0052399D01*
X0045366Y0052506D01*
X0045304Y0052614D01*
X0045245Y0052724D01*
X0045189Y0052836D01*
X0045137Y0052950D01*
X0045089Y0053065D01*
X0045044Y0053181D01*
X0045004Y0053300D01*
X0044966Y0053419D01*
X0044933Y0053539D01*
X0044904Y0053661D01*
X0044878Y0053783D01*
X0044856Y0053906D01*
X0044839Y0054030D01*
X0044825Y0054154D01*
X0044815Y0054278D01*
X0044809Y0054403D01*
X0044807Y0054528D01*
X0012327Y0174606D02*
X0012329Y0174731D01*
X0012335Y0174856D01*
X0012345Y0174980D01*
X0012359Y0175104D01*
X0012376Y0175228D01*
X0012398Y0175351D01*
X0012424Y0175473D01*
X0012453Y0175595D01*
X0012486Y0175715D01*
X0012524Y0175834D01*
X0012564Y0175953D01*
X0012609Y0176069D01*
X0012657Y0176184D01*
X0012709Y0176298D01*
X0012765Y0176410D01*
X0012824Y0176520D01*
X0012886Y0176628D01*
X0012952Y0176735D01*
X0013021Y0176839D01*
X0013094Y0176940D01*
X0013169Y0177040D01*
X0013248Y0177137D01*
X0013330Y0177231D01*
X0013415Y0177323D01*
X0013502Y0177412D01*
X0013593Y0177498D01*
X0013686Y0177581D01*
X0013782Y0177662D01*
X0013880Y0177739D01*
X0013980Y0177813D01*
X0014083Y0177884D01*
X0014188Y0177951D01*
X0014296Y0178016D01*
X0014405Y0178076D01*
X0014516Y0178134D01*
X0014629Y0178187D01*
X0014743Y0178237D01*
X0014859Y0178284D01*
X0014976Y0178326D01*
X0015095Y0178365D01*
X0015215Y0178401D01*
X0015336Y0178432D01*
X0015458Y0178460D01*
X0015580Y0178483D01*
X0015704Y0178503D01*
X0015828Y0178519D01*
X0015952Y0178531D01*
X0016077Y0178539D01*
X0016202Y0178543D01*
X0016326Y0178543D01*
X0016451Y0178539D01*
X0016576Y0178531D01*
X0016700Y0178519D01*
X0016824Y0178503D01*
X0016948Y0178483D01*
X0017070Y0178460D01*
X0017192Y0178432D01*
X0017313Y0178401D01*
X0017433Y0178365D01*
X0017552Y0178326D01*
X0017669Y0178284D01*
X0017785Y0178237D01*
X0017899Y0178187D01*
X0018012Y0178134D01*
X0018123Y0178076D01*
X0018233Y0178016D01*
X0018340Y0177951D01*
X0018445Y0177884D01*
X0018548Y0177813D01*
X0018648Y0177739D01*
X0018746Y0177662D01*
X0018842Y0177581D01*
X0018935Y0177498D01*
X0019026Y0177412D01*
X0019113Y0177323D01*
X0019198Y0177231D01*
X0019280Y0177137D01*
X0019359Y0177040D01*
X0019434Y0176940D01*
X0019507Y0176839D01*
X0019576Y0176735D01*
X0019642Y0176628D01*
X0019704Y0176520D01*
X0019763Y0176410D01*
X0019819Y0176298D01*
X0019871Y0176184D01*
X0019919Y0176069D01*
X0019964Y0175953D01*
X0020004Y0175834D01*
X0020042Y0175715D01*
X0020075Y0175595D01*
X0020104Y0175473D01*
X0020130Y0175351D01*
X0020152Y0175228D01*
X0020169Y0175104D01*
X0020183Y0174980D01*
X0020193Y0174856D01*
X0020199Y0174731D01*
X0020201Y0174606D01*
X0020199Y0174481D01*
X0020193Y0174356D01*
X0020183Y0174232D01*
X0020169Y0174108D01*
X0020152Y0173984D01*
X0020130Y0173861D01*
X0020104Y0173739D01*
X0020075Y0173617D01*
X0020042Y0173497D01*
X0020004Y0173378D01*
X0019964Y0173259D01*
X0019919Y0173143D01*
X0019871Y0173028D01*
X0019819Y0172914D01*
X0019763Y0172802D01*
X0019704Y0172692D01*
X0019642Y0172584D01*
X0019576Y0172477D01*
X0019507Y0172373D01*
X0019434Y0172272D01*
X0019359Y0172172D01*
X0019280Y0172075D01*
X0019198Y0171981D01*
X0019113Y0171889D01*
X0019026Y0171800D01*
X0018935Y0171714D01*
X0018842Y0171631D01*
X0018746Y0171550D01*
X0018648Y0171473D01*
X0018548Y0171399D01*
X0018445Y0171328D01*
X0018340Y0171261D01*
X0018232Y0171196D01*
X0018123Y0171136D01*
X0018012Y0171078D01*
X0017899Y0171025D01*
X0017785Y0170975D01*
X0017669Y0170928D01*
X0017552Y0170886D01*
X0017433Y0170847D01*
X0017313Y0170811D01*
X0017192Y0170780D01*
X0017070Y0170752D01*
X0016948Y0170729D01*
X0016824Y0170709D01*
X0016700Y0170693D01*
X0016576Y0170681D01*
X0016451Y0170673D01*
X0016326Y0170669D01*
X0016202Y0170669D01*
X0016077Y0170673D01*
X0015952Y0170681D01*
X0015828Y0170693D01*
X0015704Y0170709D01*
X0015580Y0170729D01*
X0015458Y0170752D01*
X0015336Y0170780D01*
X0015215Y0170811D01*
X0015095Y0170847D01*
X0014976Y0170886D01*
X0014859Y0170928D01*
X0014743Y0170975D01*
X0014629Y0171025D01*
X0014516Y0171078D01*
X0014405Y0171136D01*
X0014295Y0171196D01*
X0014188Y0171261D01*
X0014083Y0171328D01*
X0013980Y0171399D01*
X0013880Y0171473D01*
X0013782Y0171550D01*
X0013686Y0171631D01*
X0013593Y0171714D01*
X0013502Y0171800D01*
X0013415Y0171889D01*
X0013330Y0171981D01*
X0013248Y0172075D01*
X0013169Y0172172D01*
X0013094Y0172272D01*
X0013021Y0172373D01*
X0012952Y0172477D01*
X0012886Y0172584D01*
X0012824Y0172692D01*
X0012765Y0172802D01*
X0012709Y0172914D01*
X0012657Y0173028D01*
X0012609Y0173143D01*
X0012564Y0173259D01*
X0012524Y0173378D01*
X0012486Y0173497D01*
X0012453Y0173617D01*
X0012424Y0173739D01*
X0012398Y0173861D01*
X0012376Y0173984D01*
X0012359Y0174108D01*
X0012345Y0174232D01*
X0012335Y0174356D01*
X0012329Y0174481D01*
X0012327Y0174606D01*
X0012327Y0280906D02*
X0012329Y0281031D01*
X0012335Y0281156D01*
X0012345Y0281280D01*
X0012359Y0281404D01*
X0012376Y0281528D01*
X0012398Y0281651D01*
X0012424Y0281773D01*
X0012453Y0281895D01*
X0012486Y0282015D01*
X0012524Y0282134D01*
X0012564Y0282253D01*
X0012609Y0282369D01*
X0012657Y0282484D01*
X0012709Y0282598D01*
X0012765Y0282710D01*
X0012824Y0282820D01*
X0012886Y0282928D01*
X0012952Y0283035D01*
X0013021Y0283139D01*
X0013094Y0283240D01*
X0013169Y0283340D01*
X0013248Y0283437D01*
X0013330Y0283531D01*
X0013415Y0283623D01*
X0013502Y0283712D01*
X0013593Y0283798D01*
X0013686Y0283881D01*
X0013782Y0283962D01*
X0013880Y0284039D01*
X0013980Y0284113D01*
X0014083Y0284184D01*
X0014188Y0284251D01*
X0014296Y0284316D01*
X0014405Y0284376D01*
X0014516Y0284434D01*
X0014629Y0284487D01*
X0014743Y0284537D01*
X0014859Y0284584D01*
X0014976Y0284626D01*
X0015095Y0284665D01*
X0015215Y0284701D01*
X0015336Y0284732D01*
X0015458Y0284760D01*
X0015580Y0284783D01*
X0015704Y0284803D01*
X0015828Y0284819D01*
X0015952Y0284831D01*
X0016077Y0284839D01*
X0016202Y0284843D01*
X0016326Y0284843D01*
X0016451Y0284839D01*
X0016576Y0284831D01*
X0016700Y0284819D01*
X0016824Y0284803D01*
X0016948Y0284783D01*
X0017070Y0284760D01*
X0017192Y0284732D01*
X0017313Y0284701D01*
X0017433Y0284665D01*
X0017552Y0284626D01*
X0017669Y0284584D01*
X0017785Y0284537D01*
X0017899Y0284487D01*
X0018012Y0284434D01*
X0018123Y0284376D01*
X0018233Y0284316D01*
X0018340Y0284251D01*
X0018445Y0284184D01*
X0018548Y0284113D01*
X0018648Y0284039D01*
X0018746Y0283962D01*
X0018842Y0283881D01*
X0018935Y0283798D01*
X0019026Y0283712D01*
X0019113Y0283623D01*
X0019198Y0283531D01*
X0019280Y0283437D01*
X0019359Y0283340D01*
X0019434Y0283240D01*
X0019507Y0283139D01*
X0019576Y0283035D01*
X0019642Y0282928D01*
X0019704Y0282820D01*
X0019763Y0282710D01*
X0019819Y0282598D01*
X0019871Y0282484D01*
X0019919Y0282369D01*
X0019964Y0282253D01*
X0020004Y0282134D01*
X0020042Y0282015D01*
X0020075Y0281895D01*
X0020104Y0281773D01*
X0020130Y0281651D01*
X0020152Y0281528D01*
X0020169Y0281404D01*
X0020183Y0281280D01*
X0020193Y0281156D01*
X0020199Y0281031D01*
X0020201Y0280906D01*
X0020199Y0280781D01*
X0020193Y0280656D01*
X0020183Y0280532D01*
X0020169Y0280408D01*
X0020152Y0280284D01*
X0020130Y0280161D01*
X0020104Y0280039D01*
X0020075Y0279917D01*
X0020042Y0279797D01*
X0020004Y0279678D01*
X0019964Y0279559D01*
X0019919Y0279443D01*
X0019871Y0279328D01*
X0019819Y0279214D01*
X0019763Y0279102D01*
X0019704Y0278992D01*
X0019642Y0278884D01*
X0019576Y0278777D01*
X0019507Y0278673D01*
X0019434Y0278572D01*
X0019359Y0278472D01*
X0019280Y0278375D01*
X0019198Y0278281D01*
X0019113Y0278189D01*
X0019026Y0278100D01*
X0018935Y0278014D01*
X0018842Y0277931D01*
X0018746Y0277850D01*
X0018648Y0277773D01*
X0018548Y0277699D01*
X0018445Y0277628D01*
X0018340Y0277561D01*
X0018232Y0277496D01*
X0018123Y0277436D01*
X0018012Y0277378D01*
X0017899Y0277325D01*
X0017785Y0277275D01*
X0017669Y0277228D01*
X0017552Y0277186D01*
X0017433Y0277147D01*
X0017313Y0277111D01*
X0017192Y0277080D01*
X0017070Y0277052D01*
X0016948Y0277029D01*
X0016824Y0277009D01*
X0016700Y0276993D01*
X0016576Y0276981D01*
X0016451Y0276973D01*
X0016326Y0276969D01*
X0016202Y0276969D01*
X0016077Y0276973D01*
X0015952Y0276981D01*
X0015828Y0276993D01*
X0015704Y0277009D01*
X0015580Y0277029D01*
X0015458Y0277052D01*
X0015336Y0277080D01*
X0015215Y0277111D01*
X0015095Y0277147D01*
X0014976Y0277186D01*
X0014859Y0277228D01*
X0014743Y0277275D01*
X0014629Y0277325D01*
X0014516Y0277378D01*
X0014405Y0277436D01*
X0014295Y0277496D01*
X0014188Y0277561D01*
X0014083Y0277628D01*
X0013980Y0277699D01*
X0013880Y0277773D01*
X0013782Y0277850D01*
X0013686Y0277931D01*
X0013593Y0278014D01*
X0013502Y0278100D01*
X0013415Y0278189D01*
X0013330Y0278281D01*
X0013248Y0278375D01*
X0013169Y0278472D01*
X0013094Y0278572D01*
X0013021Y0278673D01*
X0012952Y0278777D01*
X0012886Y0278884D01*
X0012824Y0278992D01*
X0012765Y0279102D01*
X0012709Y0279214D01*
X0012657Y0279328D01*
X0012609Y0279443D01*
X0012564Y0279559D01*
X0012524Y0279678D01*
X0012486Y0279797D01*
X0012453Y0279917D01*
X0012424Y0280039D01*
X0012398Y0280161D01*
X0012376Y0280284D01*
X0012359Y0280408D01*
X0012345Y0280532D01*
X0012335Y0280656D01*
X0012329Y0280781D01*
X0012327Y0280906D01*
X0147169Y0054528D02*
X0147171Y0054653D01*
X0147177Y0054778D01*
X0147187Y0054902D01*
X0147201Y0055026D01*
X0147218Y0055150D01*
X0147240Y0055273D01*
X0147266Y0055395D01*
X0147295Y0055517D01*
X0147328Y0055637D01*
X0147366Y0055756D01*
X0147406Y0055875D01*
X0147451Y0055991D01*
X0147499Y0056106D01*
X0147551Y0056220D01*
X0147607Y0056332D01*
X0147666Y0056442D01*
X0147728Y0056550D01*
X0147794Y0056657D01*
X0147863Y0056761D01*
X0147936Y0056862D01*
X0148011Y0056962D01*
X0148090Y0057059D01*
X0148172Y0057153D01*
X0148257Y0057245D01*
X0148344Y0057334D01*
X0148435Y0057420D01*
X0148528Y0057503D01*
X0148624Y0057584D01*
X0148722Y0057661D01*
X0148822Y0057735D01*
X0148925Y0057806D01*
X0149030Y0057873D01*
X0149138Y0057938D01*
X0149247Y0057998D01*
X0149358Y0058056D01*
X0149471Y0058109D01*
X0149585Y0058159D01*
X0149701Y0058206D01*
X0149818Y0058248D01*
X0149937Y0058287D01*
X0150057Y0058323D01*
X0150178Y0058354D01*
X0150300Y0058382D01*
X0150422Y0058405D01*
X0150546Y0058425D01*
X0150670Y0058441D01*
X0150794Y0058453D01*
X0150919Y0058461D01*
X0151044Y0058465D01*
X0151168Y0058465D01*
X0151293Y0058461D01*
X0151418Y0058453D01*
X0151542Y0058441D01*
X0151666Y0058425D01*
X0151790Y0058405D01*
X0151912Y0058382D01*
X0152034Y0058354D01*
X0152155Y0058323D01*
X0152275Y0058287D01*
X0152394Y0058248D01*
X0152511Y0058206D01*
X0152627Y0058159D01*
X0152741Y0058109D01*
X0152854Y0058056D01*
X0152965Y0057998D01*
X0153075Y0057938D01*
X0153182Y0057873D01*
X0153287Y0057806D01*
X0153390Y0057735D01*
X0153490Y0057661D01*
X0153588Y0057584D01*
X0153684Y0057503D01*
X0153777Y0057420D01*
X0153868Y0057334D01*
X0153955Y0057245D01*
X0154040Y0057153D01*
X0154122Y0057059D01*
X0154201Y0056962D01*
X0154276Y0056862D01*
X0154349Y0056761D01*
X0154418Y0056657D01*
X0154484Y0056550D01*
X0154546Y0056442D01*
X0154605Y0056332D01*
X0154661Y0056220D01*
X0154713Y0056106D01*
X0154761Y0055991D01*
X0154806Y0055875D01*
X0154846Y0055756D01*
X0154884Y0055637D01*
X0154917Y0055517D01*
X0154946Y0055395D01*
X0154972Y0055273D01*
X0154994Y0055150D01*
X0155011Y0055026D01*
X0155025Y0054902D01*
X0155035Y0054778D01*
X0155041Y0054653D01*
X0155043Y0054528D01*
X0155041Y0054403D01*
X0155035Y0054278D01*
X0155025Y0054154D01*
X0155011Y0054030D01*
X0154994Y0053906D01*
X0154972Y0053783D01*
X0154946Y0053661D01*
X0154917Y0053539D01*
X0154884Y0053419D01*
X0154846Y0053300D01*
X0154806Y0053181D01*
X0154761Y0053065D01*
X0154713Y0052950D01*
X0154661Y0052836D01*
X0154605Y0052724D01*
X0154546Y0052614D01*
X0154484Y0052506D01*
X0154418Y0052399D01*
X0154349Y0052295D01*
X0154276Y0052194D01*
X0154201Y0052094D01*
X0154122Y0051997D01*
X0154040Y0051903D01*
X0153955Y0051811D01*
X0153868Y0051722D01*
X0153777Y0051636D01*
X0153684Y0051553D01*
X0153588Y0051472D01*
X0153490Y0051395D01*
X0153390Y0051321D01*
X0153287Y0051250D01*
X0153182Y0051183D01*
X0153074Y0051118D01*
X0152965Y0051058D01*
X0152854Y0051000D01*
X0152741Y0050947D01*
X0152627Y0050897D01*
X0152511Y0050850D01*
X0152394Y0050808D01*
X0152275Y0050769D01*
X0152155Y0050733D01*
X0152034Y0050702D01*
X0151912Y0050674D01*
X0151790Y0050651D01*
X0151666Y0050631D01*
X0151542Y0050615D01*
X0151418Y0050603D01*
X0151293Y0050595D01*
X0151168Y0050591D01*
X0151044Y0050591D01*
X0150919Y0050595D01*
X0150794Y0050603D01*
X0150670Y0050615D01*
X0150546Y0050631D01*
X0150422Y0050651D01*
X0150300Y0050674D01*
X0150178Y0050702D01*
X0150057Y0050733D01*
X0149937Y0050769D01*
X0149818Y0050808D01*
X0149701Y0050850D01*
X0149585Y0050897D01*
X0149471Y0050947D01*
X0149358Y0051000D01*
X0149247Y0051058D01*
X0149137Y0051118D01*
X0149030Y0051183D01*
X0148925Y0051250D01*
X0148822Y0051321D01*
X0148722Y0051395D01*
X0148624Y0051472D01*
X0148528Y0051553D01*
X0148435Y0051636D01*
X0148344Y0051722D01*
X0148257Y0051811D01*
X0148172Y0051903D01*
X0148090Y0051997D01*
X0148011Y0052094D01*
X0147936Y0052194D01*
X0147863Y0052295D01*
X0147794Y0052399D01*
X0147728Y0052506D01*
X0147666Y0052614D01*
X0147607Y0052724D01*
X0147551Y0052836D01*
X0147499Y0052950D01*
X0147451Y0053065D01*
X0147406Y0053181D01*
X0147366Y0053300D01*
X0147328Y0053419D01*
X0147295Y0053539D01*
X0147266Y0053661D01*
X0147240Y0053783D01*
X0147218Y0053906D01*
X0147201Y0054030D01*
X0147187Y0054154D01*
X0147177Y0054278D01*
X0147171Y0054403D01*
X0147169Y0054528D01*
X0179650Y0174606D02*
X0179652Y0174731D01*
X0179658Y0174856D01*
X0179668Y0174980D01*
X0179682Y0175104D01*
X0179699Y0175228D01*
X0179721Y0175351D01*
X0179747Y0175473D01*
X0179776Y0175595D01*
X0179809Y0175715D01*
X0179847Y0175834D01*
X0179887Y0175953D01*
X0179932Y0176069D01*
X0179980Y0176184D01*
X0180032Y0176298D01*
X0180088Y0176410D01*
X0180147Y0176520D01*
X0180209Y0176628D01*
X0180275Y0176735D01*
X0180344Y0176839D01*
X0180417Y0176940D01*
X0180492Y0177040D01*
X0180571Y0177137D01*
X0180653Y0177231D01*
X0180738Y0177323D01*
X0180825Y0177412D01*
X0180916Y0177498D01*
X0181009Y0177581D01*
X0181105Y0177662D01*
X0181203Y0177739D01*
X0181303Y0177813D01*
X0181406Y0177884D01*
X0181511Y0177951D01*
X0181619Y0178016D01*
X0181728Y0178076D01*
X0181839Y0178134D01*
X0181952Y0178187D01*
X0182066Y0178237D01*
X0182182Y0178284D01*
X0182299Y0178326D01*
X0182418Y0178365D01*
X0182538Y0178401D01*
X0182659Y0178432D01*
X0182781Y0178460D01*
X0182903Y0178483D01*
X0183027Y0178503D01*
X0183151Y0178519D01*
X0183275Y0178531D01*
X0183400Y0178539D01*
X0183525Y0178543D01*
X0183649Y0178543D01*
X0183774Y0178539D01*
X0183899Y0178531D01*
X0184023Y0178519D01*
X0184147Y0178503D01*
X0184271Y0178483D01*
X0184393Y0178460D01*
X0184515Y0178432D01*
X0184636Y0178401D01*
X0184756Y0178365D01*
X0184875Y0178326D01*
X0184992Y0178284D01*
X0185108Y0178237D01*
X0185222Y0178187D01*
X0185335Y0178134D01*
X0185446Y0178076D01*
X0185556Y0178016D01*
X0185663Y0177951D01*
X0185768Y0177884D01*
X0185871Y0177813D01*
X0185971Y0177739D01*
X0186069Y0177662D01*
X0186165Y0177581D01*
X0186258Y0177498D01*
X0186349Y0177412D01*
X0186436Y0177323D01*
X0186521Y0177231D01*
X0186603Y0177137D01*
X0186682Y0177040D01*
X0186757Y0176940D01*
X0186830Y0176839D01*
X0186899Y0176735D01*
X0186965Y0176628D01*
X0187027Y0176520D01*
X0187086Y0176410D01*
X0187142Y0176298D01*
X0187194Y0176184D01*
X0187242Y0176069D01*
X0187287Y0175953D01*
X0187327Y0175834D01*
X0187365Y0175715D01*
X0187398Y0175595D01*
X0187427Y0175473D01*
X0187453Y0175351D01*
X0187475Y0175228D01*
X0187492Y0175104D01*
X0187506Y0174980D01*
X0187516Y0174856D01*
X0187522Y0174731D01*
X0187524Y0174606D01*
X0187522Y0174481D01*
X0187516Y0174356D01*
X0187506Y0174232D01*
X0187492Y0174108D01*
X0187475Y0173984D01*
X0187453Y0173861D01*
X0187427Y0173739D01*
X0187398Y0173617D01*
X0187365Y0173497D01*
X0187327Y0173378D01*
X0187287Y0173259D01*
X0187242Y0173143D01*
X0187194Y0173028D01*
X0187142Y0172914D01*
X0187086Y0172802D01*
X0187027Y0172692D01*
X0186965Y0172584D01*
X0186899Y0172477D01*
X0186830Y0172373D01*
X0186757Y0172272D01*
X0186682Y0172172D01*
X0186603Y0172075D01*
X0186521Y0171981D01*
X0186436Y0171889D01*
X0186349Y0171800D01*
X0186258Y0171714D01*
X0186165Y0171631D01*
X0186069Y0171550D01*
X0185971Y0171473D01*
X0185871Y0171399D01*
X0185768Y0171328D01*
X0185663Y0171261D01*
X0185555Y0171196D01*
X0185446Y0171136D01*
X0185335Y0171078D01*
X0185222Y0171025D01*
X0185108Y0170975D01*
X0184992Y0170928D01*
X0184875Y0170886D01*
X0184756Y0170847D01*
X0184636Y0170811D01*
X0184515Y0170780D01*
X0184393Y0170752D01*
X0184271Y0170729D01*
X0184147Y0170709D01*
X0184023Y0170693D01*
X0183899Y0170681D01*
X0183774Y0170673D01*
X0183649Y0170669D01*
X0183525Y0170669D01*
X0183400Y0170673D01*
X0183275Y0170681D01*
X0183151Y0170693D01*
X0183027Y0170709D01*
X0182903Y0170729D01*
X0182781Y0170752D01*
X0182659Y0170780D01*
X0182538Y0170811D01*
X0182418Y0170847D01*
X0182299Y0170886D01*
X0182182Y0170928D01*
X0182066Y0170975D01*
X0181952Y0171025D01*
X0181839Y0171078D01*
X0181728Y0171136D01*
X0181618Y0171196D01*
X0181511Y0171261D01*
X0181406Y0171328D01*
X0181303Y0171399D01*
X0181203Y0171473D01*
X0181105Y0171550D01*
X0181009Y0171631D01*
X0180916Y0171714D01*
X0180825Y0171800D01*
X0180738Y0171889D01*
X0180653Y0171981D01*
X0180571Y0172075D01*
X0180492Y0172172D01*
X0180417Y0172272D01*
X0180344Y0172373D01*
X0180275Y0172477D01*
X0180209Y0172584D01*
X0180147Y0172692D01*
X0180088Y0172802D01*
X0180032Y0172914D01*
X0179980Y0173028D01*
X0179932Y0173143D01*
X0179887Y0173259D01*
X0179847Y0173378D01*
X0179809Y0173497D01*
X0179776Y0173617D01*
X0179747Y0173739D01*
X0179721Y0173861D01*
X0179699Y0173984D01*
X0179682Y0174108D01*
X0179668Y0174232D01*
X0179658Y0174356D01*
X0179652Y0174481D01*
X0179650Y0174606D01*
X0179650Y0280906D02*
X0179652Y0281031D01*
X0179658Y0281156D01*
X0179668Y0281280D01*
X0179682Y0281404D01*
X0179699Y0281528D01*
X0179721Y0281651D01*
X0179747Y0281773D01*
X0179776Y0281895D01*
X0179809Y0282015D01*
X0179847Y0282134D01*
X0179887Y0282253D01*
X0179932Y0282369D01*
X0179980Y0282484D01*
X0180032Y0282598D01*
X0180088Y0282710D01*
X0180147Y0282820D01*
X0180209Y0282928D01*
X0180275Y0283035D01*
X0180344Y0283139D01*
X0180417Y0283240D01*
X0180492Y0283340D01*
X0180571Y0283437D01*
X0180653Y0283531D01*
X0180738Y0283623D01*
X0180825Y0283712D01*
X0180916Y0283798D01*
X0181009Y0283881D01*
X0181105Y0283962D01*
X0181203Y0284039D01*
X0181303Y0284113D01*
X0181406Y0284184D01*
X0181511Y0284251D01*
X0181619Y0284316D01*
X0181728Y0284376D01*
X0181839Y0284434D01*
X0181952Y0284487D01*
X0182066Y0284537D01*
X0182182Y0284584D01*
X0182299Y0284626D01*
X0182418Y0284665D01*
X0182538Y0284701D01*
X0182659Y0284732D01*
X0182781Y0284760D01*
X0182903Y0284783D01*
X0183027Y0284803D01*
X0183151Y0284819D01*
X0183275Y0284831D01*
X0183400Y0284839D01*
X0183525Y0284843D01*
X0183649Y0284843D01*
X0183774Y0284839D01*
X0183899Y0284831D01*
X0184023Y0284819D01*
X0184147Y0284803D01*
X0184271Y0284783D01*
X0184393Y0284760D01*
X0184515Y0284732D01*
X0184636Y0284701D01*
X0184756Y0284665D01*
X0184875Y0284626D01*
X0184992Y0284584D01*
X0185108Y0284537D01*
X0185222Y0284487D01*
X0185335Y0284434D01*
X0185446Y0284376D01*
X0185556Y0284316D01*
X0185663Y0284251D01*
X0185768Y0284184D01*
X0185871Y0284113D01*
X0185971Y0284039D01*
X0186069Y0283962D01*
X0186165Y0283881D01*
X0186258Y0283798D01*
X0186349Y0283712D01*
X0186436Y0283623D01*
X0186521Y0283531D01*
X0186603Y0283437D01*
X0186682Y0283340D01*
X0186757Y0283240D01*
X0186830Y0283139D01*
X0186899Y0283035D01*
X0186965Y0282928D01*
X0187027Y0282820D01*
X0187086Y0282710D01*
X0187142Y0282598D01*
X0187194Y0282484D01*
X0187242Y0282369D01*
X0187287Y0282253D01*
X0187327Y0282134D01*
X0187365Y0282015D01*
X0187398Y0281895D01*
X0187427Y0281773D01*
X0187453Y0281651D01*
X0187475Y0281528D01*
X0187492Y0281404D01*
X0187506Y0281280D01*
X0187516Y0281156D01*
X0187522Y0281031D01*
X0187524Y0280906D01*
X0187522Y0280781D01*
X0187516Y0280656D01*
X0187506Y0280532D01*
X0187492Y0280408D01*
X0187475Y0280284D01*
X0187453Y0280161D01*
X0187427Y0280039D01*
X0187398Y0279917D01*
X0187365Y0279797D01*
X0187327Y0279678D01*
X0187287Y0279559D01*
X0187242Y0279443D01*
X0187194Y0279328D01*
X0187142Y0279214D01*
X0187086Y0279102D01*
X0187027Y0278992D01*
X0186965Y0278884D01*
X0186899Y0278777D01*
X0186830Y0278673D01*
X0186757Y0278572D01*
X0186682Y0278472D01*
X0186603Y0278375D01*
X0186521Y0278281D01*
X0186436Y0278189D01*
X0186349Y0278100D01*
X0186258Y0278014D01*
X0186165Y0277931D01*
X0186069Y0277850D01*
X0185971Y0277773D01*
X0185871Y0277699D01*
X0185768Y0277628D01*
X0185663Y0277561D01*
X0185555Y0277496D01*
X0185446Y0277436D01*
X0185335Y0277378D01*
X0185222Y0277325D01*
X0185108Y0277275D01*
X0184992Y0277228D01*
X0184875Y0277186D01*
X0184756Y0277147D01*
X0184636Y0277111D01*
X0184515Y0277080D01*
X0184393Y0277052D01*
X0184271Y0277029D01*
X0184147Y0277009D01*
X0184023Y0276993D01*
X0183899Y0276981D01*
X0183774Y0276973D01*
X0183649Y0276969D01*
X0183525Y0276969D01*
X0183400Y0276973D01*
X0183275Y0276981D01*
X0183151Y0276993D01*
X0183027Y0277009D01*
X0182903Y0277029D01*
X0182781Y0277052D01*
X0182659Y0277080D01*
X0182538Y0277111D01*
X0182418Y0277147D01*
X0182299Y0277186D01*
X0182182Y0277228D01*
X0182066Y0277275D01*
X0181952Y0277325D01*
X0181839Y0277378D01*
X0181728Y0277436D01*
X0181618Y0277496D01*
X0181511Y0277561D01*
X0181406Y0277628D01*
X0181303Y0277699D01*
X0181203Y0277773D01*
X0181105Y0277850D01*
X0181009Y0277931D01*
X0180916Y0278014D01*
X0180825Y0278100D01*
X0180738Y0278189D01*
X0180653Y0278281D01*
X0180571Y0278375D01*
X0180492Y0278472D01*
X0180417Y0278572D01*
X0180344Y0278673D01*
X0180275Y0278777D01*
X0180209Y0278884D01*
X0180147Y0278992D01*
X0180088Y0279102D01*
X0180032Y0279214D01*
X0179980Y0279328D01*
X0179932Y0279443D01*
X0179887Y0279559D01*
X0179847Y0279678D01*
X0179809Y0279797D01*
X0179776Y0279917D01*
X0179747Y0280039D01*
X0179721Y0280161D01*
X0179699Y0280284D01*
X0179682Y0280408D01*
X0179668Y0280532D01*
X0179658Y0280656D01*
X0179652Y0280781D01*
X0179650Y0280906D01*
D11*
X0099925Y0084272D02*
X0098925Y0082665D01*
X0099925Y0084272D02*
X0099925Y0079134D01*
X0099925Y0069772D01*
X0098925Y0071378D01*
X0099925Y0069772D02*
X0100925Y0071378D01*
X0099925Y0079134D02*
X0088882Y0079134D01*
X0085425Y0079134D01*
X0087425Y0080528D01*
X0085425Y0079134D02*
X0087425Y0077346D01*
X0099925Y0084272D02*
X0100925Y0082665D01*
X0099925Y0042500D02*
X0097425Y0040000D01*
X0099925Y0037500D02*
X0099925Y0042500D01*
X0102425Y0040000D01*
X0099925Y0037500D02*
X0082425Y0037500D01*
X0082425Y0032500D01*
X0079925Y0035000D01*
X0082425Y0032500D02*
X0084925Y0035000D01*
X0099925Y0037500D02*
X0114925Y0037500D01*
X0114925Y0032500D01*
X0112425Y0035000D01*
X0114925Y0032500D02*
X0117425Y0035000D01*
D12*
X0090652Y0043676D02*
X0090652Y0044410D01*
X0090285Y0044777D01*
X0089918Y0044777D01*
X0089551Y0044410D01*
X0089184Y0044777D01*
X0088817Y0044777D01*
X0088450Y0044410D01*
X0088450Y0043676D01*
X0088817Y0043309D01*
X0089551Y0044043D02*
X0089551Y0044410D01*
X0090285Y0043309D02*
X0090652Y0043676D01*
X0090285Y0047728D02*
X0089918Y0047728D01*
X0089551Y0048095D01*
X0089551Y0048829D01*
X0089184Y0049196D01*
X0088817Y0049196D01*
X0088450Y0048829D01*
X0088450Y0048095D01*
X0088817Y0047728D01*
X0090285Y0047728D02*
X0090652Y0048095D01*
X0090652Y0048829D01*
X0090285Y0049196D01*
X0090652Y0049938D02*
X0090652Y0050305D01*
X0088450Y0050305D01*
X0088450Y0049938D02*
X0088450Y0050672D01*
X0088817Y0051412D02*
X0088450Y0051779D01*
X0088450Y0052512D01*
X0088817Y0052879D01*
X0089551Y0052879D01*
X0089918Y0052512D01*
X0089918Y0051779D01*
X0089551Y0051412D01*
X0088817Y0051412D01*
X0089918Y0053621D02*
X0089918Y0054355D01*
X0090285Y0053988D02*
X0088817Y0053988D01*
X0088450Y0054355D01*
X0088450Y0057305D02*
X0088450Y0058405D01*
X0088817Y0058772D01*
X0090285Y0058772D01*
X0090652Y0058405D01*
X0090652Y0057305D01*
X0088450Y0057305D01*
X0088450Y0059514D02*
X0089918Y0059514D01*
X0089184Y0059514D02*
X0089918Y0060248D01*
X0089918Y0060615D01*
X0089918Y0061356D02*
X0089918Y0061723D01*
X0088450Y0061723D01*
X0088450Y0061356D02*
X0088450Y0062090D01*
X0088450Y0062829D02*
X0088450Y0063563D01*
X0088450Y0063196D02*
X0090652Y0063196D01*
X0090652Y0062829D01*
X0090652Y0061723D02*
X0091019Y0061723D01*
X0090652Y0064303D02*
X0090652Y0064670D01*
X0088450Y0064670D01*
X0088450Y0065036D02*
X0088450Y0064303D01*
X0088450Y0065776D02*
X0088450Y0066877D01*
X0088817Y0067244D01*
X0089184Y0066877D01*
X0089184Y0066143D01*
X0089551Y0065776D01*
X0089918Y0066143D01*
X0089918Y0067244D01*
X0089918Y0070196D02*
X0088817Y0070196D01*
X0088450Y0070563D01*
X0088817Y0070929D01*
X0088450Y0071296D01*
X0088817Y0071663D01*
X0089918Y0071663D01*
X0089918Y0072405D02*
X0089918Y0072772D01*
X0088450Y0072772D01*
X0088450Y0072405D02*
X0088450Y0073139D01*
X0088817Y0074246D02*
X0088450Y0074613D01*
X0088817Y0074246D02*
X0090285Y0074246D01*
X0089918Y0073879D02*
X0089918Y0074613D01*
X0089551Y0075352D02*
X0089918Y0075719D01*
X0089918Y0076453D01*
X0089551Y0076820D01*
X0088450Y0076820D01*
X0088450Y0075352D02*
X0090652Y0075352D01*
X0090652Y0072772D02*
X0091019Y0072772D01*
X0089551Y0079772D02*
X0088817Y0079772D01*
X0088450Y0080139D01*
X0088450Y0081240D01*
X0088817Y0081982D02*
X0088450Y0082349D01*
X0088450Y0083082D01*
X0088817Y0083449D01*
X0089551Y0083449D01*
X0089918Y0083082D01*
X0089918Y0082349D01*
X0089551Y0081982D01*
X0088817Y0081982D01*
X0089918Y0081240D02*
X0089918Y0080139D01*
X0089551Y0079772D01*
X0089918Y0084191D02*
X0087716Y0084191D01*
X0088450Y0084191D02*
X0088450Y0085292D01*
X0088817Y0085659D01*
X0089551Y0085659D01*
X0089918Y0085292D01*
X0089918Y0084191D01*
X0089918Y0086401D02*
X0087716Y0086401D01*
X0088450Y0086401D02*
X0088450Y0087502D01*
X0088817Y0087869D01*
X0089551Y0087869D01*
X0089918Y0087502D01*
X0089918Y0086401D01*
X0089551Y0088611D02*
X0089918Y0088978D01*
X0089918Y0089712D01*
X0089551Y0090079D01*
X0089184Y0090079D01*
X0089184Y0088611D01*
X0088817Y0088611D02*
X0089551Y0088611D01*
X0088817Y0088611D02*
X0088450Y0088978D01*
X0088450Y0089712D01*
X0088450Y0090821D02*
X0089918Y0090821D01*
X0089184Y0090821D02*
X0089918Y0091555D01*
X0089918Y0091922D01*
D13*
X0094610Y0088976D02*
X0105240Y0088976D01*
X0099925Y0088976D01*
X0099925Y0065354D02*
X0095594Y0065354D01*
X0099925Y0065354D02*
X0104256Y0065354D01*
X0081028Y0074803D02*
X0081028Y0083465D01*
X0081028Y0079134D02*
X0081028Y0074803D01*
D14*
X0083525Y0028000D02*
X0083525Y0022000D01*
X0116325Y0022000D02*
X0116325Y0028000D01*
D15*
X0118371Y0044450D02*
X0119822Y0044450D01*
X0120834Y0044934D02*
X0121317Y0044450D01*
X0122285Y0044450D01*
X0122769Y0044934D01*
X0122769Y0045901D01*
X0122285Y0046385D01*
X0121317Y0046385D01*
X0120834Y0045901D01*
X0120834Y0044934D01*
X0119822Y0046385D02*
X0118371Y0046385D01*
X0117887Y0045901D01*
X0117887Y0044934D01*
X0118371Y0044450D01*
X0113929Y0044450D02*
X0113929Y0045901D01*
X0113445Y0046385D01*
X0112478Y0046385D01*
X0111994Y0045901D01*
X0110997Y0046385D02*
X0110030Y0046385D01*
X0110514Y0046869D02*
X0110514Y0044934D01*
X0110997Y0044450D01*
X0111994Y0044450D02*
X0111994Y0047352D01*
X0108549Y0047352D02*
X0108549Y0047836D01*
X0108549Y0046385D02*
X0108549Y0044450D01*
X0108065Y0044450D02*
X0109033Y0044450D01*
X0108549Y0046385D02*
X0108065Y0046385D01*
X0107054Y0046385D02*
X0107054Y0044934D01*
X0106570Y0044450D01*
X0106086Y0044934D01*
X0105603Y0044450D01*
X0105119Y0044934D01*
X0105119Y0046385D01*
X0101161Y0046385D02*
X0099710Y0046385D01*
X0099226Y0045901D01*
X0099710Y0045417D01*
X0100677Y0045417D01*
X0101161Y0044934D01*
X0100677Y0044450D01*
X0099226Y0044450D01*
X0098229Y0044450D02*
X0097262Y0044450D01*
X0097745Y0044450D02*
X0097745Y0047352D01*
X0097262Y0047352D01*
X0095781Y0047352D02*
X0095781Y0044450D01*
X0095297Y0044450D02*
X0096265Y0044450D01*
X0094300Y0044450D02*
X0093333Y0044450D01*
X0093817Y0044450D02*
X0093817Y0046385D01*
X0093333Y0046385D01*
X0092329Y0046385D02*
X0091845Y0046385D01*
X0090877Y0045417D01*
X0090877Y0044450D02*
X0090877Y0046385D01*
X0089866Y0046385D02*
X0088415Y0046385D01*
X0087931Y0045901D01*
X0087931Y0044934D01*
X0088415Y0044450D01*
X0089866Y0044450D01*
X0089866Y0047352D01*
X0093817Y0047352D02*
X0093817Y0047836D01*
X0095297Y0047352D02*
X0095781Y0047352D01*
X0083988Y0046385D02*
X0083020Y0046385D01*
X0083504Y0046869D02*
X0083504Y0044934D01*
X0083988Y0044450D01*
X0082009Y0044934D02*
X0082009Y0045901D01*
X0081525Y0046385D01*
X0080557Y0046385D01*
X0080074Y0045901D01*
X0080074Y0044934D01*
X0080557Y0044450D01*
X0081525Y0044450D01*
X0082009Y0044934D01*
X0079077Y0044450D02*
X0078109Y0044450D01*
X0078593Y0044450D02*
X0078593Y0047352D01*
X0078109Y0047352D01*
X0077098Y0046385D02*
X0075646Y0046385D01*
X0075163Y0045901D01*
X0075646Y0045417D01*
X0076614Y0045417D01*
X0077098Y0044934D01*
X0076614Y0044450D01*
X0075163Y0044450D01*
X0123780Y0044450D02*
X0125231Y0044450D01*
X0125715Y0044934D01*
X0125715Y0045901D01*
X0125231Y0046385D01*
X0123780Y0046385D01*
X0123780Y0043483D01*
X0126727Y0043483D02*
X0126727Y0046385D01*
X0128178Y0046385D01*
X0128662Y0045901D01*
X0128662Y0044934D01*
X0128178Y0044450D01*
X0126727Y0044450D01*
X0129673Y0044934D02*
X0129673Y0045901D01*
X0130157Y0046385D01*
X0131124Y0046385D01*
X0131608Y0045901D01*
X0131608Y0045417D01*
X0129673Y0045417D01*
X0129673Y0044934D02*
X0130157Y0044450D01*
X0131124Y0044450D01*
X0132620Y0044450D02*
X0132620Y0046385D01*
X0133587Y0046385D02*
X0134071Y0046385D01*
X0133587Y0046385D02*
X0132620Y0045417D01*
M02*
