%
M48
M72
T01C0.01575
T02C0.03000
T03C0.03150
T04C0.03200
T05C0.03500
T06C0.03937
T07C0.07874
%
T01
X78272Y155906
X78272Y159843
X84177Y155906
X88114Y155906
X89098Y168701
X99925Y158858
X174728Y66339
X156028Y133268
T02
X83525Y25000
X116325Y25000
T03
X15122Y136220
X25122Y146063
X35122Y136220
X24059Y351890
X24059Y367402
X34059Y367402
X34059Y351890
X71303Y371575
X71303Y387087
X81303Y387087
X81303Y371575
X118547Y371575
X118547Y387087
X128547Y387087
X128547Y371575
X165791Y367402
X165791Y351890
X175791Y351890
X175791Y367402
X174728Y146063
X164728Y136220
X184728Y136220
T04
X81028Y79134
X99925Y88976
X99925Y65354
T05
X91925Y25000
X99925Y25000
X107925Y25000
T06
X16264Y77165
X16264Y102756
X33980Y102756
X33980Y77165
X69925Y55728
X69925Y45728
X69925Y35728
X69925Y25728
X69925Y65728
X69925Y75728
X69925Y85728
X69925Y95728
X69925Y105728
X69925Y115728
X69925Y125728
X69925Y135728
X69925Y145728
X69925Y155728
X69925Y165728
X57681Y164764
X47681Y164764
X31028Y301339
X31028Y311339
X31028Y321339
X31028Y331339
X129925Y165709
X129925Y155709
X129925Y145709
X129925Y135709
X129925Y125709
X129925Y115709
X129925Y105709
X129925Y95709
X129925Y85709
X129925Y75709
X129925Y65709
X129925Y55709
X129925Y45709
X129925Y35709
X129925Y25709
X165870Y77165
X165870Y102756
X183587Y102756
X183587Y77165
X152169Y164764
X142169Y164764
T07
X48744Y54528
X16264Y174606
X16264Y280906
X151106Y54528
X183587Y174606
X183587Y280906
M30
