G75*
%MOIN*%
%OFA0B0*%
%FSLAX25Y25*%
%IPPOS*%
%LPD*%
%AMOC8*
5,1,8,0,0,1.08239X$1,22.5*
%
%ADD10C,0.00000*%
%ADD11C,0.01100*%
%ADD12C,0.00787*%
%ADD13C,0.00400*%
%ADD14C,0.00500*%
D10*
X0064492Y0011220D02*
X0001500Y0074213D01*
X0001500Y0361614D01*
X0044807Y0404921D01*
X0155043Y0404921D01*
X0198350Y0361614D01*
X0198350Y0074213D01*
X0135358Y0011220D01*
X0064492Y0011220D01*
X0044807Y0054528D02*
X0044809Y0054653D01*
X0044815Y0054778D01*
X0044825Y0054902D01*
X0044839Y0055026D01*
X0044856Y0055150D01*
X0044878Y0055273D01*
X0044904Y0055395D01*
X0044933Y0055517D01*
X0044966Y0055637D01*
X0045004Y0055756D01*
X0045044Y0055875D01*
X0045089Y0055991D01*
X0045137Y0056106D01*
X0045189Y0056220D01*
X0045245Y0056332D01*
X0045304Y0056442D01*
X0045366Y0056550D01*
X0045432Y0056657D01*
X0045501Y0056761D01*
X0045574Y0056862D01*
X0045649Y0056962D01*
X0045728Y0057059D01*
X0045810Y0057153D01*
X0045895Y0057245D01*
X0045982Y0057334D01*
X0046073Y0057420D01*
X0046166Y0057503D01*
X0046262Y0057584D01*
X0046360Y0057661D01*
X0046460Y0057735D01*
X0046563Y0057806D01*
X0046668Y0057873D01*
X0046776Y0057938D01*
X0046885Y0057998D01*
X0046996Y0058056D01*
X0047109Y0058109D01*
X0047223Y0058159D01*
X0047339Y0058206D01*
X0047456Y0058248D01*
X0047575Y0058287D01*
X0047695Y0058323D01*
X0047816Y0058354D01*
X0047938Y0058382D01*
X0048060Y0058405D01*
X0048184Y0058425D01*
X0048308Y0058441D01*
X0048432Y0058453D01*
X0048557Y0058461D01*
X0048682Y0058465D01*
X0048806Y0058465D01*
X0048931Y0058461D01*
X0049056Y0058453D01*
X0049180Y0058441D01*
X0049304Y0058425D01*
X0049428Y0058405D01*
X0049550Y0058382D01*
X0049672Y0058354D01*
X0049793Y0058323D01*
X0049913Y0058287D01*
X0050032Y0058248D01*
X0050149Y0058206D01*
X0050265Y0058159D01*
X0050379Y0058109D01*
X0050492Y0058056D01*
X0050603Y0057998D01*
X0050713Y0057938D01*
X0050820Y0057873D01*
X0050925Y0057806D01*
X0051028Y0057735D01*
X0051128Y0057661D01*
X0051226Y0057584D01*
X0051322Y0057503D01*
X0051415Y0057420D01*
X0051506Y0057334D01*
X0051593Y0057245D01*
X0051678Y0057153D01*
X0051760Y0057059D01*
X0051839Y0056962D01*
X0051914Y0056862D01*
X0051987Y0056761D01*
X0052056Y0056657D01*
X0052122Y0056550D01*
X0052184Y0056442D01*
X0052243Y0056332D01*
X0052299Y0056220D01*
X0052351Y0056106D01*
X0052399Y0055991D01*
X0052444Y0055875D01*
X0052484Y0055756D01*
X0052522Y0055637D01*
X0052555Y0055517D01*
X0052584Y0055395D01*
X0052610Y0055273D01*
X0052632Y0055150D01*
X0052649Y0055026D01*
X0052663Y0054902D01*
X0052673Y0054778D01*
X0052679Y0054653D01*
X0052681Y0054528D01*
X0052679Y0054403D01*
X0052673Y0054278D01*
X0052663Y0054154D01*
X0052649Y0054030D01*
X0052632Y0053906D01*
X0052610Y0053783D01*
X0052584Y0053661D01*
X0052555Y0053539D01*
X0052522Y0053419D01*
X0052484Y0053300D01*
X0052444Y0053181D01*
X0052399Y0053065D01*
X0052351Y0052950D01*
X0052299Y0052836D01*
X0052243Y0052724D01*
X0052184Y0052614D01*
X0052122Y0052506D01*
X0052056Y0052399D01*
X0051987Y0052295D01*
X0051914Y0052194D01*
X0051839Y0052094D01*
X0051760Y0051997D01*
X0051678Y0051903D01*
X0051593Y0051811D01*
X0051506Y0051722D01*
X0051415Y0051636D01*
X0051322Y0051553D01*
X0051226Y0051472D01*
X0051128Y0051395D01*
X0051028Y0051321D01*
X0050925Y0051250D01*
X0050820Y0051183D01*
X0050712Y0051118D01*
X0050603Y0051058D01*
X0050492Y0051000D01*
X0050379Y0050947D01*
X0050265Y0050897D01*
X0050149Y0050850D01*
X0050032Y0050808D01*
X0049913Y0050769D01*
X0049793Y0050733D01*
X0049672Y0050702D01*
X0049550Y0050674D01*
X0049428Y0050651D01*
X0049304Y0050631D01*
X0049180Y0050615D01*
X0049056Y0050603D01*
X0048931Y0050595D01*
X0048806Y0050591D01*
X0048682Y0050591D01*
X0048557Y0050595D01*
X0048432Y0050603D01*
X0048308Y0050615D01*
X0048184Y0050631D01*
X0048060Y0050651D01*
X0047938Y0050674D01*
X0047816Y0050702D01*
X0047695Y0050733D01*
X0047575Y0050769D01*
X0047456Y0050808D01*
X0047339Y0050850D01*
X0047223Y0050897D01*
X0047109Y0050947D01*
X0046996Y0051000D01*
X0046885Y0051058D01*
X0046775Y0051118D01*
X0046668Y0051183D01*
X0046563Y0051250D01*
X0046460Y0051321D01*
X0046360Y0051395D01*
X0046262Y0051472D01*
X0046166Y0051553D01*
X0046073Y0051636D01*
X0045982Y0051722D01*
X0045895Y0051811D01*
X0045810Y0051903D01*
X0045728Y0051997D01*
X0045649Y0052094D01*
X0045574Y0052194D01*
X0045501Y0052295D01*
X0045432Y0052399D01*
X0045366Y0052506D01*
X0045304Y0052614D01*
X0045245Y0052724D01*
X0045189Y0052836D01*
X0045137Y0052950D01*
X0045089Y0053065D01*
X0045044Y0053181D01*
X0045004Y0053300D01*
X0044966Y0053419D01*
X0044933Y0053539D01*
X0044904Y0053661D01*
X0044878Y0053783D01*
X0044856Y0053906D01*
X0044839Y0054030D01*
X0044825Y0054154D01*
X0044815Y0054278D01*
X0044809Y0054403D01*
X0044807Y0054528D01*
X0012327Y0174606D02*
X0012329Y0174731D01*
X0012335Y0174856D01*
X0012345Y0174980D01*
X0012359Y0175104D01*
X0012376Y0175228D01*
X0012398Y0175351D01*
X0012424Y0175473D01*
X0012453Y0175595D01*
X0012486Y0175715D01*
X0012524Y0175834D01*
X0012564Y0175953D01*
X0012609Y0176069D01*
X0012657Y0176184D01*
X0012709Y0176298D01*
X0012765Y0176410D01*
X0012824Y0176520D01*
X0012886Y0176628D01*
X0012952Y0176735D01*
X0013021Y0176839D01*
X0013094Y0176940D01*
X0013169Y0177040D01*
X0013248Y0177137D01*
X0013330Y0177231D01*
X0013415Y0177323D01*
X0013502Y0177412D01*
X0013593Y0177498D01*
X0013686Y0177581D01*
X0013782Y0177662D01*
X0013880Y0177739D01*
X0013980Y0177813D01*
X0014083Y0177884D01*
X0014188Y0177951D01*
X0014296Y0178016D01*
X0014405Y0178076D01*
X0014516Y0178134D01*
X0014629Y0178187D01*
X0014743Y0178237D01*
X0014859Y0178284D01*
X0014976Y0178326D01*
X0015095Y0178365D01*
X0015215Y0178401D01*
X0015336Y0178432D01*
X0015458Y0178460D01*
X0015580Y0178483D01*
X0015704Y0178503D01*
X0015828Y0178519D01*
X0015952Y0178531D01*
X0016077Y0178539D01*
X0016202Y0178543D01*
X0016326Y0178543D01*
X0016451Y0178539D01*
X0016576Y0178531D01*
X0016700Y0178519D01*
X0016824Y0178503D01*
X0016948Y0178483D01*
X0017070Y0178460D01*
X0017192Y0178432D01*
X0017313Y0178401D01*
X0017433Y0178365D01*
X0017552Y0178326D01*
X0017669Y0178284D01*
X0017785Y0178237D01*
X0017899Y0178187D01*
X0018012Y0178134D01*
X0018123Y0178076D01*
X0018233Y0178016D01*
X0018340Y0177951D01*
X0018445Y0177884D01*
X0018548Y0177813D01*
X0018648Y0177739D01*
X0018746Y0177662D01*
X0018842Y0177581D01*
X0018935Y0177498D01*
X0019026Y0177412D01*
X0019113Y0177323D01*
X0019198Y0177231D01*
X0019280Y0177137D01*
X0019359Y0177040D01*
X0019434Y0176940D01*
X0019507Y0176839D01*
X0019576Y0176735D01*
X0019642Y0176628D01*
X0019704Y0176520D01*
X0019763Y0176410D01*
X0019819Y0176298D01*
X0019871Y0176184D01*
X0019919Y0176069D01*
X0019964Y0175953D01*
X0020004Y0175834D01*
X0020042Y0175715D01*
X0020075Y0175595D01*
X0020104Y0175473D01*
X0020130Y0175351D01*
X0020152Y0175228D01*
X0020169Y0175104D01*
X0020183Y0174980D01*
X0020193Y0174856D01*
X0020199Y0174731D01*
X0020201Y0174606D01*
X0020199Y0174481D01*
X0020193Y0174356D01*
X0020183Y0174232D01*
X0020169Y0174108D01*
X0020152Y0173984D01*
X0020130Y0173861D01*
X0020104Y0173739D01*
X0020075Y0173617D01*
X0020042Y0173497D01*
X0020004Y0173378D01*
X0019964Y0173259D01*
X0019919Y0173143D01*
X0019871Y0173028D01*
X0019819Y0172914D01*
X0019763Y0172802D01*
X0019704Y0172692D01*
X0019642Y0172584D01*
X0019576Y0172477D01*
X0019507Y0172373D01*
X0019434Y0172272D01*
X0019359Y0172172D01*
X0019280Y0172075D01*
X0019198Y0171981D01*
X0019113Y0171889D01*
X0019026Y0171800D01*
X0018935Y0171714D01*
X0018842Y0171631D01*
X0018746Y0171550D01*
X0018648Y0171473D01*
X0018548Y0171399D01*
X0018445Y0171328D01*
X0018340Y0171261D01*
X0018232Y0171196D01*
X0018123Y0171136D01*
X0018012Y0171078D01*
X0017899Y0171025D01*
X0017785Y0170975D01*
X0017669Y0170928D01*
X0017552Y0170886D01*
X0017433Y0170847D01*
X0017313Y0170811D01*
X0017192Y0170780D01*
X0017070Y0170752D01*
X0016948Y0170729D01*
X0016824Y0170709D01*
X0016700Y0170693D01*
X0016576Y0170681D01*
X0016451Y0170673D01*
X0016326Y0170669D01*
X0016202Y0170669D01*
X0016077Y0170673D01*
X0015952Y0170681D01*
X0015828Y0170693D01*
X0015704Y0170709D01*
X0015580Y0170729D01*
X0015458Y0170752D01*
X0015336Y0170780D01*
X0015215Y0170811D01*
X0015095Y0170847D01*
X0014976Y0170886D01*
X0014859Y0170928D01*
X0014743Y0170975D01*
X0014629Y0171025D01*
X0014516Y0171078D01*
X0014405Y0171136D01*
X0014295Y0171196D01*
X0014188Y0171261D01*
X0014083Y0171328D01*
X0013980Y0171399D01*
X0013880Y0171473D01*
X0013782Y0171550D01*
X0013686Y0171631D01*
X0013593Y0171714D01*
X0013502Y0171800D01*
X0013415Y0171889D01*
X0013330Y0171981D01*
X0013248Y0172075D01*
X0013169Y0172172D01*
X0013094Y0172272D01*
X0013021Y0172373D01*
X0012952Y0172477D01*
X0012886Y0172584D01*
X0012824Y0172692D01*
X0012765Y0172802D01*
X0012709Y0172914D01*
X0012657Y0173028D01*
X0012609Y0173143D01*
X0012564Y0173259D01*
X0012524Y0173378D01*
X0012486Y0173497D01*
X0012453Y0173617D01*
X0012424Y0173739D01*
X0012398Y0173861D01*
X0012376Y0173984D01*
X0012359Y0174108D01*
X0012345Y0174232D01*
X0012335Y0174356D01*
X0012329Y0174481D01*
X0012327Y0174606D01*
X0012327Y0280906D02*
X0012329Y0281031D01*
X0012335Y0281156D01*
X0012345Y0281280D01*
X0012359Y0281404D01*
X0012376Y0281528D01*
X0012398Y0281651D01*
X0012424Y0281773D01*
X0012453Y0281895D01*
X0012486Y0282015D01*
X0012524Y0282134D01*
X0012564Y0282253D01*
X0012609Y0282369D01*
X0012657Y0282484D01*
X0012709Y0282598D01*
X0012765Y0282710D01*
X0012824Y0282820D01*
X0012886Y0282928D01*
X0012952Y0283035D01*
X0013021Y0283139D01*
X0013094Y0283240D01*
X0013169Y0283340D01*
X0013248Y0283437D01*
X0013330Y0283531D01*
X0013415Y0283623D01*
X0013502Y0283712D01*
X0013593Y0283798D01*
X0013686Y0283881D01*
X0013782Y0283962D01*
X0013880Y0284039D01*
X0013980Y0284113D01*
X0014083Y0284184D01*
X0014188Y0284251D01*
X0014296Y0284316D01*
X0014405Y0284376D01*
X0014516Y0284434D01*
X0014629Y0284487D01*
X0014743Y0284537D01*
X0014859Y0284584D01*
X0014976Y0284626D01*
X0015095Y0284665D01*
X0015215Y0284701D01*
X0015336Y0284732D01*
X0015458Y0284760D01*
X0015580Y0284783D01*
X0015704Y0284803D01*
X0015828Y0284819D01*
X0015952Y0284831D01*
X0016077Y0284839D01*
X0016202Y0284843D01*
X0016326Y0284843D01*
X0016451Y0284839D01*
X0016576Y0284831D01*
X0016700Y0284819D01*
X0016824Y0284803D01*
X0016948Y0284783D01*
X0017070Y0284760D01*
X0017192Y0284732D01*
X0017313Y0284701D01*
X0017433Y0284665D01*
X0017552Y0284626D01*
X0017669Y0284584D01*
X0017785Y0284537D01*
X0017899Y0284487D01*
X0018012Y0284434D01*
X0018123Y0284376D01*
X0018233Y0284316D01*
X0018340Y0284251D01*
X0018445Y0284184D01*
X0018548Y0284113D01*
X0018648Y0284039D01*
X0018746Y0283962D01*
X0018842Y0283881D01*
X0018935Y0283798D01*
X0019026Y0283712D01*
X0019113Y0283623D01*
X0019198Y0283531D01*
X0019280Y0283437D01*
X0019359Y0283340D01*
X0019434Y0283240D01*
X0019507Y0283139D01*
X0019576Y0283035D01*
X0019642Y0282928D01*
X0019704Y0282820D01*
X0019763Y0282710D01*
X0019819Y0282598D01*
X0019871Y0282484D01*
X0019919Y0282369D01*
X0019964Y0282253D01*
X0020004Y0282134D01*
X0020042Y0282015D01*
X0020075Y0281895D01*
X0020104Y0281773D01*
X0020130Y0281651D01*
X0020152Y0281528D01*
X0020169Y0281404D01*
X0020183Y0281280D01*
X0020193Y0281156D01*
X0020199Y0281031D01*
X0020201Y0280906D01*
X0020199Y0280781D01*
X0020193Y0280656D01*
X0020183Y0280532D01*
X0020169Y0280408D01*
X0020152Y0280284D01*
X0020130Y0280161D01*
X0020104Y0280039D01*
X0020075Y0279917D01*
X0020042Y0279797D01*
X0020004Y0279678D01*
X0019964Y0279559D01*
X0019919Y0279443D01*
X0019871Y0279328D01*
X0019819Y0279214D01*
X0019763Y0279102D01*
X0019704Y0278992D01*
X0019642Y0278884D01*
X0019576Y0278777D01*
X0019507Y0278673D01*
X0019434Y0278572D01*
X0019359Y0278472D01*
X0019280Y0278375D01*
X0019198Y0278281D01*
X0019113Y0278189D01*
X0019026Y0278100D01*
X0018935Y0278014D01*
X0018842Y0277931D01*
X0018746Y0277850D01*
X0018648Y0277773D01*
X0018548Y0277699D01*
X0018445Y0277628D01*
X0018340Y0277561D01*
X0018232Y0277496D01*
X0018123Y0277436D01*
X0018012Y0277378D01*
X0017899Y0277325D01*
X0017785Y0277275D01*
X0017669Y0277228D01*
X0017552Y0277186D01*
X0017433Y0277147D01*
X0017313Y0277111D01*
X0017192Y0277080D01*
X0017070Y0277052D01*
X0016948Y0277029D01*
X0016824Y0277009D01*
X0016700Y0276993D01*
X0016576Y0276981D01*
X0016451Y0276973D01*
X0016326Y0276969D01*
X0016202Y0276969D01*
X0016077Y0276973D01*
X0015952Y0276981D01*
X0015828Y0276993D01*
X0015704Y0277009D01*
X0015580Y0277029D01*
X0015458Y0277052D01*
X0015336Y0277080D01*
X0015215Y0277111D01*
X0015095Y0277147D01*
X0014976Y0277186D01*
X0014859Y0277228D01*
X0014743Y0277275D01*
X0014629Y0277325D01*
X0014516Y0277378D01*
X0014405Y0277436D01*
X0014295Y0277496D01*
X0014188Y0277561D01*
X0014083Y0277628D01*
X0013980Y0277699D01*
X0013880Y0277773D01*
X0013782Y0277850D01*
X0013686Y0277931D01*
X0013593Y0278014D01*
X0013502Y0278100D01*
X0013415Y0278189D01*
X0013330Y0278281D01*
X0013248Y0278375D01*
X0013169Y0278472D01*
X0013094Y0278572D01*
X0013021Y0278673D01*
X0012952Y0278777D01*
X0012886Y0278884D01*
X0012824Y0278992D01*
X0012765Y0279102D01*
X0012709Y0279214D01*
X0012657Y0279328D01*
X0012609Y0279443D01*
X0012564Y0279559D01*
X0012524Y0279678D01*
X0012486Y0279797D01*
X0012453Y0279917D01*
X0012424Y0280039D01*
X0012398Y0280161D01*
X0012376Y0280284D01*
X0012359Y0280408D01*
X0012345Y0280532D01*
X0012335Y0280656D01*
X0012329Y0280781D01*
X0012327Y0280906D01*
X0147169Y0054528D02*
X0147171Y0054653D01*
X0147177Y0054778D01*
X0147187Y0054902D01*
X0147201Y0055026D01*
X0147218Y0055150D01*
X0147240Y0055273D01*
X0147266Y0055395D01*
X0147295Y0055517D01*
X0147328Y0055637D01*
X0147366Y0055756D01*
X0147406Y0055875D01*
X0147451Y0055991D01*
X0147499Y0056106D01*
X0147551Y0056220D01*
X0147607Y0056332D01*
X0147666Y0056442D01*
X0147728Y0056550D01*
X0147794Y0056657D01*
X0147863Y0056761D01*
X0147936Y0056862D01*
X0148011Y0056962D01*
X0148090Y0057059D01*
X0148172Y0057153D01*
X0148257Y0057245D01*
X0148344Y0057334D01*
X0148435Y0057420D01*
X0148528Y0057503D01*
X0148624Y0057584D01*
X0148722Y0057661D01*
X0148822Y0057735D01*
X0148925Y0057806D01*
X0149030Y0057873D01*
X0149138Y0057938D01*
X0149247Y0057998D01*
X0149358Y0058056D01*
X0149471Y0058109D01*
X0149585Y0058159D01*
X0149701Y0058206D01*
X0149818Y0058248D01*
X0149937Y0058287D01*
X0150057Y0058323D01*
X0150178Y0058354D01*
X0150300Y0058382D01*
X0150422Y0058405D01*
X0150546Y0058425D01*
X0150670Y0058441D01*
X0150794Y0058453D01*
X0150919Y0058461D01*
X0151044Y0058465D01*
X0151168Y0058465D01*
X0151293Y0058461D01*
X0151418Y0058453D01*
X0151542Y0058441D01*
X0151666Y0058425D01*
X0151790Y0058405D01*
X0151912Y0058382D01*
X0152034Y0058354D01*
X0152155Y0058323D01*
X0152275Y0058287D01*
X0152394Y0058248D01*
X0152511Y0058206D01*
X0152627Y0058159D01*
X0152741Y0058109D01*
X0152854Y0058056D01*
X0152965Y0057998D01*
X0153075Y0057938D01*
X0153182Y0057873D01*
X0153287Y0057806D01*
X0153390Y0057735D01*
X0153490Y0057661D01*
X0153588Y0057584D01*
X0153684Y0057503D01*
X0153777Y0057420D01*
X0153868Y0057334D01*
X0153955Y0057245D01*
X0154040Y0057153D01*
X0154122Y0057059D01*
X0154201Y0056962D01*
X0154276Y0056862D01*
X0154349Y0056761D01*
X0154418Y0056657D01*
X0154484Y0056550D01*
X0154546Y0056442D01*
X0154605Y0056332D01*
X0154661Y0056220D01*
X0154713Y0056106D01*
X0154761Y0055991D01*
X0154806Y0055875D01*
X0154846Y0055756D01*
X0154884Y0055637D01*
X0154917Y0055517D01*
X0154946Y0055395D01*
X0154972Y0055273D01*
X0154994Y0055150D01*
X0155011Y0055026D01*
X0155025Y0054902D01*
X0155035Y0054778D01*
X0155041Y0054653D01*
X0155043Y0054528D01*
X0155041Y0054403D01*
X0155035Y0054278D01*
X0155025Y0054154D01*
X0155011Y0054030D01*
X0154994Y0053906D01*
X0154972Y0053783D01*
X0154946Y0053661D01*
X0154917Y0053539D01*
X0154884Y0053419D01*
X0154846Y0053300D01*
X0154806Y0053181D01*
X0154761Y0053065D01*
X0154713Y0052950D01*
X0154661Y0052836D01*
X0154605Y0052724D01*
X0154546Y0052614D01*
X0154484Y0052506D01*
X0154418Y0052399D01*
X0154349Y0052295D01*
X0154276Y0052194D01*
X0154201Y0052094D01*
X0154122Y0051997D01*
X0154040Y0051903D01*
X0153955Y0051811D01*
X0153868Y0051722D01*
X0153777Y0051636D01*
X0153684Y0051553D01*
X0153588Y0051472D01*
X0153490Y0051395D01*
X0153390Y0051321D01*
X0153287Y0051250D01*
X0153182Y0051183D01*
X0153074Y0051118D01*
X0152965Y0051058D01*
X0152854Y0051000D01*
X0152741Y0050947D01*
X0152627Y0050897D01*
X0152511Y0050850D01*
X0152394Y0050808D01*
X0152275Y0050769D01*
X0152155Y0050733D01*
X0152034Y0050702D01*
X0151912Y0050674D01*
X0151790Y0050651D01*
X0151666Y0050631D01*
X0151542Y0050615D01*
X0151418Y0050603D01*
X0151293Y0050595D01*
X0151168Y0050591D01*
X0151044Y0050591D01*
X0150919Y0050595D01*
X0150794Y0050603D01*
X0150670Y0050615D01*
X0150546Y0050631D01*
X0150422Y0050651D01*
X0150300Y0050674D01*
X0150178Y0050702D01*
X0150057Y0050733D01*
X0149937Y0050769D01*
X0149818Y0050808D01*
X0149701Y0050850D01*
X0149585Y0050897D01*
X0149471Y0050947D01*
X0149358Y0051000D01*
X0149247Y0051058D01*
X0149137Y0051118D01*
X0149030Y0051183D01*
X0148925Y0051250D01*
X0148822Y0051321D01*
X0148722Y0051395D01*
X0148624Y0051472D01*
X0148528Y0051553D01*
X0148435Y0051636D01*
X0148344Y0051722D01*
X0148257Y0051811D01*
X0148172Y0051903D01*
X0148090Y0051997D01*
X0148011Y0052094D01*
X0147936Y0052194D01*
X0147863Y0052295D01*
X0147794Y0052399D01*
X0147728Y0052506D01*
X0147666Y0052614D01*
X0147607Y0052724D01*
X0147551Y0052836D01*
X0147499Y0052950D01*
X0147451Y0053065D01*
X0147406Y0053181D01*
X0147366Y0053300D01*
X0147328Y0053419D01*
X0147295Y0053539D01*
X0147266Y0053661D01*
X0147240Y0053783D01*
X0147218Y0053906D01*
X0147201Y0054030D01*
X0147187Y0054154D01*
X0147177Y0054278D01*
X0147171Y0054403D01*
X0147169Y0054528D01*
X0179650Y0174606D02*
X0179652Y0174731D01*
X0179658Y0174856D01*
X0179668Y0174980D01*
X0179682Y0175104D01*
X0179699Y0175228D01*
X0179721Y0175351D01*
X0179747Y0175473D01*
X0179776Y0175595D01*
X0179809Y0175715D01*
X0179847Y0175834D01*
X0179887Y0175953D01*
X0179932Y0176069D01*
X0179980Y0176184D01*
X0180032Y0176298D01*
X0180088Y0176410D01*
X0180147Y0176520D01*
X0180209Y0176628D01*
X0180275Y0176735D01*
X0180344Y0176839D01*
X0180417Y0176940D01*
X0180492Y0177040D01*
X0180571Y0177137D01*
X0180653Y0177231D01*
X0180738Y0177323D01*
X0180825Y0177412D01*
X0180916Y0177498D01*
X0181009Y0177581D01*
X0181105Y0177662D01*
X0181203Y0177739D01*
X0181303Y0177813D01*
X0181406Y0177884D01*
X0181511Y0177951D01*
X0181619Y0178016D01*
X0181728Y0178076D01*
X0181839Y0178134D01*
X0181952Y0178187D01*
X0182066Y0178237D01*
X0182182Y0178284D01*
X0182299Y0178326D01*
X0182418Y0178365D01*
X0182538Y0178401D01*
X0182659Y0178432D01*
X0182781Y0178460D01*
X0182903Y0178483D01*
X0183027Y0178503D01*
X0183151Y0178519D01*
X0183275Y0178531D01*
X0183400Y0178539D01*
X0183525Y0178543D01*
X0183649Y0178543D01*
X0183774Y0178539D01*
X0183899Y0178531D01*
X0184023Y0178519D01*
X0184147Y0178503D01*
X0184271Y0178483D01*
X0184393Y0178460D01*
X0184515Y0178432D01*
X0184636Y0178401D01*
X0184756Y0178365D01*
X0184875Y0178326D01*
X0184992Y0178284D01*
X0185108Y0178237D01*
X0185222Y0178187D01*
X0185335Y0178134D01*
X0185446Y0178076D01*
X0185556Y0178016D01*
X0185663Y0177951D01*
X0185768Y0177884D01*
X0185871Y0177813D01*
X0185971Y0177739D01*
X0186069Y0177662D01*
X0186165Y0177581D01*
X0186258Y0177498D01*
X0186349Y0177412D01*
X0186436Y0177323D01*
X0186521Y0177231D01*
X0186603Y0177137D01*
X0186682Y0177040D01*
X0186757Y0176940D01*
X0186830Y0176839D01*
X0186899Y0176735D01*
X0186965Y0176628D01*
X0187027Y0176520D01*
X0187086Y0176410D01*
X0187142Y0176298D01*
X0187194Y0176184D01*
X0187242Y0176069D01*
X0187287Y0175953D01*
X0187327Y0175834D01*
X0187365Y0175715D01*
X0187398Y0175595D01*
X0187427Y0175473D01*
X0187453Y0175351D01*
X0187475Y0175228D01*
X0187492Y0175104D01*
X0187506Y0174980D01*
X0187516Y0174856D01*
X0187522Y0174731D01*
X0187524Y0174606D01*
X0187522Y0174481D01*
X0187516Y0174356D01*
X0187506Y0174232D01*
X0187492Y0174108D01*
X0187475Y0173984D01*
X0187453Y0173861D01*
X0187427Y0173739D01*
X0187398Y0173617D01*
X0187365Y0173497D01*
X0187327Y0173378D01*
X0187287Y0173259D01*
X0187242Y0173143D01*
X0187194Y0173028D01*
X0187142Y0172914D01*
X0187086Y0172802D01*
X0187027Y0172692D01*
X0186965Y0172584D01*
X0186899Y0172477D01*
X0186830Y0172373D01*
X0186757Y0172272D01*
X0186682Y0172172D01*
X0186603Y0172075D01*
X0186521Y0171981D01*
X0186436Y0171889D01*
X0186349Y0171800D01*
X0186258Y0171714D01*
X0186165Y0171631D01*
X0186069Y0171550D01*
X0185971Y0171473D01*
X0185871Y0171399D01*
X0185768Y0171328D01*
X0185663Y0171261D01*
X0185555Y0171196D01*
X0185446Y0171136D01*
X0185335Y0171078D01*
X0185222Y0171025D01*
X0185108Y0170975D01*
X0184992Y0170928D01*
X0184875Y0170886D01*
X0184756Y0170847D01*
X0184636Y0170811D01*
X0184515Y0170780D01*
X0184393Y0170752D01*
X0184271Y0170729D01*
X0184147Y0170709D01*
X0184023Y0170693D01*
X0183899Y0170681D01*
X0183774Y0170673D01*
X0183649Y0170669D01*
X0183525Y0170669D01*
X0183400Y0170673D01*
X0183275Y0170681D01*
X0183151Y0170693D01*
X0183027Y0170709D01*
X0182903Y0170729D01*
X0182781Y0170752D01*
X0182659Y0170780D01*
X0182538Y0170811D01*
X0182418Y0170847D01*
X0182299Y0170886D01*
X0182182Y0170928D01*
X0182066Y0170975D01*
X0181952Y0171025D01*
X0181839Y0171078D01*
X0181728Y0171136D01*
X0181618Y0171196D01*
X0181511Y0171261D01*
X0181406Y0171328D01*
X0181303Y0171399D01*
X0181203Y0171473D01*
X0181105Y0171550D01*
X0181009Y0171631D01*
X0180916Y0171714D01*
X0180825Y0171800D01*
X0180738Y0171889D01*
X0180653Y0171981D01*
X0180571Y0172075D01*
X0180492Y0172172D01*
X0180417Y0172272D01*
X0180344Y0172373D01*
X0180275Y0172477D01*
X0180209Y0172584D01*
X0180147Y0172692D01*
X0180088Y0172802D01*
X0180032Y0172914D01*
X0179980Y0173028D01*
X0179932Y0173143D01*
X0179887Y0173259D01*
X0179847Y0173378D01*
X0179809Y0173497D01*
X0179776Y0173617D01*
X0179747Y0173739D01*
X0179721Y0173861D01*
X0179699Y0173984D01*
X0179682Y0174108D01*
X0179668Y0174232D01*
X0179658Y0174356D01*
X0179652Y0174481D01*
X0179650Y0174606D01*
X0179650Y0280906D02*
X0179652Y0281031D01*
X0179658Y0281156D01*
X0179668Y0281280D01*
X0179682Y0281404D01*
X0179699Y0281528D01*
X0179721Y0281651D01*
X0179747Y0281773D01*
X0179776Y0281895D01*
X0179809Y0282015D01*
X0179847Y0282134D01*
X0179887Y0282253D01*
X0179932Y0282369D01*
X0179980Y0282484D01*
X0180032Y0282598D01*
X0180088Y0282710D01*
X0180147Y0282820D01*
X0180209Y0282928D01*
X0180275Y0283035D01*
X0180344Y0283139D01*
X0180417Y0283240D01*
X0180492Y0283340D01*
X0180571Y0283437D01*
X0180653Y0283531D01*
X0180738Y0283623D01*
X0180825Y0283712D01*
X0180916Y0283798D01*
X0181009Y0283881D01*
X0181105Y0283962D01*
X0181203Y0284039D01*
X0181303Y0284113D01*
X0181406Y0284184D01*
X0181511Y0284251D01*
X0181619Y0284316D01*
X0181728Y0284376D01*
X0181839Y0284434D01*
X0181952Y0284487D01*
X0182066Y0284537D01*
X0182182Y0284584D01*
X0182299Y0284626D01*
X0182418Y0284665D01*
X0182538Y0284701D01*
X0182659Y0284732D01*
X0182781Y0284760D01*
X0182903Y0284783D01*
X0183027Y0284803D01*
X0183151Y0284819D01*
X0183275Y0284831D01*
X0183400Y0284839D01*
X0183525Y0284843D01*
X0183649Y0284843D01*
X0183774Y0284839D01*
X0183899Y0284831D01*
X0184023Y0284819D01*
X0184147Y0284803D01*
X0184271Y0284783D01*
X0184393Y0284760D01*
X0184515Y0284732D01*
X0184636Y0284701D01*
X0184756Y0284665D01*
X0184875Y0284626D01*
X0184992Y0284584D01*
X0185108Y0284537D01*
X0185222Y0284487D01*
X0185335Y0284434D01*
X0185446Y0284376D01*
X0185556Y0284316D01*
X0185663Y0284251D01*
X0185768Y0284184D01*
X0185871Y0284113D01*
X0185971Y0284039D01*
X0186069Y0283962D01*
X0186165Y0283881D01*
X0186258Y0283798D01*
X0186349Y0283712D01*
X0186436Y0283623D01*
X0186521Y0283531D01*
X0186603Y0283437D01*
X0186682Y0283340D01*
X0186757Y0283240D01*
X0186830Y0283139D01*
X0186899Y0283035D01*
X0186965Y0282928D01*
X0187027Y0282820D01*
X0187086Y0282710D01*
X0187142Y0282598D01*
X0187194Y0282484D01*
X0187242Y0282369D01*
X0187287Y0282253D01*
X0187327Y0282134D01*
X0187365Y0282015D01*
X0187398Y0281895D01*
X0187427Y0281773D01*
X0187453Y0281651D01*
X0187475Y0281528D01*
X0187492Y0281404D01*
X0187506Y0281280D01*
X0187516Y0281156D01*
X0187522Y0281031D01*
X0187524Y0280906D01*
X0187522Y0280781D01*
X0187516Y0280656D01*
X0187506Y0280532D01*
X0187492Y0280408D01*
X0187475Y0280284D01*
X0187453Y0280161D01*
X0187427Y0280039D01*
X0187398Y0279917D01*
X0187365Y0279797D01*
X0187327Y0279678D01*
X0187287Y0279559D01*
X0187242Y0279443D01*
X0187194Y0279328D01*
X0187142Y0279214D01*
X0187086Y0279102D01*
X0187027Y0278992D01*
X0186965Y0278884D01*
X0186899Y0278777D01*
X0186830Y0278673D01*
X0186757Y0278572D01*
X0186682Y0278472D01*
X0186603Y0278375D01*
X0186521Y0278281D01*
X0186436Y0278189D01*
X0186349Y0278100D01*
X0186258Y0278014D01*
X0186165Y0277931D01*
X0186069Y0277850D01*
X0185971Y0277773D01*
X0185871Y0277699D01*
X0185768Y0277628D01*
X0185663Y0277561D01*
X0185555Y0277496D01*
X0185446Y0277436D01*
X0185335Y0277378D01*
X0185222Y0277325D01*
X0185108Y0277275D01*
X0184992Y0277228D01*
X0184875Y0277186D01*
X0184756Y0277147D01*
X0184636Y0277111D01*
X0184515Y0277080D01*
X0184393Y0277052D01*
X0184271Y0277029D01*
X0184147Y0277009D01*
X0184023Y0276993D01*
X0183899Y0276981D01*
X0183774Y0276973D01*
X0183649Y0276969D01*
X0183525Y0276969D01*
X0183400Y0276973D01*
X0183275Y0276981D01*
X0183151Y0276993D01*
X0183027Y0277009D01*
X0182903Y0277029D01*
X0182781Y0277052D01*
X0182659Y0277080D01*
X0182538Y0277111D01*
X0182418Y0277147D01*
X0182299Y0277186D01*
X0182182Y0277228D01*
X0182066Y0277275D01*
X0181952Y0277325D01*
X0181839Y0277378D01*
X0181728Y0277436D01*
X0181618Y0277496D01*
X0181511Y0277561D01*
X0181406Y0277628D01*
X0181303Y0277699D01*
X0181203Y0277773D01*
X0181105Y0277850D01*
X0181009Y0277931D01*
X0180916Y0278014D01*
X0180825Y0278100D01*
X0180738Y0278189D01*
X0180653Y0278281D01*
X0180571Y0278375D01*
X0180492Y0278472D01*
X0180417Y0278572D01*
X0180344Y0278673D01*
X0180275Y0278777D01*
X0180209Y0278884D01*
X0180147Y0278992D01*
X0180088Y0279102D01*
X0180032Y0279214D01*
X0179980Y0279328D01*
X0179932Y0279443D01*
X0179887Y0279559D01*
X0179847Y0279678D01*
X0179809Y0279797D01*
X0179776Y0279917D01*
X0179747Y0280039D01*
X0179721Y0280161D01*
X0179699Y0280284D01*
X0179682Y0280408D01*
X0179668Y0280532D01*
X0179658Y0280656D01*
X0179652Y0280781D01*
X0179650Y0280906D01*
D11*
X0155927Y0344448D02*
X0152932Y0344448D01*
X0151933Y0345446D01*
X0151933Y0349441D01*
X0152932Y0350439D01*
X0155927Y0350439D01*
X0155927Y0344448D01*
X0149402Y0345446D02*
X0148404Y0344448D01*
X0146406Y0344448D01*
X0145408Y0346445D02*
X0149402Y0346445D01*
X0149402Y0347444D02*
X0148404Y0348442D01*
X0146406Y0348442D01*
X0145408Y0347444D01*
X0145408Y0346445D01*
X0142877Y0347444D02*
X0141878Y0348442D01*
X0138882Y0348442D01*
X0139881Y0346445D02*
X0141878Y0346445D01*
X0142877Y0347444D01*
X0142877Y0344448D02*
X0139881Y0344448D01*
X0138882Y0345446D01*
X0139881Y0346445D01*
X0136352Y0348442D02*
X0135353Y0348442D01*
X0135353Y0344448D01*
X0136352Y0344448D02*
X0134354Y0344448D01*
X0132002Y0345446D02*
X0131003Y0344448D01*
X0128007Y0344448D01*
X0128007Y0343449D02*
X0128007Y0348442D01*
X0131003Y0348442D01*
X0132002Y0347444D01*
X0132002Y0345446D01*
X0130004Y0342450D02*
X0129006Y0342450D01*
X0128007Y0343449D01*
X0125476Y0344448D02*
X0125476Y0348442D01*
X0122480Y0348442D01*
X0121482Y0347444D01*
X0121482Y0344448D01*
X0118951Y0345446D02*
X0118951Y0347444D01*
X0117952Y0348442D01*
X0115955Y0348442D01*
X0114957Y0347444D01*
X0114957Y0346445D01*
X0118951Y0346445D01*
X0118951Y0345446D02*
X0117952Y0344448D01*
X0115955Y0344448D01*
X0112426Y0345446D02*
X0112426Y0347444D01*
X0111427Y0348442D01*
X0108431Y0348442D01*
X0108431Y0350439D02*
X0108431Y0344448D01*
X0111427Y0344448D01*
X0112426Y0345446D01*
X0099375Y0344448D02*
X0096379Y0344448D01*
X0095381Y0345446D01*
X0095381Y0347444D01*
X0096379Y0348442D01*
X0099375Y0348442D01*
X0099375Y0350439D02*
X0099375Y0344448D01*
X0092850Y0345446D02*
X0091851Y0344448D01*
X0088855Y0344448D01*
X0088855Y0343449D02*
X0089854Y0342450D01*
X0090853Y0342450D01*
X0088855Y0343449D02*
X0088855Y0348442D01*
X0092850Y0348442D02*
X0092850Y0345446D01*
X0079799Y0344448D02*
X0079799Y0350439D01*
X0077802Y0348442D01*
X0075805Y0350439D01*
X0075805Y0344448D01*
X0073274Y0344448D02*
X0073274Y0345446D01*
X0072276Y0345446D01*
X0072276Y0344448D01*
X0073274Y0344448D01*
X0070012Y0344448D02*
X0070012Y0350439D01*
X0070012Y0347444D02*
X0066017Y0347444D01*
X0066017Y0350439D02*
X0066017Y0344448D01*
X0063486Y0344448D02*
X0061489Y0344448D01*
X0062488Y0344448D02*
X0062488Y0348442D01*
X0063486Y0348442D01*
X0062488Y0350439D02*
X0062488Y0351438D01*
X0059136Y0348442D02*
X0059136Y0344448D01*
X0059136Y0346445D02*
X0057139Y0348442D01*
X0056140Y0348442D01*
X0052700Y0348442D02*
X0050703Y0348442D01*
X0049704Y0347444D01*
X0049704Y0344448D01*
X0052700Y0344448D01*
X0053698Y0345446D01*
X0052700Y0346445D01*
X0049704Y0346445D01*
X0047173Y0348442D02*
X0046175Y0348442D01*
X0046175Y0344448D01*
X0047173Y0344448D02*
X0045176Y0344448D01*
X0046175Y0350439D02*
X0046175Y0351438D01*
X0135353Y0351438D02*
X0135353Y0350439D01*
X0149402Y0347444D02*
X0149402Y0345446D01*
D12*
X0161933Y0342520D02*
X0161933Y0376772D01*
X0176697Y0376772D01*
X0177287Y0376772D01*
X0179650Y0374409D01*
X0179650Y0342520D01*
X0161933Y0342520D01*
X0166854Y0351772D02*
X0166856Y0351897D01*
X0166862Y0352022D01*
X0166872Y0352146D01*
X0166886Y0352270D01*
X0166903Y0352394D01*
X0166925Y0352517D01*
X0166951Y0352639D01*
X0166980Y0352761D01*
X0167013Y0352881D01*
X0167051Y0353000D01*
X0167091Y0353119D01*
X0167136Y0353235D01*
X0167184Y0353350D01*
X0167236Y0353464D01*
X0167292Y0353576D01*
X0167351Y0353686D01*
X0167413Y0353794D01*
X0167479Y0353901D01*
X0167548Y0354005D01*
X0167621Y0354106D01*
X0167696Y0354206D01*
X0167775Y0354303D01*
X0167857Y0354397D01*
X0167942Y0354489D01*
X0168029Y0354578D01*
X0168120Y0354664D01*
X0168213Y0354747D01*
X0168309Y0354828D01*
X0168407Y0354905D01*
X0168507Y0354979D01*
X0168610Y0355050D01*
X0168715Y0355117D01*
X0168823Y0355182D01*
X0168932Y0355242D01*
X0169043Y0355300D01*
X0169156Y0355353D01*
X0169270Y0355403D01*
X0169386Y0355450D01*
X0169503Y0355492D01*
X0169622Y0355531D01*
X0169742Y0355567D01*
X0169863Y0355598D01*
X0169985Y0355626D01*
X0170107Y0355649D01*
X0170231Y0355669D01*
X0170355Y0355685D01*
X0170479Y0355697D01*
X0170604Y0355705D01*
X0170729Y0355709D01*
X0170853Y0355709D01*
X0170978Y0355705D01*
X0171103Y0355697D01*
X0171227Y0355685D01*
X0171351Y0355669D01*
X0171475Y0355649D01*
X0171597Y0355626D01*
X0171719Y0355598D01*
X0171840Y0355567D01*
X0171960Y0355531D01*
X0172079Y0355492D01*
X0172196Y0355450D01*
X0172312Y0355403D01*
X0172426Y0355353D01*
X0172539Y0355300D01*
X0172650Y0355242D01*
X0172760Y0355182D01*
X0172867Y0355117D01*
X0172972Y0355050D01*
X0173075Y0354979D01*
X0173175Y0354905D01*
X0173273Y0354828D01*
X0173369Y0354747D01*
X0173462Y0354664D01*
X0173553Y0354578D01*
X0173640Y0354489D01*
X0173725Y0354397D01*
X0173807Y0354303D01*
X0173886Y0354206D01*
X0173961Y0354106D01*
X0174034Y0354005D01*
X0174103Y0353901D01*
X0174169Y0353794D01*
X0174231Y0353686D01*
X0174290Y0353576D01*
X0174346Y0353464D01*
X0174398Y0353350D01*
X0174446Y0353235D01*
X0174491Y0353119D01*
X0174531Y0353000D01*
X0174569Y0352881D01*
X0174602Y0352761D01*
X0174631Y0352639D01*
X0174657Y0352517D01*
X0174679Y0352394D01*
X0174696Y0352270D01*
X0174710Y0352146D01*
X0174720Y0352022D01*
X0174726Y0351897D01*
X0174728Y0351772D01*
X0174726Y0351647D01*
X0174720Y0351522D01*
X0174710Y0351398D01*
X0174696Y0351274D01*
X0174679Y0351150D01*
X0174657Y0351027D01*
X0174631Y0350905D01*
X0174602Y0350783D01*
X0174569Y0350663D01*
X0174531Y0350544D01*
X0174491Y0350425D01*
X0174446Y0350309D01*
X0174398Y0350194D01*
X0174346Y0350080D01*
X0174290Y0349968D01*
X0174231Y0349858D01*
X0174169Y0349750D01*
X0174103Y0349643D01*
X0174034Y0349539D01*
X0173961Y0349438D01*
X0173886Y0349338D01*
X0173807Y0349241D01*
X0173725Y0349147D01*
X0173640Y0349055D01*
X0173553Y0348966D01*
X0173462Y0348880D01*
X0173369Y0348797D01*
X0173273Y0348716D01*
X0173175Y0348639D01*
X0173075Y0348565D01*
X0172972Y0348494D01*
X0172867Y0348427D01*
X0172759Y0348362D01*
X0172650Y0348302D01*
X0172539Y0348244D01*
X0172426Y0348191D01*
X0172312Y0348141D01*
X0172196Y0348094D01*
X0172079Y0348052D01*
X0171960Y0348013D01*
X0171840Y0347977D01*
X0171719Y0347946D01*
X0171597Y0347918D01*
X0171475Y0347895D01*
X0171351Y0347875D01*
X0171227Y0347859D01*
X0171103Y0347847D01*
X0170978Y0347839D01*
X0170853Y0347835D01*
X0170729Y0347835D01*
X0170604Y0347839D01*
X0170479Y0347847D01*
X0170355Y0347859D01*
X0170231Y0347875D01*
X0170107Y0347895D01*
X0169985Y0347918D01*
X0169863Y0347946D01*
X0169742Y0347977D01*
X0169622Y0348013D01*
X0169503Y0348052D01*
X0169386Y0348094D01*
X0169270Y0348141D01*
X0169156Y0348191D01*
X0169043Y0348244D01*
X0168932Y0348302D01*
X0168822Y0348362D01*
X0168715Y0348427D01*
X0168610Y0348494D01*
X0168507Y0348565D01*
X0168407Y0348639D01*
X0168309Y0348716D01*
X0168213Y0348797D01*
X0168120Y0348880D01*
X0168029Y0348966D01*
X0167942Y0349055D01*
X0167857Y0349147D01*
X0167775Y0349241D01*
X0167696Y0349338D01*
X0167621Y0349438D01*
X0167548Y0349539D01*
X0167479Y0349643D01*
X0167413Y0349750D01*
X0167351Y0349858D01*
X0167292Y0349968D01*
X0167236Y0350080D01*
X0167184Y0350194D01*
X0167136Y0350309D01*
X0167091Y0350425D01*
X0167051Y0350544D01*
X0167013Y0350663D01*
X0166980Y0350783D01*
X0166951Y0350905D01*
X0166925Y0351027D01*
X0166903Y0351150D01*
X0166886Y0351274D01*
X0166872Y0351398D01*
X0166862Y0351522D01*
X0166856Y0351647D01*
X0166854Y0351772D01*
X0168823Y0364764D02*
X0168823Y0367520D01*
X0167642Y0367520D01*
X0168823Y0367520D02*
X0168823Y0370276D01*
X0168823Y0367520D01*
X0172760Y0370276D01*
X0172760Y0367520D01*
X0173941Y0367520D01*
X0172760Y0367520D02*
X0172760Y0364764D01*
X0168823Y0367520D01*
X0167248Y0367520D02*
X0167250Y0367638D01*
X0167256Y0367757D01*
X0167266Y0367875D01*
X0167280Y0367992D01*
X0167297Y0368109D01*
X0167319Y0368226D01*
X0167345Y0368341D01*
X0167374Y0368456D01*
X0167407Y0368570D01*
X0167444Y0368682D01*
X0167485Y0368793D01*
X0167529Y0368903D01*
X0167577Y0369011D01*
X0167629Y0369118D01*
X0167684Y0369223D01*
X0167743Y0369326D01*
X0167805Y0369426D01*
X0167870Y0369525D01*
X0167939Y0369622D01*
X0168010Y0369716D01*
X0168085Y0369807D01*
X0168163Y0369897D01*
X0168244Y0369983D01*
X0168328Y0370067D01*
X0168414Y0370148D01*
X0168504Y0370226D01*
X0168595Y0370301D01*
X0168689Y0370372D01*
X0168786Y0370441D01*
X0168885Y0370506D01*
X0168985Y0370568D01*
X0169088Y0370627D01*
X0169193Y0370682D01*
X0169300Y0370734D01*
X0169408Y0370782D01*
X0169518Y0370826D01*
X0169629Y0370867D01*
X0169741Y0370904D01*
X0169855Y0370937D01*
X0169970Y0370966D01*
X0170085Y0370992D01*
X0170202Y0371014D01*
X0170319Y0371031D01*
X0170436Y0371045D01*
X0170554Y0371055D01*
X0170673Y0371061D01*
X0170791Y0371063D01*
X0170909Y0371061D01*
X0171028Y0371055D01*
X0171146Y0371045D01*
X0171263Y0371031D01*
X0171380Y0371014D01*
X0171497Y0370992D01*
X0171612Y0370966D01*
X0171727Y0370937D01*
X0171841Y0370904D01*
X0171953Y0370867D01*
X0172064Y0370826D01*
X0172174Y0370782D01*
X0172282Y0370734D01*
X0172389Y0370682D01*
X0172494Y0370627D01*
X0172597Y0370568D01*
X0172697Y0370506D01*
X0172796Y0370441D01*
X0172893Y0370372D01*
X0172987Y0370301D01*
X0173078Y0370226D01*
X0173168Y0370148D01*
X0173254Y0370067D01*
X0173338Y0369983D01*
X0173419Y0369897D01*
X0173497Y0369807D01*
X0173572Y0369716D01*
X0173643Y0369622D01*
X0173712Y0369525D01*
X0173777Y0369426D01*
X0173839Y0369326D01*
X0173898Y0369223D01*
X0173953Y0369118D01*
X0174005Y0369011D01*
X0174053Y0368903D01*
X0174097Y0368793D01*
X0174138Y0368682D01*
X0174175Y0368570D01*
X0174208Y0368456D01*
X0174237Y0368341D01*
X0174263Y0368226D01*
X0174285Y0368109D01*
X0174302Y0367992D01*
X0174316Y0367875D01*
X0174326Y0367757D01*
X0174332Y0367638D01*
X0174334Y0367520D01*
X0174332Y0367402D01*
X0174326Y0367283D01*
X0174316Y0367165D01*
X0174302Y0367048D01*
X0174285Y0366931D01*
X0174263Y0366814D01*
X0174237Y0366699D01*
X0174208Y0366584D01*
X0174175Y0366470D01*
X0174138Y0366358D01*
X0174097Y0366247D01*
X0174053Y0366137D01*
X0174005Y0366029D01*
X0173953Y0365922D01*
X0173898Y0365817D01*
X0173839Y0365714D01*
X0173777Y0365614D01*
X0173712Y0365515D01*
X0173643Y0365418D01*
X0173572Y0365324D01*
X0173497Y0365233D01*
X0173419Y0365143D01*
X0173338Y0365057D01*
X0173254Y0364973D01*
X0173168Y0364892D01*
X0173078Y0364814D01*
X0172987Y0364739D01*
X0172893Y0364668D01*
X0172796Y0364599D01*
X0172697Y0364534D01*
X0172597Y0364472D01*
X0172494Y0364413D01*
X0172389Y0364358D01*
X0172282Y0364306D01*
X0172174Y0364258D01*
X0172064Y0364214D01*
X0171953Y0364173D01*
X0171841Y0364136D01*
X0171727Y0364103D01*
X0171612Y0364074D01*
X0171497Y0364048D01*
X0171380Y0364026D01*
X0171263Y0364009D01*
X0171146Y0363995D01*
X0171028Y0363985D01*
X0170909Y0363979D01*
X0170791Y0363977D01*
X0170673Y0363979D01*
X0170554Y0363985D01*
X0170436Y0363995D01*
X0170319Y0364009D01*
X0170202Y0364026D01*
X0170085Y0364048D01*
X0169970Y0364074D01*
X0169855Y0364103D01*
X0169741Y0364136D01*
X0169629Y0364173D01*
X0169518Y0364214D01*
X0169408Y0364258D01*
X0169300Y0364306D01*
X0169193Y0364358D01*
X0169088Y0364413D01*
X0168985Y0364472D01*
X0168885Y0364534D01*
X0168786Y0364599D01*
X0168689Y0364668D01*
X0168595Y0364739D01*
X0168504Y0364814D01*
X0168414Y0364892D01*
X0168328Y0364973D01*
X0168244Y0365057D01*
X0168163Y0365143D01*
X0168085Y0365233D01*
X0168010Y0365324D01*
X0167939Y0365418D01*
X0167870Y0365515D01*
X0167805Y0365614D01*
X0167743Y0365714D01*
X0167684Y0365817D01*
X0167629Y0365922D01*
X0167577Y0366029D01*
X0167529Y0366137D01*
X0167485Y0366247D01*
X0167444Y0366358D01*
X0167407Y0366470D01*
X0167374Y0366584D01*
X0167345Y0366699D01*
X0167319Y0366814D01*
X0167297Y0366931D01*
X0167280Y0367048D01*
X0167266Y0367165D01*
X0167256Y0367283D01*
X0167250Y0367402D01*
X0167248Y0367520D01*
X0132406Y0362205D02*
X0114689Y0362205D01*
X0114689Y0396457D01*
X0129453Y0396457D01*
X0130043Y0396457D01*
X0132406Y0394094D01*
X0132406Y0362205D01*
X0119610Y0371457D02*
X0119612Y0371582D01*
X0119618Y0371707D01*
X0119628Y0371831D01*
X0119642Y0371955D01*
X0119659Y0372079D01*
X0119681Y0372202D01*
X0119707Y0372324D01*
X0119736Y0372446D01*
X0119769Y0372566D01*
X0119807Y0372685D01*
X0119847Y0372804D01*
X0119892Y0372920D01*
X0119940Y0373035D01*
X0119992Y0373149D01*
X0120048Y0373261D01*
X0120107Y0373371D01*
X0120169Y0373479D01*
X0120235Y0373586D01*
X0120304Y0373690D01*
X0120377Y0373791D01*
X0120452Y0373891D01*
X0120531Y0373988D01*
X0120613Y0374082D01*
X0120698Y0374174D01*
X0120785Y0374263D01*
X0120876Y0374349D01*
X0120969Y0374432D01*
X0121065Y0374513D01*
X0121163Y0374590D01*
X0121263Y0374664D01*
X0121366Y0374735D01*
X0121471Y0374802D01*
X0121579Y0374867D01*
X0121688Y0374927D01*
X0121799Y0374985D01*
X0121912Y0375038D01*
X0122026Y0375088D01*
X0122142Y0375135D01*
X0122259Y0375177D01*
X0122378Y0375216D01*
X0122498Y0375252D01*
X0122619Y0375283D01*
X0122741Y0375311D01*
X0122863Y0375334D01*
X0122987Y0375354D01*
X0123111Y0375370D01*
X0123235Y0375382D01*
X0123360Y0375390D01*
X0123485Y0375394D01*
X0123609Y0375394D01*
X0123734Y0375390D01*
X0123859Y0375382D01*
X0123983Y0375370D01*
X0124107Y0375354D01*
X0124231Y0375334D01*
X0124353Y0375311D01*
X0124475Y0375283D01*
X0124596Y0375252D01*
X0124716Y0375216D01*
X0124835Y0375177D01*
X0124952Y0375135D01*
X0125068Y0375088D01*
X0125182Y0375038D01*
X0125295Y0374985D01*
X0125406Y0374927D01*
X0125516Y0374867D01*
X0125623Y0374802D01*
X0125728Y0374735D01*
X0125831Y0374664D01*
X0125931Y0374590D01*
X0126029Y0374513D01*
X0126125Y0374432D01*
X0126218Y0374349D01*
X0126309Y0374263D01*
X0126396Y0374174D01*
X0126481Y0374082D01*
X0126563Y0373988D01*
X0126642Y0373891D01*
X0126717Y0373791D01*
X0126790Y0373690D01*
X0126859Y0373586D01*
X0126925Y0373479D01*
X0126987Y0373371D01*
X0127046Y0373261D01*
X0127102Y0373149D01*
X0127154Y0373035D01*
X0127202Y0372920D01*
X0127247Y0372804D01*
X0127287Y0372685D01*
X0127325Y0372566D01*
X0127358Y0372446D01*
X0127387Y0372324D01*
X0127413Y0372202D01*
X0127435Y0372079D01*
X0127452Y0371955D01*
X0127466Y0371831D01*
X0127476Y0371707D01*
X0127482Y0371582D01*
X0127484Y0371457D01*
X0127482Y0371332D01*
X0127476Y0371207D01*
X0127466Y0371083D01*
X0127452Y0370959D01*
X0127435Y0370835D01*
X0127413Y0370712D01*
X0127387Y0370590D01*
X0127358Y0370468D01*
X0127325Y0370348D01*
X0127287Y0370229D01*
X0127247Y0370110D01*
X0127202Y0369994D01*
X0127154Y0369879D01*
X0127102Y0369765D01*
X0127046Y0369653D01*
X0126987Y0369543D01*
X0126925Y0369435D01*
X0126859Y0369328D01*
X0126790Y0369224D01*
X0126717Y0369123D01*
X0126642Y0369023D01*
X0126563Y0368926D01*
X0126481Y0368832D01*
X0126396Y0368740D01*
X0126309Y0368651D01*
X0126218Y0368565D01*
X0126125Y0368482D01*
X0126029Y0368401D01*
X0125931Y0368324D01*
X0125831Y0368250D01*
X0125728Y0368179D01*
X0125623Y0368112D01*
X0125515Y0368047D01*
X0125406Y0367987D01*
X0125295Y0367929D01*
X0125182Y0367876D01*
X0125068Y0367826D01*
X0124952Y0367779D01*
X0124835Y0367737D01*
X0124716Y0367698D01*
X0124596Y0367662D01*
X0124475Y0367631D01*
X0124353Y0367603D01*
X0124231Y0367580D01*
X0124107Y0367560D01*
X0123983Y0367544D01*
X0123859Y0367532D01*
X0123734Y0367524D01*
X0123609Y0367520D01*
X0123485Y0367520D01*
X0123360Y0367524D01*
X0123235Y0367532D01*
X0123111Y0367544D01*
X0122987Y0367560D01*
X0122863Y0367580D01*
X0122741Y0367603D01*
X0122619Y0367631D01*
X0122498Y0367662D01*
X0122378Y0367698D01*
X0122259Y0367737D01*
X0122142Y0367779D01*
X0122026Y0367826D01*
X0121912Y0367876D01*
X0121799Y0367929D01*
X0121688Y0367987D01*
X0121578Y0368047D01*
X0121471Y0368112D01*
X0121366Y0368179D01*
X0121263Y0368250D01*
X0121163Y0368324D01*
X0121065Y0368401D01*
X0120969Y0368482D01*
X0120876Y0368565D01*
X0120785Y0368651D01*
X0120698Y0368740D01*
X0120613Y0368832D01*
X0120531Y0368926D01*
X0120452Y0369023D01*
X0120377Y0369123D01*
X0120304Y0369224D01*
X0120235Y0369328D01*
X0120169Y0369435D01*
X0120107Y0369543D01*
X0120048Y0369653D01*
X0119992Y0369765D01*
X0119940Y0369879D01*
X0119892Y0369994D01*
X0119847Y0370110D01*
X0119807Y0370229D01*
X0119769Y0370348D01*
X0119736Y0370468D01*
X0119707Y0370590D01*
X0119681Y0370712D01*
X0119659Y0370835D01*
X0119642Y0370959D01*
X0119628Y0371083D01*
X0119618Y0371207D01*
X0119612Y0371332D01*
X0119610Y0371457D01*
X0121579Y0384449D02*
X0121579Y0387205D01*
X0120398Y0387205D01*
X0121579Y0387205D02*
X0121579Y0389961D01*
X0121579Y0387205D01*
X0125516Y0389961D01*
X0125516Y0387205D01*
X0126697Y0387205D01*
X0125516Y0387205D02*
X0125516Y0384449D01*
X0121579Y0387205D01*
X0120004Y0387205D02*
X0120006Y0387323D01*
X0120012Y0387442D01*
X0120022Y0387560D01*
X0120036Y0387677D01*
X0120053Y0387794D01*
X0120075Y0387911D01*
X0120101Y0388026D01*
X0120130Y0388141D01*
X0120163Y0388255D01*
X0120200Y0388367D01*
X0120241Y0388478D01*
X0120285Y0388588D01*
X0120333Y0388696D01*
X0120385Y0388803D01*
X0120440Y0388908D01*
X0120499Y0389011D01*
X0120561Y0389111D01*
X0120626Y0389210D01*
X0120695Y0389307D01*
X0120766Y0389401D01*
X0120841Y0389492D01*
X0120919Y0389582D01*
X0121000Y0389668D01*
X0121084Y0389752D01*
X0121170Y0389833D01*
X0121260Y0389911D01*
X0121351Y0389986D01*
X0121445Y0390057D01*
X0121542Y0390126D01*
X0121641Y0390191D01*
X0121741Y0390253D01*
X0121844Y0390312D01*
X0121949Y0390367D01*
X0122056Y0390419D01*
X0122164Y0390467D01*
X0122274Y0390511D01*
X0122385Y0390552D01*
X0122497Y0390589D01*
X0122611Y0390622D01*
X0122726Y0390651D01*
X0122841Y0390677D01*
X0122958Y0390699D01*
X0123075Y0390716D01*
X0123192Y0390730D01*
X0123310Y0390740D01*
X0123429Y0390746D01*
X0123547Y0390748D01*
X0123665Y0390746D01*
X0123784Y0390740D01*
X0123902Y0390730D01*
X0124019Y0390716D01*
X0124136Y0390699D01*
X0124253Y0390677D01*
X0124368Y0390651D01*
X0124483Y0390622D01*
X0124597Y0390589D01*
X0124709Y0390552D01*
X0124820Y0390511D01*
X0124930Y0390467D01*
X0125038Y0390419D01*
X0125145Y0390367D01*
X0125250Y0390312D01*
X0125353Y0390253D01*
X0125453Y0390191D01*
X0125552Y0390126D01*
X0125649Y0390057D01*
X0125743Y0389986D01*
X0125834Y0389911D01*
X0125924Y0389833D01*
X0126010Y0389752D01*
X0126094Y0389668D01*
X0126175Y0389582D01*
X0126253Y0389492D01*
X0126328Y0389401D01*
X0126399Y0389307D01*
X0126468Y0389210D01*
X0126533Y0389111D01*
X0126595Y0389011D01*
X0126654Y0388908D01*
X0126709Y0388803D01*
X0126761Y0388696D01*
X0126809Y0388588D01*
X0126853Y0388478D01*
X0126894Y0388367D01*
X0126931Y0388255D01*
X0126964Y0388141D01*
X0126993Y0388026D01*
X0127019Y0387911D01*
X0127041Y0387794D01*
X0127058Y0387677D01*
X0127072Y0387560D01*
X0127082Y0387442D01*
X0127088Y0387323D01*
X0127090Y0387205D01*
X0127088Y0387087D01*
X0127082Y0386968D01*
X0127072Y0386850D01*
X0127058Y0386733D01*
X0127041Y0386616D01*
X0127019Y0386499D01*
X0126993Y0386384D01*
X0126964Y0386269D01*
X0126931Y0386155D01*
X0126894Y0386043D01*
X0126853Y0385932D01*
X0126809Y0385822D01*
X0126761Y0385714D01*
X0126709Y0385607D01*
X0126654Y0385502D01*
X0126595Y0385399D01*
X0126533Y0385299D01*
X0126468Y0385200D01*
X0126399Y0385103D01*
X0126328Y0385009D01*
X0126253Y0384918D01*
X0126175Y0384828D01*
X0126094Y0384742D01*
X0126010Y0384658D01*
X0125924Y0384577D01*
X0125834Y0384499D01*
X0125743Y0384424D01*
X0125649Y0384353D01*
X0125552Y0384284D01*
X0125453Y0384219D01*
X0125353Y0384157D01*
X0125250Y0384098D01*
X0125145Y0384043D01*
X0125038Y0383991D01*
X0124930Y0383943D01*
X0124820Y0383899D01*
X0124709Y0383858D01*
X0124597Y0383821D01*
X0124483Y0383788D01*
X0124368Y0383759D01*
X0124253Y0383733D01*
X0124136Y0383711D01*
X0124019Y0383694D01*
X0123902Y0383680D01*
X0123784Y0383670D01*
X0123665Y0383664D01*
X0123547Y0383662D01*
X0123429Y0383664D01*
X0123310Y0383670D01*
X0123192Y0383680D01*
X0123075Y0383694D01*
X0122958Y0383711D01*
X0122841Y0383733D01*
X0122726Y0383759D01*
X0122611Y0383788D01*
X0122497Y0383821D01*
X0122385Y0383858D01*
X0122274Y0383899D01*
X0122164Y0383943D01*
X0122056Y0383991D01*
X0121949Y0384043D01*
X0121844Y0384098D01*
X0121741Y0384157D01*
X0121641Y0384219D01*
X0121542Y0384284D01*
X0121445Y0384353D01*
X0121351Y0384424D01*
X0121260Y0384499D01*
X0121170Y0384577D01*
X0121084Y0384658D01*
X0121000Y0384742D01*
X0120919Y0384828D01*
X0120841Y0384918D01*
X0120766Y0385009D01*
X0120695Y0385103D01*
X0120626Y0385200D01*
X0120561Y0385299D01*
X0120499Y0385399D01*
X0120440Y0385502D01*
X0120385Y0385607D01*
X0120333Y0385714D01*
X0120285Y0385822D01*
X0120241Y0385932D01*
X0120200Y0386043D01*
X0120163Y0386155D01*
X0120130Y0386269D01*
X0120101Y0386384D01*
X0120075Y0386499D01*
X0120053Y0386616D01*
X0120036Y0386733D01*
X0120022Y0386850D01*
X0120012Y0386968D01*
X0120006Y0387087D01*
X0120004Y0387205D01*
X0085161Y0394094D02*
X0085161Y0362205D01*
X0067445Y0362205D01*
X0067445Y0396457D01*
X0082209Y0396457D01*
X0082799Y0396457D01*
X0085161Y0394094D01*
X0078272Y0389961D02*
X0078272Y0387205D01*
X0079453Y0387205D01*
X0078272Y0387205D02*
X0078272Y0384449D01*
X0074335Y0387205D01*
X0073154Y0387205D01*
X0074335Y0387205D02*
X0074335Y0384449D01*
X0074335Y0387205D02*
X0074335Y0389961D01*
X0074335Y0387205D01*
X0078272Y0389961D01*
X0072760Y0387205D02*
X0072762Y0387323D01*
X0072768Y0387442D01*
X0072778Y0387560D01*
X0072792Y0387677D01*
X0072809Y0387794D01*
X0072831Y0387911D01*
X0072857Y0388026D01*
X0072886Y0388141D01*
X0072919Y0388255D01*
X0072956Y0388367D01*
X0072997Y0388478D01*
X0073041Y0388588D01*
X0073089Y0388696D01*
X0073141Y0388803D01*
X0073196Y0388908D01*
X0073255Y0389011D01*
X0073317Y0389111D01*
X0073382Y0389210D01*
X0073451Y0389307D01*
X0073522Y0389401D01*
X0073597Y0389492D01*
X0073675Y0389582D01*
X0073756Y0389668D01*
X0073840Y0389752D01*
X0073926Y0389833D01*
X0074016Y0389911D01*
X0074107Y0389986D01*
X0074201Y0390057D01*
X0074298Y0390126D01*
X0074397Y0390191D01*
X0074497Y0390253D01*
X0074600Y0390312D01*
X0074705Y0390367D01*
X0074812Y0390419D01*
X0074920Y0390467D01*
X0075030Y0390511D01*
X0075141Y0390552D01*
X0075253Y0390589D01*
X0075367Y0390622D01*
X0075482Y0390651D01*
X0075597Y0390677D01*
X0075714Y0390699D01*
X0075831Y0390716D01*
X0075948Y0390730D01*
X0076066Y0390740D01*
X0076185Y0390746D01*
X0076303Y0390748D01*
X0076421Y0390746D01*
X0076540Y0390740D01*
X0076658Y0390730D01*
X0076775Y0390716D01*
X0076892Y0390699D01*
X0077009Y0390677D01*
X0077124Y0390651D01*
X0077239Y0390622D01*
X0077353Y0390589D01*
X0077465Y0390552D01*
X0077576Y0390511D01*
X0077686Y0390467D01*
X0077794Y0390419D01*
X0077901Y0390367D01*
X0078006Y0390312D01*
X0078109Y0390253D01*
X0078209Y0390191D01*
X0078308Y0390126D01*
X0078405Y0390057D01*
X0078499Y0389986D01*
X0078590Y0389911D01*
X0078680Y0389833D01*
X0078766Y0389752D01*
X0078850Y0389668D01*
X0078931Y0389582D01*
X0079009Y0389492D01*
X0079084Y0389401D01*
X0079155Y0389307D01*
X0079224Y0389210D01*
X0079289Y0389111D01*
X0079351Y0389011D01*
X0079410Y0388908D01*
X0079465Y0388803D01*
X0079517Y0388696D01*
X0079565Y0388588D01*
X0079609Y0388478D01*
X0079650Y0388367D01*
X0079687Y0388255D01*
X0079720Y0388141D01*
X0079749Y0388026D01*
X0079775Y0387911D01*
X0079797Y0387794D01*
X0079814Y0387677D01*
X0079828Y0387560D01*
X0079838Y0387442D01*
X0079844Y0387323D01*
X0079846Y0387205D01*
X0079844Y0387087D01*
X0079838Y0386968D01*
X0079828Y0386850D01*
X0079814Y0386733D01*
X0079797Y0386616D01*
X0079775Y0386499D01*
X0079749Y0386384D01*
X0079720Y0386269D01*
X0079687Y0386155D01*
X0079650Y0386043D01*
X0079609Y0385932D01*
X0079565Y0385822D01*
X0079517Y0385714D01*
X0079465Y0385607D01*
X0079410Y0385502D01*
X0079351Y0385399D01*
X0079289Y0385299D01*
X0079224Y0385200D01*
X0079155Y0385103D01*
X0079084Y0385009D01*
X0079009Y0384918D01*
X0078931Y0384828D01*
X0078850Y0384742D01*
X0078766Y0384658D01*
X0078680Y0384577D01*
X0078590Y0384499D01*
X0078499Y0384424D01*
X0078405Y0384353D01*
X0078308Y0384284D01*
X0078209Y0384219D01*
X0078109Y0384157D01*
X0078006Y0384098D01*
X0077901Y0384043D01*
X0077794Y0383991D01*
X0077686Y0383943D01*
X0077576Y0383899D01*
X0077465Y0383858D01*
X0077353Y0383821D01*
X0077239Y0383788D01*
X0077124Y0383759D01*
X0077009Y0383733D01*
X0076892Y0383711D01*
X0076775Y0383694D01*
X0076658Y0383680D01*
X0076540Y0383670D01*
X0076421Y0383664D01*
X0076303Y0383662D01*
X0076185Y0383664D01*
X0076066Y0383670D01*
X0075948Y0383680D01*
X0075831Y0383694D01*
X0075714Y0383711D01*
X0075597Y0383733D01*
X0075482Y0383759D01*
X0075367Y0383788D01*
X0075253Y0383821D01*
X0075141Y0383858D01*
X0075030Y0383899D01*
X0074920Y0383943D01*
X0074812Y0383991D01*
X0074705Y0384043D01*
X0074600Y0384098D01*
X0074497Y0384157D01*
X0074397Y0384219D01*
X0074298Y0384284D01*
X0074201Y0384353D01*
X0074107Y0384424D01*
X0074016Y0384499D01*
X0073926Y0384577D01*
X0073840Y0384658D01*
X0073756Y0384742D01*
X0073675Y0384828D01*
X0073597Y0384918D01*
X0073522Y0385009D01*
X0073451Y0385103D01*
X0073382Y0385200D01*
X0073317Y0385299D01*
X0073255Y0385399D01*
X0073196Y0385502D01*
X0073141Y0385607D01*
X0073089Y0385714D01*
X0073041Y0385822D01*
X0072997Y0385932D01*
X0072956Y0386043D01*
X0072919Y0386155D01*
X0072886Y0386269D01*
X0072857Y0386384D01*
X0072831Y0386499D01*
X0072809Y0386616D01*
X0072792Y0386733D01*
X0072778Y0386850D01*
X0072768Y0386968D01*
X0072762Y0387087D01*
X0072760Y0387205D01*
X0072366Y0371457D02*
X0072368Y0371582D01*
X0072374Y0371707D01*
X0072384Y0371831D01*
X0072398Y0371955D01*
X0072415Y0372079D01*
X0072437Y0372202D01*
X0072463Y0372324D01*
X0072492Y0372446D01*
X0072525Y0372566D01*
X0072563Y0372685D01*
X0072603Y0372804D01*
X0072648Y0372920D01*
X0072696Y0373035D01*
X0072748Y0373149D01*
X0072804Y0373261D01*
X0072863Y0373371D01*
X0072925Y0373479D01*
X0072991Y0373586D01*
X0073060Y0373690D01*
X0073133Y0373791D01*
X0073208Y0373891D01*
X0073287Y0373988D01*
X0073369Y0374082D01*
X0073454Y0374174D01*
X0073541Y0374263D01*
X0073632Y0374349D01*
X0073725Y0374432D01*
X0073821Y0374513D01*
X0073919Y0374590D01*
X0074019Y0374664D01*
X0074122Y0374735D01*
X0074227Y0374802D01*
X0074335Y0374867D01*
X0074444Y0374927D01*
X0074555Y0374985D01*
X0074668Y0375038D01*
X0074782Y0375088D01*
X0074898Y0375135D01*
X0075015Y0375177D01*
X0075134Y0375216D01*
X0075254Y0375252D01*
X0075375Y0375283D01*
X0075497Y0375311D01*
X0075619Y0375334D01*
X0075743Y0375354D01*
X0075867Y0375370D01*
X0075991Y0375382D01*
X0076116Y0375390D01*
X0076241Y0375394D01*
X0076365Y0375394D01*
X0076490Y0375390D01*
X0076615Y0375382D01*
X0076739Y0375370D01*
X0076863Y0375354D01*
X0076987Y0375334D01*
X0077109Y0375311D01*
X0077231Y0375283D01*
X0077352Y0375252D01*
X0077472Y0375216D01*
X0077591Y0375177D01*
X0077708Y0375135D01*
X0077824Y0375088D01*
X0077938Y0375038D01*
X0078051Y0374985D01*
X0078162Y0374927D01*
X0078272Y0374867D01*
X0078379Y0374802D01*
X0078484Y0374735D01*
X0078587Y0374664D01*
X0078687Y0374590D01*
X0078785Y0374513D01*
X0078881Y0374432D01*
X0078974Y0374349D01*
X0079065Y0374263D01*
X0079152Y0374174D01*
X0079237Y0374082D01*
X0079319Y0373988D01*
X0079398Y0373891D01*
X0079473Y0373791D01*
X0079546Y0373690D01*
X0079615Y0373586D01*
X0079681Y0373479D01*
X0079743Y0373371D01*
X0079802Y0373261D01*
X0079858Y0373149D01*
X0079910Y0373035D01*
X0079958Y0372920D01*
X0080003Y0372804D01*
X0080043Y0372685D01*
X0080081Y0372566D01*
X0080114Y0372446D01*
X0080143Y0372324D01*
X0080169Y0372202D01*
X0080191Y0372079D01*
X0080208Y0371955D01*
X0080222Y0371831D01*
X0080232Y0371707D01*
X0080238Y0371582D01*
X0080240Y0371457D01*
X0080238Y0371332D01*
X0080232Y0371207D01*
X0080222Y0371083D01*
X0080208Y0370959D01*
X0080191Y0370835D01*
X0080169Y0370712D01*
X0080143Y0370590D01*
X0080114Y0370468D01*
X0080081Y0370348D01*
X0080043Y0370229D01*
X0080003Y0370110D01*
X0079958Y0369994D01*
X0079910Y0369879D01*
X0079858Y0369765D01*
X0079802Y0369653D01*
X0079743Y0369543D01*
X0079681Y0369435D01*
X0079615Y0369328D01*
X0079546Y0369224D01*
X0079473Y0369123D01*
X0079398Y0369023D01*
X0079319Y0368926D01*
X0079237Y0368832D01*
X0079152Y0368740D01*
X0079065Y0368651D01*
X0078974Y0368565D01*
X0078881Y0368482D01*
X0078785Y0368401D01*
X0078687Y0368324D01*
X0078587Y0368250D01*
X0078484Y0368179D01*
X0078379Y0368112D01*
X0078271Y0368047D01*
X0078162Y0367987D01*
X0078051Y0367929D01*
X0077938Y0367876D01*
X0077824Y0367826D01*
X0077708Y0367779D01*
X0077591Y0367737D01*
X0077472Y0367698D01*
X0077352Y0367662D01*
X0077231Y0367631D01*
X0077109Y0367603D01*
X0076987Y0367580D01*
X0076863Y0367560D01*
X0076739Y0367544D01*
X0076615Y0367532D01*
X0076490Y0367524D01*
X0076365Y0367520D01*
X0076241Y0367520D01*
X0076116Y0367524D01*
X0075991Y0367532D01*
X0075867Y0367544D01*
X0075743Y0367560D01*
X0075619Y0367580D01*
X0075497Y0367603D01*
X0075375Y0367631D01*
X0075254Y0367662D01*
X0075134Y0367698D01*
X0075015Y0367737D01*
X0074898Y0367779D01*
X0074782Y0367826D01*
X0074668Y0367876D01*
X0074555Y0367929D01*
X0074444Y0367987D01*
X0074334Y0368047D01*
X0074227Y0368112D01*
X0074122Y0368179D01*
X0074019Y0368250D01*
X0073919Y0368324D01*
X0073821Y0368401D01*
X0073725Y0368482D01*
X0073632Y0368565D01*
X0073541Y0368651D01*
X0073454Y0368740D01*
X0073369Y0368832D01*
X0073287Y0368926D01*
X0073208Y0369023D01*
X0073133Y0369123D01*
X0073060Y0369224D01*
X0072991Y0369328D01*
X0072925Y0369435D01*
X0072863Y0369543D01*
X0072804Y0369653D01*
X0072748Y0369765D01*
X0072696Y0369879D01*
X0072648Y0369994D01*
X0072603Y0370110D01*
X0072563Y0370229D01*
X0072525Y0370348D01*
X0072492Y0370468D01*
X0072463Y0370590D01*
X0072437Y0370712D01*
X0072415Y0370835D01*
X0072398Y0370959D01*
X0072384Y0371083D01*
X0072374Y0371207D01*
X0072368Y0371332D01*
X0072366Y0371457D01*
X0037917Y0374409D02*
X0037917Y0342520D01*
X0020201Y0342520D01*
X0020201Y0376772D01*
X0034965Y0376772D01*
X0035555Y0376772D01*
X0037917Y0374409D01*
X0032209Y0367520D02*
X0031028Y0367520D01*
X0031028Y0364764D01*
X0027091Y0367520D01*
X0025909Y0367520D01*
X0027091Y0367520D02*
X0027091Y0364764D01*
X0027091Y0367520D02*
X0027091Y0370276D01*
X0027091Y0367520D01*
X0031028Y0370276D01*
X0031028Y0367520D01*
X0025516Y0367520D02*
X0025518Y0367638D01*
X0025524Y0367757D01*
X0025534Y0367875D01*
X0025548Y0367992D01*
X0025565Y0368109D01*
X0025587Y0368226D01*
X0025613Y0368341D01*
X0025642Y0368456D01*
X0025675Y0368570D01*
X0025712Y0368682D01*
X0025753Y0368793D01*
X0025797Y0368903D01*
X0025845Y0369011D01*
X0025897Y0369118D01*
X0025952Y0369223D01*
X0026011Y0369326D01*
X0026073Y0369426D01*
X0026138Y0369525D01*
X0026207Y0369622D01*
X0026278Y0369716D01*
X0026353Y0369807D01*
X0026431Y0369897D01*
X0026512Y0369983D01*
X0026596Y0370067D01*
X0026682Y0370148D01*
X0026772Y0370226D01*
X0026863Y0370301D01*
X0026957Y0370372D01*
X0027054Y0370441D01*
X0027153Y0370506D01*
X0027253Y0370568D01*
X0027356Y0370627D01*
X0027461Y0370682D01*
X0027568Y0370734D01*
X0027676Y0370782D01*
X0027786Y0370826D01*
X0027897Y0370867D01*
X0028009Y0370904D01*
X0028123Y0370937D01*
X0028238Y0370966D01*
X0028353Y0370992D01*
X0028470Y0371014D01*
X0028587Y0371031D01*
X0028704Y0371045D01*
X0028822Y0371055D01*
X0028941Y0371061D01*
X0029059Y0371063D01*
X0029177Y0371061D01*
X0029296Y0371055D01*
X0029414Y0371045D01*
X0029531Y0371031D01*
X0029648Y0371014D01*
X0029765Y0370992D01*
X0029880Y0370966D01*
X0029995Y0370937D01*
X0030109Y0370904D01*
X0030221Y0370867D01*
X0030332Y0370826D01*
X0030442Y0370782D01*
X0030550Y0370734D01*
X0030657Y0370682D01*
X0030762Y0370627D01*
X0030865Y0370568D01*
X0030965Y0370506D01*
X0031064Y0370441D01*
X0031161Y0370372D01*
X0031255Y0370301D01*
X0031346Y0370226D01*
X0031436Y0370148D01*
X0031522Y0370067D01*
X0031606Y0369983D01*
X0031687Y0369897D01*
X0031765Y0369807D01*
X0031840Y0369716D01*
X0031911Y0369622D01*
X0031980Y0369525D01*
X0032045Y0369426D01*
X0032107Y0369326D01*
X0032166Y0369223D01*
X0032221Y0369118D01*
X0032273Y0369011D01*
X0032321Y0368903D01*
X0032365Y0368793D01*
X0032406Y0368682D01*
X0032443Y0368570D01*
X0032476Y0368456D01*
X0032505Y0368341D01*
X0032531Y0368226D01*
X0032553Y0368109D01*
X0032570Y0367992D01*
X0032584Y0367875D01*
X0032594Y0367757D01*
X0032600Y0367638D01*
X0032602Y0367520D01*
X0032600Y0367402D01*
X0032594Y0367283D01*
X0032584Y0367165D01*
X0032570Y0367048D01*
X0032553Y0366931D01*
X0032531Y0366814D01*
X0032505Y0366699D01*
X0032476Y0366584D01*
X0032443Y0366470D01*
X0032406Y0366358D01*
X0032365Y0366247D01*
X0032321Y0366137D01*
X0032273Y0366029D01*
X0032221Y0365922D01*
X0032166Y0365817D01*
X0032107Y0365714D01*
X0032045Y0365614D01*
X0031980Y0365515D01*
X0031911Y0365418D01*
X0031840Y0365324D01*
X0031765Y0365233D01*
X0031687Y0365143D01*
X0031606Y0365057D01*
X0031522Y0364973D01*
X0031436Y0364892D01*
X0031346Y0364814D01*
X0031255Y0364739D01*
X0031161Y0364668D01*
X0031064Y0364599D01*
X0030965Y0364534D01*
X0030865Y0364472D01*
X0030762Y0364413D01*
X0030657Y0364358D01*
X0030550Y0364306D01*
X0030442Y0364258D01*
X0030332Y0364214D01*
X0030221Y0364173D01*
X0030109Y0364136D01*
X0029995Y0364103D01*
X0029880Y0364074D01*
X0029765Y0364048D01*
X0029648Y0364026D01*
X0029531Y0364009D01*
X0029414Y0363995D01*
X0029296Y0363985D01*
X0029177Y0363979D01*
X0029059Y0363977D01*
X0028941Y0363979D01*
X0028822Y0363985D01*
X0028704Y0363995D01*
X0028587Y0364009D01*
X0028470Y0364026D01*
X0028353Y0364048D01*
X0028238Y0364074D01*
X0028123Y0364103D01*
X0028009Y0364136D01*
X0027897Y0364173D01*
X0027786Y0364214D01*
X0027676Y0364258D01*
X0027568Y0364306D01*
X0027461Y0364358D01*
X0027356Y0364413D01*
X0027253Y0364472D01*
X0027153Y0364534D01*
X0027054Y0364599D01*
X0026957Y0364668D01*
X0026863Y0364739D01*
X0026772Y0364814D01*
X0026682Y0364892D01*
X0026596Y0364973D01*
X0026512Y0365057D01*
X0026431Y0365143D01*
X0026353Y0365233D01*
X0026278Y0365324D01*
X0026207Y0365418D01*
X0026138Y0365515D01*
X0026073Y0365614D01*
X0026011Y0365714D01*
X0025952Y0365817D01*
X0025897Y0365922D01*
X0025845Y0366029D01*
X0025797Y0366137D01*
X0025753Y0366247D01*
X0025712Y0366358D01*
X0025675Y0366470D01*
X0025642Y0366584D01*
X0025613Y0366699D01*
X0025587Y0366814D01*
X0025565Y0366931D01*
X0025548Y0367048D01*
X0025534Y0367165D01*
X0025524Y0367283D01*
X0025518Y0367402D01*
X0025516Y0367520D01*
X0025122Y0351772D02*
X0025124Y0351897D01*
X0025130Y0352022D01*
X0025140Y0352146D01*
X0025154Y0352270D01*
X0025171Y0352394D01*
X0025193Y0352517D01*
X0025219Y0352639D01*
X0025248Y0352761D01*
X0025281Y0352881D01*
X0025319Y0353000D01*
X0025359Y0353119D01*
X0025404Y0353235D01*
X0025452Y0353350D01*
X0025504Y0353464D01*
X0025560Y0353576D01*
X0025619Y0353686D01*
X0025681Y0353794D01*
X0025747Y0353901D01*
X0025816Y0354005D01*
X0025889Y0354106D01*
X0025964Y0354206D01*
X0026043Y0354303D01*
X0026125Y0354397D01*
X0026210Y0354489D01*
X0026297Y0354578D01*
X0026388Y0354664D01*
X0026481Y0354747D01*
X0026577Y0354828D01*
X0026675Y0354905D01*
X0026775Y0354979D01*
X0026878Y0355050D01*
X0026983Y0355117D01*
X0027091Y0355182D01*
X0027200Y0355242D01*
X0027311Y0355300D01*
X0027424Y0355353D01*
X0027538Y0355403D01*
X0027654Y0355450D01*
X0027771Y0355492D01*
X0027890Y0355531D01*
X0028010Y0355567D01*
X0028131Y0355598D01*
X0028253Y0355626D01*
X0028375Y0355649D01*
X0028499Y0355669D01*
X0028623Y0355685D01*
X0028747Y0355697D01*
X0028872Y0355705D01*
X0028997Y0355709D01*
X0029121Y0355709D01*
X0029246Y0355705D01*
X0029371Y0355697D01*
X0029495Y0355685D01*
X0029619Y0355669D01*
X0029743Y0355649D01*
X0029865Y0355626D01*
X0029987Y0355598D01*
X0030108Y0355567D01*
X0030228Y0355531D01*
X0030347Y0355492D01*
X0030464Y0355450D01*
X0030580Y0355403D01*
X0030694Y0355353D01*
X0030807Y0355300D01*
X0030918Y0355242D01*
X0031028Y0355182D01*
X0031135Y0355117D01*
X0031240Y0355050D01*
X0031343Y0354979D01*
X0031443Y0354905D01*
X0031541Y0354828D01*
X0031637Y0354747D01*
X0031730Y0354664D01*
X0031821Y0354578D01*
X0031908Y0354489D01*
X0031993Y0354397D01*
X0032075Y0354303D01*
X0032154Y0354206D01*
X0032229Y0354106D01*
X0032302Y0354005D01*
X0032371Y0353901D01*
X0032437Y0353794D01*
X0032499Y0353686D01*
X0032558Y0353576D01*
X0032614Y0353464D01*
X0032666Y0353350D01*
X0032714Y0353235D01*
X0032759Y0353119D01*
X0032799Y0353000D01*
X0032837Y0352881D01*
X0032870Y0352761D01*
X0032899Y0352639D01*
X0032925Y0352517D01*
X0032947Y0352394D01*
X0032964Y0352270D01*
X0032978Y0352146D01*
X0032988Y0352022D01*
X0032994Y0351897D01*
X0032996Y0351772D01*
X0032994Y0351647D01*
X0032988Y0351522D01*
X0032978Y0351398D01*
X0032964Y0351274D01*
X0032947Y0351150D01*
X0032925Y0351027D01*
X0032899Y0350905D01*
X0032870Y0350783D01*
X0032837Y0350663D01*
X0032799Y0350544D01*
X0032759Y0350425D01*
X0032714Y0350309D01*
X0032666Y0350194D01*
X0032614Y0350080D01*
X0032558Y0349968D01*
X0032499Y0349858D01*
X0032437Y0349750D01*
X0032371Y0349643D01*
X0032302Y0349539D01*
X0032229Y0349438D01*
X0032154Y0349338D01*
X0032075Y0349241D01*
X0031993Y0349147D01*
X0031908Y0349055D01*
X0031821Y0348966D01*
X0031730Y0348880D01*
X0031637Y0348797D01*
X0031541Y0348716D01*
X0031443Y0348639D01*
X0031343Y0348565D01*
X0031240Y0348494D01*
X0031135Y0348427D01*
X0031027Y0348362D01*
X0030918Y0348302D01*
X0030807Y0348244D01*
X0030694Y0348191D01*
X0030580Y0348141D01*
X0030464Y0348094D01*
X0030347Y0348052D01*
X0030228Y0348013D01*
X0030108Y0347977D01*
X0029987Y0347946D01*
X0029865Y0347918D01*
X0029743Y0347895D01*
X0029619Y0347875D01*
X0029495Y0347859D01*
X0029371Y0347847D01*
X0029246Y0347839D01*
X0029121Y0347835D01*
X0028997Y0347835D01*
X0028872Y0347839D01*
X0028747Y0347847D01*
X0028623Y0347859D01*
X0028499Y0347875D01*
X0028375Y0347895D01*
X0028253Y0347918D01*
X0028131Y0347946D01*
X0028010Y0347977D01*
X0027890Y0348013D01*
X0027771Y0348052D01*
X0027654Y0348094D01*
X0027538Y0348141D01*
X0027424Y0348191D01*
X0027311Y0348244D01*
X0027200Y0348302D01*
X0027090Y0348362D01*
X0026983Y0348427D01*
X0026878Y0348494D01*
X0026775Y0348565D01*
X0026675Y0348639D01*
X0026577Y0348716D01*
X0026481Y0348797D01*
X0026388Y0348880D01*
X0026297Y0348966D01*
X0026210Y0349055D01*
X0026125Y0349147D01*
X0026043Y0349241D01*
X0025964Y0349338D01*
X0025889Y0349438D01*
X0025816Y0349539D01*
X0025747Y0349643D01*
X0025681Y0349750D01*
X0025619Y0349858D01*
X0025560Y0349968D01*
X0025504Y0350080D01*
X0025452Y0350194D01*
X0025404Y0350309D01*
X0025359Y0350425D01*
X0025319Y0350544D01*
X0025281Y0350663D01*
X0025248Y0350783D01*
X0025219Y0350905D01*
X0025193Y0351027D01*
X0025171Y0351150D01*
X0025154Y0351274D01*
X0025140Y0351398D01*
X0025130Y0351522D01*
X0025124Y0351647D01*
X0025122Y0351772D01*
D13*
X0026362Y0340434D02*
X0026362Y0335830D01*
X0024828Y0335830D02*
X0027897Y0335830D01*
X0029432Y0336597D02*
X0029432Y0340434D01*
X0027897Y0338899D02*
X0026362Y0340434D01*
X0029432Y0336597D02*
X0030199Y0335830D01*
X0031733Y0335830D01*
X0032501Y0336597D01*
X0032501Y0340434D01*
X0072072Y0355515D02*
X0075141Y0355515D01*
X0072072Y0358584D01*
X0072072Y0359352D01*
X0072839Y0360119D01*
X0074374Y0360119D01*
X0075141Y0359352D01*
X0076676Y0360119D02*
X0076676Y0356282D01*
X0077443Y0355515D01*
X0078978Y0355515D01*
X0079745Y0356282D01*
X0079745Y0360119D01*
X0119316Y0359352D02*
X0119316Y0358584D01*
X0120083Y0357817D01*
X0119316Y0357050D01*
X0119316Y0356282D01*
X0120083Y0355515D01*
X0121618Y0355515D01*
X0122385Y0356282D01*
X0123920Y0356282D02*
X0123920Y0360119D01*
X0122385Y0359352D02*
X0121618Y0360119D01*
X0120083Y0360119D01*
X0119316Y0359352D01*
X0120083Y0357817D02*
X0120850Y0357817D01*
X0123920Y0356282D02*
X0124687Y0355515D01*
X0126222Y0355515D01*
X0126989Y0356282D01*
X0126989Y0360119D01*
X0167327Y0340434D02*
X0167327Y0335830D01*
X0166560Y0338132D02*
X0169629Y0338132D01*
X0167327Y0340434D01*
X0171164Y0340434D02*
X0171164Y0336597D01*
X0171931Y0335830D01*
X0173466Y0335830D01*
X0174233Y0336597D01*
X0174233Y0340434D01*
X0124723Y0039330D02*
X0123689Y0039330D01*
X0124206Y0039330D02*
X0124206Y0036745D01*
X0124723Y0036228D01*
X0125240Y0036228D01*
X0125757Y0036745D01*
X0122535Y0036228D02*
X0120466Y0036228D01*
X0121500Y0036228D02*
X0121500Y0039330D01*
X0122535Y0038296D01*
D14*
X0117642Y0035827D02*
X0082209Y0035827D01*
X0082209Y0091732D01*
X0117642Y0091732D01*
X0117642Y0035827D01*
X0106756Y0099591D02*
X0105256Y0100591D01*
X0106756Y0101591D01*
X0105256Y0100591D02*
X0112681Y0100591D01*
X0113681Y0100591D02*
X0117681Y0100591D01*
X0112766Y0100591D02*
X0112768Y0100699D01*
X0112774Y0100806D01*
X0112784Y0100914D01*
X0112798Y0101020D01*
X0112816Y0101127D01*
X0112837Y0101232D01*
X0112863Y0101337D01*
X0112892Y0101440D01*
X0112926Y0101543D01*
X0112963Y0101644D01*
X0113004Y0101744D01*
X0113048Y0101842D01*
X0113096Y0101938D01*
X0113148Y0102033D01*
X0113203Y0102126D01*
X0113261Y0102216D01*
X0113323Y0102304D01*
X0113388Y0102390D01*
X0113456Y0102474D01*
X0113527Y0102555D01*
X0113601Y0102633D01*
X0113678Y0102709D01*
X0113757Y0102781D01*
X0113840Y0102851D01*
X0113924Y0102917D01*
X0114011Y0102981D01*
X0114101Y0103041D01*
X0114193Y0103097D01*
X0114286Y0103151D01*
X0114382Y0103200D01*
X0114479Y0103247D01*
X0114578Y0103289D01*
X0114678Y0103328D01*
X0114780Y0103363D01*
X0114883Y0103395D01*
X0114987Y0103422D01*
X0115093Y0103446D01*
X0115198Y0103466D01*
X0115305Y0103482D01*
X0115412Y0103494D01*
X0115519Y0103502D01*
X0115627Y0103506D01*
X0115735Y0103506D01*
X0115843Y0103502D01*
X0115950Y0103494D01*
X0116057Y0103482D01*
X0116164Y0103466D01*
X0116269Y0103446D01*
X0116375Y0103422D01*
X0116479Y0103395D01*
X0116582Y0103363D01*
X0116684Y0103328D01*
X0116784Y0103289D01*
X0116883Y0103247D01*
X0116980Y0103200D01*
X0117076Y0103151D01*
X0117169Y0103097D01*
X0117261Y0103041D01*
X0117351Y0102981D01*
X0117438Y0102917D01*
X0117522Y0102851D01*
X0117605Y0102781D01*
X0117684Y0102709D01*
X0117761Y0102633D01*
X0117835Y0102555D01*
X0117906Y0102474D01*
X0117974Y0102390D01*
X0118039Y0102304D01*
X0118101Y0102216D01*
X0118159Y0102126D01*
X0118214Y0102033D01*
X0118266Y0101938D01*
X0118314Y0101842D01*
X0118358Y0101744D01*
X0118399Y0101644D01*
X0118436Y0101543D01*
X0118470Y0101440D01*
X0118499Y0101337D01*
X0118525Y0101232D01*
X0118546Y0101127D01*
X0118564Y0101020D01*
X0118578Y0100914D01*
X0118588Y0100806D01*
X0118594Y0100699D01*
X0118596Y0100591D01*
X0118594Y0100483D01*
X0118588Y0100376D01*
X0118578Y0100268D01*
X0118564Y0100162D01*
X0118546Y0100055D01*
X0118525Y0099950D01*
X0118499Y0099845D01*
X0118470Y0099742D01*
X0118436Y0099639D01*
X0118399Y0099538D01*
X0118358Y0099438D01*
X0118314Y0099340D01*
X0118266Y0099244D01*
X0118214Y0099149D01*
X0118159Y0099056D01*
X0118101Y0098966D01*
X0118039Y0098878D01*
X0117974Y0098792D01*
X0117906Y0098708D01*
X0117835Y0098627D01*
X0117761Y0098549D01*
X0117684Y0098473D01*
X0117605Y0098401D01*
X0117522Y0098331D01*
X0117438Y0098265D01*
X0117351Y0098201D01*
X0117261Y0098141D01*
X0117169Y0098085D01*
X0117076Y0098031D01*
X0116980Y0097982D01*
X0116883Y0097935D01*
X0116784Y0097893D01*
X0116684Y0097854D01*
X0116582Y0097819D01*
X0116479Y0097787D01*
X0116375Y0097760D01*
X0116269Y0097736D01*
X0116164Y0097716D01*
X0116057Y0097700D01*
X0115950Y0097688D01*
X0115843Y0097680D01*
X0115735Y0097676D01*
X0115627Y0097676D01*
X0115519Y0097680D01*
X0115412Y0097688D01*
X0115305Y0097700D01*
X0115198Y0097716D01*
X0115093Y0097736D01*
X0114987Y0097760D01*
X0114883Y0097787D01*
X0114780Y0097819D01*
X0114678Y0097854D01*
X0114578Y0097893D01*
X0114479Y0097935D01*
X0114382Y0097982D01*
X0114286Y0098031D01*
X0114193Y0098085D01*
X0114101Y0098141D01*
X0114011Y0098201D01*
X0113924Y0098265D01*
X0113840Y0098331D01*
X0113757Y0098401D01*
X0113678Y0098473D01*
X0113601Y0098549D01*
X0113527Y0098627D01*
X0113456Y0098708D01*
X0113388Y0098792D01*
X0113323Y0098878D01*
X0113261Y0098966D01*
X0113203Y0099056D01*
X0113148Y0099149D01*
X0113096Y0099244D01*
X0113048Y0099340D01*
X0113004Y0099438D01*
X0112963Y0099538D01*
X0112926Y0099639D01*
X0112892Y0099742D01*
X0112863Y0099845D01*
X0112837Y0099950D01*
X0112816Y0100055D01*
X0112798Y0100162D01*
X0112784Y0100268D01*
X0112774Y0100376D01*
X0112768Y0100483D01*
X0112766Y0100591D01*
X0112768Y0100699D01*
X0112774Y0100806D01*
X0112784Y0100914D01*
X0112798Y0101020D01*
X0112816Y0101127D01*
X0112837Y0101232D01*
X0112863Y0101337D01*
X0112892Y0101440D01*
X0112926Y0101543D01*
X0112963Y0101644D01*
X0113004Y0101744D01*
X0113048Y0101842D01*
X0113096Y0101938D01*
X0113148Y0102033D01*
X0113203Y0102126D01*
X0113261Y0102216D01*
X0113323Y0102304D01*
X0113388Y0102390D01*
X0113456Y0102474D01*
X0113527Y0102555D01*
X0113601Y0102633D01*
X0113678Y0102709D01*
X0113757Y0102781D01*
X0113840Y0102851D01*
X0113924Y0102917D01*
X0114011Y0102981D01*
X0114101Y0103041D01*
X0114193Y0103097D01*
X0114286Y0103151D01*
X0114382Y0103200D01*
X0114479Y0103247D01*
X0114578Y0103289D01*
X0114678Y0103328D01*
X0114780Y0103363D01*
X0114883Y0103395D01*
X0114987Y0103422D01*
X0115093Y0103446D01*
X0115198Y0103466D01*
X0115305Y0103482D01*
X0115412Y0103494D01*
X0115519Y0103502D01*
X0115627Y0103506D01*
X0115735Y0103506D01*
X0115843Y0103502D01*
X0115950Y0103494D01*
X0116057Y0103482D01*
X0116164Y0103466D01*
X0116269Y0103446D01*
X0116375Y0103422D01*
X0116479Y0103395D01*
X0116582Y0103363D01*
X0116684Y0103328D01*
X0116784Y0103289D01*
X0116883Y0103247D01*
X0116980Y0103200D01*
X0117076Y0103151D01*
X0117169Y0103097D01*
X0117261Y0103041D01*
X0117351Y0102981D01*
X0117438Y0102917D01*
X0117522Y0102851D01*
X0117605Y0102781D01*
X0117684Y0102709D01*
X0117761Y0102633D01*
X0117835Y0102555D01*
X0117906Y0102474D01*
X0117974Y0102390D01*
X0118039Y0102304D01*
X0118101Y0102216D01*
X0118159Y0102126D01*
X0118214Y0102033D01*
X0118266Y0101938D01*
X0118314Y0101842D01*
X0118358Y0101744D01*
X0118399Y0101644D01*
X0118436Y0101543D01*
X0118470Y0101440D01*
X0118499Y0101337D01*
X0118525Y0101232D01*
X0118546Y0101127D01*
X0118564Y0101020D01*
X0118578Y0100914D01*
X0118588Y0100806D01*
X0118594Y0100699D01*
X0118596Y0100591D01*
X0118594Y0100483D01*
X0118588Y0100376D01*
X0118578Y0100268D01*
X0118564Y0100162D01*
X0118546Y0100055D01*
X0118525Y0099950D01*
X0118499Y0099845D01*
X0118470Y0099742D01*
X0118436Y0099639D01*
X0118399Y0099538D01*
X0118358Y0099438D01*
X0118314Y0099340D01*
X0118266Y0099244D01*
X0118214Y0099149D01*
X0118159Y0099056D01*
X0118101Y0098966D01*
X0118039Y0098878D01*
X0117974Y0098792D01*
X0117906Y0098708D01*
X0117835Y0098627D01*
X0117761Y0098549D01*
X0117684Y0098473D01*
X0117605Y0098401D01*
X0117522Y0098331D01*
X0117438Y0098265D01*
X0117351Y0098201D01*
X0117261Y0098141D01*
X0117169Y0098085D01*
X0117076Y0098031D01*
X0116980Y0097982D01*
X0116883Y0097935D01*
X0116784Y0097893D01*
X0116684Y0097854D01*
X0116582Y0097819D01*
X0116479Y0097787D01*
X0116375Y0097760D01*
X0116269Y0097736D01*
X0116164Y0097716D01*
X0116057Y0097700D01*
X0115950Y0097688D01*
X0115843Y0097680D01*
X0115735Y0097676D01*
X0115627Y0097676D01*
X0115519Y0097680D01*
X0115412Y0097688D01*
X0115305Y0097700D01*
X0115198Y0097716D01*
X0115093Y0097736D01*
X0114987Y0097760D01*
X0114883Y0097787D01*
X0114780Y0097819D01*
X0114678Y0097854D01*
X0114578Y0097893D01*
X0114479Y0097935D01*
X0114382Y0097982D01*
X0114286Y0098031D01*
X0114193Y0098085D01*
X0114101Y0098141D01*
X0114011Y0098201D01*
X0113924Y0098265D01*
X0113840Y0098331D01*
X0113757Y0098401D01*
X0113678Y0098473D01*
X0113601Y0098549D01*
X0113527Y0098627D01*
X0113456Y0098708D01*
X0113388Y0098792D01*
X0113323Y0098878D01*
X0113261Y0098966D01*
X0113203Y0099056D01*
X0113148Y0099149D01*
X0113096Y0099244D01*
X0113048Y0099340D01*
X0113004Y0099438D01*
X0112963Y0099538D01*
X0112926Y0099639D01*
X0112892Y0099742D01*
X0112863Y0099845D01*
X0112837Y0099950D01*
X0112816Y0100055D01*
X0112798Y0100162D01*
X0112784Y0100268D01*
X0112774Y0100376D01*
X0112768Y0100483D01*
X0112766Y0100591D01*
X0099756Y0100591D02*
X0099256Y0101091D01*
X0098756Y0100591D01*
X0099256Y0100091D01*
X0099756Y0100591D01*
X0098756Y0100591D01*
X0098549Y0100591D02*
X0098551Y0100644D01*
X0098557Y0100696D01*
X0098567Y0100748D01*
X0098580Y0100799D01*
X0098598Y0100849D01*
X0098619Y0100898D01*
X0098644Y0100945D01*
X0098672Y0100989D01*
X0098703Y0101032D01*
X0098738Y0101072D01*
X0098775Y0101109D01*
X0098815Y0101144D01*
X0098858Y0101175D01*
X0098903Y0101203D01*
X0098949Y0101228D01*
X0098998Y0101249D01*
X0099048Y0101267D01*
X0099099Y0101280D01*
X0099151Y0101290D01*
X0099203Y0101296D01*
X0099256Y0101298D01*
X0099309Y0101296D01*
X0099361Y0101290D01*
X0099413Y0101280D01*
X0099464Y0101267D01*
X0099514Y0101249D01*
X0099563Y0101228D01*
X0099610Y0101203D01*
X0099654Y0101175D01*
X0099697Y0101144D01*
X0099737Y0101109D01*
X0099774Y0101072D01*
X0099809Y0101032D01*
X0099840Y0100989D01*
X0099868Y0100944D01*
X0099893Y0100898D01*
X0099914Y0100849D01*
X0099932Y0100799D01*
X0099945Y0100748D01*
X0099955Y0100696D01*
X0099961Y0100644D01*
X0099963Y0100591D01*
X0099961Y0100538D01*
X0099955Y0100486D01*
X0099945Y0100434D01*
X0099932Y0100383D01*
X0099914Y0100333D01*
X0099893Y0100284D01*
X0099868Y0100237D01*
X0099840Y0100193D01*
X0099809Y0100150D01*
X0099774Y0100110D01*
X0099737Y0100073D01*
X0099697Y0100038D01*
X0099654Y0100007D01*
X0099609Y0099979D01*
X0099563Y0099954D01*
X0099514Y0099933D01*
X0099464Y0099915D01*
X0099413Y0099902D01*
X0099361Y0099892D01*
X0099309Y0099886D01*
X0099256Y0099884D01*
X0099203Y0099886D01*
X0099151Y0099892D01*
X0099099Y0099902D01*
X0099048Y0099915D01*
X0098998Y0099933D01*
X0098949Y0099954D01*
X0098902Y0099979D01*
X0098858Y0100007D01*
X0098815Y0100038D01*
X0098775Y0100073D01*
X0098738Y0100110D01*
X0098703Y0100150D01*
X0098672Y0100193D01*
X0098644Y0100238D01*
X0098619Y0100284D01*
X0098598Y0100333D01*
X0098580Y0100383D01*
X0098567Y0100434D01*
X0098557Y0100486D01*
X0098551Y0100538D01*
X0098549Y0100591D01*
X0096563Y0100591D02*
X0096565Y0100694D01*
X0096571Y0100797D01*
X0096581Y0100900D01*
X0096595Y0101002D01*
X0096612Y0101104D01*
X0096634Y0101205D01*
X0096659Y0101305D01*
X0096689Y0101404D01*
X0096722Y0101501D01*
X0096758Y0101598D01*
X0096799Y0101693D01*
X0096843Y0101786D01*
X0096890Y0101877D01*
X0096941Y0101967D01*
X0096996Y0102055D01*
X0097053Y0102140D01*
X0097114Y0102224D01*
X0097178Y0102304D01*
X0097246Y0102383D01*
X0097316Y0102458D01*
X0097389Y0102531D01*
X0097464Y0102601D01*
X0097543Y0102669D01*
X0097623Y0102733D01*
X0097707Y0102794D01*
X0097792Y0102851D01*
X0097880Y0102906D01*
X0097970Y0102957D01*
X0098061Y0103004D01*
X0098154Y0103048D01*
X0098249Y0103089D01*
X0098346Y0103125D01*
X0098443Y0103158D01*
X0098542Y0103188D01*
X0098642Y0103213D01*
X0098743Y0103235D01*
X0098845Y0103252D01*
X0098947Y0103266D01*
X0099050Y0103276D01*
X0099153Y0103282D01*
X0099256Y0103284D01*
X0099359Y0103282D01*
X0099462Y0103276D01*
X0099565Y0103266D01*
X0099667Y0103252D01*
X0099769Y0103235D01*
X0099870Y0103213D01*
X0099970Y0103188D01*
X0100069Y0103158D01*
X0100166Y0103125D01*
X0100263Y0103089D01*
X0100358Y0103048D01*
X0100451Y0103004D01*
X0100542Y0102957D01*
X0100632Y0102906D01*
X0100720Y0102851D01*
X0100805Y0102794D01*
X0100889Y0102733D01*
X0100969Y0102669D01*
X0101048Y0102601D01*
X0101123Y0102531D01*
X0101196Y0102458D01*
X0101266Y0102383D01*
X0101334Y0102304D01*
X0101398Y0102224D01*
X0101459Y0102140D01*
X0101516Y0102055D01*
X0101571Y0101967D01*
X0101622Y0101877D01*
X0101669Y0101786D01*
X0101713Y0101693D01*
X0101754Y0101598D01*
X0101790Y0101501D01*
X0101823Y0101404D01*
X0101853Y0101305D01*
X0101878Y0101205D01*
X0101900Y0101104D01*
X0101917Y0101002D01*
X0101931Y0100900D01*
X0101941Y0100797D01*
X0101947Y0100694D01*
X0101949Y0100591D01*
X0101947Y0100488D01*
X0101941Y0100385D01*
X0101931Y0100282D01*
X0101917Y0100180D01*
X0101900Y0100078D01*
X0101878Y0099977D01*
X0101853Y0099877D01*
X0101823Y0099778D01*
X0101790Y0099681D01*
X0101754Y0099584D01*
X0101713Y0099489D01*
X0101669Y0099396D01*
X0101622Y0099305D01*
X0101571Y0099215D01*
X0101516Y0099127D01*
X0101459Y0099042D01*
X0101398Y0098958D01*
X0101334Y0098878D01*
X0101266Y0098799D01*
X0101196Y0098724D01*
X0101123Y0098651D01*
X0101048Y0098581D01*
X0100969Y0098513D01*
X0100889Y0098449D01*
X0100805Y0098388D01*
X0100720Y0098331D01*
X0100632Y0098276D01*
X0100542Y0098225D01*
X0100451Y0098178D01*
X0100358Y0098134D01*
X0100263Y0098093D01*
X0100166Y0098057D01*
X0100069Y0098024D01*
X0099970Y0097994D01*
X0099870Y0097969D01*
X0099769Y0097947D01*
X0099667Y0097930D01*
X0099565Y0097916D01*
X0099462Y0097906D01*
X0099359Y0097900D01*
X0099256Y0097898D01*
X0099153Y0097900D01*
X0099050Y0097906D01*
X0098947Y0097916D01*
X0098845Y0097930D01*
X0098743Y0097947D01*
X0098642Y0097969D01*
X0098542Y0097994D01*
X0098443Y0098024D01*
X0098346Y0098057D01*
X0098249Y0098093D01*
X0098154Y0098134D01*
X0098061Y0098178D01*
X0097970Y0098225D01*
X0097880Y0098276D01*
X0097792Y0098331D01*
X0097707Y0098388D01*
X0097623Y0098449D01*
X0097543Y0098513D01*
X0097464Y0098581D01*
X0097389Y0098651D01*
X0097316Y0098724D01*
X0097246Y0098799D01*
X0097178Y0098878D01*
X0097114Y0098958D01*
X0097053Y0099042D01*
X0096996Y0099127D01*
X0096941Y0099215D01*
X0096890Y0099305D01*
X0096843Y0099396D01*
X0096799Y0099489D01*
X0096758Y0099584D01*
X0096722Y0099681D01*
X0096689Y0099778D01*
X0096659Y0099877D01*
X0096634Y0099977D01*
X0096612Y0100078D01*
X0096595Y0100180D01*
X0096581Y0100282D01*
X0096571Y0100385D01*
X0096565Y0100488D01*
X0096563Y0100591D01*
X0096256Y0100591D02*
X0094756Y0099591D01*
X0096256Y0100591D02*
X0094756Y0101591D01*
X0096256Y0100591D02*
X0088256Y0100591D01*
X0087256Y0100591D02*
X0083256Y0100591D01*
X0082341Y0100591D02*
X0082343Y0100699D01*
X0082349Y0100806D01*
X0082359Y0100914D01*
X0082373Y0101020D01*
X0082391Y0101127D01*
X0082412Y0101232D01*
X0082438Y0101337D01*
X0082467Y0101440D01*
X0082501Y0101543D01*
X0082538Y0101644D01*
X0082579Y0101744D01*
X0082623Y0101842D01*
X0082671Y0101938D01*
X0082723Y0102033D01*
X0082778Y0102126D01*
X0082836Y0102216D01*
X0082898Y0102304D01*
X0082963Y0102390D01*
X0083031Y0102474D01*
X0083102Y0102555D01*
X0083176Y0102633D01*
X0083253Y0102709D01*
X0083332Y0102781D01*
X0083415Y0102851D01*
X0083499Y0102917D01*
X0083586Y0102981D01*
X0083676Y0103041D01*
X0083768Y0103097D01*
X0083861Y0103151D01*
X0083957Y0103200D01*
X0084054Y0103247D01*
X0084153Y0103289D01*
X0084253Y0103328D01*
X0084355Y0103363D01*
X0084458Y0103395D01*
X0084562Y0103422D01*
X0084668Y0103446D01*
X0084773Y0103466D01*
X0084880Y0103482D01*
X0084987Y0103494D01*
X0085094Y0103502D01*
X0085202Y0103506D01*
X0085310Y0103506D01*
X0085418Y0103502D01*
X0085525Y0103494D01*
X0085632Y0103482D01*
X0085739Y0103466D01*
X0085844Y0103446D01*
X0085950Y0103422D01*
X0086054Y0103395D01*
X0086157Y0103363D01*
X0086259Y0103328D01*
X0086359Y0103289D01*
X0086458Y0103247D01*
X0086555Y0103200D01*
X0086651Y0103151D01*
X0086744Y0103097D01*
X0086836Y0103041D01*
X0086926Y0102981D01*
X0087013Y0102917D01*
X0087097Y0102851D01*
X0087180Y0102781D01*
X0087259Y0102709D01*
X0087336Y0102633D01*
X0087410Y0102555D01*
X0087481Y0102474D01*
X0087549Y0102390D01*
X0087614Y0102304D01*
X0087676Y0102216D01*
X0087734Y0102126D01*
X0087789Y0102033D01*
X0087841Y0101938D01*
X0087889Y0101842D01*
X0087933Y0101744D01*
X0087974Y0101644D01*
X0088011Y0101543D01*
X0088045Y0101440D01*
X0088074Y0101337D01*
X0088100Y0101232D01*
X0088121Y0101127D01*
X0088139Y0101020D01*
X0088153Y0100914D01*
X0088163Y0100806D01*
X0088169Y0100699D01*
X0088171Y0100591D01*
X0088169Y0100483D01*
X0088163Y0100376D01*
X0088153Y0100268D01*
X0088139Y0100162D01*
X0088121Y0100055D01*
X0088100Y0099950D01*
X0088074Y0099845D01*
X0088045Y0099742D01*
X0088011Y0099639D01*
X0087974Y0099538D01*
X0087933Y0099438D01*
X0087889Y0099340D01*
X0087841Y0099244D01*
X0087789Y0099149D01*
X0087734Y0099056D01*
X0087676Y0098966D01*
X0087614Y0098878D01*
X0087549Y0098792D01*
X0087481Y0098708D01*
X0087410Y0098627D01*
X0087336Y0098549D01*
X0087259Y0098473D01*
X0087180Y0098401D01*
X0087097Y0098331D01*
X0087013Y0098265D01*
X0086926Y0098201D01*
X0086836Y0098141D01*
X0086744Y0098085D01*
X0086651Y0098031D01*
X0086555Y0097982D01*
X0086458Y0097935D01*
X0086359Y0097893D01*
X0086259Y0097854D01*
X0086157Y0097819D01*
X0086054Y0097787D01*
X0085950Y0097760D01*
X0085844Y0097736D01*
X0085739Y0097716D01*
X0085632Y0097700D01*
X0085525Y0097688D01*
X0085418Y0097680D01*
X0085310Y0097676D01*
X0085202Y0097676D01*
X0085094Y0097680D01*
X0084987Y0097688D01*
X0084880Y0097700D01*
X0084773Y0097716D01*
X0084668Y0097736D01*
X0084562Y0097760D01*
X0084458Y0097787D01*
X0084355Y0097819D01*
X0084253Y0097854D01*
X0084153Y0097893D01*
X0084054Y0097935D01*
X0083957Y0097982D01*
X0083861Y0098031D01*
X0083768Y0098085D01*
X0083676Y0098141D01*
X0083586Y0098201D01*
X0083499Y0098265D01*
X0083415Y0098331D01*
X0083332Y0098401D01*
X0083253Y0098473D01*
X0083176Y0098549D01*
X0083102Y0098627D01*
X0083031Y0098708D01*
X0082963Y0098792D01*
X0082898Y0098878D01*
X0082836Y0098966D01*
X0082778Y0099056D01*
X0082723Y0099149D01*
X0082671Y0099244D01*
X0082623Y0099340D01*
X0082579Y0099438D01*
X0082538Y0099538D01*
X0082501Y0099639D01*
X0082467Y0099742D01*
X0082438Y0099845D01*
X0082412Y0099950D01*
X0082391Y0100055D01*
X0082373Y0100162D01*
X0082359Y0100268D01*
X0082349Y0100376D01*
X0082343Y0100483D01*
X0082341Y0100591D01*
X0082343Y0100699D01*
X0082349Y0100806D01*
X0082359Y0100914D01*
X0082373Y0101020D01*
X0082391Y0101127D01*
X0082412Y0101232D01*
X0082438Y0101337D01*
X0082467Y0101440D01*
X0082501Y0101543D01*
X0082538Y0101644D01*
X0082579Y0101744D01*
X0082623Y0101842D01*
X0082671Y0101938D01*
X0082723Y0102033D01*
X0082778Y0102126D01*
X0082836Y0102216D01*
X0082898Y0102304D01*
X0082963Y0102390D01*
X0083031Y0102474D01*
X0083102Y0102555D01*
X0083176Y0102633D01*
X0083253Y0102709D01*
X0083332Y0102781D01*
X0083415Y0102851D01*
X0083499Y0102917D01*
X0083586Y0102981D01*
X0083676Y0103041D01*
X0083768Y0103097D01*
X0083861Y0103151D01*
X0083957Y0103200D01*
X0084054Y0103247D01*
X0084153Y0103289D01*
X0084253Y0103328D01*
X0084355Y0103363D01*
X0084458Y0103395D01*
X0084562Y0103422D01*
X0084668Y0103446D01*
X0084773Y0103466D01*
X0084880Y0103482D01*
X0084987Y0103494D01*
X0085094Y0103502D01*
X0085202Y0103506D01*
X0085310Y0103506D01*
X0085418Y0103502D01*
X0085525Y0103494D01*
X0085632Y0103482D01*
X0085739Y0103466D01*
X0085844Y0103446D01*
X0085950Y0103422D01*
X0086054Y0103395D01*
X0086157Y0103363D01*
X0086259Y0103328D01*
X0086359Y0103289D01*
X0086458Y0103247D01*
X0086555Y0103200D01*
X0086651Y0103151D01*
X0086744Y0103097D01*
X0086836Y0103041D01*
X0086926Y0102981D01*
X0087013Y0102917D01*
X0087097Y0102851D01*
X0087180Y0102781D01*
X0087259Y0102709D01*
X0087336Y0102633D01*
X0087410Y0102555D01*
X0087481Y0102474D01*
X0087549Y0102390D01*
X0087614Y0102304D01*
X0087676Y0102216D01*
X0087734Y0102126D01*
X0087789Y0102033D01*
X0087841Y0101938D01*
X0087889Y0101842D01*
X0087933Y0101744D01*
X0087974Y0101644D01*
X0088011Y0101543D01*
X0088045Y0101440D01*
X0088074Y0101337D01*
X0088100Y0101232D01*
X0088121Y0101127D01*
X0088139Y0101020D01*
X0088153Y0100914D01*
X0088163Y0100806D01*
X0088169Y0100699D01*
X0088171Y0100591D01*
X0088169Y0100483D01*
X0088163Y0100376D01*
X0088153Y0100268D01*
X0088139Y0100162D01*
X0088121Y0100055D01*
X0088100Y0099950D01*
X0088074Y0099845D01*
X0088045Y0099742D01*
X0088011Y0099639D01*
X0087974Y0099538D01*
X0087933Y0099438D01*
X0087889Y0099340D01*
X0087841Y0099244D01*
X0087789Y0099149D01*
X0087734Y0099056D01*
X0087676Y0098966D01*
X0087614Y0098878D01*
X0087549Y0098792D01*
X0087481Y0098708D01*
X0087410Y0098627D01*
X0087336Y0098549D01*
X0087259Y0098473D01*
X0087180Y0098401D01*
X0087097Y0098331D01*
X0087013Y0098265D01*
X0086926Y0098201D01*
X0086836Y0098141D01*
X0086744Y0098085D01*
X0086651Y0098031D01*
X0086555Y0097982D01*
X0086458Y0097935D01*
X0086359Y0097893D01*
X0086259Y0097854D01*
X0086157Y0097819D01*
X0086054Y0097787D01*
X0085950Y0097760D01*
X0085844Y0097736D01*
X0085739Y0097716D01*
X0085632Y0097700D01*
X0085525Y0097688D01*
X0085418Y0097680D01*
X0085310Y0097676D01*
X0085202Y0097676D01*
X0085094Y0097680D01*
X0084987Y0097688D01*
X0084880Y0097700D01*
X0084773Y0097716D01*
X0084668Y0097736D01*
X0084562Y0097760D01*
X0084458Y0097787D01*
X0084355Y0097819D01*
X0084253Y0097854D01*
X0084153Y0097893D01*
X0084054Y0097935D01*
X0083957Y0097982D01*
X0083861Y0098031D01*
X0083768Y0098085D01*
X0083676Y0098141D01*
X0083586Y0098201D01*
X0083499Y0098265D01*
X0083415Y0098331D01*
X0083332Y0098401D01*
X0083253Y0098473D01*
X0083176Y0098549D01*
X0083102Y0098627D01*
X0083031Y0098708D01*
X0082963Y0098792D01*
X0082898Y0098878D01*
X0082836Y0098966D01*
X0082778Y0099056D01*
X0082723Y0099149D01*
X0082671Y0099244D01*
X0082623Y0099340D01*
X0082579Y0099438D01*
X0082538Y0099538D01*
X0082501Y0099639D01*
X0082467Y0099742D01*
X0082438Y0099845D01*
X0082412Y0099950D01*
X0082391Y0100055D01*
X0082373Y0100162D01*
X0082359Y0100268D01*
X0082349Y0100376D01*
X0082343Y0100483D01*
X0082341Y0100591D01*
X0085256Y0098591D02*
X0085256Y0102591D01*
X0098549Y0100591D02*
X0098551Y0100644D01*
X0098557Y0100696D01*
X0098567Y0100748D01*
X0098580Y0100799D01*
X0098598Y0100849D01*
X0098619Y0100898D01*
X0098644Y0100945D01*
X0098672Y0100989D01*
X0098703Y0101032D01*
X0098738Y0101072D01*
X0098775Y0101109D01*
X0098815Y0101144D01*
X0098858Y0101175D01*
X0098903Y0101203D01*
X0098949Y0101228D01*
X0098998Y0101249D01*
X0099048Y0101267D01*
X0099099Y0101280D01*
X0099151Y0101290D01*
X0099203Y0101296D01*
X0099256Y0101298D01*
X0099309Y0101296D01*
X0099361Y0101290D01*
X0099413Y0101280D01*
X0099464Y0101267D01*
X0099514Y0101249D01*
X0099563Y0101228D01*
X0099610Y0101203D01*
X0099654Y0101175D01*
X0099697Y0101144D01*
X0099737Y0101109D01*
X0099774Y0101072D01*
X0099809Y0101032D01*
X0099840Y0100989D01*
X0099868Y0100944D01*
X0099893Y0100898D01*
X0099914Y0100849D01*
X0099932Y0100799D01*
X0099945Y0100748D01*
X0099955Y0100696D01*
X0099961Y0100644D01*
X0099963Y0100591D01*
X0099961Y0100538D01*
X0099955Y0100486D01*
X0099945Y0100434D01*
X0099932Y0100383D01*
X0099914Y0100333D01*
X0099893Y0100284D01*
X0099868Y0100237D01*
X0099840Y0100193D01*
X0099809Y0100150D01*
X0099774Y0100110D01*
X0099737Y0100073D01*
X0099697Y0100038D01*
X0099654Y0100007D01*
X0099609Y0099979D01*
X0099563Y0099954D01*
X0099514Y0099933D01*
X0099464Y0099915D01*
X0099413Y0099902D01*
X0099361Y0099892D01*
X0099309Y0099886D01*
X0099256Y0099884D01*
X0099203Y0099886D01*
X0099151Y0099892D01*
X0099099Y0099902D01*
X0099048Y0099915D01*
X0098998Y0099933D01*
X0098949Y0099954D01*
X0098902Y0099979D01*
X0098858Y0100007D01*
X0098815Y0100038D01*
X0098775Y0100073D01*
X0098738Y0100110D01*
X0098703Y0100150D01*
X0098672Y0100193D01*
X0098644Y0100238D01*
X0098619Y0100284D01*
X0098598Y0100333D01*
X0098580Y0100383D01*
X0098567Y0100434D01*
X0098557Y0100486D01*
X0098551Y0100538D01*
X0098549Y0100591D01*
X0096563Y0100591D02*
X0096565Y0100694D01*
X0096571Y0100797D01*
X0096581Y0100900D01*
X0096595Y0101002D01*
X0096612Y0101104D01*
X0096634Y0101205D01*
X0096659Y0101305D01*
X0096689Y0101404D01*
X0096722Y0101501D01*
X0096758Y0101598D01*
X0096799Y0101693D01*
X0096843Y0101786D01*
X0096890Y0101877D01*
X0096941Y0101967D01*
X0096996Y0102055D01*
X0097053Y0102140D01*
X0097114Y0102224D01*
X0097178Y0102304D01*
X0097246Y0102383D01*
X0097316Y0102458D01*
X0097389Y0102531D01*
X0097464Y0102601D01*
X0097543Y0102669D01*
X0097623Y0102733D01*
X0097707Y0102794D01*
X0097792Y0102851D01*
X0097880Y0102906D01*
X0097970Y0102957D01*
X0098061Y0103004D01*
X0098154Y0103048D01*
X0098249Y0103089D01*
X0098346Y0103125D01*
X0098443Y0103158D01*
X0098542Y0103188D01*
X0098642Y0103213D01*
X0098743Y0103235D01*
X0098845Y0103252D01*
X0098947Y0103266D01*
X0099050Y0103276D01*
X0099153Y0103282D01*
X0099256Y0103284D01*
X0099359Y0103282D01*
X0099462Y0103276D01*
X0099565Y0103266D01*
X0099667Y0103252D01*
X0099769Y0103235D01*
X0099870Y0103213D01*
X0099970Y0103188D01*
X0100069Y0103158D01*
X0100166Y0103125D01*
X0100263Y0103089D01*
X0100358Y0103048D01*
X0100451Y0103004D01*
X0100542Y0102957D01*
X0100632Y0102906D01*
X0100720Y0102851D01*
X0100805Y0102794D01*
X0100889Y0102733D01*
X0100969Y0102669D01*
X0101048Y0102601D01*
X0101123Y0102531D01*
X0101196Y0102458D01*
X0101266Y0102383D01*
X0101334Y0102304D01*
X0101398Y0102224D01*
X0101459Y0102140D01*
X0101516Y0102055D01*
X0101571Y0101967D01*
X0101622Y0101877D01*
X0101669Y0101786D01*
X0101713Y0101693D01*
X0101754Y0101598D01*
X0101790Y0101501D01*
X0101823Y0101404D01*
X0101853Y0101305D01*
X0101878Y0101205D01*
X0101900Y0101104D01*
X0101917Y0101002D01*
X0101931Y0100900D01*
X0101941Y0100797D01*
X0101947Y0100694D01*
X0101949Y0100591D01*
X0101947Y0100488D01*
X0101941Y0100385D01*
X0101931Y0100282D01*
X0101917Y0100180D01*
X0101900Y0100078D01*
X0101878Y0099977D01*
X0101853Y0099877D01*
X0101823Y0099778D01*
X0101790Y0099681D01*
X0101754Y0099584D01*
X0101713Y0099489D01*
X0101669Y0099396D01*
X0101622Y0099305D01*
X0101571Y0099215D01*
X0101516Y0099127D01*
X0101459Y0099042D01*
X0101398Y0098958D01*
X0101334Y0098878D01*
X0101266Y0098799D01*
X0101196Y0098724D01*
X0101123Y0098651D01*
X0101048Y0098581D01*
X0100969Y0098513D01*
X0100889Y0098449D01*
X0100805Y0098388D01*
X0100720Y0098331D01*
X0100632Y0098276D01*
X0100542Y0098225D01*
X0100451Y0098178D01*
X0100358Y0098134D01*
X0100263Y0098093D01*
X0100166Y0098057D01*
X0100069Y0098024D01*
X0099970Y0097994D01*
X0099870Y0097969D01*
X0099769Y0097947D01*
X0099667Y0097930D01*
X0099565Y0097916D01*
X0099462Y0097906D01*
X0099359Y0097900D01*
X0099256Y0097898D01*
X0099153Y0097900D01*
X0099050Y0097906D01*
X0098947Y0097916D01*
X0098845Y0097930D01*
X0098743Y0097947D01*
X0098642Y0097969D01*
X0098542Y0097994D01*
X0098443Y0098024D01*
X0098346Y0098057D01*
X0098249Y0098093D01*
X0098154Y0098134D01*
X0098061Y0098178D01*
X0097970Y0098225D01*
X0097880Y0098276D01*
X0097792Y0098331D01*
X0097707Y0098388D01*
X0097623Y0098449D01*
X0097543Y0098513D01*
X0097464Y0098581D01*
X0097389Y0098651D01*
X0097316Y0098724D01*
X0097246Y0098799D01*
X0097178Y0098878D01*
X0097114Y0098958D01*
X0097053Y0099042D01*
X0096996Y0099127D01*
X0096941Y0099215D01*
X0096890Y0099305D01*
X0096843Y0099396D01*
X0096799Y0099489D01*
X0096758Y0099584D01*
X0096722Y0099681D01*
X0096689Y0099778D01*
X0096659Y0099877D01*
X0096634Y0099977D01*
X0096612Y0100078D01*
X0096595Y0100180D01*
X0096581Y0100282D01*
X0096571Y0100385D01*
X0096565Y0100488D01*
X0096563Y0100591D01*
X0095256Y0096591D02*
X0095363Y0096486D01*
X0095473Y0096385D01*
X0095586Y0096286D01*
X0095701Y0096190D01*
X0095819Y0096098D01*
X0095939Y0096009D01*
X0096061Y0095922D01*
X0096186Y0095839D01*
X0096313Y0095760D01*
X0096442Y0095684D01*
X0096573Y0095611D01*
X0096706Y0095542D01*
X0096840Y0095476D01*
X0096976Y0095414D01*
X0097114Y0095355D01*
X0097254Y0095300D01*
X0097394Y0095249D01*
X0097536Y0095202D01*
X0097680Y0095158D01*
X0097824Y0095118D01*
X0097969Y0095082D01*
X0098116Y0095050D01*
X0098263Y0095022D01*
X0098411Y0094998D01*
X0098559Y0094977D01*
X0098708Y0094961D01*
X0098857Y0094948D01*
X0099006Y0094940D01*
X0099156Y0094935D01*
X0099306Y0094934D01*
X0099456Y0094938D01*
X0099605Y0094945D01*
X0099755Y0094956D01*
X0099904Y0094971D01*
X0100052Y0094990D01*
X0100200Y0095013D01*
X0100347Y0095040D01*
X0100494Y0095071D01*
X0100640Y0095106D01*
X0100784Y0095144D01*
X0100928Y0095187D01*
X0101070Y0095233D01*
X0101212Y0095283D01*
X0101351Y0095336D01*
X0101490Y0095394D01*
X0101627Y0095455D01*
X0101762Y0095519D01*
X0101895Y0095587D01*
X0102027Y0095659D01*
X0102156Y0095734D01*
X0102284Y0095812D01*
X0102409Y0095894D01*
X0102532Y0095979D01*
X0102653Y0096068D01*
X0102772Y0096159D01*
X0102888Y0096254D01*
X0103002Y0096352D01*
X0103112Y0096452D01*
X0103221Y0096556D01*
X0103326Y0096662D01*
X0103429Y0096771D01*
X0103528Y0096883D01*
X0103625Y0096997D01*
X0103719Y0097114D01*
X0103809Y0097234D01*
X0103896Y0097355D01*
X0103980Y0097479D01*
X0104061Y0097605D01*
X0104138Y0097734D01*
X0104212Y0097864D01*
X0104283Y0097996D01*
X0104350Y0098130D01*
X0104413Y0098266D01*
X0104473Y0098403D01*
X0104529Y0098542D01*
X0104581Y0098682D01*
X0104630Y0098824D01*
X0104675Y0098967D01*
X0104716Y0099111D01*
X0104753Y0099256D01*
X0104787Y0099402D01*
X0104816Y0099549D01*
X0104842Y0099696D01*
X0104864Y0099844D01*
X0104881Y0099993D01*
X0104895Y0100142D01*
X0104905Y0100292D01*
X0104911Y0100441D01*
X0104913Y0100591D01*
X0104911Y0100741D01*
X0104905Y0100890D01*
X0104895Y0101040D01*
X0104881Y0101189D01*
X0104864Y0101338D01*
X0104842Y0101486D01*
X0104816Y0101633D01*
X0104787Y0101780D01*
X0104753Y0101926D01*
X0104716Y0102071D01*
X0104675Y0102215D01*
X0104630Y0102358D01*
X0104581Y0102500D01*
X0104529Y0102640D01*
X0104473Y0102779D01*
X0104413Y0102916D01*
X0104350Y0103052D01*
X0104283Y0103186D01*
X0104212Y0103318D01*
X0104138Y0103448D01*
X0104061Y0103577D01*
X0103980Y0103703D01*
X0103896Y0103827D01*
X0103809Y0103948D01*
X0103719Y0104068D01*
X0103625Y0104185D01*
X0103528Y0104299D01*
X0103429Y0104411D01*
X0103326Y0104520D01*
X0103221Y0104626D01*
X0103112Y0104730D01*
X0103002Y0104830D01*
X0102888Y0104928D01*
X0102772Y0105023D01*
X0102653Y0105114D01*
X0102532Y0105203D01*
X0102409Y0105288D01*
X0102284Y0105370D01*
X0102156Y0105448D01*
X0102027Y0105523D01*
X0101895Y0105595D01*
X0101762Y0105663D01*
X0101627Y0105727D01*
X0101490Y0105788D01*
X0101351Y0105846D01*
X0101212Y0105899D01*
X0101070Y0105949D01*
X0100928Y0105995D01*
X0100784Y0106038D01*
X0100640Y0106076D01*
X0100494Y0106111D01*
X0100347Y0106142D01*
X0100200Y0106169D01*
X0100052Y0106192D01*
X0099904Y0106211D01*
X0099755Y0106226D01*
X0099605Y0106237D01*
X0099456Y0106244D01*
X0099306Y0106248D01*
X0099156Y0106247D01*
X0099006Y0106242D01*
X0098857Y0106234D01*
X0098708Y0106221D01*
X0098559Y0106205D01*
X0098411Y0106184D01*
X0098263Y0106160D01*
X0098116Y0106132D01*
X0097969Y0106100D01*
X0097824Y0106064D01*
X0097680Y0106024D01*
X0097536Y0105980D01*
X0097394Y0105933D01*
X0097254Y0105882D01*
X0097114Y0105827D01*
X0096976Y0105768D01*
X0096840Y0105706D01*
X0096706Y0105640D01*
X0096573Y0105571D01*
X0096442Y0105498D01*
X0096313Y0105422D01*
X0096186Y0105343D01*
X0096061Y0105260D01*
X0095939Y0105173D01*
X0095819Y0105084D01*
X0095701Y0104992D01*
X0095586Y0104896D01*
X0095473Y0104797D01*
X0095363Y0104696D01*
X0095256Y0104591D01*
X0095363Y0104696D01*
X0095473Y0104797D01*
X0095586Y0104896D01*
X0095701Y0104992D01*
X0095819Y0105084D01*
X0095939Y0105173D01*
X0096061Y0105260D01*
X0096186Y0105343D01*
X0096313Y0105422D01*
X0096442Y0105498D01*
X0096573Y0105571D01*
X0096706Y0105640D01*
X0096840Y0105706D01*
X0096976Y0105768D01*
X0097114Y0105827D01*
X0097254Y0105882D01*
X0097394Y0105933D01*
X0097536Y0105980D01*
X0097680Y0106024D01*
X0097824Y0106064D01*
X0097969Y0106100D01*
X0098116Y0106132D01*
X0098263Y0106160D01*
X0098411Y0106184D01*
X0098559Y0106205D01*
X0098708Y0106221D01*
X0098857Y0106234D01*
X0099006Y0106242D01*
X0099156Y0106247D01*
X0099306Y0106248D01*
X0099456Y0106244D01*
X0099605Y0106237D01*
X0099755Y0106226D01*
X0099904Y0106211D01*
X0100052Y0106192D01*
X0100200Y0106169D01*
X0100347Y0106142D01*
X0100494Y0106111D01*
X0100640Y0106076D01*
X0100784Y0106038D01*
X0100928Y0105995D01*
X0101070Y0105949D01*
X0101212Y0105899D01*
X0101351Y0105846D01*
X0101490Y0105788D01*
X0101627Y0105727D01*
X0101762Y0105663D01*
X0101895Y0105595D01*
X0102027Y0105523D01*
X0102156Y0105448D01*
X0102284Y0105370D01*
X0102409Y0105288D01*
X0102532Y0105203D01*
X0102653Y0105114D01*
X0102772Y0105023D01*
X0102888Y0104928D01*
X0103002Y0104830D01*
X0103112Y0104730D01*
X0103221Y0104626D01*
X0103326Y0104520D01*
X0103429Y0104411D01*
X0103528Y0104299D01*
X0103625Y0104185D01*
X0103719Y0104068D01*
X0103809Y0103948D01*
X0103896Y0103827D01*
X0103980Y0103703D01*
X0104061Y0103577D01*
X0104138Y0103448D01*
X0104212Y0103318D01*
X0104283Y0103186D01*
X0104350Y0103052D01*
X0104413Y0102916D01*
X0104473Y0102779D01*
X0104529Y0102640D01*
X0104581Y0102500D01*
X0104630Y0102358D01*
X0104675Y0102215D01*
X0104716Y0102071D01*
X0104753Y0101926D01*
X0104787Y0101780D01*
X0104816Y0101633D01*
X0104842Y0101486D01*
X0104864Y0101338D01*
X0104881Y0101189D01*
X0104895Y0101040D01*
X0104905Y0100890D01*
X0104911Y0100741D01*
X0104913Y0100591D01*
X0104911Y0100441D01*
X0104905Y0100292D01*
X0104895Y0100142D01*
X0104881Y0099993D01*
X0104864Y0099844D01*
X0104842Y0099696D01*
X0104816Y0099549D01*
X0104787Y0099402D01*
X0104753Y0099256D01*
X0104716Y0099111D01*
X0104675Y0098967D01*
X0104630Y0098824D01*
X0104581Y0098682D01*
X0104529Y0098542D01*
X0104473Y0098403D01*
X0104413Y0098266D01*
X0104350Y0098130D01*
X0104283Y0097996D01*
X0104212Y0097864D01*
X0104138Y0097734D01*
X0104061Y0097605D01*
X0103980Y0097479D01*
X0103896Y0097355D01*
X0103809Y0097234D01*
X0103719Y0097114D01*
X0103625Y0096997D01*
X0103528Y0096883D01*
X0103429Y0096771D01*
X0103326Y0096662D01*
X0103221Y0096556D01*
X0103112Y0096452D01*
X0103002Y0096352D01*
X0102888Y0096254D01*
X0102772Y0096159D01*
X0102653Y0096068D01*
X0102532Y0095979D01*
X0102409Y0095894D01*
X0102284Y0095812D01*
X0102156Y0095734D01*
X0102027Y0095659D01*
X0101895Y0095587D01*
X0101762Y0095519D01*
X0101627Y0095455D01*
X0101490Y0095394D01*
X0101351Y0095336D01*
X0101212Y0095283D01*
X0101070Y0095233D01*
X0100928Y0095187D01*
X0100784Y0095144D01*
X0100640Y0095106D01*
X0100494Y0095071D01*
X0100347Y0095040D01*
X0100200Y0095013D01*
X0100052Y0094990D01*
X0099904Y0094971D01*
X0099755Y0094956D01*
X0099605Y0094945D01*
X0099456Y0094938D01*
X0099306Y0094934D01*
X0099156Y0094935D01*
X0099006Y0094940D01*
X0098857Y0094948D01*
X0098708Y0094961D01*
X0098559Y0094977D01*
X0098411Y0094998D01*
X0098263Y0095022D01*
X0098116Y0095050D01*
X0097969Y0095082D01*
X0097824Y0095118D01*
X0097680Y0095158D01*
X0097536Y0095202D01*
X0097394Y0095249D01*
X0097254Y0095300D01*
X0097114Y0095355D01*
X0096976Y0095414D01*
X0096840Y0095476D01*
X0096706Y0095542D01*
X0096573Y0095611D01*
X0096442Y0095684D01*
X0096313Y0095760D01*
X0096186Y0095839D01*
X0096061Y0095922D01*
X0095939Y0096009D01*
X0095819Y0096098D01*
X0095701Y0096190D01*
X0095586Y0096286D01*
X0095473Y0096385D01*
X0095363Y0096486D01*
X0095256Y0096591D01*
M02*
