G75*
%MOIN*%
%OFA0B0*%
%FSLAX25Y25*%
%IPPOS*%
%LPD*%
%AMOC8*
5,1,8,0,0,1.08239X$1,22.5*
%
%ADD10C,0.00000*%
%ADD11C,0.01000*%
%ADD12C,0.00984*%
%ADD13C,0.00300*%
%ADD14R,0.25605X0.00045*%
%ADD15R,0.25920X0.00045*%
%ADD16R,0.26145X0.00045*%
%ADD17R,0.26280X0.00045*%
%ADD18R,0.26460X0.00045*%
%ADD19R,0.26550X0.00045*%
%ADD20R,0.26640X0.00045*%
%ADD21R,0.26730X0.00045*%
%ADD22R,0.26820X0.00045*%
%ADD23R,0.26910X0.00045*%
%ADD24R,0.26955X0.00045*%
%ADD25R,0.27000X0.00045*%
%ADD26R,0.27090X0.00045*%
%ADD27R,0.27135X0.00045*%
%ADD28R,0.27180X0.00045*%
%ADD29R,0.27225X0.00045*%
%ADD30R,0.27270X0.00045*%
%ADD31R,0.27270X0.00045*%
%ADD32R,0.27315X0.00045*%
%ADD33R,0.27360X0.00045*%
%ADD34R,0.27360X0.00045*%
%ADD35R,0.27405X0.00045*%
%ADD36R,0.27405X0.00045*%
%ADD37R,0.27450X0.00045*%
%ADD38R,0.27450X0.00045*%
%ADD39R,0.27540X0.00045*%
%ADD40R,0.27495X0.00045*%
%ADD41R,0.27495X0.00045*%
%ADD42R,0.27540X0.00045*%
%ADD43R,0.27585X0.00045*%
%ADD44R,0.27630X0.00045*%
%ADD45R,0.27585X0.00045*%
%ADD46R,0.27630X0.00045*%
%ADD47R,0.27675X0.00045*%
%ADD48R,0.27675X0.00045*%
%ADD49R,0.14355X0.00045*%
%ADD50R,0.13185X0.00045*%
%ADD51R,0.14310X0.00045*%
%ADD52R,0.13185X0.00045*%
%ADD53R,0.11430X0.00045*%
%ADD54R,0.00045X0.00045*%
%ADD55R,0.00045X0.00045*%
%ADD56R,0.01035X0.00045*%
%ADD57R,0.00945X0.00045*%
%ADD58R,0.00945X0.00045*%
%ADD59R,0.10260X0.00045*%
%ADD60R,0.11385X0.00045*%
%ADD61R,0.00855X0.00045*%
%ADD62R,0.10170X0.00045*%
%ADD63R,0.11385X0.00045*%
%ADD64R,0.00810X0.00045*%
%ADD65R,0.00855X0.00045*%
%ADD66R,0.10170X0.00045*%
%ADD67R,0.00765X0.00045*%
%ADD68R,0.00810X0.00045*%
%ADD69R,0.00765X0.00045*%
%ADD70R,0.10215X0.00045*%
%ADD71R,0.00720X0.00045*%
%ADD72R,0.00720X0.00045*%
%ADD73R,0.00675X0.00045*%
%ADD74R,0.00675X0.00045*%
%ADD75R,0.00630X0.00045*%
%ADD76R,0.00630X0.00045*%
%ADD77R,0.10215X0.00045*%
%ADD78R,0.00585X0.00045*%
%ADD79R,0.00585X0.00045*%
%ADD80R,0.00540X0.00045*%
%ADD81R,0.00540X0.00045*%
%ADD82R,0.00495X0.00045*%
%ADD83R,0.00450X0.00045*%
%ADD84R,0.00495X0.00045*%
%ADD85R,0.11430X0.00045*%
%ADD86R,0.00450X0.00045*%
%ADD87R,0.00405X0.00045*%
%ADD88R,0.10260X0.00045*%
%ADD89R,0.11475X0.00045*%
%ADD90R,0.00405X0.00045*%
%ADD91R,0.04545X0.00045*%
%ADD92R,0.04770X0.00045*%
%ADD93R,0.11475X0.00045*%
%ADD94R,0.00360X0.00045*%
%ADD95R,0.04275X0.00045*%
%ADD96R,0.04545X0.00045*%
%ADD97R,0.00360X0.00045*%
%ADD98R,0.04095X0.00045*%
%ADD99R,0.04320X0.00045*%
%ADD100R,0.00315X0.00045*%
%ADD101R,0.03915X0.00045*%
%ADD102R,0.04185X0.00045*%
%ADD103R,0.03420X0.00045*%
%ADD104R,0.02610X0.00045*%
%ADD105R,0.04365X0.00045*%
%ADD106R,0.00315X0.00045*%
%ADD107R,0.03780X0.00045*%
%ADD108R,0.04005X0.00045*%
%ADD109R,0.03330X0.00045*%
%ADD110R,0.03915X0.00045*%
%ADD111R,0.00270X0.00045*%
%ADD112R,0.03645X0.00045*%
%ADD113R,0.03285X0.00045*%
%ADD114R,0.03690X0.00045*%
%ADD115R,0.00270X0.00045*%
%ADD116R,0.03510X0.00045*%
%ADD117R,0.03780X0.00045*%
%ADD118R,0.03285X0.00045*%
%ADD119R,0.03555X0.00045*%
%ADD120R,0.00270X0.00045*%
%ADD121R,0.00225X0.00045*%
%ADD122R,0.03420X0.00045*%
%ADD123R,0.03690X0.00045*%
%ADD124R,0.03375X0.00045*%
%ADD125R,0.00225X0.00045*%
%ADD126R,0.03330X0.00045*%
%ADD127R,0.03600X0.00045*%
%ADD128R,0.03240X0.00045*%
%ADD129R,0.03510X0.00045*%
%ADD130R,0.03150X0.00045*%
%ADD131R,0.00180X0.00045*%
%ADD132R,0.03060X0.00045*%
%ADD133R,0.00180X0.00045*%
%ADD134R,0.02970X0.00045*%
%ADD135R,0.00135X0.00045*%
%ADD136R,0.03015X0.00045*%
%ADD137R,0.02880X0.00045*%
%ADD138R,0.00135X0.00045*%
%ADD139R,0.02970X0.00045*%
%ADD140R,0.03195X0.00045*%
%ADD141R,0.02790X0.00045*%
%ADD142R,0.00090X0.00045*%
%ADD143R,0.02880X0.00045*%
%ADD144R,0.02745X0.00045*%
%ADD145R,0.03060X0.00045*%
%ADD146R,0.02655X0.00045*%
%ADD147R,0.02745X0.00045*%
%ADD148R,0.02745X0.00045*%
%ADD149R,0.02520X0.00045*%
%ADD150R,0.02700X0.00045*%
%ADD151R,0.02970X0.00045*%
%ADD152R,0.02475X0.00045*%
%ADD153R,0.02430X0.00045*%
%ADD154R,0.02565X0.00045*%
%ADD155R,0.02340X0.00045*%
%ADD156R,0.02520X0.00045*%
%ADD157R,0.02790X0.00045*%
%ADD158R,0.03375X0.00045*%
%ADD159R,0.02295X0.00045*%
%ADD160R,0.02790X0.00045*%
%ADD161R,0.02295X0.00045*%
%ADD162R,0.02430X0.00045*%
%ADD163R,0.02205X0.00045*%
%ADD164R,0.02385X0.00045*%
%ADD165R,0.02700X0.00045*%
%ADD166R,0.02340X0.00045*%
%ADD167R,0.02115X0.00045*%
%ADD168R,0.02295X0.00045*%
%ADD169R,0.02160X0.00045*%
%ADD170R,0.02250X0.00045*%
%ADD171R,0.02025X0.00045*%
%ADD172R,0.02205X0.00045*%
%ADD173R,0.02565X0.00045*%
%ADD174R,0.02070X0.00045*%
%ADD175R,0.02520X0.00045*%
%ADD176R,0.01980X0.00045*%
%ADD177R,0.02115X0.00045*%
%ADD178R,0.01980X0.00045*%
%ADD179R,0.02070X0.00045*%
%ADD180R,0.02475X0.00045*%
%ADD181R,0.01890X0.00045*%
%ADD182R,0.01935X0.00045*%
%ADD183R,0.01845X0.00045*%
%ADD184R,0.01845X0.00045*%
%ADD185R,0.01935X0.00045*%
%ADD186R,0.02565X0.00045*%
%ADD187R,0.01755X0.00045*%
%ADD188R,0.02610X0.00045*%
%ADD189R,0.01800X0.00045*%
%ADD190R,0.02655X0.00045*%
%ADD191R,0.01710X0.00045*%
%ADD192R,0.01845X0.00045*%
%ADD193R,0.01710X0.00045*%
%ADD194R,0.01665X0.00045*%
%ADD195R,0.03420X0.00045*%
%ADD196R,0.01665X0.00045*%
%ADD197R,0.01620X0.00045*%
%ADD198R,0.01755X0.00045*%
%ADD199R,0.01620X0.00045*%
%ADD200R,0.02835X0.00045*%
%ADD201R,0.01575X0.00045*%
%ADD202R,0.01530X0.00045*%
%ADD203R,0.02925X0.00045*%
%ADD204R,0.03420X0.00045*%
%ADD205R,0.01530X0.00045*%
%ADD206R,0.02925X0.00045*%
%ADD207R,0.01485X0.00045*%
%ADD208R,0.01620X0.00045*%
%ADD209R,0.03465X0.00045*%
%ADD210R,0.01485X0.00045*%
%ADD211R,0.01575X0.00045*%
%ADD212R,0.03015X0.00045*%
%ADD213R,0.01440X0.00045*%
%ADD214R,0.03465X0.00045*%
%ADD215R,0.01395X0.00045*%
%ADD216R,0.03150X0.00045*%
%ADD217R,0.01395X0.00045*%
%ADD218R,0.03195X0.00045*%
%ADD219R,0.01350X0.00045*%
%ADD220R,0.01305X0.00045*%
%ADD221R,0.01305X0.00045*%
%ADD222R,0.01350X0.00045*%
%ADD223R,0.01260X0.00045*%
%ADD224R,0.01260X0.00045*%
%ADD225R,0.01215X0.00045*%
%ADD226R,0.00540X0.00045*%
%ADD227R,0.01215X0.00045*%
%ADD228R,0.03645X0.00045*%
%ADD229R,0.01170X0.00045*%
%ADD230R,0.00720X0.00045*%
%ADD231R,0.01170X0.00045*%
%ADD232R,0.03735X0.00045*%
%ADD233R,0.01125X0.00045*%
%ADD234R,0.00900X0.00045*%
%ADD235R,0.03825X0.00045*%
%ADD236R,0.01080X0.00045*%
%ADD237R,0.00990X0.00045*%
%ADD238R,0.03870X0.00045*%
%ADD239R,0.00990X0.00045*%
%ADD240R,0.01080X0.00045*%
%ADD241R,0.03870X0.00045*%
%ADD242R,0.03960X0.00045*%
%ADD243R,0.01125X0.00045*%
%ADD244R,0.01395X0.00045*%
%ADD245R,0.01170X0.00045*%
%ADD246R,0.04050X0.00045*%
%ADD247R,0.01035X0.00045*%
%ADD248R,0.05535X0.00045*%
%ADD249R,0.05535X0.00045*%
%ADD250R,0.01170X0.00045*%
%ADD251R,0.05580X0.00045*%
%ADD252R,0.05580X0.00045*%
%ADD253R,0.01440X0.00045*%
%ADD254R,0.05625X0.00045*%
%ADD255R,0.03555X0.00045*%
%ADD256R,0.05625X0.00045*%
%ADD257R,0.01620X0.00045*%
%ADD258R,0.05670X0.00045*%
%ADD259R,0.05670X0.00045*%
%ADD260R,0.01890X0.00045*%
%ADD261R,0.01890X0.00045*%
%ADD262R,0.02070X0.00045*%
%ADD263R,0.02160X0.00045*%
%ADD264R,0.04050X0.00045*%
%ADD265R,0.05490X0.00045*%
%ADD266R,0.04005X0.00045*%
%ADD267R,0.08415X0.00045*%
%ADD268R,0.03960X0.00045*%
%ADD269R,0.00720X0.00045*%
%ADD270R,0.08460X0.00045*%
%ADD271R,0.00540X0.00045*%
%ADD272R,0.08460X0.00045*%
%ADD273R,0.03870X0.00045*%
%ADD274R,0.00495X0.00045*%
%ADD275R,0.08505X0.00045*%
%ADD276R,0.03825X0.00045*%
%ADD277R,0.08505X0.00045*%
%ADD278R,0.08550X0.00045*%
%ADD279R,0.03735X0.00045*%
%ADD280R,0.08550X0.00045*%
%ADD281R,0.08595X0.00045*%
%ADD282R,0.08640X0.00045*%
%ADD283R,0.03600X0.00045*%
%ADD284R,0.08685X0.00045*%
%ADD285R,0.08685X0.00045*%
%ADD286R,0.08730X0.00045*%
%ADD287R,0.08775X0.00045*%
%ADD288R,0.08820X0.00045*%
%ADD289R,0.08820X0.00045*%
%ADD290R,0.08865X0.00045*%
%ADD291R,0.08910X0.00045*%
%ADD292R,0.08955X0.00045*%
%ADD293R,0.09000X0.00045*%
%ADD294R,0.09045X0.00045*%
%ADD295R,0.09045X0.00045*%
%ADD296R,0.09090X0.00045*%
%ADD297R,0.03240X0.00045*%
%ADD298R,0.09180X0.00045*%
%ADD299R,0.09225X0.00045*%
%ADD300R,0.09225X0.00045*%
%ADD301R,0.09315X0.00045*%
%ADD302R,0.09360X0.00045*%
%ADD303R,0.03105X0.00045*%
%ADD304R,0.09405X0.00045*%
%ADD305R,0.09495X0.00045*%
%ADD306R,0.09495X0.00045*%
%ADD307R,0.03015X0.00045*%
%ADD308R,0.09585X0.00045*%
%ADD309R,0.02970X0.00045*%
%ADD310R,0.09675X0.00045*%
%ADD311R,0.09675X0.00045*%
%ADD312R,0.09765X0.00045*%
%ADD313R,0.09855X0.00045*%
%ADD314R,0.09900X0.00045*%
%ADD315R,0.02835X0.00045*%
%ADD316R,0.09945X0.00045*%
%ADD317R,0.10035X0.00045*%
%ADD318R,0.10125X0.00045*%
%ADD319R,0.10305X0.00045*%
%ADD320R,0.10395X0.00045*%
%ADD321R,0.10485X0.00045*%
%ADD322R,0.10575X0.00045*%
%ADD323R,0.10665X0.00045*%
%ADD324R,0.02745X0.00045*%
%ADD325R,0.10755X0.00045*%
%ADD326R,0.10845X0.00045*%
%ADD327R,0.10935X0.00045*%
%ADD328R,0.11070X0.00045*%
%ADD329R,0.11205X0.00045*%
%ADD330R,0.11340X0.00045*%
%ADD331R,0.11565X0.00045*%
%ADD332R,0.11745X0.00045*%
%ADD333R,0.11880X0.00045*%
%ADD334R,0.12060X0.00045*%
%ADD335R,0.12240X0.00045*%
%ADD336R,0.12465X0.00045*%
%ADD337R,0.12645X0.00045*%
%ADD338R,0.12915X0.00045*%
%ADD339R,0.13545X0.00045*%
%ADD340R,0.03870X0.00045*%
%ADD341R,0.13905X0.00045*%
%ADD342R,0.14445X0.00045*%
%ADD343R,0.21690X0.00045*%
%ADD344R,0.04230X0.00045*%
%ADD345R,0.21780X0.00045*%
%ADD346R,0.04410X0.00045*%
%ADD347R,0.22050X0.00045*%
%ADD348R,0.04590X0.00045*%
%ADD349R,0.22230X0.00045*%
%ADD350R,0.04905X0.00045*%
%ADD351R,0.28305X0.00045*%
%ADD352R,0.28260X0.00045*%
%ADD353R,0.28305X0.00045*%
%ADD354R,0.28350X0.00045*%
%ADD355R,0.28350X0.00045*%
%ADD356R,0.28395X0.00045*%
%ADD357R,0.28395X0.00045*%
%ADD358R,0.28440X0.00045*%
%ADD359R,0.28440X0.00045*%
%ADD360R,0.28440X0.00045*%
%ADD361R,0.28485X0.00045*%
%ADD362R,0.28485X0.00045*%
%ADD363R,0.28530X0.00045*%
%ADD364R,0.28530X0.00045*%
%ADD365R,0.28575X0.00045*%
%ADD366R,0.28575X0.00045*%
%ADD367R,0.28620X0.00045*%
%ADD368R,0.28620X0.00045*%
%ADD369R,0.28665X0.00045*%
%ADD370R,0.28665X0.00045*%
%ADD371R,0.28620X0.00045*%
%ADD372R,0.28620X0.00045*%
%ADD373R,0.09540X0.00045*%
%ADD374R,0.09360X0.00045*%
%ADD375R,0.09270X0.00045*%
%ADD376R,0.09405X0.00045*%
%ADD377R,0.09135X0.00045*%
%ADD378R,0.09270X0.00045*%
%ADD379R,0.09315X0.00045*%
%ADD380R,0.09135X0.00045*%
%ADD381R,0.08865X0.00045*%
%ADD382R,0.09045X0.00045*%
%ADD383R,0.09000X0.00045*%
%ADD384R,0.08955X0.00045*%
%ADD385R,0.08910X0.00045*%
%ADD386R,0.08595X0.00045*%
%ADD387R,0.08775X0.00045*%
%ADD388R,0.08730X0.00045*%
%ADD389R,0.08640X0.00045*%
%ADD390R,0.08415X0.00045*%
%ADD391R,0.08595X0.00045*%
%ADD392R,0.08325X0.00045*%
%ADD393R,0.08280X0.00045*%
%ADD394R,0.08190X0.00045*%
%ADD395R,0.08370X0.00045*%
%ADD396R,0.08145X0.00045*%
%ADD397R,0.08280X0.00045*%
%ADD398R,0.08325X0.00045*%
%ADD399R,0.08100X0.00045*%
%ADD400R,0.08235X0.00045*%
%ADD401R,0.08190X0.00045*%
%ADD402R,0.08010X0.00045*%
%ADD403R,0.08145X0.00045*%
%ADD404R,0.07965X0.00045*%
%ADD405R,0.07875X0.00045*%
%ADD406R,0.07830X0.00045*%
%ADD407R,0.07965X0.00045*%
%ADD408R,0.07920X0.00045*%
%ADD409R,0.07740X0.00045*%
%ADD410R,0.07875X0.00045*%
%ADD411R,0.07920X0.00045*%
%ADD412R,0.07695X0.00045*%
%ADD413R,0.07785X0.00045*%
%ADD414R,0.07605X0.00045*%
%ADD415R,0.07560X0.00045*%
%ADD416R,0.07515X0.00045*%
%ADD417R,0.07605X0.00045*%
%ADD418R,0.07425X0.00045*%
%ADD419R,0.07560X0.00045*%
%ADD420R,0.07380X0.00045*%
%ADD421R,0.07470X0.00045*%
%ADD422R,0.07290X0.00045*%
%ADD423R,0.07380X0.00045*%
%ADD424R,0.07245X0.00045*%
%ADD425R,0.07335X0.00045*%
%ADD426R,0.07155X0.00045*%
%ADD427R,0.07290X0.00045*%
%ADD428R,0.07110X0.00045*%
%ADD429R,0.07200X0.00045*%
%ADD430R,0.07020X0.00045*%
%ADD431R,0.07110X0.00045*%
%ADD432R,0.06975X0.00045*%
%ADD433R,0.07065X0.00045*%
%ADD434R,0.06885X0.00045*%
%ADD435R,0.06840X0.00045*%
%ADD436R,0.06930X0.00045*%
%ADD437R,0.06750X0.00045*%
%ADD438R,0.06885X0.00045*%
%ADD439R,0.06705X0.00045*%
%ADD440R,0.06795X0.00045*%
%ADD441R,0.06750X0.00045*%
%ADD442R,0.06615X0.00045*%
%ADD443R,0.06705X0.00045*%
%ADD444R,0.06570X0.00045*%
%ADD445R,0.06660X0.00045*%
%ADD446R,0.06480X0.00045*%
%ADD447R,0.06615X0.00045*%
%ADD448R,0.06570X0.00045*%
%ADD449R,0.06435X0.00045*%
%ADD450R,0.06525X0.00045*%
%ADD451R,0.06345X0.00045*%
%ADD452R,0.06300X0.00045*%
%ADD453R,0.06390X0.00045*%
%ADD454R,0.06345X0.00045*%
%ADD455R,0.06210X0.00045*%
%ADD456R,0.06165X0.00045*%
%ADD457R,0.06255X0.00045*%
%ADD458R,0.06075X0.00045*%
%ADD459R,0.06210X0.00045*%
%ADD460R,0.06030X0.00045*%
%ADD461R,0.06120X0.00045*%
%ADD462R,0.06075X0.00045*%
%ADD463R,0.05940X0.00045*%
%ADD464R,0.06030X0.00045*%
%ADD465R,0.05895X0.00045*%
%ADD466R,0.05985X0.00045*%
%ADD467R,0.05805X0.00045*%
%ADD468R,0.05940X0.00045*%
%ADD469R,0.05895X0.00045*%
%ADD470R,0.05805X0.00045*%
%ADD471R,0.05850X0.00045*%
%ADD472R,0.05760X0.00045*%
%ADD473R,0.05715X0.00045*%
%ADD474R,0.05670X0.00045*%
%ADD475R,0.05490X0.00045*%
%ADD476R,0.05445X0.00045*%
%ADD477R,0.05400X0.00045*%
%ADD478R,0.05445X0.00045*%
%ADD479R,0.05265X0.00045*%
%ADD480R,0.05355X0.00045*%
%ADD481R,0.05265X0.00045*%
%ADD482R,0.05310X0.00045*%
%ADD483R,0.05175X0.00045*%
%ADD484R,0.05220X0.00045*%
%ADD485R,0.05265X0.00045*%
%ADD486R,0.05130X0.00045*%
%ADD487R,0.05130X0.00045*%
%ADD488R,0.05040X0.00045*%
%ADD489R,0.05085X0.00045*%
%ADD490R,0.04995X0.00045*%
%ADD491R,0.05040X0.00045*%
%ADD492R,0.04905X0.00045*%
%ADD493R,0.04950X0.00045*%
%ADD494R,0.04860X0.00045*%
%ADD495R,0.04860X0.00045*%
%ADD496R,0.04770X0.00045*%
%ADD497R,0.04815X0.00045*%
%ADD498R,0.04725X0.00045*%
%ADD499R,0.04635X0.00045*%
%ADD500R,0.04680X0.00045*%
%ADD501R,0.04500X0.00045*%
%ADD502R,0.04545X0.00045*%
%ADD503R,0.04455X0.00045*%
%ADD504R,0.04455X0.00045*%
%ADD505R,0.04365X0.00045*%
%ADD506R,0.04365X0.00045*%
%ADD507R,0.04320X0.00045*%
%ADD508R,0.04275X0.00045*%
%ADD509R,0.04185X0.00045*%
%ADD510R,0.04095X0.00045*%
%ADD511R,0.04140X0.00045*%
%ADD512R,0.03915X0.00045*%
%ADD513R,0.03690X0.00045*%
%ADD514R,0.03645X0.00045*%
%ADD515R,0.03105X0.00045*%
%ADD516R,0.02565X0.00045*%
%ADD517R,0.02520X0.00045*%
%ADD518R,0.02295X0.00045*%
%ADD519R,0.02250X0.00045*%
%ADD520R,0.02025X0.00045*%
%ADD521R,0.01890X0.00045*%
%ADD522R,0.01845X0.00045*%
%ADD523R,0.01665X0.00045*%
%ADD524R,0.01440X0.00045*%
%ADD525R,0.01215X0.00045*%
%ADD526R,0.00990X0.00045*%
%ADD527R,0.00945X0.00045*%
%ADD528R,0.00900X0.00045*%
%ADD529C,0.01300*%
%ADD530C,0.04000*%
%ADD531C,0.01100*%
%ADD532C,0.00500*%
%ADD533C,0.00400*%
%ADD534C,0.00800*%
%ADD535R,0.08000X0.15500*%
%ADD536C,0.00787*%
%ADD537C,0.00600*%
D10*
X0064492Y0011220D02*
X0001500Y0074213D01*
X0001500Y0361614D01*
X0044807Y0404921D01*
X0155043Y0404921D01*
X0198350Y0361614D01*
X0198350Y0074213D01*
X0135358Y0011220D01*
X0064492Y0011220D01*
X0044807Y0054528D02*
X0044809Y0054653D01*
X0044815Y0054778D01*
X0044825Y0054902D01*
X0044839Y0055026D01*
X0044856Y0055150D01*
X0044878Y0055273D01*
X0044904Y0055395D01*
X0044933Y0055517D01*
X0044966Y0055637D01*
X0045004Y0055756D01*
X0045044Y0055875D01*
X0045089Y0055991D01*
X0045137Y0056106D01*
X0045189Y0056220D01*
X0045245Y0056332D01*
X0045304Y0056442D01*
X0045366Y0056550D01*
X0045432Y0056657D01*
X0045501Y0056761D01*
X0045574Y0056862D01*
X0045649Y0056962D01*
X0045728Y0057059D01*
X0045810Y0057153D01*
X0045895Y0057245D01*
X0045982Y0057334D01*
X0046073Y0057420D01*
X0046166Y0057503D01*
X0046262Y0057584D01*
X0046360Y0057661D01*
X0046460Y0057735D01*
X0046563Y0057806D01*
X0046668Y0057873D01*
X0046776Y0057938D01*
X0046885Y0057998D01*
X0046996Y0058056D01*
X0047109Y0058109D01*
X0047223Y0058159D01*
X0047339Y0058206D01*
X0047456Y0058248D01*
X0047575Y0058287D01*
X0047695Y0058323D01*
X0047816Y0058354D01*
X0047938Y0058382D01*
X0048060Y0058405D01*
X0048184Y0058425D01*
X0048308Y0058441D01*
X0048432Y0058453D01*
X0048557Y0058461D01*
X0048682Y0058465D01*
X0048806Y0058465D01*
X0048931Y0058461D01*
X0049056Y0058453D01*
X0049180Y0058441D01*
X0049304Y0058425D01*
X0049428Y0058405D01*
X0049550Y0058382D01*
X0049672Y0058354D01*
X0049793Y0058323D01*
X0049913Y0058287D01*
X0050032Y0058248D01*
X0050149Y0058206D01*
X0050265Y0058159D01*
X0050379Y0058109D01*
X0050492Y0058056D01*
X0050603Y0057998D01*
X0050713Y0057938D01*
X0050820Y0057873D01*
X0050925Y0057806D01*
X0051028Y0057735D01*
X0051128Y0057661D01*
X0051226Y0057584D01*
X0051322Y0057503D01*
X0051415Y0057420D01*
X0051506Y0057334D01*
X0051593Y0057245D01*
X0051678Y0057153D01*
X0051760Y0057059D01*
X0051839Y0056962D01*
X0051914Y0056862D01*
X0051987Y0056761D01*
X0052056Y0056657D01*
X0052122Y0056550D01*
X0052184Y0056442D01*
X0052243Y0056332D01*
X0052299Y0056220D01*
X0052351Y0056106D01*
X0052399Y0055991D01*
X0052444Y0055875D01*
X0052484Y0055756D01*
X0052522Y0055637D01*
X0052555Y0055517D01*
X0052584Y0055395D01*
X0052610Y0055273D01*
X0052632Y0055150D01*
X0052649Y0055026D01*
X0052663Y0054902D01*
X0052673Y0054778D01*
X0052679Y0054653D01*
X0052681Y0054528D01*
X0052679Y0054403D01*
X0052673Y0054278D01*
X0052663Y0054154D01*
X0052649Y0054030D01*
X0052632Y0053906D01*
X0052610Y0053783D01*
X0052584Y0053661D01*
X0052555Y0053539D01*
X0052522Y0053419D01*
X0052484Y0053300D01*
X0052444Y0053181D01*
X0052399Y0053065D01*
X0052351Y0052950D01*
X0052299Y0052836D01*
X0052243Y0052724D01*
X0052184Y0052614D01*
X0052122Y0052506D01*
X0052056Y0052399D01*
X0051987Y0052295D01*
X0051914Y0052194D01*
X0051839Y0052094D01*
X0051760Y0051997D01*
X0051678Y0051903D01*
X0051593Y0051811D01*
X0051506Y0051722D01*
X0051415Y0051636D01*
X0051322Y0051553D01*
X0051226Y0051472D01*
X0051128Y0051395D01*
X0051028Y0051321D01*
X0050925Y0051250D01*
X0050820Y0051183D01*
X0050712Y0051118D01*
X0050603Y0051058D01*
X0050492Y0051000D01*
X0050379Y0050947D01*
X0050265Y0050897D01*
X0050149Y0050850D01*
X0050032Y0050808D01*
X0049913Y0050769D01*
X0049793Y0050733D01*
X0049672Y0050702D01*
X0049550Y0050674D01*
X0049428Y0050651D01*
X0049304Y0050631D01*
X0049180Y0050615D01*
X0049056Y0050603D01*
X0048931Y0050595D01*
X0048806Y0050591D01*
X0048682Y0050591D01*
X0048557Y0050595D01*
X0048432Y0050603D01*
X0048308Y0050615D01*
X0048184Y0050631D01*
X0048060Y0050651D01*
X0047938Y0050674D01*
X0047816Y0050702D01*
X0047695Y0050733D01*
X0047575Y0050769D01*
X0047456Y0050808D01*
X0047339Y0050850D01*
X0047223Y0050897D01*
X0047109Y0050947D01*
X0046996Y0051000D01*
X0046885Y0051058D01*
X0046775Y0051118D01*
X0046668Y0051183D01*
X0046563Y0051250D01*
X0046460Y0051321D01*
X0046360Y0051395D01*
X0046262Y0051472D01*
X0046166Y0051553D01*
X0046073Y0051636D01*
X0045982Y0051722D01*
X0045895Y0051811D01*
X0045810Y0051903D01*
X0045728Y0051997D01*
X0045649Y0052094D01*
X0045574Y0052194D01*
X0045501Y0052295D01*
X0045432Y0052399D01*
X0045366Y0052506D01*
X0045304Y0052614D01*
X0045245Y0052724D01*
X0045189Y0052836D01*
X0045137Y0052950D01*
X0045089Y0053065D01*
X0045044Y0053181D01*
X0045004Y0053300D01*
X0044966Y0053419D01*
X0044933Y0053539D01*
X0044904Y0053661D01*
X0044878Y0053783D01*
X0044856Y0053906D01*
X0044839Y0054030D01*
X0044825Y0054154D01*
X0044815Y0054278D01*
X0044809Y0054403D01*
X0044807Y0054528D01*
X0012327Y0174606D02*
X0012329Y0174731D01*
X0012335Y0174856D01*
X0012345Y0174980D01*
X0012359Y0175104D01*
X0012376Y0175228D01*
X0012398Y0175351D01*
X0012424Y0175473D01*
X0012453Y0175595D01*
X0012486Y0175715D01*
X0012524Y0175834D01*
X0012564Y0175953D01*
X0012609Y0176069D01*
X0012657Y0176184D01*
X0012709Y0176298D01*
X0012765Y0176410D01*
X0012824Y0176520D01*
X0012886Y0176628D01*
X0012952Y0176735D01*
X0013021Y0176839D01*
X0013094Y0176940D01*
X0013169Y0177040D01*
X0013248Y0177137D01*
X0013330Y0177231D01*
X0013415Y0177323D01*
X0013502Y0177412D01*
X0013593Y0177498D01*
X0013686Y0177581D01*
X0013782Y0177662D01*
X0013880Y0177739D01*
X0013980Y0177813D01*
X0014083Y0177884D01*
X0014188Y0177951D01*
X0014296Y0178016D01*
X0014405Y0178076D01*
X0014516Y0178134D01*
X0014629Y0178187D01*
X0014743Y0178237D01*
X0014859Y0178284D01*
X0014976Y0178326D01*
X0015095Y0178365D01*
X0015215Y0178401D01*
X0015336Y0178432D01*
X0015458Y0178460D01*
X0015580Y0178483D01*
X0015704Y0178503D01*
X0015828Y0178519D01*
X0015952Y0178531D01*
X0016077Y0178539D01*
X0016202Y0178543D01*
X0016326Y0178543D01*
X0016451Y0178539D01*
X0016576Y0178531D01*
X0016700Y0178519D01*
X0016824Y0178503D01*
X0016948Y0178483D01*
X0017070Y0178460D01*
X0017192Y0178432D01*
X0017313Y0178401D01*
X0017433Y0178365D01*
X0017552Y0178326D01*
X0017669Y0178284D01*
X0017785Y0178237D01*
X0017899Y0178187D01*
X0018012Y0178134D01*
X0018123Y0178076D01*
X0018233Y0178016D01*
X0018340Y0177951D01*
X0018445Y0177884D01*
X0018548Y0177813D01*
X0018648Y0177739D01*
X0018746Y0177662D01*
X0018842Y0177581D01*
X0018935Y0177498D01*
X0019026Y0177412D01*
X0019113Y0177323D01*
X0019198Y0177231D01*
X0019280Y0177137D01*
X0019359Y0177040D01*
X0019434Y0176940D01*
X0019507Y0176839D01*
X0019576Y0176735D01*
X0019642Y0176628D01*
X0019704Y0176520D01*
X0019763Y0176410D01*
X0019819Y0176298D01*
X0019871Y0176184D01*
X0019919Y0176069D01*
X0019964Y0175953D01*
X0020004Y0175834D01*
X0020042Y0175715D01*
X0020075Y0175595D01*
X0020104Y0175473D01*
X0020130Y0175351D01*
X0020152Y0175228D01*
X0020169Y0175104D01*
X0020183Y0174980D01*
X0020193Y0174856D01*
X0020199Y0174731D01*
X0020201Y0174606D01*
X0020199Y0174481D01*
X0020193Y0174356D01*
X0020183Y0174232D01*
X0020169Y0174108D01*
X0020152Y0173984D01*
X0020130Y0173861D01*
X0020104Y0173739D01*
X0020075Y0173617D01*
X0020042Y0173497D01*
X0020004Y0173378D01*
X0019964Y0173259D01*
X0019919Y0173143D01*
X0019871Y0173028D01*
X0019819Y0172914D01*
X0019763Y0172802D01*
X0019704Y0172692D01*
X0019642Y0172584D01*
X0019576Y0172477D01*
X0019507Y0172373D01*
X0019434Y0172272D01*
X0019359Y0172172D01*
X0019280Y0172075D01*
X0019198Y0171981D01*
X0019113Y0171889D01*
X0019026Y0171800D01*
X0018935Y0171714D01*
X0018842Y0171631D01*
X0018746Y0171550D01*
X0018648Y0171473D01*
X0018548Y0171399D01*
X0018445Y0171328D01*
X0018340Y0171261D01*
X0018232Y0171196D01*
X0018123Y0171136D01*
X0018012Y0171078D01*
X0017899Y0171025D01*
X0017785Y0170975D01*
X0017669Y0170928D01*
X0017552Y0170886D01*
X0017433Y0170847D01*
X0017313Y0170811D01*
X0017192Y0170780D01*
X0017070Y0170752D01*
X0016948Y0170729D01*
X0016824Y0170709D01*
X0016700Y0170693D01*
X0016576Y0170681D01*
X0016451Y0170673D01*
X0016326Y0170669D01*
X0016202Y0170669D01*
X0016077Y0170673D01*
X0015952Y0170681D01*
X0015828Y0170693D01*
X0015704Y0170709D01*
X0015580Y0170729D01*
X0015458Y0170752D01*
X0015336Y0170780D01*
X0015215Y0170811D01*
X0015095Y0170847D01*
X0014976Y0170886D01*
X0014859Y0170928D01*
X0014743Y0170975D01*
X0014629Y0171025D01*
X0014516Y0171078D01*
X0014405Y0171136D01*
X0014295Y0171196D01*
X0014188Y0171261D01*
X0014083Y0171328D01*
X0013980Y0171399D01*
X0013880Y0171473D01*
X0013782Y0171550D01*
X0013686Y0171631D01*
X0013593Y0171714D01*
X0013502Y0171800D01*
X0013415Y0171889D01*
X0013330Y0171981D01*
X0013248Y0172075D01*
X0013169Y0172172D01*
X0013094Y0172272D01*
X0013021Y0172373D01*
X0012952Y0172477D01*
X0012886Y0172584D01*
X0012824Y0172692D01*
X0012765Y0172802D01*
X0012709Y0172914D01*
X0012657Y0173028D01*
X0012609Y0173143D01*
X0012564Y0173259D01*
X0012524Y0173378D01*
X0012486Y0173497D01*
X0012453Y0173617D01*
X0012424Y0173739D01*
X0012398Y0173861D01*
X0012376Y0173984D01*
X0012359Y0174108D01*
X0012345Y0174232D01*
X0012335Y0174356D01*
X0012329Y0174481D01*
X0012327Y0174606D01*
X0012327Y0280906D02*
X0012329Y0281031D01*
X0012335Y0281156D01*
X0012345Y0281280D01*
X0012359Y0281404D01*
X0012376Y0281528D01*
X0012398Y0281651D01*
X0012424Y0281773D01*
X0012453Y0281895D01*
X0012486Y0282015D01*
X0012524Y0282134D01*
X0012564Y0282253D01*
X0012609Y0282369D01*
X0012657Y0282484D01*
X0012709Y0282598D01*
X0012765Y0282710D01*
X0012824Y0282820D01*
X0012886Y0282928D01*
X0012952Y0283035D01*
X0013021Y0283139D01*
X0013094Y0283240D01*
X0013169Y0283340D01*
X0013248Y0283437D01*
X0013330Y0283531D01*
X0013415Y0283623D01*
X0013502Y0283712D01*
X0013593Y0283798D01*
X0013686Y0283881D01*
X0013782Y0283962D01*
X0013880Y0284039D01*
X0013980Y0284113D01*
X0014083Y0284184D01*
X0014188Y0284251D01*
X0014296Y0284316D01*
X0014405Y0284376D01*
X0014516Y0284434D01*
X0014629Y0284487D01*
X0014743Y0284537D01*
X0014859Y0284584D01*
X0014976Y0284626D01*
X0015095Y0284665D01*
X0015215Y0284701D01*
X0015336Y0284732D01*
X0015458Y0284760D01*
X0015580Y0284783D01*
X0015704Y0284803D01*
X0015828Y0284819D01*
X0015952Y0284831D01*
X0016077Y0284839D01*
X0016202Y0284843D01*
X0016326Y0284843D01*
X0016451Y0284839D01*
X0016576Y0284831D01*
X0016700Y0284819D01*
X0016824Y0284803D01*
X0016948Y0284783D01*
X0017070Y0284760D01*
X0017192Y0284732D01*
X0017313Y0284701D01*
X0017433Y0284665D01*
X0017552Y0284626D01*
X0017669Y0284584D01*
X0017785Y0284537D01*
X0017899Y0284487D01*
X0018012Y0284434D01*
X0018123Y0284376D01*
X0018233Y0284316D01*
X0018340Y0284251D01*
X0018445Y0284184D01*
X0018548Y0284113D01*
X0018648Y0284039D01*
X0018746Y0283962D01*
X0018842Y0283881D01*
X0018935Y0283798D01*
X0019026Y0283712D01*
X0019113Y0283623D01*
X0019198Y0283531D01*
X0019280Y0283437D01*
X0019359Y0283340D01*
X0019434Y0283240D01*
X0019507Y0283139D01*
X0019576Y0283035D01*
X0019642Y0282928D01*
X0019704Y0282820D01*
X0019763Y0282710D01*
X0019819Y0282598D01*
X0019871Y0282484D01*
X0019919Y0282369D01*
X0019964Y0282253D01*
X0020004Y0282134D01*
X0020042Y0282015D01*
X0020075Y0281895D01*
X0020104Y0281773D01*
X0020130Y0281651D01*
X0020152Y0281528D01*
X0020169Y0281404D01*
X0020183Y0281280D01*
X0020193Y0281156D01*
X0020199Y0281031D01*
X0020201Y0280906D01*
X0020199Y0280781D01*
X0020193Y0280656D01*
X0020183Y0280532D01*
X0020169Y0280408D01*
X0020152Y0280284D01*
X0020130Y0280161D01*
X0020104Y0280039D01*
X0020075Y0279917D01*
X0020042Y0279797D01*
X0020004Y0279678D01*
X0019964Y0279559D01*
X0019919Y0279443D01*
X0019871Y0279328D01*
X0019819Y0279214D01*
X0019763Y0279102D01*
X0019704Y0278992D01*
X0019642Y0278884D01*
X0019576Y0278777D01*
X0019507Y0278673D01*
X0019434Y0278572D01*
X0019359Y0278472D01*
X0019280Y0278375D01*
X0019198Y0278281D01*
X0019113Y0278189D01*
X0019026Y0278100D01*
X0018935Y0278014D01*
X0018842Y0277931D01*
X0018746Y0277850D01*
X0018648Y0277773D01*
X0018548Y0277699D01*
X0018445Y0277628D01*
X0018340Y0277561D01*
X0018232Y0277496D01*
X0018123Y0277436D01*
X0018012Y0277378D01*
X0017899Y0277325D01*
X0017785Y0277275D01*
X0017669Y0277228D01*
X0017552Y0277186D01*
X0017433Y0277147D01*
X0017313Y0277111D01*
X0017192Y0277080D01*
X0017070Y0277052D01*
X0016948Y0277029D01*
X0016824Y0277009D01*
X0016700Y0276993D01*
X0016576Y0276981D01*
X0016451Y0276973D01*
X0016326Y0276969D01*
X0016202Y0276969D01*
X0016077Y0276973D01*
X0015952Y0276981D01*
X0015828Y0276993D01*
X0015704Y0277009D01*
X0015580Y0277029D01*
X0015458Y0277052D01*
X0015336Y0277080D01*
X0015215Y0277111D01*
X0015095Y0277147D01*
X0014976Y0277186D01*
X0014859Y0277228D01*
X0014743Y0277275D01*
X0014629Y0277325D01*
X0014516Y0277378D01*
X0014405Y0277436D01*
X0014295Y0277496D01*
X0014188Y0277561D01*
X0014083Y0277628D01*
X0013980Y0277699D01*
X0013880Y0277773D01*
X0013782Y0277850D01*
X0013686Y0277931D01*
X0013593Y0278014D01*
X0013502Y0278100D01*
X0013415Y0278189D01*
X0013330Y0278281D01*
X0013248Y0278375D01*
X0013169Y0278472D01*
X0013094Y0278572D01*
X0013021Y0278673D01*
X0012952Y0278777D01*
X0012886Y0278884D01*
X0012824Y0278992D01*
X0012765Y0279102D01*
X0012709Y0279214D01*
X0012657Y0279328D01*
X0012609Y0279443D01*
X0012564Y0279559D01*
X0012524Y0279678D01*
X0012486Y0279797D01*
X0012453Y0279917D01*
X0012424Y0280039D01*
X0012398Y0280161D01*
X0012376Y0280284D01*
X0012359Y0280408D01*
X0012345Y0280532D01*
X0012335Y0280656D01*
X0012329Y0280781D01*
X0012327Y0280906D01*
X0147169Y0054528D02*
X0147171Y0054653D01*
X0147177Y0054778D01*
X0147187Y0054902D01*
X0147201Y0055026D01*
X0147218Y0055150D01*
X0147240Y0055273D01*
X0147266Y0055395D01*
X0147295Y0055517D01*
X0147328Y0055637D01*
X0147366Y0055756D01*
X0147406Y0055875D01*
X0147451Y0055991D01*
X0147499Y0056106D01*
X0147551Y0056220D01*
X0147607Y0056332D01*
X0147666Y0056442D01*
X0147728Y0056550D01*
X0147794Y0056657D01*
X0147863Y0056761D01*
X0147936Y0056862D01*
X0148011Y0056962D01*
X0148090Y0057059D01*
X0148172Y0057153D01*
X0148257Y0057245D01*
X0148344Y0057334D01*
X0148435Y0057420D01*
X0148528Y0057503D01*
X0148624Y0057584D01*
X0148722Y0057661D01*
X0148822Y0057735D01*
X0148925Y0057806D01*
X0149030Y0057873D01*
X0149138Y0057938D01*
X0149247Y0057998D01*
X0149358Y0058056D01*
X0149471Y0058109D01*
X0149585Y0058159D01*
X0149701Y0058206D01*
X0149818Y0058248D01*
X0149937Y0058287D01*
X0150057Y0058323D01*
X0150178Y0058354D01*
X0150300Y0058382D01*
X0150422Y0058405D01*
X0150546Y0058425D01*
X0150670Y0058441D01*
X0150794Y0058453D01*
X0150919Y0058461D01*
X0151044Y0058465D01*
X0151168Y0058465D01*
X0151293Y0058461D01*
X0151418Y0058453D01*
X0151542Y0058441D01*
X0151666Y0058425D01*
X0151790Y0058405D01*
X0151912Y0058382D01*
X0152034Y0058354D01*
X0152155Y0058323D01*
X0152275Y0058287D01*
X0152394Y0058248D01*
X0152511Y0058206D01*
X0152627Y0058159D01*
X0152741Y0058109D01*
X0152854Y0058056D01*
X0152965Y0057998D01*
X0153075Y0057938D01*
X0153182Y0057873D01*
X0153287Y0057806D01*
X0153390Y0057735D01*
X0153490Y0057661D01*
X0153588Y0057584D01*
X0153684Y0057503D01*
X0153777Y0057420D01*
X0153868Y0057334D01*
X0153955Y0057245D01*
X0154040Y0057153D01*
X0154122Y0057059D01*
X0154201Y0056962D01*
X0154276Y0056862D01*
X0154349Y0056761D01*
X0154418Y0056657D01*
X0154484Y0056550D01*
X0154546Y0056442D01*
X0154605Y0056332D01*
X0154661Y0056220D01*
X0154713Y0056106D01*
X0154761Y0055991D01*
X0154806Y0055875D01*
X0154846Y0055756D01*
X0154884Y0055637D01*
X0154917Y0055517D01*
X0154946Y0055395D01*
X0154972Y0055273D01*
X0154994Y0055150D01*
X0155011Y0055026D01*
X0155025Y0054902D01*
X0155035Y0054778D01*
X0155041Y0054653D01*
X0155043Y0054528D01*
X0155041Y0054403D01*
X0155035Y0054278D01*
X0155025Y0054154D01*
X0155011Y0054030D01*
X0154994Y0053906D01*
X0154972Y0053783D01*
X0154946Y0053661D01*
X0154917Y0053539D01*
X0154884Y0053419D01*
X0154846Y0053300D01*
X0154806Y0053181D01*
X0154761Y0053065D01*
X0154713Y0052950D01*
X0154661Y0052836D01*
X0154605Y0052724D01*
X0154546Y0052614D01*
X0154484Y0052506D01*
X0154418Y0052399D01*
X0154349Y0052295D01*
X0154276Y0052194D01*
X0154201Y0052094D01*
X0154122Y0051997D01*
X0154040Y0051903D01*
X0153955Y0051811D01*
X0153868Y0051722D01*
X0153777Y0051636D01*
X0153684Y0051553D01*
X0153588Y0051472D01*
X0153490Y0051395D01*
X0153390Y0051321D01*
X0153287Y0051250D01*
X0153182Y0051183D01*
X0153074Y0051118D01*
X0152965Y0051058D01*
X0152854Y0051000D01*
X0152741Y0050947D01*
X0152627Y0050897D01*
X0152511Y0050850D01*
X0152394Y0050808D01*
X0152275Y0050769D01*
X0152155Y0050733D01*
X0152034Y0050702D01*
X0151912Y0050674D01*
X0151790Y0050651D01*
X0151666Y0050631D01*
X0151542Y0050615D01*
X0151418Y0050603D01*
X0151293Y0050595D01*
X0151168Y0050591D01*
X0151044Y0050591D01*
X0150919Y0050595D01*
X0150794Y0050603D01*
X0150670Y0050615D01*
X0150546Y0050631D01*
X0150422Y0050651D01*
X0150300Y0050674D01*
X0150178Y0050702D01*
X0150057Y0050733D01*
X0149937Y0050769D01*
X0149818Y0050808D01*
X0149701Y0050850D01*
X0149585Y0050897D01*
X0149471Y0050947D01*
X0149358Y0051000D01*
X0149247Y0051058D01*
X0149137Y0051118D01*
X0149030Y0051183D01*
X0148925Y0051250D01*
X0148822Y0051321D01*
X0148722Y0051395D01*
X0148624Y0051472D01*
X0148528Y0051553D01*
X0148435Y0051636D01*
X0148344Y0051722D01*
X0148257Y0051811D01*
X0148172Y0051903D01*
X0148090Y0051997D01*
X0148011Y0052094D01*
X0147936Y0052194D01*
X0147863Y0052295D01*
X0147794Y0052399D01*
X0147728Y0052506D01*
X0147666Y0052614D01*
X0147607Y0052724D01*
X0147551Y0052836D01*
X0147499Y0052950D01*
X0147451Y0053065D01*
X0147406Y0053181D01*
X0147366Y0053300D01*
X0147328Y0053419D01*
X0147295Y0053539D01*
X0147266Y0053661D01*
X0147240Y0053783D01*
X0147218Y0053906D01*
X0147201Y0054030D01*
X0147187Y0054154D01*
X0147177Y0054278D01*
X0147171Y0054403D01*
X0147169Y0054528D01*
X0179650Y0174606D02*
X0179652Y0174731D01*
X0179658Y0174856D01*
X0179668Y0174980D01*
X0179682Y0175104D01*
X0179699Y0175228D01*
X0179721Y0175351D01*
X0179747Y0175473D01*
X0179776Y0175595D01*
X0179809Y0175715D01*
X0179847Y0175834D01*
X0179887Y0175953D01*
X0179932Y0176069D01*
X0179980Y0176184D01*
X0180032Y0176298D01*
X0180088Y0176410D01*
X0180147Y0176520D01*
X0180209Y0176628D01*
X0180275Y0176735D01*
X0180344Y0176839D01*
X0180417Y0176940D01*
X0180492Y0177040D01*
X0180571Y0177137D01*
X0180653Y0177231D01*
X0180738Y0177323D01*
X0180825Y0177412D01*
X0180916Y0177498D01*
X0181009Y0177581D01*
X0181105Y0177662D01*
X0181203Y0177739D01*
X0181303Y0177813D01*
X0181406Y0177884D01*
X0181511Y0177951D01*
X0181619Y0178016D01*
X0181728Y0178076D01*
X0181839Y0178134D01*
X0181952Y0178187D01*
X0182066Y0178237D01*
X0182182Y0178284D01*
X0182299Y0178326D01*
X0182418Y0178365D01*
X0182538Y0178401D01*
X0182659Y0178432D01*
X0182781Y0178460D01*
X0182903Y0178483D01*
X0183027Y0178503D01*
X0183151Y0178519D01*
X0183275Y0178531D01*
X0183400Y0178539D01*
X0183525Y0178543D01*
X0183649Y0178543D01*
X0183774Y0178539D01*
X0183899Y0178531D01*
X0184023Y0178519D01*
X0184147Y0178503D01*
X0184271Y0178483D01*
X0184393Y0178460D01*
X0184515Y0178432D01*
X0184636Y0178401D01*
X0184756Y0178365D01*
X0184875Y0178326D01*
X0184992Y0178284D01*
X0185108Y0178237D01*
X0185222Y0178187D01*
X0185335Y0178134D01*
X0185446Y0178076D01*
X0185556Y0178016D01*
X0185663Y0177951D01*
X0185768Y0177884D01*
X0185871Y0177813D01*
X0185971Y0177739D01*
X0186069Y0177662D01*
X0186165Y0177581D01*
X0186258Y0177498D01*
X0186349Y0177412D01*
X0186436Y0177323D01*
X0186521Y0177231D01*
X0186603Y0177137D01*
X0186682Y0177040D01*
X0186757Y0176940D01*
X0186830Y0176839D01*
X0186899Y0176735D01*
X0186965Y0176628D01*
X0187027Y0176520D01*
X0187086Y0176410D01*
X0187142Y0176298D01*
X0187194Y0176184D01*
X0187242Y0176069D01*
X0187287Y0175953D01*
X0187327Y0175834D01*
X0187365Y0175715D01*
X0187398Y0175595D01*
X0187427Y0175473D01*
X0187453Y0175351D01*
X0187475Y0175228D01*
X0187492Y0175104D01*
X0187506Y0174980D01*
X0187516Y0174856D01*
X0187522Y0174731D01*
X0187524Y0174606D01*
X0187522Y0174481D01*
X0187516Y0174356D01*
X0187506Y0174232D01*
X0187492Y0174108D01*
X0187475Y0173984D01*
X0187453Y0173861D01*
X0187427Y0173739D01*
X0187398Y0173617D01*
X0187365Y0173497D01*
X0187327Y0173378D01*
X0187287Y0173259D01*
X0187242Y0173143D01*
X0187194Y0173028D01*
X0187142Y0172914D01*
X0187086Y0172802D01*
X0187027Y0172692D01*
X0186965Y0172584D01*
X0186899Y0172477D01*
X0186830Y0172373D01*
X0186757Y0172272D01*
X0186682Y0172172D01*
X0186603Y0172075D01*
X0186521Y0171981D01*
X0186436Y0171889D01*
X0186349Y0171800D01*
X0186258Y0171714D01*
X0186165Y0171631D01*
X0186069Y0171550D01*
X0185971Y0171473D01*
X0185871Y0171399D01*
X0185768Y0171328D01*
X0185663Y0171261D01*
X0185555Y0171196D01*
X0185446Y0171136D01*
X0185335Y0171078D01*
X0185222Y0171025D01*
X0185108Y0170975D01*
X0184992Y0170928D01*
X0184875Y0170886D01*
X0184756Y0170847D01*
X0184636Y0170811D01*
X0184515Y0170780D01*
X0184393Y0170752D01*
X0184271Y0170729D01*
X0184147Y0170709D01*
X0184023Y0170693D01*
X0183899Y0170681D01*
X0183774Y0170673D01*
X0183649Y0170669D01*
X0183525Y0170669D01*
X0183400Y0170673D01*
X0183275Y0170681D01*
X0183151Y0170693D01*
X0183027Y0170709D01*
X0182903Y0170729D01*
X0182781Y0170752D01*
X0182659Y0170780D01*
X0182538Y0170811D01*
X0182418Y0170847D01*
X0182299Y0170886D01*
X0182182Y0170928D01*
X0182066Y0170975D01*
X0181952Y0171025D01*
X0181839Y0171078D01*
X0181728Y0171136D01*
X0181618Y0171196D01*
X0181511Y0171261D01*
X0181406Y0171328D01*
X0181303Y0171399D01*
X0181203Y0171473D01*
X0181105Y0171550D01*
X0181009Y0171631D01*
X0180916Y0171714D01*
X0180825Y0171800D01*
X0180738Y0171889D01*
X0180653Y0171981D01*
X0180571Y0172075D01*
X0180492Y0172172D01*
X0180417Y0172272D01*
X0180344Y0172373D01*
X0180275Y0172477D01*
X0180209Y0172584D01*
X0180147Y0172692D01*
X0180088Y0172802D01*
X0180032Y0172914D01*
X0179980Y0173028D01*
X0179932Y0173143D01*
X0179887Y0173259D01*
X0179847Y0173378D01*
X0179809Y0173497D01*
X0179776Y0173617D01*
X0179747Y0173739D01*
X0179721Y0173861D01*
X0179699Y0173984D01*
X0179682Y0174108D01*
X0179668Y0174232D01*
X0179658Y0174356D01*
X0179652Y0174481D01*
X0179650Y0174606D01*
X0179650Y0280906D02*
X0179652Y0281031D01*
X0179658Y0281156D01*
X0179668Y0281280D01*
X0179682Y0281404D01*
X0179699Y0281528D01*
X0179721Y0281651D01*
X0179747Y0281773D01*
X0179776Y0281895D01*
X0179809Y0282015D01*
X0179847Y0282134D01*
X0179887Y0282253D01*
X0179932Y0282369D01*
X0179980Y0282484D01*
X0180032Y0282598D01*
X0180088Y0282710D01*
X0180147Y0282820D01*
X0180209Y0282928D01*
X0180275Y0283035D01*
X0180344Y0283139D01*
X0180417Y0283240D01*
X0180492Y0283340D01*
X0180571Y0283437D01*
X0180653Y0283531D01*
X0180738Y0283623D01*
X0180825Y0283712D01*
X0180916Y0283798D01*
X0181009Y0283881D01*
X0181105Y0283962D01*
X0181203Y0284039D01*
X0181303Y0284113D01*
X0181406Y0284184D01*
X0181511Y0284251D01*
X0181619Y0284316D01*
X0181728Y0284376D01*
X0181839Y0284434D01*
X0181952Y0284487D01*
X0182066Y0284537D01*
X0182182Y0284584D01*
X0182299Y0284626D01*
X0182418Y0284665D01*
X0182538Y0284701D01*
X0182659Y0284732D01*
X0182781Y0284760D01*
X0182903Y0284783D01*
X0183027Y0284803D01*
X0183151Y0284819D01*
X0183275Y0284831D01*
X0183400Y0284839D01*
X0183525Y0284843D01*
X0183649Y0284843D01*
X0183774Y0284839D01*
X0183899Y0284831D01*
X0184023Y0284819D01*
X0184147Y0284803D01*
X0184271Y0284783D01*
X0184393Y0284760D01*
X0184515Y0284732D01*
X0184636Y0284701D01*
X0184756Y0284665D01*
X0184875Y0284626D01*
X0184992Y0284584D01*
X0185108Y0284537D01*
X0185222Y0284487D01*
X0185335Y0284434D01*
X0185446Y0284376D01*
X0185556Y0284316D01*
X0185663Y0284251D01*
X0185768Y0284184D01*
X0185871Y0284113D01*
X0185971Y0284039D01*
X0186069Y0283962D01*
X0186165Y0283881D01*
X0186258Y0283798D01*
X0186349Y0283712D01*
X0186436Y0283623D01*
X0186521Y0283531D01*
X0186603Y0283437D01*
X0186682Y0283340D01*
X0186757Y0283240D01*
X0186830Y0283139D01*
X0186899Y0283035D01*
X0186965Y0282928D01*
X0187027Y0282820D01*
X0187086Y0282710D01*
X0187142Y0282598D01*
X0187194Y0282484D01*
X0187242Y0282369D01*
X0187287Y0282253D01*
X0187327Y0282134D01*
X0187365Y0282015D01*
X0187398Y0281895D01*
X0187427Y0281773D01*
X0187453Y0281651D01*
X0187475Y0281528D01*
X0187492Y0281404D01*
X0187506Y0281280D01*
X0187516Y0281156D01*
X0187522Y0281031D01*
X0187524Y0280906D01*
X0187522Y0280781D01*
X0187516Y0280656D01*
X0187506Y0280532D01*
X0187492Y0280408D01*
X0187475Y0280284D01*
X0187453Y0280161D01*
X0187427Y0280039D01*
X0187398Y0279917D01*
X0187365Y0279797D01*
X0187327Y0279678D01*
X0187287Y0279559D01*
X0187242Y0279443D01*
X0187194Y0279328D01*
X0187142Y0279214D01*
X0187086Y0279102D01*
X0187027Y0278992D01*
X0186965Y0278884D01*
X0186899Y0278777D01*
X0186830Y0278673D01*
X0186757Y0278572D01*
X0186682Y0278472D01*
X0186603Y0278375D01*
X0186521Y0278281D01*
X0186436Y0278189D01*
X0186349Y0278100D01*
X0186258Y0278014D01*
X0186165Y0277931D01*
X0186069Y0277850D01*
X0185971Y0277773D01*
X0185871Y0277699D01*
X0185768Y0277628D01*
X0185663Y0277561D01*
X0185555Y0277496D01*
X0185446Y0277436D01*
X0185335Y0277378D01*
X0185222Y0277325D01*
X0185108Y0277275D01*
X0184992Y0277228D01*
X0184875Y0277186D01*
X0184756Y0277147D01*
X0184636Y0277111D01*
X0184515Y0277080D01*
X0184393Y0277052D01*
X0184271Y0277029D01*
X0184147Y0277009D01*
X0184023Y0276993D01*
X0183899Y0276981D01*
X0183774Y0276973D01*
X0183649Y0276969D01*
X0183525Y0276969D01*
X0183400Y0276973D01*
X0183275Y0276981D01*
X0183151Y0276993D01*
X0183027Y0277009D01*
X0182903Y0277029D01*
X0182781Y0277052D01*
X0182659Y0277080D01*
X0182538Y0277111D01*
X0182418Y0277147D01*
X0182299Y0277186D01*
X0182182Y0277228D01*
X0182066Y0277275D01*
X0181952Y0277325D01*
X0181839Y0277378D01*
X0181728Y0277436D01*
X0181618Y0277496D01*
X0181511Y0277561D01*
X0181406Y0277628D01*
X0181303Y0277699D01*
X0181203Y0277773D01*
X0181105Y0277850D01*
X0181009Y0277931D01*
X0180916Y0278014D01*
X0180825Y0278100D01*
X0180738Y0278189D01*
X0180653Y0278281D01*
X0180571Y0278375D01*
X0180492Y0278472D01*
X0180417Y0278572D01*
X0180344Y0278673D01*
X0180275Y0278777D01*
X0180209Y0278884D01*
X0180147Y0278992D01*
X0180088Y0279102D01*
X0180032Y0279214D01*
X0179980Y0279328D01*
X0179932Y0279443D01*
X0179887Y0279559D01*
X0179847Y0279678D01*
X0179809Y0279797D01*
X0179776Y0279917D01*
X0179747Y0280039D01*
X0179721Y0280161D01*
X0179699Y0280284D01*
X0179682Y0280408D01*
X0179668Y0280532D01*
X0179658Y0280656D01*
X0179652Y0280781D01*
X0179650Y0280906D01*
D11*
X0174728Y0184449D02*
X0166854Y0184449D01*
X0166854Y0164764D01*
X0158980Y0164764D01*
X0158980Y0184449D01*
X0123547Y0184449D01*
X0115673Y0184449D01*
X0099925Y0184449D01*
X0092051Y0184449D01*
X0080240Y0184449D01*
X0040870Y0184449D01*
X0040870Y0164764D01*
X0032996Y0164764D01*
X0032996Y0184449D01*
X0001500Y0184449D01*
X0045799Y0123909D02*
X0049803Y0123909D01*
X0049803Y0121908D01*
X0049135Y0121241D01*
X0047801Y0121241D01*
X0047134Y0121908D01*
X0047134Y0123909D01*
X0047134Y0122575D02*
X0045799Y0121241D01*
X0046466Y0119306D02*
X0045799Y0118638D01*
X0045799Y0117304D01*
X0047134Y0116637D02*
X0047134Y0119306D01*
X0047801Y0119306D02*
X0048468Y0118638D01*
X0048468Y0117304D01*
X0047801Y0116637D01*
X0047134Y0116637D01*
X0047801Y0114702D02*
X0048468Y0114034D01*
X0048468Y0112033D01*
X0049803Y0112033D02*
X0045799Y0112033D01*
X0045799Y0114034D01*
X0046466Y0114702D01*
X0047801Y0114702D01*
X0047801Y0119306D02*
X0046466Y0119306D01*
X0055642Y0119306D02*
X0055642Y0117971D01*
X0055642Y0118638D02*
X0059645Y0118638D01*
X0059645Y0119306D01*
X0058978Y0121241D02*
X0058311Y0121241D01*
X0057643Y0121908D01*
X0057643Y0123909D01*
X0057643Y0121908D02*
X0056976Y0121241D01*
X0056309Y0121241D01*
X0055642Y0121908D01*
X0055642Y0123909D01*
X0059645Y0123909D01*
X0059645Y0121908D01*
X0058978Y0121241D01*
X0056309Y0116236D02*
X0056976Y0115569D01*
X0056976Y0113567D01*
X0057643Y0113567D02*
X0055642Y0113567D01*
X0055642Y0115569D01*
X0056309Y0116236D01*
X0058311Y0115569D02*
X0058311Y0114235D01*
X0057643Y0113567D01*
X0057643Y0111632D02*
X0056309Y0111632D01*
X0055642Y0110965D01*
X0055642Y0108963D01*
X0055642Y0107028D02*
X0059645Y0107028D01*
X0058311Y0108963D02*
X0058311Y0110965D01*
X0057643Y0111632D01*
X0056976Y0107028D02*
X0058311Y0105027D01*
X0056976Y0107028D02*
X0055642Y0105027D01*
X0064925Y0170728D02*
X0064925Y0020728D01*
X0067425Y0020728D01*
X0072425Y0020728D01*
X0074925Y0020728D01*
X0074925Y0170728D01*
X0064925Y0170728D01*
X0099925Y0184449D02*
X0099925Y0271063D01*
X0124925Y0170709D02*
X0124925Y0020709D01*
X0134925Y0020709D01*
X0134925Y0170709D01*
X0132425Y0170709D01*
X0127425Y0170709D01*
X0124925Y0170709D01*
X0140287Y0123909D02*
X0144291Y0123909D01*
X0144291Y0121908D01*
X0143624Y0121241D01*
X0142289Y0121241D01*
X0141622Y0121908D01*
X0141622Y0123909D01*
X0141622Y0122575D02*
X0140287Y0121241D01*
X0140955Y0119306D02*
X0142289Y0119306D01*
X0142956Y0118638D01*
X0142956Y0117304D01*
X0142289Y0116637D01*
X0141622Y0116637D01*
X0141622Y0119306D01*
X0140955Y0119306D02*
X0140287Y0118638D01*
X0140287Y0117304D01*
X0140955Y0114702D02*
X0142289Y0114702D01*
X0142956Y0114034D01*
X0142956Y0112033D01*
X0144291Y0112033D02*
X0140287Y0112033D01*
X0140287Y0114034D01*
X0140955Y0114702D01*
X0150130Y0115569D02*
X0150130Y0113567D01*
X0152132Y0113567D01*
X0152799Y0114235D01*
X0152799Y0115569D01*
X0151464Y0115569D02*
X0151464Y0113567D01*
X0151464Y0115569D02*
X0150797Y0116236D01*
X0150130Y0115569D01*
X0150130Y0117971D02*
X0150130Y0119306D01*
X0150130Y0118638D02*
X0154133Y0118638D01*
X0154133Y0119306D01*
X0153466Y0121241D02*
X0154133Y0121908D01*
X0154133Y0123909D01*
X0150130Y0123909D01*
X0150130Y0121908D01*
X0150797Y0121241D01*
X0151464Y0121241D01*
X0152132Y0121908D01*
X0152132Y0123909D01*
X0152132Y0121908D02*
X0152799Y0121241D01*
X0153466Y0121241D01*
X0152132Y0111632D02*
X0150797Y0111632D01*
X0150130Y0110965D01*
X0150130Y0108963D01*
X0150130Y0107028D02*
X0154133Y0107028D01*
X0152799Y0108963D02*
X0152799Y0110965D01*
X0152132Y0111632D01*
X0151464Y0107028D02*
X0152799Y0105027D01*
X0151464Y0107028D02*
X0150130Y0105027D01*
X0174728Y0184449D02*
X0198350Y0184449D01*
D12*
X0198350Y0208071D02*
X0001500Y0208071D01*
X0001500Y0271063D02*
X0032996Y0271063D01*
X0032996Y0290748D01*
X0040870Y0290748D01*
X0040870Y0271063D01*
X0099925Y0271063D01*
X0158980Y0271063D01*
X0158980Y0290748D01*
X0166854Y0290748D01*
X0166854Y0271063D01*
X0198350Y0271063D01*
X0174728Y0292717D02*
X0166854Y0292717D01*
X0158980Y0292717D01*
X0040870Y0292717D01*
X0032996Y0292717D01*
X0025122Y0292717D01*
X0025122Y0339961D01*
X0174728Y0339961D01*
X0174728Y0292717D01*
X0166854Y0292717D02*
X0158980Y0292717D01*
X0040870Y0292717D02*
X0032996Y0292717D01*
D13*
X0075961Y0170585D02*
X0075961Y0167499D01*
X0076578Y0166882D01*
X0077813Y0166882D01*
X0078430Y0167499D01*
X0078430Y0170585D01*
X0079644Y0170585D02*
X0079644Y0168734D01*
X0080879Y0169351D01*
X0081496Y0169351D01*
X0082113Y0168734D01*
X0082113Y0167499D01*
X0081496Y0166882D01*
X0080261Y0166882D01*
X0079644Y0167499D01*
X0079644Y0170585D02*
X0082113Y0170585D01*
D14*
X0100017Y0368399D03*
D15*
X0100040Y0368444D03*
D16*
X0100062Y0368489D03*
D17*
X0100040Y0368534D03*
D18*
X0100040Y0368579D03*
D19*
X0100040Y0368624D03*
D20*
X0100040Y0368669D03*
D21*
X0100040Y0368714D03*
D22*
X0100040Y0368759D03*
D23*
X0100040Y0368804D03*
D24*
X0100062Y0368849D03*
D25*
X0100040Y0368894D03*
D26*
X0100040Y0368939D03*
D27*
X0100062Y0368984D03*
D28*
X0100040Y0369029D03*
D29*
X0100062Y0369074D03*
D30*
X0100040Y0369119D03*
D31*
X0100040Y0369164D03*
D32*
X0100062Y0369209D03*
D33*
X0100040Y0369254D03*
D34*
X0100040Y0369299D03*
D35*
X0100062Y0369344D03*
D36*
X0100062Y0369389D03*
D37*
X0100040Y0369434D03*
X0100040Y0369524D03*
X0100040Y0369614D03*
X0100040Y0369659D03*
X0100040Y0369749D03*
X0100040Y0369839D03*
X0100040Y0369884D03*
X0100040Y0369974D03*
X0100040Y0370064D03*
X0100040Y0370109D03*
D38*
X0100040Y0370154D03*
X0100040Y0370019D03*
X0100040Y0369929D03*
X0100040Y0369794D03*
X0100040Y0369704D03*
X0100040Y0369569D03*
X0100040Y0369479D03*
D39*
X0100040Y0370199D03*
X0100040Y0370289D03*
X0100040Y0370514D03*
X0100040Y0370559D03*
X0100040Y0370649D03*
X0100040Y0370739D03*
X0100040Y0370784D03*
X0100040Y0370874D03*
X0100040Y0370964D03*
X0100040Y0371009D03*
X0100040Y0371099D03*
X0100040Y0371189D03*
X0100040Y0371234D03*
X0100040Y0371324D03*
X0100040Y0371414D03*
D40*
X0100062Y0370244D03*
D41*
X0100062Y0370334D03*
X0100062Y0370424D03*
D42*
X0100040Y0370379D03*
X0100040Y0370469D03*
X0100040Y0370604D03*
X0100040Y0370694D03*
X0100040Y0370829D03*
X0100040Y0370919D03*
X0100040Y0371054D03*
X0100040Y0371144D03*
X0100040Y0371279D03*
X0100040Y0371504D03*
X0100040Y0371594D03*
D43*
X0100017Y0371369D03*
D44*
X0100040Y0371459D03*
X0100040Y0371549D03*
X0100040Y0371639D03*
X0100040Y0371864D03*
X0100040Y0371909D03*
X0100040Y0371999D03*
X0100040Y0372089D03*
X0100040Y0372134D03*
X0100040Y0372224D03*
X0100040Y0372314D03*
X0100040Y0372359D03*
X0100040Y0372449D03*
X0100040Y0372584D03*
X0100040Y0372674D03*
D45*
X0100017Y0371774D03*
X0100017Y0371684D03*
D46*
X0100040Y0371729D03*
X0100040Y0371819D03*
X0100040Y0371954D03*
X0100040Y0372044D03*
X0100040Y0372179D03*
X0100040Y0372269D03*
X0100040Y0372404D03*
X0100040Y0372494D03*
D47*
X0100017Y0372539D03*
D48*
X0100017Y0372629D03*
D49*
X0093357Y0372719D03*
D50*
X0107262Y0372719D03*
D51*
X0093380Y0372764D03*
D52*
X0100467Y0381224D03*
X0107262Y0372764D03*
D53*
X0091895Y0372809D03*
X0091850Y0373709D03*
X0091850Y0373799D03*
X0091850Y0373934D03*
X0091850Y0374024D03*
D54*
X0092637Y0374114D03*
X0092727Y0374114D03*
X0092997Y0374114D03*
X0093087Y0374114D03*
X0093177Y0374114D03*
X0093627Y0374159D03*
X0092862Y0381359D03*
X0089802Y0374114D03*
X0089712Y0374114D03*
X0089622Y0374114D03*
X0097812Y0372809D03*
X0097902Y0372809D03*
X0099162Y0372809D03*
X0099252Y0372809D03*
X0101862Y0372809D03*
X0101952Y0372809D03*
X0103212Y0372809D03*
X0103302Y0372809D03*
X0103212Y0378299D03*
X0102087Y0378299D03*
X0101997Y0378299D03*
X0098712Y0378299D03*
X0108162Y0381539D03*
X0108252Y0373934D03*
X0109062Y0373934D03*
D55*
X0109107Y0378524D03*
X0103392Y0372809D03*
X0102042Y0372809D03*
X0101592Y0374609D03*
X0099342Y0372809D03*
X0097992Y0372809D03*
X0101907Y0378299D03*
X0093267Y0378614D03*
X0092907Y0374114D03*
X0092817Y0374114D03*
X0089892Y0374114D03*
D56*
X0093267Y0377084D03*
X0097047Y0377399D03*
X0097047Y0377489D03*
X0097047Y0377534D03*
X0097047Y0377624D03*
X0097047Y0377714D03*
X0097047Y0377759D03*
X0097047Y0377849D03*
X0097047Y0377939D03*
X0097047Y0377984D03*
X0097047Y0378074D03*
X0097047Y0378164D03*
X0098577Y0372809D03*
X0102627Y0372809D03*
X0104157Y0392924D03*
X0094527Y0392924D03*
D57*
X0093267Y0378434D03*
X0093267Y0377039D03*
X0100017Y0372809D03*
D58*
X0101187Y0372809D03*
D59*
X0108725Y0372809D03*
X0108770Y0373574D03*
X0108770Y0373664D03*
X0108770Y0373709D03*
X0108770Y0373799D03*
X0108770Y0373889D03*
D60*
X0091872Y0373844D03*
X0091872Y0373619D03*
X0091872Y0373529D03*
X0091872Y0373394D03*
X0091872Y0373304D03*
X0091872Y0373169D03*
X0091872Y0373079D03*
X0091872Y0372944D03*
X0091872Y0372854D03*
D61*
X0093267Y0378479D03*
X0100062Y0372854D03*
X0101187Y0372854D03*
D62*
X0108770Y0372854D03*
X0108770Y0372944D03*
X0108770Y0373079D03*
X0108770Y0373169D03*
D63*
X0091872Y0373214D03*
X0091872Y0373259D03*
X0091872Y0373349D03*
X0091872Y0373439D03*
X0091872Y0373484D03*
X0091872Y0373574D03*
X0091872Y0373664D03*
X0091872Y0373124D03*
X0091872Y0373034D03*
X0091872Y0372989D03*
X0091872Y0372899D03*
D64*
X0100040Y0372899D03*
X0101210Y0372989D03*
D65*
X0101187Y0372899D03*
D66*
X0108770Y0372899D03*
X0108770Y0372989D03*
X0108770Y0373259D03*
X0108770Y0373349D03*
D67*
X0101232Y0373079D03*
X0100017Y0372944D03*
X0093267Y0376994D03*
X0113742Y0392969D03*
D68*
X0100625Y0376994D03*
X0101210Y0372944D03*
D69*
X0101232Y0373034D03*
X0100017Y0373034D03*
X0100017Y0372989D03*
X0100602Y0376949D03*
X0104157Y0393014D03*
X0094527Y0393014D03*
D70*
X0108792Y0373484D03*
X0108792Y0373439D03*
X0108792Y0373214D03*
X0108792Y0373124D03*
X0108792Y0373034D03*
D71*
X0101255Y0373169D03*
X0099995Y0373079D03*
D72*
X0099995Y0373124D03*
X0101255Y0373124D03*
X0101255Y0373214D03*
D73*
X0101277Y0373304D03*
X0099972Y0373169D03*
D74*
X0099972Y0373214D03*
X0101277Y0373259D03*
X0100602Y0376859D03*
D75*
X0100625Y0376814D03*
X0101300Y0373349D03*
X0099950Y0373259D03*
X0104180Y0393059D03*
X0113720Y0393014D03*
X0094550Y0393059D03*
D76*
X0099950Y0373304D03*
X0101300Y0373394D03*
D77*
X0100692Y0380279D03*
X0108792Y0373754D03*
X0108792Y0373619D03*
X0108792Y0373529D03*
X0108792Y0373394D03*
X0108792Y0373304D03*
D78*
X0101322Y0373439D03*
X0101322Y0373484D03*
X0099927Y0373439D03*
X0099927Y0373349D03*
X0093267Y0376949D03*
D79*
X0100602Y0376769D03*
X0099927Y0373394D03*
D80*
X0099905Y0373484D03*
X0101345Y0373574D03*
D81*
X0101345Y0373529D03*
X0101345Y0373619D03*
X0099905Y0373529D03*
X0099860Y0373619D03*
D82*
X0099882Y0373574D03*
X0101367Y0373664D03*
X0101367Y0373709D03*
D83*
X0101390Y0373799D03*
X0099860Y0373664D03*
X0099815Y0373799D03*
X0100625Y0376634D03*
X0109175Y0376949D03*
D84*
X0099837Y0373709D03*
D85*
X0100670Y0380819D03*
X0091850Y0373754D03*
D86*
X0099860Y0373754D03*
X0101390Y0373754D03*
X0100625Y0376679D03*
X0104180Y0393104D03*
X0094550Y0393104D03*
D87*
X0099837Y0373844D03*
X0101412Y0373844D03*
D88*
X0108770Y0373844D03*
D89*
X0091872Y0373889D03*
D90*
X0099792Y0373889D03*
X0099792Y0373934D03*
X0101412Y0373889D03*
X0101457Y0373934D03*
X0101457Y0374024D03*
X0100647Y0376589D03*
X0113742Y0393059D03*
D91*
X0105912Y0373934D03*
D92*
X0111515Y0373934D03*
X0092840Y0390584D03*
D93*
X0091872Y0374069D03*
X0091872Y0373979D03*
D94*
X0099770Y0373979D03*
X0099770Y0374069D03*
X0101435Y0373979D03*
X0100625Y0376544D03*
D95*
X0105777Y0373979D03*
D96*
X0111627Y0373979D03*
X0112122Y0390629D03*
X0092952Y0390719D03*
D97*
X0099770Y0374024D03*
X0101480Y0374114D03*
D98*
X0105687Y0374024D03*
X0111987Y0378164D03*
X0111987Y0378209D03*
X0112077Y0381359D03*
X0093177Y0391034D03*
D99*
X0111740Y0374024D03*
X0112235Y0390809D03*
D100*
X0101502Y0374204D03*
X0101457Y0374069D03*
D101*
X0105597Y0374069D03*
X0112077Y0378479D03*
D102*
X0111807Y0374069D03*
D103*
X0087845Y0374114D03*
X0087755Y0375959D03*
X0087755Y0376049D03*
X0087755Y0376139D03*
D104*
X0091265Y0374114D03*
X0096305Y0374699D03*
X0104900Y0374789D03*
X0112640Y0375149D03*
X0103595Y0392024D03*
D105*
X0095427Y0374114D03*
D106*
X0099747Y0374114D03*
X0099747Y0374159D03*
X0100647Y0376499D03*
D107*
X0105530Y0374114D03*
X0112145Y0378614D03*
X0112145Y0378659D03*
X0112235Y0381224D03*
D108*
X0112032Y0378299D03*
X0111987Y0377264D03*
X0111897Y0374114D03*
X0112392Y0390989D03*
D109*
X0112775Y0391484D03*
X0112415Y0379334D03*
X0112370Y0379289D03*
X0087800Y0374834D03*
X0087755Y0374609D03*
X0087755Y0375059D03*
X0087800Y0374159D03*
D110*
X0095652Y0374159D03*
X0102897Y0391124D03*
X0112077Y0378434D03*
X0112032Y0377174D03*
X0111942Y0374159D03*
D111*
X0101480Y0374159D03*
D112*
X0105462Y0374159D03*
X0112212Y0378839D03*
X0103077Y0391349D03*
D113*
X0112392Y0379379D03*
X0112302Y0376454D03*
X0087777Y0374519D03*
X0087777Y0374429D03*
X0087777Y0374294D03*
X0087777Y0374204D03*
D114*
X0095765Y0374204D03*
X0093380Y0391304D03*
X0112280Y0381179D03*
X0112190Y0378794D03*
X0112145Y0376904D03*
D115*
X0101525Y0374294D03*
X0099725Y0374204D03*
X0100625Y0376454D03*
X0093290Y0376904D03*
D116*
X0087755Y0377129D03*
X0087755Y0377219D03*
X0087755Y0377354D03*
X0087755Y0377444D03*
X0087755Y0377804D03*
X0087755Y0377894D03*
X0087755Y0378119D03*
X0087755Y0378254D03*
X0087710Y0379244D03*
X0093470Y0391394D03*
X0103100Y0391394D03*
X0105395Y0374204D03*
X0112235Y0376679D03*
X0112280Y0379019D03*
D117*
X0112100Y0376994D03*
X0112010Y0374204D03*
D118*
X0112257Y0374474D03*
X0112347Y0376364D03*
X0112347Y0376409D03*
X0112437Y0379424D03*
X0095967Y0374339D03*
X0093582Y0391574D03*
X0087777Y0374789D03*
X0087777Y0374699D03*
X0087777Y0374564D03*
X0087777Y0374474D03*
X0087777Y0374384D03*
X0087777Y0374339D03*
X0087777Y0374249D03*
D119*
X0087777Y0377309D03*
X0087777Y0377399D03*
X0087777Y0377489D03*
X0087777Y0377759D03*
X0087777Y0377849D03*
X0087777Y0377939D03*
X0087732Y0378164D03*
X0087732Y0378209D03*
X0087732Y0378299D03*
X0087732Y0378434D03*
X0087732Y0378524D03*
X0087732Y0378614D03*
X0087732Y0378659D03*
X0087732Y0378749D03*
X0087732Y0378839D03*
X0087732Y0378884D03*
X0087732Y0378974D03*
X0087732Y0379064D03*
X0087732Y0379199D03*
X0087687Y0379334D03*
X0087687Y0379424D03*
X0087687Y0379514D03*
X0087687Y0379559D03*
X0087687Y0379649D03*
X0087687Y0379739D03*
X0087687Y0379784D03*
X0087687Y0379874D03*
X0087687Y0379964D03*
X0087687Y0380009D03*
X0087687Y0380099D03*
X0087687Y0380189D03*
X0087687Y0380459D03*
X0087642Y0380684D03*
X0087642Y0380774D03*
X0087642Y0380864D03*
X0087642Y0381134D03*
X0087642Y0381224D03*
X0087642Y0381314D03*
X0095832Y0374249D03*
X0112212Y0376724D03*
X0112257Y0378974D03*
D120*
X0099725Y0374249D03*
D121*
X0099702Y0374339D03*
X0101502Y0374249D03*
X0101547Y0374339D03*
X0101547Y0374384D03*
X0100647Y0376409D03*
D122*
X0105350Y0374249D03*
X0112190Y0374384D03*
X0112235Y0376589D03*
X0103190Y0391484D03*
D123*
X0112190Y0378749D03*
X0112145Y0376859D03*
X0112055Y0374249D03*
D124*
X0095922Y0374294D03*
X0087777Y0374744D03*
X0087777Y0375104D03*
X0087777Y0375194D03*
X0087777Y0375329D03*
X0087777Y0375419D03*
X0087777Y0375554D03*
X0087777Y0375644D03*
D125*
X0099702Y0374294D03*
D126*
X0105305Y0374294D03*
X0112235Y0374429D03*
X0103190Y0391529D03*
X0093560Y0391529D03*
X0087755Y0374969D03*
X0087755Y0374879D03*
X0087800Y0374654D03*
D127*
X0087710Y0379379D03*
X0087710Y0379469D03*
X0087665Y0380504D03*
X0087665Y0380729D03*
X0087665Y0380819D03*
X0087665Y0381179D03*
X0087665Y0381269D03*
X0112235Y0378929D03*
X0112190Y0376769D03*
X0112100Y0374294D03*
D128*
X0112460Y0379514D03*
X0112505Y0380909D03*
X0105260Y0374339D03*
X0103235Y0391574D03*
D129*
X0112685Y0391349D03*
X0112370Y0381089D03*
X0112325Y0379064D03*
X0112145Y0374339D03*
X0087755Y0376949D03*
X0087755Y0377039D03*
X0087755Y0377264D03*
X0087755Y0377534D03*
X0087755Y0377624D03*
X0087755Y0377714D03*
X0087755Y0377984D03*
X0087755Y0378074D03*
X0087755Y0378389D03*
D130*
X0093650Y0391664D03*
X0096035Y0374384D03*
X0105215Y0374384D03*
X0112325Y0374564D03*
X0112505Y0379649D03*
X0112505Y0380864D03*
D131*
X0101570Y0374474D03*
X0099680Y0374384D03*
D132*
X0096080Y0374429D03*
X0105170Y0374429D03*
X0112415Y0374654D03*
D133*
X0101570Y0374429D03*
X0099680Y0374429D03*
D134*
X0096125Y0374474D03*
X0112415Y0374699D03*
X0112460Y0376049D03*
D135*
X0101592Y0374564D03*
X0099657Y0374474D03*
X0100647Y0376364D03*
D136*
X0105147Y0374474D03*
X0112572Y0380774D03*
D137*
X0096170Y0374519D03*
D138*
X0099657Y0374519D03*
X0101592Y0374519D03*
X0100647Y0376319D03*
D139*
X0105080Y0374519D03*
X0112595Y0379919D03*
D140*
X0112347Y0376319D03*
X0112302Y0374519D03*
X0093627Y0391619D03*
D141*
X0093830Y0391889D03*
X0096215Y0374564D03*
X0105035Y0374609D03*
X0112685Y0380549D03*
D142*
X0109220Y0378524D03*
X0099635Y0374609D03*
X0099635Y0374564D03*
D143*
X0105080Y0374564D03*
X0112460Y0374789D03*
X0112505Y0374834D03*
X0112505Y0375914D03*
X0112640Y0380009D03*
D144*
X0112572Y0375734D03*
X0096237Y0374609D03*
D145*
X0093695Y0391709D03*
X0103325Y0391709D03*
X0112910Y0391664D03*
X0112550Y0379784D03*
X0112550Y0379739D03*
X0112415Y0376184D03*
X0112415Y0376139D03*
X0112370Y0374609D03*
D146*
X0112617Y0375104D03*
X0112617Y0375644D03*
X0112752Y0380369D03*
X0096282Y0374654D03*
X0093897Y0391979D03*
D147*
X0105012Y0374654D03*
X0112572Y0375779D03*
D148*
X0112707Y0380189D03*
X0112707Y0380234D03*
X0104967Y0374699D03*
D149*
X0112685Y0375419D03*
X0096350Y0374744D03*
X0093965Y0392069D03*
D150*
X0097835Y0378344D03*
X0104945Y0374744D03*
X0112550Y0374969D03*
X0112730Y0380279D03*
D151*
X0112460Y0374744D03*
X0093740Y0391754D03*
D152*
X0096372Y0374789D03*
X0104832Y0374924D03*
D153*
X0096395Y0374834D03*
X0094010Y0392114D03*
X0103640Y0392114D03*
D154*
X0093942Y0392024D03*
X0104877Y0374834D03*
D155*
X0096440Y0374879D03*
D156*
X0104855Y0374879D03*
X0103595Y0392069D03*
D157*
X0113045Y0391844D03*
X0112685Y0380144D03*
X0112505Y0374879D03*
D158*
X0112302Y0376499D03*
X0112347Y0379199D03*
X0112437Y0380999D03*
X0112752Y0391439D03*
X0093537Y0391484D03*
X0087777Y0375914D03*
X0087777Y0375824D03*
X0087777Y0375734D03*
X0087777Y0375689D03*
X0087777Y0375599D03*
X0087777Y0375509D03*
X0087777Y0375464D03*
X0087777Y0375374D03*
X0087777Y0375284D03*
X0087777Y0375239D03*
X0087777Y0375149D03*
X0087777Y0375014D03*
X0087777Y0374924D03*
D159*
X0096462Y0374924D03*
D160*
X0112550Y0374924D03*
X0112550Y0375824D03*
D161*
X0100602Y0378254D03*
X0096462Y0374969D03*
X0094077Y0392204D03*
D162*
X0104810Y0374969D03*
X0113225Y0392069D03*
D163*
X0096552Y0375059D03*
X0096507Y0375014D03*
D164*
X0100647Y0378299D03*
X0104787Y0375014D03*
X0103707Y0392159D03*
X0094032Y0392159D03*
X0113247Y0392114D03*
D165*
X0113090Y0391889D03*
X0112730Y0380459D03*
X0112730Y0380414D03*
X0112595Y0375689D03*
X0112595Y0375059D03*
X0112595Y0375014D03*
X0103505Y0391934D03*
X0093875Y0391934D03*
D166*
X0104765Y0375059D03*
D167*
X0096552Y0375104D03*
X0113382Y0392294D03*
D168*
X0104742Y0375104D03*
X0103707Y0392204D03*
D169*
X0100625Y0378164D03*
X0097565Y0378299D03*
X0096575Y0375149D03*
X0104675Y0375239D03*
X0113360Y0392249D03*
D170*
X0104720Y0375149D03*
X0100625Y0378209D03*
X0103730Y0392249D03*
X0094100Y0392249D03*
D171*
X0100602Y0378029D03*
X0104607Y0375419D03*
X0096597Y0375194D03*
D172*
X0104697Y0375194D03*
X0103797Y0392294D03*
D173*
X0112662Y0375194D03*
D174*
X0104630Y0375374D03*
X0096620Y0375239D03*
X0103820Y0392339D03*
D175*
X0112685Y0375464D03*
X0112685Y0375374D03*
X0112685Y0375284D03*
X0112685Y0375239D03*
D176*
X0104585Y0375464D03*
X0100625Y0377984D03*
X0096620Y0375284D03*
X0113450Y0392384D03*
D177*
X0104652Y0375284D03*
X0094167Y0392339D03*
D178*
X0094235Y0392429D03*
X0103910Y0392429D03*
X0096665Y0375329D03*
D179*
X0104630Y0375329D03*
D180*
X0112707Y0375329D03*
D181*
X0104540Y0375599D03*
X0096665Y0375374D03*
X0094280Y0392474D03*
X0103910Y0392474D03*
D182*
X0104562Y0375554D03*
X0096687Y0375419D03*
D183*
X0096687Y0375464D03*
D184*
X0096732Y0375509D03*
X0104517Y0375689D03*
X0113517Y0392474D03*
D185*
X0104562Y0375509D03*
D186*
X0112662Y0375509D03*
D187*
X0104472Y0375779D03*
X0100602Y0377804D03*
X0096732Y0375554D03*
X0113562Y0392519D03*
D188*
X0112640Y0375554D03*
X0103550Y0391979D03*
D189*
X0100625Y0377849D03*
X0104495Y0375734D03*
X0096755Y0375599D03*
D190*
X0112617Y0375599D03*
X0112752Y0380324D03*
X0113112Y0391934D03*
D191*
X0104450Y0375869D03*
X0096755Y0375644D03*
D192*
X0104517Y0375644D03*
X0103932Y0392519D03*
D193*
X0100625Y0377759D03*
X0096800Y0375689D03*
X0094370Y0392609D03*
D194*
X0093267Y0377759D03*
X0096777Y0375734D03*
X0104427Y0375914D03*
X0104427Y0375959D03*
X0104022Y0392609D03*
D195*
X0112370Y0379244D03*
X0112280Y0376544D03*
X0087755Y0375869D03*
X0087755Y0375779D03*
D196*
X0093267Y0377669D03*
X0096822Y0375779D03*
X0104427Y0376004D03*
D197*
X0100625Y0377714D03*
X0096800Y0375824D03*
X0093290Y0377624D03*
X0093290Y0377714D03*
D198*
X0094347Y0392564D03*
X0103977Y0392564D03*
X0104472Y0375824D03*
D199*
X0096845Y0375869D03*
D200*
X0093807Y0391844D03*
X0103437Y0391844D03*
X0112662Y0380594D03*
X0112662Y0380054D03*
X0112527Y0375869D03*
D201*
X0104382Y0376139D03*
X0104382Y0376184D03*
X0096822Y0375914D03*
X0093267Y0377489D03*
X0093267Y0377534D03*
X0093267Y0377849D03*
X0093267Y0377939D03*
X0093267Y0377984D03*
X0113607Y0392609D03*
D202*
X0104360Y0376274D03*
X0100625Y0377624D03*
X0096845Y0375959D03*
X0094415Y0392699D03*
D203*
X0093762Y0391799D03*
X0103392Y0391799D03*
X0112617Y0380684D03*
X0112662Y0380639D03*
X0112617Y0379964D03*
X0112482Y0375959D03*
D204*
X0112415Y0381044D03*
X0112685Y0391394D03*
X0087800Y0376004D03*
D205*
X0093290Y0377444D03*
X0096845Y0376004D03*
X0104360Y0376229D03*
X0113630Y0392654D03*
D206*
X0112977Y0391754D03*
X0112482Y0376004D03*
D207*
X0104067Y0392699D03*
X0096867Y0376049D03*
X0093267Y0377399D03*
X0093267Y0378074D03*
D208*
X0104405Y0376049D03*
D209*
X0112347Y0379154D03*
X0087777Y0376994D03*
X0087777Y0376904D03*
X0087777Y0376769D03*
X0087777Y0376679D03*
X0087777Y0376544D03*
X0087777Y0376454D03*
X0087777Y0376319D03*
X0087777Y0376229D03*
X0087777Y0376094D03*
D210*
X0093267Y0377354D03*
X0093267Y0378119D03*
X0096867Y0376094D03*
X0100602Y0377579D03*
X0104337Y0376319D03*
D211*
X0104382Y0376094D03*
X0104022Y0392654D03*
X0094392Y0392654D03*
X0093267Y0378029D03*
X0093267Y0377894D03*
X0093267Y0377579D03*
D212*
X0112437Y0376094D03*
D213*
X0104360Y0376364D03*
X0104360Y0376409D03*
X0104315Y0376499D03*
X0096890Y0376184D03*
X0096890Y0376139D03*
D214*
X0093492Y0391439D03*
X0087777Y0377174D03*
X0087777Y0377084D03*
X0087777Y0376859D03*
X0087777Y0376814D03*
X0087777Y0376724D03*
X0087777Y0376634D03*
X0087777Y0376589D03*
X0087777Y0376499D03*
X0087777Y0376409D03*
X0087777Y0376364D03*
X0087777Y0376274D03*
X0087777Y0376184D03*
X0103122Y0391439D03*
X0112302Y0379109D03*
X0112257Y0376634D03*
D215*
X0104337Y0376454D03*
X0096912Y0376319D03*
X0096912Y0376229D03*
D216*
X0112415Y0376229D03*
X0112505Y0379604D03*
D217*
X0109197Y0377309D03*
X0113652Y0392699D03*
X0096912Y0376274D03*
D218*
X0112392Y0376274D03*
X0112482Y0379559D03*
X0112842Y0391574D03*
D219*
X0109175Y0378164D03*
X0109175Y0377264D03*
X0104315Y0376634D03*
X0104315Y0376589D03*
X0100625Y0377489D03*
X0096935Y0376409D03*
X0096935Y0376364D03*
X0094460Y0392789D03*
D220*
X0093267Y0378254D03*
X0093267Y0377219D03*
X0096957Y0376544D03*
X0096957Y0376454D03*
X0104292Y0376769D03*
D221*
X0104292Y0376724D03*
X0104292Y0376814D03*
X0104292Y0376859D03*
X0096957Y0376499D03*
X0093267Y0377264D03*
X0104112Y0392789D03*
D222*
X0113675Y0392744D03*
X0104315Y0376679D03*
X0104315Y0376544D03*
X0100625Y0377444D03*
D223*
X0100625Y0377399D03*
X0104270Y0377174D03*
X0104270Y0377084D03*
X0104270Y0377039D03*
X0104270Y0376949D03*
X0104270Y0378299D03*
X0109175Y0378209D03*
X0096980Y0376634D03*
X0096980Y0376589D03*
X0093290Y0378299D03*
D224*
X0096980Y0376679D03*
X0104270Y0376904D03*
X0104270Y0376994D03*
X0109175Y0377219D03*
D225*
X0104247Y0377264D03*
X0104247Y0377399D03*
X0104247Y0377489D03*
X0104247Y0377534D03*
X0097002Y0376859D03*
X0097002Y0376814D03*
X0097002Y0376724D03*
X0093267Y0377174D03*
X0094482Y0392834D03*
X0113697Y0392789D03*
D226*
X0100625Y0376724D03*
D227*
X0100602Y0377354D03*
X0104247Y0377354D03*
X0104247Y0377219D03*
X0104247Y0377129D03*
X0109197Y0378254D03*
X0097002Y0376769D03*
X0093267Y0378344D03*
D228*
X0112167Y0376814D03*
D229*
X0104135Y0392879D03*
X0097025Y0376904D03*
D230*
X0100625Y0376904D03*
X0109175Y0376994D03*
D231*
X0109175Y0377174D03*
X0109175Y0378299D03*
X0100625Y0377309D03*
X0097025Y0377039D03*
X0097025Y0376949D03*
D232*
X0093357Y0391259D03*
X0102987Y0391259D03*
X0112122Y0376949D03*
D233*
X0104247Y0377579D03*
X0097047Y0377219D03*
X0097047Y0377129D03*
X0097002Y0376994D03*
X0093267Y0377129D03*
D234*
X0100625Y0377084D03*
X0100625Y0377039D03*
X0109175Y0377039D03*
X0109175Y0378389D03*
X0113720Y0392924D03*
D235*
X0112482Y0391124D03*
X0112077Y0377039D03*
X0102987Y0391214D03*
X0093312Y0391214D03*
D236*
X0097025Y0378209D03*
X0097025Y0377309D03*
X0097025Y0377264D03*
X0097025Y0377174D03*
X0097025Y0377084D03*
D237*
X0100625Y0377174D03*
X0102650Y0378299D03*
X0109175Y0377084D03*
D238*
X0112055Y0377084D03*
D239*
X0109175Y0378344D03*
X0100625Y0377129D03*
D240*
X0100625Y0377219D03*
X0109175Y0377129D03*
D241*
X0112055Y0377129D03*
X0102920Y0391169D03*
D242*
X0112010Y0377219D03*
D243*
X0104247Y0377759D03*
X0104247Y0377939D03*
X0100602Y0377264D03*
X0093267Y0378389D03*
X0113697Y0392834D03*
D244*
X0093267Y0378209D03*
X0093267Y0378164D03*
X0093267Y0377309D03*
D245*
X0104270Y0377309D03*
X0104270Y0377624D03*
X0104270Y0377714D03*
X0104270Y0377849D03*
X0104270Y0377984D03*
X0104270Y0378074D03*
X0104270Y0378164D03*
X0104270Y0378209D03*
D246*
X0102830Y0391034D03*
X0111965Y0377309D03*
D247*
X0097047Y0377354D03*
X0097047Y0377444D03*
X0097047Y0377579D03*
X0097047Y0377669D03*
X0097047Y0377804D03*
X0097047Y0377894D03*
X0097047Y0378029D03*
X0097047Y0378119D03*
D248*
X0102087Y0390044D03*
X0111222Y0377354D03*
D249*
X0111222Y0377399D03*
D250*
X0104270Y0377444D03*
X0104270Y0377669D03*
X0104270Y0377804D03*
X0104270Y0377894D03*
X0104270Y0378029D03*
X0104270Y0378119D03*
X0104270Y0378254D03*
X0097070Y0378254D03*
X0094505Y0392879D03*
D251*
X0092435Y0390044D03*
X0111605Y0389954D03*
X0111245Y0378119D03*
X0111245Y0378029D03*
X0111200Y0377444D03*
D252*
X0111200Y0377489D03*
X0111245Y0378074D03*
D253*
X0100625Y0377534D03*
D254*
X0092412Y0389999D03*
X0111222Y0377984D03*
X0111222Y0377939D03*
X0111222Y0377849D03*
X0111177Y0377759D03*
X0111177Y0377624D03*
X0111222Y0377534D03*
D255*
X0112617Y0391304D03*
X0087642Y0381044D03*
X0087642Y0380954D03*
X0087642Y0380594D03*
X0087687Y0380369D03*
X0087687Y0380279D03*
X0087687Y0380144D03*
X0087687Y0380054D03*
X0087687Y0379919D03*
X0087687Y0379829D03*
X0087687Y0379694D03*
X0087687Y0379604D03*
X0087732Y0379154D03*
X0087732Y0379019D03*
X0087732Y0378929D03*
X0087732Y0378794D03*
X0087732Y0378704D03*
X0087732Y0378569D03*
X0087732Y0378479D03*
X0087732Y0378344D03*
X0087777Y0378029D03*
X0087777Y0377669D03*
X0087777Y0377579D03*
D256*
X0111177Y0377579D03*
X0111177Y0377669D03*
D257*
X0100625Y0377669D03*
X0093290Y0377804D03*
D258*
X0102065Y0389999D03*
X0111515Y0389864D03*
X0111560Y0389909D03*
X0111200Y0377714D03*
D259*
X0111200Y0377804D03*
X0111200Y0377894D03*
D260*
X0100625Y0377894D03*
D261*
X0100625Y0377939D03*
D262*
X0100625Y0378074D03*
D263*
X0100625Y0378119D03*
X0094145Y0392294D03*
D264*
X0102875Y0391079D03*
X0112010Y0378254D03*
D265*
X0102155Y0378344D03*
D266*
X0112032Y0378344D03*
X0093222Y0391079D03*
D267*
X0100692Y0378434D03*
X0100692Y0378389D03*
D268*
X0093245Y0391124D03*
X0112415Y0391034D03*
X0112145Y0381314D03*
X0112055Y0378389D03*
D269*
X0109175Y0378434D03*
X0093290Y0378524D03*
D270*
X0090995Y0388154D03*
X0100670Y0378479D03*
D271*
X0109175Y0378479D03*
D272*
X0110075Y0387974D03*
X0100670Y0378524D03*
D273*
X0112100Y0378524D03*
D274*
X0093267Y0378569D03*
D275*
X0100692Y0378569D03*
D276*
X0112122Y0378569D03*
X0112527Y0391169D03*
D277*
X0100647Y0388109D03*
X0100692Y0378659D03*
X0100692Y0378614D03*
X0090972Y0388109D03*
D278*
X0100670Y0378704D03*
X0110030Y0387929D03*
D279*
X0112167Y0378704D03*
D280*
X0100670Y0378749D03*
X0100580Y0388064D03*
D281*
X0100557Y0388019D03*
X0100692Y0378794D03*
D282*
X0100670Y0378839D03*
X0100670Y0378884D03*
D283*
X0093425Y0391349D03*
X0087665Y0381359D03*
X0087665Y0381089D03*
X0087665Y0380999D03*
X0087665Y0380909D03*
X0087665Y0380639D03*
X0087665Y0380549D03*
X0087665Y0380414D03*
X0087665Y0380324D03*
X0087665Y0380234D03*
X0087710Y0379289D03*
X0087710Y0379109D03*
X0112235Y0378884D03*
X0112325Y0381134D03*
X0112595Y0391259D03*
D284*
X0100692Y0378929D03*
D285*
X0100692Y0378974D03*
X0100557Y0387974D03*
X0109962Y0387839D03*
D286*
X0109940Y0387794D03*
X0100490Y0387929D03*
X0100670Y0379019D03*
D287*
X0100692Y0379064D03*
D288*
X0100670Y0379109D03*
X0100445Y0387884D03*
X0109895Y0387749D03*
D289*
X0100670Y0379154D03*
D290*
X0100692Y0379199D03*
X0090792Y0387884D03*
D291*
X0100670Y0379244D03*
D292*
X0100692Y0379289D03*
X0109827Y0387659D03*
D293*
X0109805Y0387614D03*
X0100355Y0387749D03*
X0100670Y0379334D03*
D294*
X0100692Y0379379D03*
D295*
X0100692Y0379424D03*
D296*
X0100670Y0379469D03*
X0109760Y0387569D03*
X0090680Y0387704D03*
D297*
X0103280Y0391619D03*
X0112820Y0391529D03*
X0112460Y0380954D03*
X0112460Y0379469D03*
D298*
X0100670Y0379514D03*
X0090635Y0387659D03*
D299*
X0090612Y0387614D03*
X0100242Y0387614D03*
X0100692Y0379559D03*
D300*
X0100692Y0379604D03*
X0109692Y0387479D03*
D301*
X0100692Y0379649D03*
X0090567Y0387524D03*
D302*
X0090545Y0387479D03*
X0100670Y0379694D03*
D303*
X0112527Y0379694D03*
X0112572Y0380819D03*
X0112887Y0391619D03*
D304*
X0100692Y0379739D03*
X0090522Y0387389D03*
D305*
X0100692Y0379784D03*
D306*
X0100692Y0379829D03*
D307*
X0103392Y0391754D03*
X0112617Y0380729D03*
X0112572Y0379829D03*
D308*
X0100692Y0379874D03*
D309*
X0112595Y0379874D03*
X0112955Y0391709D03*
D310*
X0100692Y0379919D03*
D311*
X0100692Y0379964D03*
D312*
X0100692Y0380009D03*
D313*
X0100692Y0380054D03*
D314*
X0100715Y0380099D03*
D315*
X0103482Y0391889D03*
X0113022Y0391799D03*
X0112662Y0380099D03*
D316*
X0100692Y0380144D03*
D317*
X0100692Y0380189D03*
D318*
X0100692Y0380234D03*
D319*
X0100692Y0380324D03*
D320*
X0100692Y0380369D03*
D321*
X0100692Y0380414D03*
D322*
X0100692Y0380459D03*
D323*
X0100692Y0380504D03*
D324*
X0112707Y0380504D03*
D325*
X0100692Y0380549D03*
D326*
X0100692Y0380594D03*
D327*
X0100692Y0380639D03*
D328*
X0100670Y0380684D03*
D329*
X0100692Y0380729D03*
D330*
X0100670Y0380774D03*
D331*
X0100647Y0380864D03*
D332*
X0100647Y0380909D03*
D333*
X0100625Y0380954D03*
D334*
X0100625Y0380999D03*
D335*
X0100580Y0381044D03*
D336*
X0100557Y0381089D03*
D337*
X0100557Y0381134D03*
D338*
X0100467Y0381179D03*
D339*
X0100377Y0381269D03*
D340*
X0093290Y0391169D03*
X0112190Y0381269D03*
D341*
X0100287Y0381314D03*
D342*
X0100152Y0381359D03*
D343*
X0096665Y0381404D03*
D344*
X0093110Y0390944D03*
X0102785Y0390944D03*
X0112280Y0390854D03*
X0112010Y0381404D03*
D345*
X0096755Y0381449D03*
D346*
X0093020Y0390809D03*
X0111920Y0381449D03*
D347*
X0096845Y0381494D03*
D348*
X0111830Y0381494D03*
D349*
X0096980Y0381539D03*
D350*
X0111672Y0381539D03*
D351*
X0099972Y0381584D03*
X0099972Y0381674D03*
X0099972Y0381764D03*
X0099972Y0381809D03*
X0099972Y0381899D03*
X0099972Y0381989D03*
X0099972Y0382034D03*
X0099972Y0382124D03*
X0099972Y0382259D03*
X0099972Y0382349D03*
X0099972Y0382439D03*
D352*
X0099995Y0381629D03*
D353*
X0099972Y0381719D03*
X0099972Y0381854D03*
X0099972Y0381944D03*
X0099972Y0382079D03*
X0099972Y0382169D03*
X0099972Y0382529D03*
D354*
X0099995Y0382484D03*
X0099995Y0382709D03*
X0099995Y0382799D03*
X0099995Y0382214D03*
D355*
X0099995Y0382304D03*
X0099995Y0382394D03*
X0099995Y0382619D03*
D356*
X0099972Y0382574D03*
X0099972Y0382664D03*
X0099972Y0382889D03*
X0099972Y0382934D03*
X0099972Y0383024D03*
X0099972Y0383114D03*
X0099972Y0383159D03*
X0099972Y0383249D03*
X0099972Y0383339D03*
X0099972Y0383384D03*
X0099972Y0383474D03*
X0099972Y0383564D03*
X0099972Y0383609D03*
X0099972Y0383699D03*
D357*
X0099972Y0383654D03*
X0099972Y0383519D03*
X0099972Y0383429D03*
X0099972Y0383294D03*
X0099972Y0383204D03*
X0099972Y0383069D03*
X0099972Y0382979D03*
X0099972Y0382844D03*
X0099972Y0382754D03*
D358*
X0099950Y0383744D03*
D359*
X0099950Y0383789D03*
D360*
X0099995Y0383834D03*
X0099995Y0384014D03*
D361*
X0099972Y0383969D03*
X0099972Y0383879D03*
X0099972Y0384104D03*
X0099972Y0384194D03*
X0099972Y0384329D03*
X0099972Y0384419D03*
X0099972Y0384554D03*
X0099972Y0384644D03*
X0099972Y0384779D03*
X0099972Y0384869D03*
X0100062Y0387344D03*
D362*
X0099972Y0384734D03*
X0099972Y0384599D03*
X0099972Y0384509D03*
X0099972Y0384464D03*
X0099972Y0384374D03*
X0099972Y0384284D03*
X0099972Y0384239D03*
X0099972Y0384149D03*
X0099972Y0384059D03*
X0099972Y0383924D03*
D363*
X0099950Y0384689D03*
X0099950Y0384824D03*
X0099950Y0384914D03*
X0099950Y0384959D03*
X0099950Y0385049D03*
X0099950Y0385139D03*
X0099950Y0385274D03*
X0099950Y0385364D03*
X0100040Y0387299D03*
D364*
X0100040Y0387254D03*
X0099950Y0385229D03*
X0099950Y0385004D03*
D365*
X0099972Y0385094D03*
X0099972Y0385319D03*
X0099972Y0385454D03*
X0099972Y0385544D03*
X0099972Y0385679D03*
X0099972Y0385769D03*
X0099972Y0385904D03*
X0099972Y0385994D03*
D366*
X0099972Y0386084D03*
X0099972Y0385814D03*
X0099972Y0385724D03*
X0099972Y0385634D03*
X0099972Y0385589D03*
X0099972Y0385499D03*
X0099972Y0385409D03*
X0099972Y0385184D03*
X0099972Y0386984D03*
X0100017Y0387164D03*
X0100017Y0387209D03*
D367*
X0099950Y0386714D03*
X0099950Y0386624D03*
X0099950Y0386534D03*
X0099950Y0386489D03*
X0099950Y0386399D03*
X0099950Y0386309D03*
X0099950Y0386264D03*
X0099950Y0386174D03*
X0099950Y0386039D03*
X0099950Y0385949D03*
X0099950Y0385859D03*
D368*
X0099950Y0386129D03*
X0099950Y0386219D03*
X0099950Y0386354D03*
X0099950Y0386444D03*
X0099950Y0386579D03*
X0099950Y0386804D03*
X0099950Y0386894D03*
D369*
X0099972Y0386669D03*
D370*
X0099972Y0386759D03*
X0099972Y0386849D03*
X0099972Y0386939D03*
D371*
X0099995Y0387029D03*
X0099995Y0387119D03*
D372*
X0099995Y0387074D03*
D373*
X0100085Y0387389D03*
X0100130Y0387434D03*
D374*
X0100175Y0387524D03*
X0109625Y0387389D03*
X0090545Y0387434D03*
D375*
X0109670Y0387434D03*
D376*
X0100152Y0387479D03*
D377*
X0100287Y0387659D03*
X0109737Y0387524D03*
D378*
X0090590Y0387569D03*
D379*
X0100242Y0387569D03*
D380*
X0100332Y0387704D03*
D381*
X0109872Y0387704D03*
D382*
X0090702Y0387749D03*
D383*
X0090725Y0387794D03*
D384*
X0100377Y0387794D03*
D385*
X0100445Y0387839D03*
X0090770Y0387839D03*
D386*
X0110007Y0387884D03*
D387*
X0090837Y0387929D03*
D388*
X0090860Y0387974D03*
D389*
X0090905Y0388019D03*
D390*
X0100647Y0388154D03*
X0110097Y0388019D03*
D391*
X0090927Y0388064D03*
D392*
X0100692Y0388199D03*
X0110142Y0388064D03*
D393*
X0110165Y0388109D03*
D394*
X0110210Y0388154D03*
D395*
X0091040Y0388199D03*
D396*
X0100782Y0388334D03*
X0110232Y0388199D03*
D397*
X0091085Y0388244D03*
D398*
X0100737Y0388244D03*
D399*
X0100850Y0388379D03*
X0110300Y0388244D03*
X0091175Y0388379D03*
D400*
X0091107Y0388289D03*
D401*
X0100760Y0388289D03*
D402*
X0100850Y0388424D03*
X0110300Y0388289D03*
X0091220Y0388424D03*
D403*
X0091152Y0388334D03*
D404*
X0110367Y0388334D03*
D405*
X0110367Y0388379D03*
D406*
X0110435Y0388424D03*
X0091310Y0388559D03*
D407*
X0091242Y0388469D03*
D408*
X0100895Y0388469D03*
D409*
X0100985Y0388604D03*
X0110435Y0388469D03*
X0091355Y0388604D03*
D410*
X0091287Y0388514D03*
D411*
X0100940Y0388514D03*
D412*
X0101052Y0388649D03*
X0110502Y0388514D03*
X0091377Y0388649D03*
D413*
X0100962Y0388559D03*
D414*
X0110502Y0388559D03*
D415*
X0110570Y0388604D03*
X0101075Y0388694D03*
D416*
X0101097Y0388739D03*
X0110592Y0388649D03*
D417*
X0091422Y0388694D03*
D418*
X0091512Y0388829D03*
X0110637Y0388694D03*
D419*
X0091445Y0388739D03*
D420*
X0110660Y0388739D03*
D421*
X0101165Y0388784D03*
X0091490Y0388784D03*
D422*
X0101210Y0388874D03*
X0110705Y0388784D03*
D423*
X0101165Y0388829D03*
D424*
X0110727Y0388829D03*
D425*
X0091557Y0388874D03*
D426*
X0091647Y0389009D03*
X0101277Y0388964D03*
X0110772Y0388874D03*
D427*
X0101255Y0388919D03*
X0091580Y0388919D03*
D428*
X0110795Y0388919D03*
D429*
X0091625Y0388964D03*
D430*
X0091715Y0389099D03*
X0110840Y0388964D03*
D431*
X0101300Y0389009D03*
D432*
X0101367Y0389099D03*
X0110862Y0389009D03*
D433*
X0101367Y0389054D03*
X0091692Y0389054D03*
D434*
X0101412Y0389144D03*
X0110907Y0389054D03*
D435*
X0110930Y0389099D03*
D436*
X0091760Y0389144D03*
D437*
X0091850Y0389279D03*
X0110975Y0389144D03*
D438*
X0101457Y0389189D03*
X0091782Y0389189D03*
D439*
X0110997Y0389189D03*
D440*
X0091827Y0389234D03*
D441*
X0101480Y0389234D03*
D442*
X0111042Y0389234D03*
D443*
X0101502Y0389279D03*
D444*
X0111065Y0389279D03*
D445*
X0101570Y0389324D03*
X0091895Y0389324D03*
D446*
X0091985Y0389459D03*
X0101615Y0389414D03*
X0101660Y0389459D03*
X0111110Y0389324D03*
D447*
X0091917Y0389369D03*
D448*
X0101570Y0389369D03*
D449*
X0111132Y0389369D03*
D450*
X0091962Y0389414D03*
D451*
X0092052Y0389549D03*
X0111177Y0389414D03*
D452*
X0111200Y0389459D03*
X0101705Y0389549D03*
D453*
X0092030Y0389504D03*
D454*
X0101682Y0389504D03*
D455*
X0111245Y0389504D03*
D456*
X0111267Y0389549D03*
X0101772Y0389639D03*
D457*
X0101772Y0389594D03*
X0092097Y0389594D03*
D458*
X0101862Y0389729D03*
X0111312Y0389594D03*
D459*
X0092120Y0389639D03*
D460*
X0111335Y0389639D03*
D461*
X0092165Y0389684D03*
D462*
X0101817Y0389684D03*
D463*
X0101885Y0389774D03*
X0111380Y0389684D03*
D464*
X0092210Y0389729D03*
D465*
X0111402Y0389729D03*
D466*
X0092232Y0389774D03*
D467*
X0092322Y0389909D03*
X0111447Y0389774D03*
D468*
X0092255Y0389819D03*
D469*
X0101907Y0389819D03*
D470*
X0111492Y0389819D03*
D471*
X0101975Y0389864D03*
X0092300Y0389864D03*
D472*
X0101975Y0389909D03*
D473*
X0092367Y0389954D03*
D474*
X0102020Y0389954D03*
D475*
X0102110Y0390089D03*
X0111605Y0389999D03*
X0092480Y0390089D03*
D476*
X0111672Y0390044D03*
D477*
X0111695Y0390089D03*
D478*
X0102177Y0390134D03*
X0092502Y0390134D03*
D479*
X0102222Y0390224D03*
X0111717Y0390134D03*
D480*
X0102177Y0390179D03*
X0092547Y0390179D03*
D481*
X0111762Y0390179D03*
D482*
X0092570Y0390224D03*
D483*
X0092637Y0390314D03*
X0111807Y0390224D03*
D484*
X0092615Y0390269D03*
D485*
X0102267Y0390269D03*
D486*
X0111830Y0390269D03*
D487*
X0102290Y0390314D03*
D488*
X0111875Y0390314D03*
D489*
X0102312Y0390359D03*
X0092682Y0390359D03*
D490*
X0111897Y0390359D03*
D491*
X0102380Y0390404D03*
X0092705Y0390404D03*
D492*
X0092772Y0390494D03*
X0111942Y0390404D03*
D493*
X0102380Y0390449D03*
X0092750Y0390449D03*
D494*
X0102470Y0390539D03*
X0111965Y0390449D03*
D495*
X0102425Y0390494D03*
D496*
X0112010Y0390494D03*
D497*
X0092817Y0390539D03*
D498*
X0102492Y0390584D03*
X0112032Y0390539D03*
D499*
X0112077Y0390584D03*
X0102582Y0390674D03*
X0092907Y0390674D03*
D500*
X0092885Y0390629D03*
X0102515Y0390629D03*
D501*
X0092975Y0390764D03*
X0112145Y0390674D03*
D502*
X0102582Y0390719D03*
D503*
X0112167Y0390719D03*
D504*
X0102672Y0390809D03*
X0102627Y0390764D03*
D505*
X0112212Y0390764D03*
D506*
X0093042Y0390854D03*
D507*
X0102695Y0390854D03*
D508*
X0102717Y0390899D03*
X0093087Y0390899D03*
D509*
X0112302Y0390899D03*
D510*
X0112347Y0390944D03*
D511*
X0102785Y0390989D03*
X0093155Y0390989D03*
D512*
X0112437Y0391079D03*
D513*
X0112550Y0391214D03*
D514*
X0103032Y0391304D03*
D515*
X0103302Y0391664D03*
D516*
X0113157Y0391979D03*
D517*
X0113180Y0392024D03*
D518*
X0113292Y0392159D03*
D519*
X0113315Y0392204D03*
D520*
X0113427Y0392339D03*
X0103842Y0392384D03*
X0094212Y0392384D03*
D521*
X0113495Y0392429D03*
D522*
X0094302Y0392519D03*
D523*
X0113562Y0392564D03*
D524*
X0104090Y0392744D03*
X0094460Y0392744D03*
D525*
X0104112Y0392834D03*
D526*
X0113720Y0392879D03*
D527*
X0094527Y0392969D03*
D528*
X0104180Y0392969D03*
D529*
X0081030Y0284925D02*
X0076159Y0284925D01*
X0078594Y0284925D02*
X0078594Y0277619D01*
X0084078Y0277619D02*
X0084078Y0282489D01*
X0084078Y0280054D02*
X0086513Y0282489D01*
X0087731Y0282489D01*
X0091894Y0282489D02*
X0094330Y0282489D01*
X0095548Y0281272D01*
X0095548Y0277619D01*
X0091894Y0277619D01*
X0090677Y0278836D01*
X0091894Y0280054D01*
X0095548Y0280054D01*
X0098595Y0281272D02*
X0098595Y0278836D01*
X0099813Y0277619D01*
X0103466Y0277619D01*
X0103466Y0282489D02*
X0099813Y0282489D01*
X0098595Y0281272D01*
X0106514Y0281272D02*
X0106514Y0278836D01*
X0107732Y0277619D01*
X0110167Y0277619D01*
X0111385Y0280054D02*
X0106514Y0280054D01*
X0106514Y0281272D02*
X0107732Y0282489D01*
X0110167Y0282489D01*
X0111385Y0281272D01*
X0111385Y0280054D01*
X0114433Y0280054D02*
X0116868Y0282489D01*
X0118086Y0282489D01*
X0114433Y0282489D02*
X0114433Y0277619D01*
X0128951Y0280054D02*
X0131386Y0277619D01*
X0133822Y0280054D01*
X0133822Y0284925D01*
X0136869Y0282489D02*
X0139305Y0284925D01*
X0139305Y0277619D01*
X0141740Y0277619D02*
X0136869Y0277619D01*
X0144788Y0277619D02*
X0146006Y0277619D01*
X0146006Y0278836D01*
X0144788Y0278836D01*
X0144788Y0277619D01*
X0148748Y0277619D02*
X0153618Y0277619D01*
X0151183Y0277619D02*
X0151183Y0284925D01*
X0148748Y0282489D01*
X0128951Y0284925D02*
X0128951Y0280054D01*
X0065192Y0278836D02*
X0063975Y0277619D01*
X0061539Y0277619D01*
X0060321Y0278836D01*
X0060321Y0283707D01*
X0061539Y0284925D01*
X0063975Y0284925D01*
X0065192Y0283707D01*
X0057274Y0284925D02*
X0057274Y0277619D01*
X0054838Y0282489D02*
X0057274Y0284925D01*
X0054838Y0282489D02*
X0052403Y0284925D01*
X0052403Y0277619D01*
X0049355Y0278836D02*
X0049355Y0283707D01*
X0048137Y0284925D01*
X0044484Y0284925D01*
X0044484Y0277619D01*
X0048137Y0277619D01*
X0049355Y0278836D01*
D530*
X0047760Y0164764D02*
X0047760Y0130315D01*
X0057602Y0130315D02*
X0057602Y0164764D01*
X0142248Y0164764D02*
X0142248Y0130315D01*
X0152091Y0130315D02*
X0152091Y0164764D01*
D531*
X0129303Y0018243D02*
X0129303Y0013739D01*
X0126301Y0018243D01*
X0126301Y0013739D01*
X0124147Y0014490D02*
X0124147Y0017492D01*
X0123396Y0018243D01*
X0121895Y0018243D01*
X0121144Y0017492D01*
X0121144Y0014490D01*
X0121895Y0013739D01*
X0123396Y0013739D01*
X0124147Y0014490D01*
X0080326Y0018243D02*
X0077323Y0018243D01*
X0077323Y0013739D01*
X0077323Y0015991D02*
X0078825Y0015991D01*
X0075170Y0018243D02*
X0072167Y0018243D01*
X0072167Y0013739D01*
X0072167Y0015991D02*
X0073668Y0015991D01*
X0070013Y0017492D02*
X0069263Y0018243D01*
X0067761Y0018243D01*
X0067011Y0017492D01*
X0067011Y0014490D01*
X0067761Y0013739D01*
X0069263Y0013739D01*
X0070013Y0014490D01*
X0070013Y0017492D01*
D532*
X0083390Y0016496D02*
X0083390Y0019094D01*
X0083525Y0016500D02*
X0116325Y0016500D01*
X0116067Y0016496D02*
X0116067Y0019094D01*
X0116067Y0030906D02*
X0116067Y0033504D01*
X0116325Y0033500D02*
X0083525Y0033500D01*
X0083390Y0033504D02*
X0083390Y0030906D01*
X0083630Y0117941D02*
X0083630Y0126941D01*
X0087130Y0123941D02*
X0084630Y0120941D01*
X0088630Y0120941D01*
X0085630Y0121441D01*
X0087130Y0122941D01*
X0088130Y0121441D01*
X0087630Y0121441D01*
X0086630Y0121941D01*
X0087130Y0121941D01*
X0087130Y0122441D02*
X0087630Y0121441D01*
X0086130Y0121441D01*
X0086630Y0121941D01*
X0087130Y0122441D01*
X0087130Y0123441D02*
X0088630Y0120941D01*
X0089130Y0120941D01*
X0085130Y0121441D01*
X0087130Y0123441D01*
X0087130Y0123941D02*
X0089130Y0120941D01*
X0089630Y0120941D01*
X0087130Y0123941D01*
X0090630Y0126941D02*
X0090630Y0117941D01*
X0091520Y0150406D02*
X0091520Y0161406D01*
X0096520Y0161406D01*
X0096520Y0150406D01*
X0091520Y0150406D01*
X0099394Y0163201D02*
X0099394Y0174201D01*
X0104394Y0174201D01*
X0104394Y0163201D01*
X0099394Y0163201D01*
X0062681Y0159764D02*
X0042681Y0159764D01*
X0042681Y0169764D01*
X0062681Y0169764D01*
X0062681Y0159764D01*
X0038902Y0150984D02*
X0038902Y0123425D01*
X0011343Y0123425D01*
X0011343Y0150984D01*
X0038902Y0150984D01*
X0029622Y0115114D02*
X0020622Y0115114D01*
X0023622Y0114114D02*
X0023622Y0110114D01*
X0024122Y0113114D01*
X0025622Y0111614D01*
X0024122Y0110614D01*
X0024122Y0111114D01*
X0024622Y0112114D01*
X0024622Y0111614D01*
X0025122Y0111614D02*
X0024122Y0111114D01*
X0024122Y0112614D01*
X0024622Y0112114D01*
X0025122Y0111614D01*
X0026122Y0111614D02*
X0024122Y0113614D01*
X0023622Y0109614D01*
X0026622Y0111614D01*
X0023622Y0114114D01*
X0026122Y0111614D02*
X0023622Y0110114D01*
X0023622Y0109614D01*
X0023622Y0109114D01*
X0026622Y0111614D01*
X0029622Y0108114D02*
X0020622Y0108114D01*
X0026028Y0296339D02*
X0026028Y0336339D01*
X0036028Y0336339D01*
X0036028Y0296339D01*
X0026028Y0296339D01*
X0041307Y0345272D02*
X0041307Y0358272D01*
X0048307Y0358272D01*
X0048307Y0345272D01*
X0041307Y0345272D01*
X0046181Y0375831D02*
X0046181Y0382831D01*
X0059181Y0382831D01*
X0059181Y0375831D01*
X0046181Y0375831D01*
X0069803Y0359209D02*
X0069803Y0352209D01*
X0082803Y0352209D01*
X0082803Y0359209D01*
X0069803Y0359209D01*
X0062536Y0332087D02*
X0057602Y0327153D01*
X0057602Y0305370D01*
X0062382Y0300591D01*
X0084073Y0300591D01*
X0089098Y0305616D01*
X0089098Y0327307D01*
X0084319Y0332087D01*
X0062536Y0332087D01*
X0109768Y0327061D02*
X0109768Y0305370D01*
X0114547Y0300591D01*
X0136330Y0300591D01*
X0141264Y0305525D01*
X0141264Y0327307D01*
X0136484Y0332087D01*
X0114793Y0332087D01*
X0109768Y0327061D01*
X0117047Y0352209D02*
X0117047Y0359209D01*
X0130047Y0359209D01*
X0130047Y0352209D01*
X0117047Y0352209D01*
X0140669Y0375831D02*
X0153669Y0375831D01*
X0153669Y0382831D01*
X0140669Y0382831D01*
X0140669Y0375831D01*
X0151543Y0358272D02*
X0158543Y0358272D01*
X0158543Y0345272D01*
X0151543Y0345272D01*
X0151543Y0358272D01*
X0157169Y0169764D02*
X0137169Y0169764D01*
X0137169Y0159764D01*
X0157169Y0159764D01*
X0157169Y0169764D01*
X0160949Y0150984D02*
X0160949Y0123425D01*
X0188508Y0123425D01*
X0188508Y0150984D01*
X0160949Y0150984D01*
X0170228Y0115114D02*
X0179228Y0115114D01*
X0176228Y0111614D02*
X0173228Y0109614D01*
X0173728Y0113614D01*
X0175728Y0111614D01*
X0173228Y0110114D01*
X0173728Y0113114D01*
X0175228Y0111614D01*
X0173728Y0110614D01*
X0173728Y0111114D01*
X0174228Y0112114D01*
X0174228Y0111614D01*
X0174228Y0112114D02*
X0174728Y0111614D01*
X0173728Y0111114D01*
X0173728Y0112614D01*
X0174228Y0112114D01*
X0176228Y0111614D02*
X0173228Y0109114D01*
X0173228Y0109614D01*
X0173228Y0110114D01*
X0173228Y0114114D01*
X0176228Y0111614D01*
X0179228Y0108114D02*
X0170228Y0108114D01*
D533*
X0021001Y0070476D02*
X0020401Y0071076D01*
X0021001Y0070476D02*
X0022202Y0070476D01*
X0022803Y0071076D01*
X0022803Y0071677D01*
X0022202Y0072277D01*
X0021001Y0072277D01*
X0020401Y0072878D01*
X0020401Y0073478D01*
X0021001Y0074079D01*
X0022202Y0074079D01*
X0022803Y0073478D01*
X0024084Y0074079D02*
X0024084Y0070476D01*
X0025285Y0071677D01*
X0026486Y0070476D01*
X0026486Y0074079D01*
X0027767Y0073478D02*
X0028368Y0074079D01*
X0029569Y0074079D01*
X0030169Y0073478D01*
X0030169Y0072878D01*
X0027767Y0070476D01*
X0030169Y0070476D01*
X0053482Y0031756D02*
X0052881Y0031155D01*
X0052881Y0028753D01*
X0053482Y0028153D01*
X0054683Y0028153D01*
X0055283Y0028753D01*
X0056564Y0028153D02*
X0056564Y0031756D01*
X0058966Y0028153D01*
X0058966Y0031756D01*
X0060247Y0031155D02*
X0060848Y0031756D01*
X0062049Y0031756D01*
X0062649Y0031155D01*
X0062649Y0030555D01*
X0060247Y0028153D01*
X0062649Y0028153D01*
X0055283Y0031155D02*
X0054683Y0031756D01*
X0053482Y0031756D01*
X0083235Y0036942D02*
X0083836Y0036342D01*
X0085037Y0036342D01*
X0085637Y0036942D01*
X0085637Y0037543D01*
X0085037Y0038143D01*
X0083836Y0038143D01*
X0083235Y0038744D01*
X0083235Y0039344D01*
X0083836Y0039945D01*
X0085037Y0039945D01*
X0085637Y0039344D01*
X0086919Y0039945D02*
X0086919Y0036342D01*
X0088120Y0037543D01*
X0089321Y0036342D01*
X0089321Y0039945D01*
X0090602Y0038744D02*
X0091803Y0039945D01*
X0091803Y0036342D01*
X0090602Y0036342D02*
X0093004Y0036342D01*
X0114639Y0088893D02*
X0115840Y0088893D01*
X0116440Y0089493D01*
X0117722Y0088893D02*
X0120124Y0088893D01*
X0118923Y0088893D02*
X0118923Y0092496D01*
X0117722Y0091295D01*
X0116440Y0091895D02*
X0115840Y0092496D01*
X0114639Y0092496D01*
X0114038Y0091895D01*
X0114038Y0089493D01*
X0114639Y0088893D01*
X0138127Y0031756D02*
X0137527Y0031155D01*
X0137527Y0028753D01*
X0138127Y0028153D01*
X0139328Y0028153D01*
X0139929Y0028753D01*
X0141210Y0028153D02*
X0141210Y0031756D01*
X0143612Y0028153D01*
X0143612Y0031756D01*
X0144893Y0030555D02*
X0146094Y0031756D01*
X0146094Y0028153D01*
X0144893Y0028153D02*
X0147295Y0028153D01*
X0139929Y0031155D02*
X0139328Y0031756D01*
X0138127Y0031756D01*
X0170608Y0070476D02*
X0170007Y0071076D01*
X0170608Y0070476D02*
X0171809Y0070476D01*
X0172409Y0071076D01*
X0172409Y0071677D01*
X0171809Y0072277D01*
X0170608Y0072277D01*
X0170007Y0072878D01*
X0170007Y0073478D01*
X0170608Y0074079D01*
X0171809Y0074079D01*
X0172409Y0073478D01*
X0173690Y0074079D02*
X0173690Y0070476D01*
X0174891Y0071677D01*
X0176092Y0070476D01*
X0176092Y0074079D01*
X0177373Y0073478D02*
X0177974Y0074079D01*
X0179175Y0074079D01*
X0179775Y0073478D01*
X0179775Y0072878D01*
X0179175Y0072277D01*
X0179775Y0071677D01*
X0179775Y0071076D01*
X0179175Y0070476D01*
X0177974Y0070476D01*
X0177373Y0071076D01*
X0178574Y0072277D02*
X0179175Y0072277D01*
X0178061Y0117720D02*
X0175659Y0117720D01*
X0178061Y0120122D01*
X0178061Y0120722D01*
X0177460Y0121323D01*
X0176259Y0121323D01*
X0175659Y0120722D01*
X0174378Y0120722D02*
X0173777Y0121323D01*
X0171976Y0121323D01*
X0171976Y0117720D01*
X0173777Y0117720D01*
X0174378Y0118320D01*
X0174378Y0120722D01*
X0182802Y0153153D02*
X0182802Y0156756D01*
X0184604Y0156756D01*
X0185204Y0156155D01*
X0185204Y0154954D01*
X0184604Y0154354D01*
X0182802Y0154354D01*
X0184003Y0154354D02*
X0185204Y0153153D01*
X0186486Y0153153D02*
X0186486Y0153753D01*
X0188888Y0156155D01*
X0188888Y0156756D01*
X0186486Y0156756D01*
X0150876Y0156766D02*
X0150876Y0156165D01*
X0150275Y0155565D01*
X0150876Y0154964D01*
X0150876Y0154363D01*
X0150275Y0153763D01*
X0149074Y0153763D01*
X0148474Y0154363D01*
X0149675Y0155565D02*
X0150275Y0155565D01*
X0150876Y0156766D02*
X0150275Y0157366D01*
X0149074Y0157366D01*
X0148474Y0156766D01*
X0147193Y0157366D02*
X0145992Y0157366D01*
X0146592Y0157366D02*
X0146592Y0154363D01*
X0145992Y0153763D01*
X0145391Y0153763D01*
X0144791Y0154363D01*
X0120124Y0154287D02*
X0120124Y0154888D01*
X0119523Y0155488D01*
X0118322Y0155488D01*
X0117722Y0154888D01*
X0116440Y0154888D02*
X0115840Y0155488D01*
X0114639Y0155488D01*
X0114038Y0154888D01*
X0114038Y0152486D01*
X0114639Y0151885D01*
X0115840Y0151885D01*
X0116440Y0152486D01*
X0117722Y0151885D02*
X0120124Y0154287D01*
X0120124Y0151885D02*
X0117722Y0151885D01*
X0110665Y0170243D02*
X0109464Y0170243D01*
X0108863Y0170844D01*
X0107582Y0170844D02*
X0106982Y0170243D01*
X0105781Y0170243D01*
X0105180Y0170844D01*
X0105180Y0173246D01*
X0105781Y0173846D01*
X0106982Y0173846D01*
X0107582Y0173246D01*
X0108863Y0173246D02*
X0109464Y0173846D01*
X0110665Y0173846D01*
X0111265Y0173246D01*
X0111265Y0172645D01*
X0110665Y0172045D01*
X0111265Y0171444D01*
X0111265Y0170844D01*
X0110665Y0170243D01*
X0110665Y0172045D02*
X0110064Y0172045D01*
X0088480Y0153193D02*
X0088480Y0149590D01*
X0089080Y0151391D02*
X0086678Y0151391D01*
X0088480Y0153193D01*
X0085397Y0152592D02*
X0084797Y0153193D01*
X0083596Y0153193D01*
X0082995Y0152592D01*
X0082995Y0150190D01*
X0083596Y0149590D01*
X0084797Y0149590D01*
X0085397Y0150190D01*
X0080929Y0125353D02*
X0081446Y0124836D01*
X0081446Y0123802D01*
X0080929Y0123285D01*
X0080929Y0122131D02*
X0078860Y0122131D01*
X0078343Y0121614D01*
X0078343Y0120062D01*
X0081446Y0120062D01*
X0081446Y0121614D01*
X0080929Y0122131D01*
X0078860Y0123285D02*
X0078343Y0123802D01*
X0078343Y0124836D01*
X0078860Y0125353D01*
X0079377Y0125353D01*
X0079894Y0124836D01*
X0080411Y0125353D01*
X0080929Y0125353D01*
X0079894Y0124836D02*
X0079894Y0124319D01*
X0056388Y0153763D02*
X0053986Y0153763D01*
X0056388Y0156165D01*
X0056388Y0156766D01*
X0055787Y0157366D01*
X0054586Y0157366D01*
X0053986Y0156766D01*
X0052704Y0157366D02*
X0051503Y0157366D01*
X0052104Y0157366D02*
X0052104Y0154363D01*
X0051503Y0153763D01*
X0050903Y0153763D01*
X0050302Y0154363D01*
X0028454Y0117720D02*
X0026052Y0117720D01*
X0027253Y0117720D02*
X0027253Y0121323D01*
X0026052Y0120122D01*
X0024771Y0120722D02*
X0024171Y0121323D01*
X0022369Y0121323D01*
X0022369Y0117720D01*
X0024171Y0117720D01*
X0024771Y0118320D01*
X0024771Y0120722D01*
X0018011Y0153153D02*
X0016810Y0153153D01*
X0016210Y0153753D01*
X0016210Y0154354D01*
X0016810Y0154954D01*
X0018011Y0154954D01*
X0018612Y0154354D01*
X0018612Y0153753D01*
X0018011Y0153153D01*
X0018011Y0154954D02*
X0018612Y0155555D01*
X0018612Y0156155D01*
X0018011Y0156756D01*
X0016810Y0156756D01*
X0016210Y0156155D01*
X0016210Y0155555D01*
X0016810Y0154954D01*
X0014929Y0154954D02*
X0014328Y0154354D01*
X0012527Y0154354D01*
X0013728Y0154354D02*
X0014929Y0153153D01*
X0014929Y0154954D02*
X0014929Y0156155D01*
X0014328Y0156756D01*
X0012527Y0156756D01*
X0012527Y0153153D01*
X0051897Y0298822D02*
X0054299Y0298822D01*
X0055580Y0298822D02*
X0057982Y0298822D01*
X0056781Y0298822D02*
X0056781Y0302425D01*
X0055580Y0301224D01*
X0051897Y0302425D02*
X0051897Y0298822D01*
X0044960Y0332897D02*
X0044960Y0336500D01*
X0043159Y0334698D01*
X0045561Y0334698D01*
X0041878Y0336500D02*
X0040677Y0336500D01*
X0041277Y0336500D02*
X0041277Y0333497D01*
X0040677Y0332897D01*
X0040076Y0332897D01*
X0039476Y0333497D01*
X0049928Y0346066D02*
X0049928Y0349669D01*
X0051730Y0349669D01*
X0052330Y0349069D01*
X0052330Y0347868D01*
X0051730Y0347267D01*
X0049928Y0347267D01*
X0051129Y0347267D02*
X0052330Y0346066D01*
X0053611Y0346667D02*
X0054212Y0346066D01*
X0055413Y0346066D01*
X0056014Y0346667D01*
X0056014Y0347267D01*
X0055413Y0347868D01*
X0054813Y0347868D01*
X0055413Y0347868D02*
X0056014Y0348468D01*
X0056014Y0349069D01*
X0055413Y0349669D01*
X0054212Y0349669D01*
X0053611Y0349069D01*
X0054212Y0370672D02*
X0053611Y0371273D01*
X0054212Y0370672D02*
X0055413Y0370672D01*
X0056014Y0371273D01*
X0056014Y0372474D01*
X0055413Y0373074D01*
X0054813Y0373074D01*
X0053611Y0372474D01*
X0053611Y0374276D01*
X0056014Y0374276D01*
X0052330Y0373675D02*
X0052330Y0372474D01*
X0051730Y0371873D01*
X0049928Y0371873D01*
X0049928Y0370672D02*
X0049928Y0374276D01*
X0051730Y0374276D01*
X0052330Y0373675D01*
X0051129Y0371873D02*
X0052330Y0370672D01*
X0073550Y0350653D02*
X0073550Y0347050D01*
X0073550Y0348251D02*
X0075352Y0348251D01*
X0075952Y0348852D01*
X0075952Y0350053D01*
X0075352Y0350653D01*
X0073550Y0350653D01*
X0074751Y0348251D02*
X0075952Y0347050D01*
X0077234Y0347050D02*
X0079636Y0347050D01*
X0078435Y0347050D02*
X0078435Y0350653D01*
X0077234Y0349452D01*
X0104062Y0302425D02*
X0104062Y0298822D01*
X0106464Y0298822D01*
X0107745Y0298822D02*
X0110147Y0301224D01*
X0110147Y0301825D01*
X0109547Y0302425D01*
X0108346Y0302425D01*
X0107745Y0301825D01*
X0107745Y0298822D02*
X0110147Y0298822D01*
X0120794Y0347050D02*
X0120794Y0350653D01*
X0122596Y0350653D01*
X0123197Y0350053D01*
X0123197Y0348852D01*
X0122596Y0348251D01*
X0120794Y0348251D01*
X0121996Y0348251D02*
X0123197Y0347050D01*
X0124478Y0347050D02*
X0126880Y0349452D01*
X0126880Y0350053D01*
X0126279Y0350653D01*
X0125078Y0350653D01*
X0124478Y0350053D01*
X0124478Y0347050D02*
X0126880Y0347050D01*
X0144417Y0347267D02*
X0146218Y0347267D01*
X0146819Y0347868D01*
X0146819Y0349069D01*
X0146218Y0349669D01*
X0144417Y0349669D01*
X0144417Y0346066D01*
X0145618Y0347267D02*
X0146819Y0346066D01*
X0148100Y0347868D02*
X0150502Y0347868D01*
X0149901Y0349669D02*
X0149901Y0346066D01*
X0148100Y0347868D02*
X0149901Y0349669D01*
X0149901Y0370672D02*
X0148700Y0370672D01*
X0148100Y0371273D01*
X0148100Y0372474D01*
X0149901Y0372474D01*
X0150502Y0371873D01*
X0150502Y0371273D01*
X0149901Y0370672D01*
X0148100Y0372474D02*
X0149301Y0373675D01*
X0150502Y0374276D01*
X0146819Y0373675D02*
X0146819Y0372474D01*
X0146218Y0371873D01*
X0144417Y0371873D01*
X0145618Y0371873D02*
X0146819Y0370672D01*
X0144417Y0370672D02*
X0144417Y0374276D01*
X0146218Y0374276D01*
X0146819Y0373675D01*
D534*
X0132425Y0170709D02*
X0127425Y0170709D01*
X0118331Y0149705D02*
X0118331Y0141705D01*
X0118331Y0149705D02*
X0096331Y0149705D01*
X0093331Y0146705D01*
X0093331Y0141705D01*
X0093331Y0132705D02*
X0093331Y0127705D01*
X0096331Y0124705D01*
X0118331Y0124705D01*
X0118331Y0132705D01*
X0118331Y0120177D02*
X0118331Y0112177D01*
X0118331Y0120177D02*
X0096331Y0120177D01*
X0093331Y0117177D01*
X0093331Y0112177D01*
X0093331Y0103177D02*
X0093331Y0098177D01*
X0096331Y0095177D01*
X0118331Y0095177D01*
X0118331Y0103177D01*
X0116631Y0112077D02*
X0116520Y0112339D01*
X0116403Y0112599D01*
X0116280Y0112855D01*
X0116151Y0113109D01*
X0116015Y0113359D01*
X0115873Y0113606D01*
X0115726Y0113849D01*
X0115572Y0114089D01*
X0115413Y0114325D01*
X0115247Y0114557D01*
X0115077Y0114785D01*
X0114900Y0115008D01*
X0114719Y0115227D01*
X0114532Y0115442D01*
X0114340Y0115652D01*
X0114143Y0115857D01*
X0113940Y0116058D01*
X0113733Y0116253D01*
X0113522Y0116444D01*
X0113305Y0116629D01*
X0113085Y0116809D01*
X0112860Y0116983D01*
X0112630Y0117152D01*
X0112397Y0117315D01*
X0112160Y0117472D01*
X0111919Y0117624D01*
X0111674Y0117769D01*
X0111426Y0117909D01*
X0111175Y0118043D01*
X0110920Y0118170D01*
X0110663Y0118291D01*
X0110402Y0118406D01*
X0110139Y0118514D01*
X0109873Y0118616D01*
X0109605Y0118711D01*
X0109335Y0118800D01*
X0109062Y0118882D01*
X0108787Y0118958D01*
X0108511Y0119027D01*
X0108233Y0119089D01*
X0107954Y0119144D01*
X0107674Y0119193D01*
X0107392Y0119234D01*
X0107109Y0119269D01*
X0106826Y0119296D01*
X0106542Y0119317D01*
X0106258Y0119331D01*
X0105973Y0119338D01*
X0105689Y0119338D01*
X0105404Y0119331D01*
X0105120Y0119317D01*
X0104836Y0119296D01*
X0104553Y0119269D01*
X0104270Y0119234D01*
X0103988Y0119193D01*
X0103708Y0119144D01*
X0103429Y0119089D01*
X0103151Y0119027D01*
X0102875Y0118958D01*
X0102600Y0118882D01*
X0102327Y0118800D01*
X0102057Y0118711D01*
X0101789Y0118616D01*
X0101523Y0118514D01*
X0101260Y0118406D01*
X0100999Y0118291D01*
X0100742Y0118170D01*
X0100487Y0118043D01*
X0100236Y0117909D01*
X0099988Y0117769D01*
X0099743Y0117624D01*
X0099502Y0117472D01*
X0099265Y0117315D01*
X0099032Y0117152D01*
X0098802Y0116983D01*
X0098577Y0116809D01*
X0098357Y0116629D01*
X0098140Y0116444D01*
X0097929Y0116253D01*
X0097722Y0116058D01*
X0097519Y0115857D01*
X0097322Y0115652D01*
X0097130Y0115442D01*
X0096943Y0115227D01*
X0096762Y0115008D01*
X0096585Y0114785D01*
X0096415Y0114557D01*
X0096249Y0114325D01*
X0096090Y0114089D01*
X0095936Y0113849D01*
X0095789Y0113606D01*
X0095647Y0113359D01*
X0095511Y0113109D01*
X0095382Y0112855D01*
X0095259Y0112599D01*
X0095142Y0112339D01*
X0095031Y0112077D01*
X0095031Y0103277D02*
X0095142Y0103015D01*
X0095259Y0102755D01*
X0095382Y0102499D01*
X0095511Y0102245D01*
X0095647Y0101995D01*
X0095789Y0101748D01*
X0095936Y0101505D01*
X0096090Y0101265D01*
X0096249Y0101029D01*
X0096415Y0100797D01*
X0096585Y0100569D01*
X0096762Y0100346D01*
X0096943Y0100127D01*
X0097130Y0099912D01*
X0097322Y0099702D01*
X0097519Y0099497D01*
X0097722Y0099296D01*
X0097929Y0099101D01*
X0098140Y0098910D01*
X0098357Y0098725D01*
X0098577Y0098545D01*
X0098802Y0098371D01*
X0099032Y0098202D01*
X0099265Y0098039D01*
X0099502Y0097882D01*
X0099743Y0097730D01*
X0099988Y0097585D01*
X0100236Y0097445D01*
X0100487Y0097311D01*
X0100742Y0097184D01*
X0100999Y0097063D01*
X0101260Y0096948D01*
X0101523Y0096840D01*
X0101789Y0096738D01*
X0102057Y0096643D01*
X0102327Y0096554D01*
X0102600Y0096472D01*
X0102875Y0096396D01*
X0103151Y0096327D01*
X0103429Y0096265D01*
X0103708Y0096210D01*
X0103988Y0096161D01*
X0104270Y0096120D01*
X0104553Y0096085D01*
X0104836Y0096058D01*
X0105120Y0096037D01*
X0105404Y0096023D01*
X0105689Y0096016D01*
X0105973Y0096016D01*
X0106258Y0096023D01*
X0106542Y0096037D01*
X0106826Y0096058D01*
X0107109Y0096085D01*
X0107392Y0096120D01*
X0107674Y0096161D01*
X0107954Y0096210D01*
X0108233Y0096265D01*
X0108511Y0096327D01*
X0108787Y0096396D01*
X0109062Y0096472D01*
X0109335Y0096554D01*
X0109605Y0096643D01*
X0109873Y0096738D01*
X0110139Y0096840D01*
X0110402Y0096948D01*
X0110663Y0097063D01*
X0110920Y0097184D01*
X0111175Y0097311D01*
X0111426Y0097445D01*
X0111674Y0097585D01*
X0111919Y0097730D01*
X0112160Y0097882D01*
X0112397Y0098039D01*
X0112630Y0098202D01*
X0112860Y0098371D01*
X0113085Y0098545D01*
X0113305Y0098725D01*
X0113522Y0098910D01*
X0113733Y0099101D01*
X0113940Y0099296D01*
X0114143Y0099497D01*
X0114340Y0099702D01*
X0114532Y0099912D01*
X0114719Y0100127D01*
X0114900Y0100346D01*
X0115077Y0100569D01*
X0115247Y0100797D01*
X0115413Y0101029D01*
X0115572Y0101265D01*
X0115726Y0101505D01*
X0115873Y0101748D01*
X0116015Y0101995D01*
X0116151Y0102245D01*
X0116280Y0102499D01*
X0116403Y0102755D01*
X0116520Y0103015D01*
X0116631Y0103277D01*
X0116631Y0141605D02*
X0116520Y0141867D01*
X0116403Y0142127D01*
X0116280Y0142383D01*
X0116151Y0142637D01*
X0116015Y0142887D01*
X0115873Y0143134D01*
X0115726Y0143377D01*
X0115572Y0143617D01*
X0115413Y0143853D01*
X0115247Y0144085D01*
X0115077Y0144313D01*
X0114900Y0144536D01*
X0114719Y0144755D01*
X0114532Y0144970D01*
X0114340Y0145180D01*
X0114143Y0145385D01*
X0113940Y0145586D01*
X0113733Y0145781D01*
X0113522Y0145972D01*
X0113305Y0146157D01*
X0113085Y0146337D01*
X0112860Y0146511D01*
X0112630Y0146680D01*
X0112397Y0146843D01*
X0112160Y0147000D01*
X0111919Y0147152D01*
X0111674Y0147297D01*
X0111426Y0147437D01*
X0111175Y0147571D01*
X0110920Y0147698D01*
X0110663Y0147819D01*
X0110402Y0147934D01*
X0110139Y0148042D01*
X0109873Y0148144D01*
X0109605Y0148239D01*
X0109335Y0148328D01*
X0109062Y0148410D01*
X0108787Y0148486D01*
X0108511Y0148555D01*
X0108233Y0148617D01*
X0107954Y0148672D01*
X0107674Y0148721D01*
X0107392Y0148762D01*
X0107109Y0148797D01*
X0106826Y0148824D01*
X0106542Y0148845D01*
X0106258Y0148859D01*
X0105973Y0148866D01*
X0105689Y0148866D01*
X0105404Y0148859D01*
X0105120Y0148845D01*
X0104836Y0148824D01*
X0104553Y0148797D01*
X0104270Y0148762D01*
X0103988Y0148721D01*
X0103708Y0148672D01*
X0103429Y0148617D01*
X0103151Y0148555D01*
X0102875Y0148486D01*
X0102600Y0148410D01*
X0102327Y0148328D01*
X0102057Y0148239D01*
X0101789Y0148144D01*
X0101523Y0148042D01*
X0101260Y0147934D01*
X0100999Y0147819D01*
X0100742Y0147698D01*
X0100487Y0147571D01*
X0100236Y0147437D01*
X0099988Y0147297D01*
X0099743Y0147152D01*
X0099502Y0147000D01*
X0099265Y0146843D01*
X0099032Y0146680D01*
X0098802Y0146511D01*
X0098577Y0146337D01*
X0098357Y0146157D01*
X0098140Y0145972D01*
X0097929Y0145781D01*
X0097722Y0145586D01*
X0097519Y0145385D01*
X0097322Y0145180D01*
X0097130Y0144970D01*
X0096943Y0144755D01*
X0096762Y0144536D01*
X0096585Y0144313D01*
X0096415Y0144085D01*
X0096249Y0143853D01*
X0096090Y0143617D01*
X0095936Y0143377D01*
X0095789Y0143134D01*
X0095647Y0142887D01*
X0095511Y0142637D01*
X0095382Y0142383D01*
X0095259Y0142127D01*
X0095142Y0141867D01*
X0095031Y0141605D01*
X0095031Y0132805D02*
X0095142Y0132543D01*
X0095259Y0132283D01*
X0095382Y0132027D01*
X0095511Y0131773D01*
X0095647Y0131523D01*
X0095789Y0131276D01*
X0095936Y0131033D01*
X0096090Y0130793D01*
X0096249Y0130557D01*
X0096415Y0130325D01*
X0096585Y0130097D01*
X0096762Y0129874D01*
X0096943Y0129655D01*
X0097130Y0129440D01*
X0097322Y0129230D01*
X0097519Y0129025D01*
X0097722Y0128824D01*
X0097929Y0128629D01*
X0098140Y0128438D01*
X0098357Y0128253D01*
X0098577Y0128073D01*
X0098802Y0127899D01*
X0099032Y0127730D01*
X0099265Y0127567D01*
X0099502Y0127410D01*
X0099743Y0127258D01*
X0099988Y0127113D01*
X0100236Y0126973D01*
X0100487Y0126839D01*
X0100742Y0126712D01*
X0100999Y0126591D01*
X0101260Y0126476D01*
X0101523Y0126368D01*
X0101789Y0126266D01*
X0102057Y0126171D01*
X0102327Y0126082D01*
X0102600Y0126000D01*
X0102875Y0125924D01*
X0103151Y0125855D01*
X0103429Y0125793D01*
X0103708Y0125738D01*
X0103988Y0125689D01*
X0104270Y0125648D01*
X0104553Y0125613D01*
X0104836Y0125586D01*
X0105120Y0125565D01*
X0105404Y0125551D01*
X0105689Y0125544D01*
X0105973Y0125544D01*
X0106258Y0125551D01*
X0106542Y0125565D01*
X0106826Y0125586D01*
X0107109Y0125613D01*
X0107392Y0125648D01*
X0107674Y0125689D01*
X0107954Y0125738D01*
X0108233Y0125793D01*
X0108511Y0125855D01*
X0108787Y0125924D01*
X0109062Y0126000D01*
X0109335Y0126082D01*
X0109605Y0126171D01*
X0109873Y0126266D01*
X0110139Y0126368D01*
X0110402Y0126476D01*
X0110663Y0126591D01*
X0110920Y0126712D01*
X0111175Y0126839D01*
X0111426Y0126973D01*
X0111674Y0127113D01*
X0111919Y0127258D01*
X0112160Y0127410D01*
X0112397Y0127567D01*
X0112630Y0127730D01*
X0112860Y0127899D01*
X0113085Y0128073D01*
X0113305Y0128253D01*
X0113522Y0128438D01*
X0113733Y0128629D01*
X0113940Y0128824D01*
X0114143Y0129025D01*
X0114340Y0129230D01*
X0114532Y0129440D01*
X0114719Y0129655D01*
X0114900Y0129874D01*
X0115077Y0130097D01*
X0115247Y0130325D01*
X0115413Y0130557D01*
X0115572Y0130793D01*
X0115726Y0131033D01*
X0115873Y0131276D01*
X0116015Y0131523D01*
X0116151Y0131773D01*
X0116280Y0132027D01*
X0116403Y0132283D01*
X0116520Y0132543D01*
X0116631Y0132805D01*
X0072425Y0020728D02*
X0067425Y0020728D01*
D535*
X0099925Y0008750D03*
D536*
X0095004Y0164764D02*
X0083193Y0164764D01*
X0083193Y0172638D01*
X0093823Y0172638D01*
X0095004Y0171457D01*
X0095004Y0164764D01*
D537*
X0037122Y0101961D02*
X0037122Y0077961D01*
X0013122Y0077961D01*
X0013122Y0101961D01*
X0037122Y0101961D01*
X0032622Y0098961D02*
X0032624Y0099038D01*
X0032630Y0099115D01*
X0032640Y0099192D01*
X0032654Y0099268D01*
X0032671Y0099343D01*
X0032693Y0099417D01*
X0032718Y0099490D01*
X0032748Y0099562D01*
X0032780Y0099632D01*
X0032817Y0099700D01*
X0032856Y0099766D01*
X0032899Y0099830D01*
X0032946Y0099892D01*
X0032995Y0099951D01*
X0033048Y0100008D01*
X0033103Y0100062D01*
X0033161Y0100113D01*
X0033222Y0100161D01*
X0033285Y0100206D01*
X0033350Y0100247D01*
X0033417Y0100285D01*
X0033486Y0100320D01*
X0033557Y0100350D01*
X0033629Y0100378D01*
X0033703Y0100401D01*
X0033777Y0100421D01*
X0033853Y0100437D01*
X0033929Y0100449D01*
X0034006Y0100457D01*
X0034083Y0100461D01*
X0034161Y0100461D01*
X0034238Y0100457D01*
X0034315Y0100449D01*
X0034391Y0100437D01*
X0034467Y0100421D01*
X0034541Y0100401D01*
X0034615Y0100378D01*
X0034687Y0100350D01*
X0034758Y0100320D01*
X0034827Y0100285D01*
X0034894Y0100247D01*
X0034959Y0100206D01*
X0035022Y0100161D01*
X0035083Y0100113D01*
X0035141Y0100062D01*
X0035196Y0100008D01*
X0035249Y0099951D01*
X0035298Y0099892D01*
X0035345Y0099830D01*
X0035388Y0099766D01*
X0035427Y0099700D01*
X0035464Y0099632D01*
X0035496Y0099562D01*
X0035526Y0099490D01*
X0035551Y0099417D01*
X0035573Y0099343D01*
X0035590Y0099268D01*
X0035604Y0099192D01*
X0035614Y0099115D01*
X0035620Y0099038D01*
X0035622Y0098961D01*
X0035620Y0098884D01*
X0035614Y0098807D01*
X0035604Y0098730D01*
X0035590Y0098654D01*
X0035573Y0098579D01*
X0035551Y0098505D01*
X0035526Y0098432D01*
X0035496Y0098360D01*
X0035464Y0098290D01*
X0035427Y0098222D01*
X0035388Y0098156D01*
X0035345Y0098092D01*
X0035298Y0098030D01*
X0035249Y0097971D01*
X0035196Y0097914D01*
X0035141Y0097860D01*
X0035083Y0097809D01*
X0035022Y0097761D01*
X0034959Y0097716D01*
X0034894Y0097675D01*
X0034827Y0097637D01*
X0034758Y0097602D01*
X0034687Y0097572D01*
X0034615Y0097544D01*
X0034541Y0097521D01*
X0034467Y0097501D01*
X0034391Y0097485D01*
X0034315Y0097473D01*
X0034238Y0097465D01*
X0034161Y0097461D01*
X0034083Y0097461D01*
X0034006Y0097465D01*
X0033929Y0097473D01*
X0033853Y0097485D01*
X0033777Y0097501D01*
X0033703Y0097521D01*
X0033629Y0097544D01*
X0033557Y0097572D01*
X0033486Y0097602D01*
X0033417Y0097637D01*
X0033350Y0097675D01*
X0033285Y0097716D01*
X0033222Y0097761D01*
X0033161Y0097809D01*
X0033103Y0097860D01*
X0033048Y0097914D01*
X0032995Y0097971D01*
X0032946Y0098030D01*
X0032899Y0098092D01*
X0032856Y0098156D01*
X0032817Y0098222D01*
X0032780Y0098290D01*
X0032748Y0098360D01*
X0032718Y0098432D01*
X0032693Y0098505D01*
X0032671Y0098579D01*
X0032654Y0098654D01*
X0032640Y0098730D01*
X0032630Y0098807D01*
X0032624Y0098884D01*
X0032622Y0098961D01*
X0017622Y0089961D02*
X0017624Y0090145D01*
X0017631Y0090329D01*
X0017642Y0090513D01*
X0017658Y0090696D01*
X0017678Y0090879D01*
X0017703Y0091061D01*
X0017732Y0091243D01*
X0017766Y0091424D01*
X0017804Y0091604D01*
X0017847Y0091783D01*
X0017894Y0091961D01*
X0017945Y0092138D01*
X0018001Y0092314D01*
X0018060Y0092488D01*
X0018125Y0092660D01*
X0018193Y0092831D01*
X0018265Y0093000D01*
X0018342Y0093168D01*
X0018423Y0093333D01*
X0018508Y0093496D01*
X0018596Y0093658D01*
X0018689Y0093817D01*
X0018786Y0093973D01*
X0018886Y0094128D01*
X0018990Y0094280D01*
X0019098Y0094429D01*
X0019209Y0094575D01*
X0019324Y0094719D01*
X0019443Y0094860D01*
X0019565Y0094998D01*
X0019690Y0095133D01*
X0019819Y0095264D01*
X0019950Y0095393D01*
X0020085Y0095518D01*
X0020223Y0095640D01*
X0020364Y0095759D01*
X0020508Y0095874D01*
X0020654Y0095985D01*
X0020803Y0096093D01*
X0020955Y0096197D01*
X0021110Y0096297D01*
X0021266Y0096394D01*
X0021425Y0096487D01*
X0021587Y0096575D01*
X0021750Y0096660D01*
X0021915Y0096741D01*
X0022083Y0096818D01*
X0022252Y0096890D01*
X0022423Y0096958D01*
X0022595Y0097023D01*
X0022769Y0097082D01*
X0022945Y0097138D01*
X0023122Y0097189D01*
X0023300Y0097236D01*
X0023479Y0097279D01*
X0023659Y0097317D01*
X0023840Y0097351D01*
X0024022Y0097380D01*
X0024204Y0097405D01*
X0024387Y0097425D01*
X0024570Y0097441D01*
X0024754Y0097452D01*
X0024938Y0097459D01*
X0025122Y0097461D01*
X0025306Y0097459D01*
X0025490Y0097452D01*
X0025674Y0097441D01*
X0025857Y0097425D01*
X0026040Y0097405D01*
X0026222Y0097380D01*
X0026404Y0097351D01*
X0026585Y0097317D01*
X0026765Y0097279D01*
X0026944Y0097236D01*
X0027122Y0097189D01*
X0027299Y0097138D01*
X0027475Y0097082D01*
X0027649Y0097023D01*
X0027821Y0096958D01*
X0027992Y0096890D01*
X0028161Y0096818D01*
X0028329Y0096741D01*
X0028494Y0096660D01*
X0028657Y0096575D01*
X0028819Y0096487D01*
X0028978Y0096394D01*
X0029134Y0096297D01*
X0029289Y0096197D01*
X0029441Y0096093D01*
X0029590Y0095985D01*
X0029736Y0095874D01*
X0029880Y0095759D01*
X0030021Y0095640D01*
X0030159Y0095518D01*
X0030294Y0095393D01*
X0030425Y0095264D01*
X0030554Y0095133D01*
X0030679Y0094998D01*
X0030801Y0094860D01*
X0030920Y0094719D01*
X0031035Y0094575D01*
X0031146Y0094429D01*
X0031254Y0094280D01*
X0031358Y0094128D01*
X0031458Y0093973D01*
X0031555Y0093817D01*
X0031648Y0093658D01*
X0031736Y0093496D01*
X0031821Y0093333D01*
X0031902Y0093168D01*
X0031979Y0093000D01*
X0032051Y0092831D01*
X0032119Y0092660D01*
X0032184Y0092488D01*
X0032243Y0092314D01*
X0032299Y0092138D01*
X0032350Y0091961D01*
X0032397Y0091783D01*
X0032440Y0091604D01*
X0032478Y0091424D01*
X0032512Y0091243D01*
X0032541Y0091061D01*
X0032566Y0090879D01*
X0032586Y0090696D01*
X0032602Y0090513D01*
X0032613Y0090329D01*
X0032620Y0090145D01*
X0032622Y0089961D01*
X0032620Y0089777D01*
X0032613Y0089593D01*
X0032602Y0089409D01*
X0032586Y0089226D01*
X0032566Y0089043D01*
X0032541Y0088861D01*
X0032512Y0088679D01*
X0032478Y0088498D01*
X0032440Y0088318D01*
X0032397Y0088139D01*
X0032350Y0087961D01*
X0032299Y0087784D01*
X0032243Y0087608D01*
X0032184Y0087434D01*
X0032119Y0087262D01*
X0032051Y0087091D01*
X0031979Y0086922D01*
X0031902Y0086754D01*
X0031821Y0086589D01*
X0031736Y0086426D01*
X0031648Y0086264D01*
X0031555Y0086105D01*
X0031458Y0085949D01*
X0031358Y0085794D01*
X0031254Y0085642D01*
X0031146Y0085493D01*
X0031035Y0085347D01*
X0030920Y0085203D01*
X0030801Y0085062D01*
X0030679Y0084924D01*
X0030554Y0084789D01*
X0030425Y0084658D01*
X0030294Y0084529D01*
X0030159Y0084404D01*
X0030021Y0084282D01*
X0029880Y0084163D01*
X0029736Y0084048D01*
X0029590Y0083937D01*
X0029441Y0083829D01*
X0029289Y0083725D01*
X0029134Y0083625D01*
X0028978Y0083528D01*
X0028819Y0083435D01*
X0028657Y0083347D01*
X0028494Y0083262D01*
X0028329Y0083181D01*
X0028161Y0083104D01*
X0027992Y0083032D01*
X0027821Y0082964D01*
X0027649Y0082899D01*
X0027475Y0082840D01*
X0027299Y0082784D01*
X0027122Y0082733D01*
X0026944Y0082686D01*
X0026765Y0082643D01*
X0026585Y0082605D01*
X0026404Y0082571D01*
X0026222Y0082542D01*
X0026040Y0082517D01*
X0025857Y0082497D01*
X0025674Y0082481D01*
X0025490Y0082470D01*
X0025306Y0082463D01*
X0025122Y0082461D01*
X0024938Y0082463D01*
X0024754Y0082470D01*
X0024570Y0082481D01*
X0024387Y0082497D01*
X0024204Y0082517D01*
X0024022Y0082542D01*
X0023840Y0082571D01*
X0023659Y0082605D01*
X0023479Y0082643D01*
X0023300Y0082686D01*
X0023122Y0082733D01*
X0022945Y0082784D01*
X0022769Y0082840D01*
X0022595Y0082899D01*
X0022423Y0082964D01*
X0022252Y0083032D01*
X0022083Y0083104D01*
X0021915Y0083181D01*
X0021750Y0083262D01*
X0021587Y0083347D01*
X0021425Y0083435D01*
X0021266Y0083528D01*
X0021110Y0083625D01*
X0020955Y0083725D01*
X0020803Y0083829D01*
X0020654Y0083937D01*
X0020508Y0084048D01*
X0020364Y0084163D01*
X0020223Y0084282D01*
X0020085Y0084404D01*
X0019950Y0084529D01*
X0019819Y0084658D01*
X0019690Y0084789D01*
X0019565Y0084924D01*
X0019443Y0085062D01*
X0019324Y0085203D01*
X0019209Y0085347D01*
X0019098Y0085493D01*
X0018990Y0085642D01*
X0018886Y0085794D01*
X0018786Y0085949D01*
X0018689Y0086105D01*
X0018596Y0086264D01*
X0018508Y0086426D01*
X0018423Y0086589D01*
X0018342Y0086754D01*
X0018265Y0086922D01*
X0018193Y0087091D01*
X0018125Y0087262D01*
X0018060Y0087434D01*
X0018001Y0087608D01*
X0017945Y0087784D01*
X0017894Y0087961D01*
X0017847Y0088139D01*
X0017804Y0088318D01*
X0017766Y0088498D01*
X0017732Y0088679D01*
X0017703Y0088861D01*
X0017678Y0089043D01*
X0017658Y0089226D01*
X0017642Y0089409D01*
X0017631Y0089593D01*
X0017624Y0089777D01*
X0017622Y0089961D01*
X0014622Y0098961D02*
X0014624Y0099038D01*
X0014630Y0099115D01*
X0014640Y0099192D01*
X0014654Y0099268D01*
X0014671Y0099343D01*
X0014693Y0099417D01*
X0014718Y0099490D01*
X0014748Y0099562D01*
X0014780Y0099632D01*
X0014817Y0099700D01*
X0014856Y0099766D01*
X0014899Y0099830D01*
X0014946Y0099892D01*
X0014995Y0099951D01*
X0015048Y0100008D01*
X0015103Y0100062D01*
X0015161Y0100113D01*
X0015222Y0100161D01*
X0015285Y0100206D01*
X0015350Y0100247D01*
X0015417Y0100285D01*
X0015486Y0100320D01*
X0015557Y0100350D01*
X0015629Y0100378D01*
X0015703Y0100401D01*
X0015777Y0100421D01*
X0015853Y0100437D01*
X0015929Y0100449D01*
X0016006Y0100457D01*
X0016083Y0100461D01*
X0016161Y0100461D01*
X0016238Y0100457D01*
X0016315Y0100449D01*
X0016391Y0100437D01*
X0016467Y0100421D01*
X0016541Y0100401D01*
X0016615Y0100378D01*
X0016687Y0100350D01*
X0016758Y0100320D01*
X0016827Y0100285D01*
X0016894Y0100247D01*
X0016959Y0100206D01*
X0017022Y0100161D01*
X0017083Y0100113D01*
X0017141Y0100062D01*
X0017196Y0100008D01*
X0017249Y0099951D01*
X0017298Y0099892D01*
X0017345Y0099830D01*
X0017388Y0099766D01*
X0017427Y0099700D01*
X0017464Y0099632D01*
X0017496Y0099562D01*
X0017526Y0099490D01*
X0017551Y0099417D01*
X0017573Y0099343D01*
X0017590Y0099268D01*
X0017604Y0099192D01*
X0017614Y0099115D01*
X0017620Y0099038D01*
X0017622Y0098961D01*
X0017620Y0098884D01*
X0017614Y0098807D01*
X0017604Y0098730D01*
X0017590Y0098654D01*
X0017573Y0098579D01*
X0017551Y0098505D01*
X0017526Y0098432D01*
X0017496Y0098360D01*
X0017464Y0098290D01*
X0017427Y0098222D01*
X0017388Y0098156D01*
X0017345Y0098092D01*
X0017298Y0098030D01*
X0017249Y0097971D01*
X0017196Y0097914D01*
X0017141Y0097860D01*
X0017083Y0097809D01*
X0017022Y0097761D01*
X0016959Y0097716D01*
X0016894Y0097675D01*
X0016827Y0097637D01*
X0016758Y0097602D01*
X0016687Y0097572D01*
X0016615Y0097544D01*
X0016541Y0097521D01*
X0016467Y0097501D01*
X0016391Y0097485D01*
X0016315Y0097473D01*
X0016238Y0097465D01*
X0016161Y0097461D01*
X0016083Y0097461D01*
X0016006Y0097465D01*
X0015929Y0097473D01*
X0015853Y0097485D01*
X0015777Y0097501D01*
X0015703Y0097521D01*
X0015629Y0097544D01*
X0015557Y0097572D01*
X0015486Y0097602D01*
X0015417Y0097637D01*
X0015350Y0097675D01*
X0015285Y0097716D01*
X0015222Y0097761D01*
X0015161Y0097809D01*
X0015103Y0097860D01*
X0015048Y0097914D01*
X0014995Y0097971D01*
X0014946Y0098030D01*
X0014899Y0098092D01*
X0014856Y0098156D01*
X0014817Y0098222D01*
X0014780Y0098290D01*
X0014748Y0098360D01*
X0014718Y0098432D01*
X0014693Y0098505D01*
X0014671Y0098579D01*
X0014654Y0098654D01*
X0014640Y0098730D01*
X0014630Y0098807D01*
X0014624Y0098884D01*
X0014622Y0098961D01*
X0014622Y0080961D02*
X0014624Y0081038D01*
X0014630Y0081115D01*
X0014640Y0081192D01*
X0014654Y0081268D01*
X0014671Y0081343D01*
X0014693Y0081417D01*
X0014718Y0081490D01*
X0014748Y0081562D01*
X0014780Y0081632D01*
X0014817Y0081700D01*
X0014856Y0081766D01*
X0014899Y0081830D01*
X0014946Y0081892D01*
X0014995Y0081951D01*
X0015048Y0082008D01*
X0015103Y0082062D01*
X0015161Y0082113D01*
X0015222Y0082161D01*
X0015285Y0082206D01*
X0015350Y0082247D01*
X0015417Y0082285D01*
X0015486Y0082320D01*
X0015557Y0082350D01*
X0015629Y0082378D01*
X0015703Y0082401D01*
X0015777Y0082421D01*
X0015853Y0082437D01*
X0015929Y0082449D01*
X0016006Y0082457D01*
X0016083Y0082461D01*
X0016161Y0082461D01*
X0016238Y0082457D01*
X0016315Y0082449D01*
X0016391Y0082437D01*
X0016467Y0082421D01*
X0016541Y0082401D01*
X0016615Y0082378D01*
X0016687Y0082350D01*
X0016758Y0082320D01*
X0016827Y0082285D01*
X0016894Y0082247D01*
X0016959Y0082206D01*
X0017022Y0082161D01*
X0017083Y0082113D01*
X0017141Y0082062D01*
X0017196Y0082008D01*
X0017249Y0081951D01*
X0017298Y0081892D01*
X0017345Y0081830D01*
X0017388Y0081766D01*
X0017427Y0081700D01*
X0017464Y0081632D01*
X0017496Y0081562D01*
X0017526Y0081490D01*
X0017551Y0081417D01*
X0017573Y0081343D01*
X0017590Y0081268D01*
X0017604Y0081192D01*
X0017614Y0081115D01*
X0017620Y0081038D01*
X0017622Y0080961D01*
X0017620Y0080884D01*
X0017614Y0080807D01*
X0017604Y0080730D01*
X0017590Y0080654D01*
X0017573Y0080579D01*
X0017551Y0080505D01*
X0017526Y0080432D01*
X0017496Y0080360D01*
X0017464Y0080290D01*
X0017427Y0080222D01*
X0017388Y0080156D01*
X0017345Y0080092D01*
X0017298Y0080030D01*
X0017249Y0079971D01*
X0017196Y0079914D01*
X0017141Y0079860D01*
X0017083Y0079809D01*
X0017022Y0079761D01*
X0016959Y0079716D01*
X0016894Y0079675D01*
X0016827Y0079637D01*
X0016758Y0079602D01*
X0016687Y0079572D01*
X0016615Y0079544D01*
X0016541Y0079521D01*
X0016467Y0079501D01*
X0016391Y0079485D01*
X0016315Y0079473D01*
X0016238Y0079465D01*
X0016161Y0079461D01*
X0016083Y0079461D01*
X0016006Y0079465D01*
X0015929Y0079473D01*
X0015853Y0079485D01*
X0015777Y0079501D01*
X0015703Y0079521D01*
X0015629Y0079544D01*
X0015557Y0079572D01*
X0015486Y0079602D01*
X0015417Y0079637D01*
X0015350Y0079675D01*
X0015285Y0079716D01*
X0015222Y0079761D01*
X0015161Y0079809D01*
X0015103Y0079860D01*
X0015048Y0079914D01*
X0014995Y0079971D01*
X0014946Y0080030D01*
X0014899Y0080092D01*
X0014856Y0080156D01*
X0014817Y0080222D01*
X0014780Y0080290D01*
X0014748Y0080360D01*
X0014718Y0080432D01*
X0014693Y0080505D01*
X0014671Y0080579D01*
X0014654Y0080654D01*
X0014640Y0080730D01*
X0014630Y0080807D01*
X0014624Y0080884D01*
X0014622Y0080961D01*
X0032622Y0080961D02*
X0032624Y0081038D01*
X0032630Y0081115D01*
X0032640Y0081192D01*
X0032654Y0081268D01*
X0032671Y0081343D01*
X0032693Y0081417D01*
X0032718Y0081490D01*
X0032748Y0081562D01*
X0032780Y0081632D01*
X0032817Y0081700D01*
X0032856Y0081766D01*
X0032899Y0081830D01*
X0032946Y0081892D01*
X0032995Y0081951D01*
X0033048Y0082008D01*
X0033103Y0082062D01*
X0033161Y0082113D01*
X0033222Y0082161D01*
X0033285Y0082206D01*
X0033350Y0082247D01*
X0033417Y0082285D01*
X0033486Y0082320D01*
X0033557Y0082350D01*
X0033629Y0082378D01*
X0033703Y0082401D01*
X0033777Y0082421D01*
X0033853Y0082437D01*
X0033929Y0082449D01*
X0034006Y0082457D01*
X0034083Y0082461D01*
X0034161Y0082461D01*
X0034238Y0082457D01*
X0034315Y0082449D01*
X0034391Y0082437D01*
X0034467Y0082421D01*
X0034541Y0082401D01*
X0034615Y0082378D01*
X0034687Y0082350D01*
X0034758Y0082320D01*
X0034827Y0082285D01*
X0034894Y0082247D01*
X0034959Y0082206D01*
X0035022Y0082161D01*
X0035083Y0082113D01*
X0035141Y0082062D01*
X0035196Y0082008D01*
X0035249Y0081951D01*
X0035298Y0081892D01*
X0035345Y0081830D01*
X0035388Y0081766D01*
X0035427Y0081700D01*
X0035464Y0081632D01*
X0035496Y0081562D01*
X0035526Y0081490D01*
X0035551Y0081417D01*
X0035573Y0081343D01*
X0035590Y0081268D01*
X0035604Y0081192D01*
X0035614Y0081115D01*
X0035620Y0081038D01*
X0035622Y0080961D01*
X0035620Y0080884D01*
X0035614Y0080807D01*
X0035604Y0080730D01*
X0035590Y0080654D01*
X0035573Y0080579D01*
X0035551Y0080505D01*
X0035526Y0080432D01*
X0035496Y0080360D01*
X0035464Y0080290D01*
X0035427Y0080222D01*
X0035388Y0080156D01*
X0035345Y0080092D01*
X0035298Y0080030D01*
X0035249Y0079971D01*
X0035196Y0079914D01*
X0035141Y0079860D01*
X0035083Y0079809D01*
X0035022Y0079761D01*
X0034959Y0079716D01*
X0034894Y0079675D01*
X0034827Y0079637D01*
X0034758Y0079602D01*
X0034687Y0079572D01*
X0034615Y0079544D01*
X0034541Y0079521D01*
X0034467Y0079501D01*
X0034391Y0079485D01*
X0034315Y0079473D01*
X0034238Y0079465D01*
X0034161Y0079461D01*
X0034083Y0079461D01*
X0034006Y0079465D01*
X0033929Y0079473D01*
X0033853Y0079485D01*
X0033777Y0079501D01*
X0033703Y0079521D01*
X0033629Y0079544D01*
X0033557Y0079572D01*
X0033486Y0079602D01*
X0033417Y0079637D01*
X0033350Y0079675D01*
X0033285Y0079716D01*
X0033222Y0079761D01*
X0033161Y0079809D01*
X0033103Y0079860D01*
X0033048Y0079914D01*
X0032995Y0079971D01*
X0032946Y0080030D01*
X0032899Y0080092D01*
X0032856Y0080156D01*
X0032817Y0080222D01*
X0032780Y0080290D01*
X0032748Y0080360D01*
X0032718Y0080432D01*
X0032693Y0080505D01*
X0032671Y0080579D01*
X0032654Y0080654D01*
X0032640Y0080730D01*
X0032630Y0080807D01*
X0032624Y0080884D01*
X0032622Y0080961D01*
X0162728Y0077961D02*
X0186728Y0077961D01*
X0186728Y0101961D01*
X0162728Y0101961D01*
X0162728Y0077961D01*
X0164228Y0080961D02*
X0164230Y0081038D01*
X0164236Y0081115D01*
X0164246Y0081192D01*
X0164260Y0081268D01*
X0164277Y0081343D01*
X0164299Y0081417D01*
X0164324Y0081490D01*
X0164354Y0081562D01*
X0164386Y0081632D01*
X0164423Y0081700D01*
X0164462Y0081766D01*
X0164505Y0081830D01*
X0164552Y0081892D01*
X0164601Y0081951D01*
X0164654Y0082008D01*
X0164709Y0082062D01*
X0164767Y0082113D01*
X0164828Y0082161D01*
X0164891Y0082206D01*
X0164956Y0082247D01*
X0165023Y0082285D01*
X0165092Y0082320D01*
X0165163Y0082350D01*
X0165235Y0082378D01*
X0165309Y0082401D01*
X0165383Y0082421D01*
X0165459Y0082437D01*
X0165535Y0082449D01*
X0165612Y0082457D01*
X0165689Y0082461D01*
X0165767Y0082461D01*
X0165844Y0082457D01*
X0165921Y0082449D01*
X0165997Y0082437D01*
X0166073Y0082421D01*
X0166147Y0082401D01*
X0166221Y0082378D01*
X0166293Y0082350D01*
X0166364Y0082320D01*
X0166433Y0082285D01*
X0166500Y0082247D01*
X0166565Y0082206D01*
X0166628Y0082161D01*
X0166689Y0082113D01*
X0166747Y0082062D01*
X0166802Y0082008D01*
X0166855Y0081951D01*
X0166904Y0081892D01*
X0166951Y0081830D01*
X0166994Y0081766D01*
X0167033Y0081700D01*
X0167070Y0081632D01*
X0167102Y0081562D01*
X0167132Y0081490D01*
X0167157Y0081417D01*
X0167179Y0081343D01*
X0167196Y0081268D01*
X0167210Y0081192D01*
X0167220Y0081115D01*
X0167226Y0081038D01*
X0167228Y0080961D01*
X0167226Y0080884D01*
X0167220Y0080807D01*
X0167210Y0080730D01*
X0167196Y0080654D01*
X0167179Y0080579D01*
X0167157Y0080505D01*
X0167132Y0080432D01*
X0167102Y0080360D01*
X0167070Y0080290D01*
X0167033Y0080222D01*
X0166994Y0080156D01*
X0166951Y0080092D01*
X0166904Y0080030D01*
X0166855Y0079971D01*
X0166802Y0079914D01*
X0166747Y0079860D01*
X0166689Y0079809D01*
X0166628Y0079761D01*
X0166565Y0079716D01*
X0166500Y0079675D01*
X0166433Y0079637D01*
X0166364Y0079602D01*
X0166293Y0079572D01*
X0166221Y0079544D01*
X0166147Y0079521D01*
X0166073Y0079501D01*
X0165997Y0079485D01*
X0165921Y0079473D01*
X0165844Y0079465D01*
X0165767Y0079461D01*
X0165689Y0079461D01*
X0165612Y0079465D01*
X0165535Y0079473D01*
X0165459Y0079485D01*
X0165383Y0079501D01*
X0165309Y0079521D01*
X0165235Y0079544D01*
X0165163Y0079572D01*
X0165092Y0079602D01*
X0165023Y0079637D01*
X0164956Y0079675D01*
X0164891Y0079716D01*
X0164828Y0079761D01*
X0164767Y0079809D01*
X0164709Y0079860D01*
X0164654Y0079914D01*
X0164601Y0079971D01*
X0164552Y0080030D01*
X0164505Y0080092D01*
X0164462Y0080156D01*
X0164423Y0080222D01*
X0164386Y0080290D01*
X0164354Y0080360D01*
X0164324Y0080432D01*
X0164299Y0080505D01*
X0164277Y0080579D01*
X0164260Y0080654D01*
X0164246Y0080730D01*
X0164236Y0080807D01*
X0164230Y0080884D01*
X0164228Y0080961D01*
X0167228Y0089961D02*
X0167230Y0090145D01*
X0167237Y0090329D01*
X0167248Y0090513D01*
X0167264Y0090696D01*
X0167284Y0090879D01*
X0167309Y0091061D01*
X0167338Y0091243D01*
X0167372Y0091424D01*
X0167410Y0091604D01*
X0167453Y0091783D01*
X0167500Y0091961D01*
X0167551Y0092138D01*
X0167607Y0092314D01*
X0167666Y0092488D01*
X0167731Y0092660D01*
X0167799Y0092831D01*
X0167871Y0093000D01*
X0167948Y0093168D01*
X0168029Y0093333D01*
X0168114Y0093496D01*
X0168202Y0093658D01*
X0168295Y0093817D01*
X0168392Y0093973D01*
X0168492Y0094128D01*
X0168596Y0094280D01*
X0168704Y0094429D01*
X0168815Y0094575D01*
X0168930Y0094719D01*
X0169049Y0094860D01*
X0169171Y0094998D01*
X0169296Y0095133D01*
X0169425Y0095264D01*
X0169556Y0095393D01*
X0169691Y0095518D01*
X0169829Y0095640D01*
X0169970Y0095759D01*
X0170114Y0095874D01*
X0170260Y0095985D01*
X0170409Y0096093D01*
X0170561Y0096197D01*
X0170716Y0096297D01*
X0170872Y0096394D01*
X0171031Y0096487D01*
X0171193Y0096575D01*
X0171356Y0096660D01*
X0171521Y0096741D01*
X0171689Y0096818D01*
X0171858Y0096890D01*
X0172029Y0096958D01*
X0172201Y0097023D01*
X0172375Y0097082D01*
X0172551Y0097138D01*
X0172728Y0097189D01*
X0172906Y0097236D01*
X0173085Y0097279D01*
X0173265Y0097317D01*
X0173446Y0097351D01*
X0173628Y0097380D01*
X0173810Y0097405D01*
X0173993Y0097425D01*
X0174176Y0097441D01*
X0174360Y0097452D01*
X0174544Y0097459D01*
X0174728Y0097461D01*
X0174912Y0097459D01*
X0175096Y0097452D01*
X0175280Y0097441D01*
X0175463Y0097425D01*
X0175646Y0097405D01*
X0175828Y0097380D01*
X0176010Y0097351D01*
X0176191Y0097317D01*
X0176371Y0097279D01*
X0176550Y0097236D01*
X0176728Y0097189D01*
X0176905Y0097138D01*
X0177081Y0097082D01*
X0177255Y0097023D01*
X0177427Y0096958D01*
X0177598Y0096890D01*
X0177767Y0096818D01*
X0177935Y0096741D01*
X0178100Y0096660D01*
X0178263Y0096575D01*
X0178425Y0096487D01*
X0178584Y0096394D01*
X0178740Y0096297D01*
X0178895Y0096197D01*
X0179047Y0096093D01*
X0179196Y0095985D01*
X0179342Y0095874D01*
X0179486Y0095759D01*
X0179627Y0095640D01*
X0179765Y0095518D01*
X0179900Y0095393D01*
X0180031Y0095264D01*
X0180160Y0095133D01*
X0180285Y0094998D01*
X0180407Y0094860D01*
X0180526Y0094719D01*
X0180641Y0094575D01*
X0180752Y0094429D01*
X0180860Y0094280D01*
X0180964Y0094128D01*
X0181064Y0093973D01*
X0181161Y0093817D01*
X0181254Y0093658D01*
X0181342Y0093496D01*
X0181427Y0093333D01*
X0181508Y0093168D01*
X0181585Y0093000D01*
X0181657Y0092831D01*
X0181725Y0092660D01*
X0181790Y0092488D01*
X0181849Y0092314D01*
X0181905Y0092138D01*
X0181956Y0091961D01*
X0182003Y0091783D01*
X0182046Y0091604D01*
X0182084Y0091424D01*
X0182118Y0091243D01*
X0182147Y0091061D01*
X0182172Y0090879D01*
X0182192Y0090696D01*
X0182208Y0090513D01*
X0182219Y0090329D01*
X0182226Y0090145D01*
X0182228Y0089961D01*
X0182226Y0089777D01*
X0182219Y0089593D01*
X0182208Y0089409D01*
X0182192Y0089226D01*
X0182172Y0089043D01*
X0182147Y0088861D01*
X0182118Y0088679D01*
X0182084Y0088498D01*
X0182046Y0088318D01*
X0182003Y0088139D01*
X0181956Y0087961D01*
X0181905Y0087784D01*
X0181849Y0087608D01*
X0181790Y0087434D01*
X0181725Y0087262D01*
X0181657Y0087091D01*
X0181585Y0086922D01*
X0181508Y0086754D01*
X0181427Y0086589D01*
X0181342Y0086426D01*
X0181254Y0086264D01*
X0181161Y0086105D01*
X0181064Y0085949D01*
X0180964Y0085794D01*
X0180860Y0085642D01*
X0180752Y0085493D01*
X0180641Y0085347D01*
X0180526Y0085203D01*
X0180407Y0085062D01*
X0180285Y0084924D01*
X0180160Y0084789D01*
X0180031Y0084658D01*
X0179900Y0084529D01*
X0179765Y0084404D01*
X0179627Y0084282D01*
X0179486Y0084163D01*
X0179342Y0084048D01*
X0179196Y0083937D01*
X0179047Y0083829D01*
X0178895Y0083725D01*
X0178740Y0083625D01*
X0178584Y0083528D01*
X0178425Y0083435D01*
X0178263Y0083347D01*
X0178100Y0083262D01*
X0177935Y0083181D01*
X0177767Y0083104D01*
X0177598Y0083032D01*
X0177427Y0082964D01*
X0177255Y0082899D01*
X0177081Y0082840D01*
X0176905Y0082784D01*
X0176728Y0082733D01*
X0176550Y0082686D01*
X0176371Y0082643D01*
X0176191Y0082605D01*
X0176010Y0082571D01*
X0175828Y0082542D01*
X0175646Y0082517D01*
X0175463Y0082497D01*
X0175280Y0082481D01*
X0175096Y0082470D01*
X0174912Y0082463D01*
X0174728Y0082461D01*
X0174544Y0082463D01*
X0174360Y0082470D01*
X0174176Y0082481D01*
X0173993Y0082497D01*
X0173810Y0082517D01*
X0173628Y0082542D01*
X0173446Y0082571D01*
X0173265Y0082605D01*
X0173085Y0082643D01*
X0172906Y0082686D01*
X0172728Y0082733D01*
X0172551Y0082784D01*
X0172375Y0082840D01*
X0172201Y0082899D01*
X0172029Y0082964D01*
X0171858Y0083032D01*
X0171689Y0083104D01*
X0171521Y0083181D01*
X0171356Y0083262D01*
X0171193Y0083347D01*
X0171031Y0083435D01*
X0170872Y0083528D01*
X0170716Y0083625D01*
X0170561Y0083725D01*
X0170409Y0083829D01*
X0170260Y0083937D01*
X0170114Y0084048D01*
X0169970Y0084163D01*
X0169829Y0084282D01*
X0169691Y0084404D01*
X0169556Y0084529D01*
X0169425Y0084658D01*
X0169296Y0084789D01*
X0169171Y0084924D01*
X0169049Y0085062D01*
X0168930Y0085203D01*
X0168815Y0085347D01*
X0168704Y0085493D01*
X0168596Y0085642D01*
X0168492Y0085794D01*
X0168392Y0085949D01*
X0168295Y0086105D01*
X0168202Y0086264D01*
X0168114Y0086426D01*
X0168029Y0086589D01*
X0167948Y0086754D01*
X0167871Y0086922D01*
X0167799Y0087091D01*
X0167731Y0087262D01*
X0167666Y0087434D01*
X0167607Y0087608D01*
X0167551Y0087784D01*
X0167500Y0087961D01*
X0167453Y0088139D01*
X0167410Y0088318D01*
X0167372Y0088498D01*
X0167338Y0088679D01*
X0167309Y0088861D01*
X0167284Y0089043D01*
X0167264Y0089226D01*
X0167248Y0089409D01*
X0167237Y0089593D01*
X0167230Y0089777D01*
X0167228Y0089961D01*
X0164228Y0098961D02*
X0164230Y0099038D01*
X0164236Y0099115D01*
X0164246Y0099192D01*
X0164260Y0099268D01*
X0164277Y0099343D01*
X0164299Y0099417D01*
X0164324Y0099490D01*
X0164354Y0099562D01*
X0164386Y0099632D01*
X0164423Y0099700D01*
X0164462Y0099766D01*
X0164505Y0099830D01*
X0164552Y0099892D01*
X0164601Y0099951D01*
X0164654Y0100008D01*
X0164709Y0100062D01*
X0164767Y0100113D01*
X0164828Y0100161D01*
X0164891Y0100206D01*
X0164956Y0100247D01*
X0165023Y0100285D01*
X0165092Y0100320D01*
X0165163Y0100350D01*
X0165235Y0100378D01*
X0165309Y0100401D01*
X0165383Y0100421D01*
X0165459Y0100437D01*
X0165535Y0100449D01*
X0165612Y0100457D01*
X0165689Y0100461D01*
X0165767Y0100461D01*
X0165844Y0100457D01*
X0165921Y0100449D01*
X0165997Y0100437D01*
X0166073Y0100421D01*
X0166147Y0100401D01*
X0166221Y0100378D01*
X0166293Y0100350D01*
X0166364Y0100320D01*
X0166433Y0100285D01*
X0166500Y0100247D01*
X0166565Y0100206D01*
X0166628Y0100161D01*
X0166689Y0100113D01*
X0166747Y0100062D01*
X0166802Y0100008D01*
X0166855Y0099951D01*
X0166904Y0099892D01*
X0166951Y0099830D01*
X0166994Y0099766D01*
X0167033Y0099700D01*
X0167070Y0099632D01*
X0167102Y0099562D01*
X0167132Y0099490D01*
X0167157Y0099417D01*
X0167179Y0099343D01*
X0167196Y0099268D01*
X0167210Y0099192D01*
X0167220Y0099115D01*
X0167226Y0099038D01*
X0167228Y0098961D01*
X0167226Y0098884D01*
X0167220Y0098807D01*
X0167210Y0098730D01*
X0167196Y0098654D01*
X0167179Y0098579D01*
X0167157Y0098505D01*
X0167132Y0098432D01*
X0167102Y0098360D01*
X0167070Y0098290D01*
X0167033Y0098222D01*
X0166994Y0098156D01*
X0166951Y0098092D01*
X0166904Y0098030D01*
X0166855Y0097971D01*
X0166802Y0097914D01*
X0166747Y0097860D01*
X0166689Y0097809D01*
X0166628Y0097761D01*
X0166565Y0097716D01*
X0166500Y0097675D01*
X0166433Y0097637D01*
X0166364Y0097602D01*
X0166293Y0097572D01*
X0166221Y0097544D01*
X0166147Y0097521D01*
X0166073Y0097501D01*
X0165997Y0097485D01*
X0165921Y0097473D01*
X0165844Y0097465D01*
X0165767Y0097461D01*
X0165689Y0097461D01*
X0165612Y0097465D01*
X0165535Y0097473D01*
X0165459Y0097485D01*
X0165383Y0097501D01*
X0165309Y0097521D01*
X0165235Y0097544D01*
X0165163Y0097572D01*
X0165092Y0097602D01*
X0165023Y0097637D01*
X0164956Y0097675D01*
X0164891Y0097716D01*
X0164828Y0097761D01*
X0164767Y0097809D01*
X0164709Y0097860D01*
X0164654Y0097914D01*
X0164601Y0097971D01*
X0164552Y0098030D01*
X0164505Y0098092D01*
X0164462Y0098156D01*
X0164423Y0098222D01*
X0164386Y0098290D01*
X0164354Y0098360D01*
X0164324Y0098432D01*
X0164299Y0098505D01*
X0164277Y0098579D01*
X0164260Y0098654D01*
X0164246Y0098730D01*
X0164236Y0098807D01*
X0164230Y0098884D01*
X0164228Y0098961D01*
X0182228Y0098961D02*
X0182230Y0099038D01*
X0182236Y0099115D01*
X0182246Y0099192D01*
X0182260Y0099268D01*
X0182277Y0099343D01*
X0182299Y0099417D01*
X0182324Y0099490D01*
X0182354Y0099562D01*
X0182386Y0099632D01*
X0182423Y0099700D01*
X0182462Y0099766D01*
X0182505Y0099830D01*
X0182552Y0099892D01*
X0182601Y0099951D01*
X0182654Y0100008D01*
X0182709Y0100062D01*
X0182767Y0100113D01*
X0182828Y0100161D01*
X0182891Y0100206D01*
X0182956Y0100247D01*
X0183023Y0100285D01*
X0183092Y0100320D01*
X0183163Y0100350D01*
X0183235Y0100378D01*
X0183309Y0100401D01*
X0183383Y0100421D01*
X0183459Y0100437D01*
X0183535Y0100449D01*
X0183612Y0100457D01*
X0183689Y0100461D01*
X0183767Y0100461D01*
X0183844Y0100457D01*
X0183921Y0100449D01*
X0183997Y0100437D01*
X0184073Y0100421D01*
X0184147Y0100401D01*
X0184221Y0100378D01*
X0184293Y0100350D01*
X0184364Y0100320D01*
X0184433Y0100285D01*
X0184500Y0100247D01*
X0184565Y0100206D01*
X0184628Y0100161D01*
X0184689Y0100113D01*
X0184747Y0100062D01*
X0184802Y0100008D01*
X0184855Y0099951D01*
X0184904Y0099892D01*
X0184951Y0099830D01*
X0184994Y0099766D01*
X0185033Y0099700D01*
X0185070Y0099632D01*
X0185102Y0099562D01*
X0185132Y0099490D01*
X0185157Y0099417D01*
X0185179Y0099343D01*
X0185196Y0099268D01*
X0185210Y0099192D01*
X0185220Y0099115D01*
X0185226Y0099038D01*
X0185228Y0098961D01*
X0185226Y0098884D01*
X0185220Y0098807D01*
X0185210Y0098730D01*
X0185196Y0098654D01*
X0185179Y0098579D01*
X0185157Y0098505D01*
X0185132Y0098432D01*
X0185102Y0098360D01*
X0185070Y0098290D01*
X0185033Y0098222D01*
X0184994Y0098156D01*
X0184951Y0098092D01*
X0184904Y0098030D01*
X0184855Y0097971D01*
X0184802Y0097914D01*
X0184747Y0097860D01*
X0184689Y0097809D01*
X0184628Y0097761D01*
X0184565Y0097716D01*
X0184500Y0097675D01*
X0184433Y0097637D01*
X0184364Y0097602D01*
X0184293Y0097572D01*
X0184221Y0097544D01*
X0184147Y0097521D01*
X0184073Y0097501D01*
X0183997Y0097485D01*
X0183921Y0097473D01*
X0183844Y0097465D01*
X0183767Y0097461D01*
X0183689Y0097461D01*
X0183612Y0097465D01*
X0183535Y0097473D01*
X0183459Y0097485D01*
X0183383Y0097501D01*
X0183309Y0097521D01*
X0183235Y0097544D01*
X0183163Y0097572D01*
X0183092Y0097602D01*
X0183023Y0097637D01*
X0182956Y0097675D01*
X0182891Y0097716D01*
X0182828Y0097761D01*
X0182767Y0097809D01*
X0182709Y0097860D01*
X0182654Y0097914D01*
X0182601Y0097971D01*
X0182552Y0098030D01*
X0182505Y0098092D01*
X0182462Y0098156D01*
X0182423Y0098222D01*
X0182386Y0098290D01*
X0182354Y0098360D01*
X0182324Y0098432D01*
X0182299Y0098505D01*
X0182277Y0098579D01*
X0182260Y0098654D01*
X0182246Y0098730D01*
X0182236Y0098807D01*
X0182230Y0098884D01*
X0182228Y0098961D01*
X0182228Y0080961D02*
X0182230Y0081038D01*
X0182236Y0081115D01*
X0182246Y0081192D01*
X0182260Y0081268D01*
X0182277Y0081343D01*
X0182299Y0081417D01*
X0182324Y0081490D01*
X0182354Y0081562D01*
X0182386Y0081632D01*
X0182423Y0081700D01*
X0182462Y0081766D01*
X0182505Y0081830D01*
X0182552Y0081892D01*
X0182601Y0081951D01*
X0182654Y0082008D01*
X0182709Y0082062D01*
X0182767Y0082113D01*
X0182828Y0082161D01*
X0182891Y0082206D01*
X0182956Y0082247D01*
X0183023Y0082285D01*
X0183092Y0082320D01*
X0183163Y0082350D01*
X0183235Y0082378D01*
X0183309Y0082401D01*
X0183383Y0082421D01*
X0183459Y0082437D01*
X0183535Y0082449D01*
X0183612Y0082457D01*
X0183689Y0082461D01*
X0183767Y0082461D01*
X0183844Y0082457D01*
X0183921Y0082449D01*
X0183997Y0082437D01*
X0184073Y0082421D01*
X0184147Y0082401D01*
X0184221Y0082378D01*
X0184293Y0082350D01*
X0184364Y0082320D01*
X0184433Y0082285D01*
X0184500Y0082247D01*
X0184565Y0082206D01*
X0184628Y0082161D01*
X0184689Y0082113D01*
X0184747Y0082062D01*
X0184802Y0082008D01*
X0184855Y0081951D01*
X0184904Y0081892D01*
X0184951Y0081830D01*
X0184994Y0081766D01*
X0185033Y0081700D01*
X0185070Y0081632D01*
X0185102Y0081562D01*
X0185132Y0081490D01*
X0185157Y0081417D01*
X0185179Y0081343D01*
X0185196Y0081268D01*
X0185210Y0081192D01*
X0185220Y0081115D01*
X0185226Y0081038D01*
X0185228Y0080961D01*
X0185226Y0080884D01*
X0185220Y0080807D01*
X0185210Y0080730D01*
X0185196Y0080654D01*
X0185179Y0080579D01*
X0185157Y0080505D01*
X0185132Y0080432D01*
X0185102Y0080360D01*
X0185070Y0080290D01*
X0185033Y0080222D01*
X0184994Y0080156D01*
X0184951Y0080092D01*
X0184904Y0080030D01*
X0184855Y0079971D01*
X0184802Y0079914D01*
X0184747Y0079860D01*
X0184689Y0079809D01*
X0184628Y0079761D01*
X0184565Y0079716D01*
X0184500Y0079675D01*
X0184433Y0079637D01*
X0184364Y0079602D01*
X0184293Y0079572D01*
X0184221Y0079544D01*
X0184147Y0079521D01*
X0184073Y0079501D01*
X0183997Y0079485D01*
X0183921Y0079473D01*
X0183844Y0079465D01*
X0183767Y0079461D01*
X0183689Y0079461D01*
X0183612Y0079465D01*
X0183535Y0079473D01*
X0183459Y0079485D01*
X0183383Y0079501D01*
X0183309Y0079521D01*
X0183235Y0079544D01*
X0183163Y0079572D01*
X0183092Y0079602D01*
X0183023Y0079637D01*
X0182956Y0079675D01*
X0182891Y0079716D01*
X0182828Y0079761D01*
X0182767Y0079809D01*
X0182709Y0079860D01*
X0182654Y0079914D01*
X0182601Y0079971D01*
X0182552Y0080030D01*
X0182505Y0080092D01*
X0182462Y0080156D01*
X0182423Y0080222D01*
X0182386Y0080290D01*
X0182354Y0080360D01*
X0182324Y0080432D01*
X0182299Y0080505D01*
X0182277Y0080579D01*
X0182260Y0080654D01*
X0182246Y0080730D01*
X0182236Y0080807D01*
X0182230Y0080884D01*
X0182228Y0080961D01*
M02*
